<svg width="328" height="200" viewBox="0 0 328 200" fill="none" xmlns="http://www.w3.org/2000/svg">
<rect x="0.195312" width="57" height="57" rx="28.5" fill="#F4A022"/>
<path d="M30.9988 39C30.7988 39 30.6388 38.94 30.5188 38.82C30.3988 38.7 30.3388 38.54 30.3388 38.34V20.46L24.9688 24.6C24.8088 24.72 24.6388 24.77 24.4588 24.75C24.2988 24.73 24.1588 24.64 24.0388 24.48L23.7087 24.06C23.5888 23.9 23.5388 23.74 23.5588 23.58C23.5788 23.4 23.6688 23.25 23.8288 23.13L30.2188 18.21C30.3587 18.11 30.4888 18.05 30.6088 18.03C30.7288 18.01 30.8588 18 30.9988 18H31.5688C31.7688 18 31.9288 18.06 32.0488 18.18C32.1688 18.3 32.2288 18.46 32.2288 18.66V38.34C32.2288 38.54 32.1688 38.7 32.0488 38.82C31.9288 38.94 31.7688 39 31.5688 39H30.9988Z" fill="black"/>
<g clip-path="url(#clip0_1_3937)">
<path d="M278.011 197.094L273.96 197.093L272.033 181.468L278.012 181.469L278.011 197.094Z" fill="#FFB6B6"/>
<path d="M264.132 197.002C264.006 197.214 263.939 197.9 263.939 198.147C263.939 198.906 264.555 199.522 265.314 199.522H277.86C278.378 199.522 278.797 199.102 278.797 198.584V198.062C278.797 198.062 279.418 196.492 278.14 194.557C278.14 194.557 276.552 196.072 274.179 193.699L273.48 192.432L268.414 196.136L265.607 196.482C264.993 196.557 264.448 196.47 264.132 197.002Z" fill="#2F2E41"/>
<path d="M259.593 197.094L255.542 197.093L253.615 181.468L259.594 181.469L259.593 197.094Z" fill="#FFB6B6"/>
<path d="M245.714 197.002C245.588 197.214 245.521 197.9 245.521 198.147C245.521 198.906 246.137 199.522 246.896 199.522H259.442C259.96 199.522 260.379 199.102 260.379 198.584V198.062C260.379 198.062 261 196.492 259.722 194.557C259.722 194.557 258.134 196.072 255.761 193.699L255.062 192.432L249.997 196.136L247.189 196.482C246.575 196.557 246.03 196.47 245.714 197.002Z" fill="#2F2E41"/>
<path d="M284.512 99.5427L256.321 100.294L253.448 107.06L249.932 151.037L252.939 189.752H261.717V153.213L268.349 130.74L270.981 188.625L280.043 189.752L283.76 149.91L287.143 111.947L284.512 99.5427Z" fill="#2F2E41"/>
<path d="M274.495 49.1758L264.723 49.5517L263.595 54.0621C263.595 54.0621 251.567 57.445 252.319 61.9555C253.071 66.466 256.829 86.3872 256.829 86.3872C256.829 86.3872 252.695 99.1669 255.326 100.67C257.957 102.174 285.07 100.67 285.07 100.67C285.07 100.67 287.275 95.0323 286.148 94.2806C285.02 93.5288 289.53 57.445 288.779 56.6932C288.027 55.9415 275.623 52.1828 275.623 52.1828L274.495 49.1758Z" fill="#F4A022"/>
<path d="M293.664 86.7631L294.416 92.0253L286.146 110.819L282.012 108.564L286.522 90.8977L287.274 84.132L293.664 86.7631Z" fill="#FFB6B6"/>
<path d="M285.771 57.0691C285.771 57.0691 289.905 55.1897 292.912 61.9554C295.919 68.7211 295.167 83.3802 295.167 83.3802C295.167 83.3802 296.295 84.5078 295.543 85.2595C294.792 86.0113 293.363 84.2424 294.792 86.6328C295.543 87.8907 297.799 87.5148 295.543 87.8907C293.288 88.2665 294.078 87.2161 294.792 88.6424C295.167 89.3941 296.671 89.3941 295.167 89.77C293.664 90.1459 286.099 89.5007 286.099 89.5007C286.099 89.5007 283.515 88.2665 285.019 87.5148C286.522 86.763 287.274 86.6151 286.522 86.3132C285.771 86.0113 283.891 86.0113 285.019 84.8837C286.147 83.7561 286.898 83.7561 286.147 83.7561C285.395 83.7561 284.549 81.9448 284.549 81.9448L285.771 57.0691Z" fill="#F4A022"/>
<path d="M285.676 113.973C286.592 111.231 286.015 108.568 284.387 108.024C282.759 107.481 280.697 109.262 279.781 112.004C278.866 114.745 279.443 117.408 281.07 117.952C282.698 118.496 284.76 116.714 285.676 113.973Z" fill="#FFB6B6"/>
<path d="M241.305 84.9827L238.315 89.3777L219.542 97.6934L218.006 93.2411L233.242 83.2261L238.356 78.7332L241.305 84.9827Z" fill="#FFB6B6"/>
<path d="M255.478 57.7224C255.478 57.7224 259.8 59.1195 257.463 66.1449C255.127 73.1704 244.694 83.496 244.694 83.496C244.694 83.496 244.768 85.089 243.706 85.138C242.644 85.1869 242.78 82.9173 242.225 85.6462C241.933 87.0822 243.853 88.324 241.933 87.0822C240.013 85.8404 241.305 85.5967 240.871 87.1312C240.642 87.9399 241.753 88.9529 240.389 88.2177C239.025 87.4824 233.869 81.9084 233.869 81.9084C233.869 81.9084 232.792 79.2558 234.409 79.7133C236.027 80.1708 236.682 80.568 236.33 79.8384C235.978 79.1088 234.589 77.8426 236.182 77.7691C237.775 77.6956 238.33 78.2021 237.775 77.6956C237.219 77.1891 237.815 75.2807 237.815 75.2807L255.478 57.7224Z" fill="#F4A022"/>
<path d="M217.068 99.7066C219.592 98.2979 220.96 95.941 220.123 94.4424C219.287 92.9438 216.563 92.871 214.039 94.2797C211.515 95.6884 210.147 98.0453 210.983 99.5439C211.82 101.042 214.544 101.115 217.068 99.7066Z" fill="#FFB6B6"/>
<path d="M270.037 47.3385C275.022 47.3385 279.063 43.297 279.063 38.3117C279.063 33.3263 275.022 29.2849 270.037 29.2849C265.051 29.2849 261.01 33.3263 261.01 38.3117C261.01 43.297 265.051 47.3385 270.037 47.3385Z" fill="#FFB6B6"/>
<path d="M262.825 31.0512C263.284 29.7485 264.559 28.9582 265.94 28.9889C265.998 28.9902 266.057 28.9897 266.115 28.9873C266.81 28.9589 267.478 28.7213 268.159 28.582C269.43 28.3223 270.771 28.4092 271.997 28.831C272.379 28.9621 272.76 29.127 273.164 29.127C273.567 29.1271 274.006 28.906 274.104 28.515C274.128 28.869 274.151 29.223 274.174 29.577C274.305 29.2905 274.437 29.0039 274.568 28.7174L274.831 29.8601L275.673 28.9051C275.597 29.326 275.843 29.7503 276.175 30.0194C276.507 30.2885 276.918 30.4374 277.311 30.605C279.009 31.3287 280.603 32.61 281.092 34.3897C281.401 35.514 281.24 36.7073 281.076 37.8618C280.931 38.8824 280.774 39.9383 280.219 40.8071C279.863 41.364 279.351 41.8327 279.134 42.457C278.932 43.039 279.009 43.7052 278.721 44.2502C278.433 44.7975 277.838 45.1072 277.255 45.3152C276.672 45.5232 276.053 45.6703 275.551 46.0322C275.05 46.3942 274.467 47.4368 273.374 47.3807L273.021 46.7179C272.658 46.4221 274.001 46.6566 274.015 46.1886C274.029 45.7206 272.399 45.4315 272.63 45.0243C272.985 44.3998 273.464 43.8564 273.863 43.2596C274.33 42.5617 274.697 41.7463 274.536 40.8946C274.474 40.5632 274.319 40.2502 274.082 40.0095C273.401 39.3157 272.642 39.6206 271.904 39.7199C271.396 39.7884 270.788 39.7093 270.524 39.2693C270.215 38.7545 270.56 38.0996 270.517 37.5007C270.473 36.8661 269.992 36.3457 269.469 35.9839C268.946 35.6221 268.351 35.3585 267.881 34.9306C267.41 34.5027 267.484 34.7247 267.69 34.1225C264.19 36.7473 264.707 32.2152 262.357 32.7817C262.469 32.1941 262.626 31.6152 262.825 31.0512L262.825 31.0512Z" fill="#2F2E41"/>
<path d="M219.593 192.452C218.673 192.933 217.753 193.583 217.056 194.734C216.924 194.95 216.807 195.186 216.698 195.431C217.007 193.231 217.623 191.161 218.512 189.437C218.84 188.801 218.289 187.868 217.959 188.509V188.509C216.55 189.241 215.957 190.952 215.73 192.978C215.45 192.253 215.106 191.598 214.704 191.053C214.54 190.83 214.311 190.783 214.151 191.053C214.014 191.283 213.986 191.757 214.151 191.981C213.545 195.165 215.11 196.151 215.65 197.737C215.662 198.088 215.675 198.435 215.687 198.774C215.699 199.111 215.826 199.311 215.975 199.379C216.047 199.567 216.177 199.696 216.309 199.696C216.53 199.696 216.688 199.395 216.7 199.04C216.743 197.736 216.877 195.473 217.651 195.593C219.299 195.849 219.375 194.515 219.801 193.718C220.135 193.091 220.075 192.2 219.593 192.452H219.593Z" fill="#E6E6E6"/>
<path d="M302.491 192.452C303.411 192.933 304.331 193.583 305.028 194.734C305.159 194.95 305.276 195.186 305.386 195.431C305.077 193.231 304.46 191.161 303.571 189.437C303.244 188.801 303.794 187.868 304.124 188.509V188.509C305.533 189.241 306.127 190.952 306.353 192.978C306.633 192.253 306.978 191.598 307.38 191.053C307.544 190.83 307.772 190.783 307.933 191.053C308.07 191.283 308.098 191.757 307.933 191.981C308.539 195.165 306.974 196.151 306.434 197.737C306.422 198.088 306.409 198.435 306.397 198.774C306.385 199.111 306.257 199.311 306.109 199.379C306.037 199.567 305.907 199.696 305.775 199.696C305.553 199.696 305.395 199.395 305.384 199.04C305.34 197.736 305.207 195.473 304.433 195.593C302.784 195.849 302.708 194.515 302.283 193.718C301.948 193.091 302.008 192.2 302.491 192.452Z" fill="#E6E6E6"/>
<path d="M150.336 199.479C150.336 199.768 150.568 200 150.857 200H327.283C327.572 200 327.804 199.768 327.804 199.479C327.804 199.191 327.572 198.959 327.283 198.959H150.857C150.568 198.959 150.336 199.191 150.336 199.479Z" fill="#CCCCCC"/>
<path d="M172.829 200H95.6491C86.2383 200 78.582 192.344 78.582 182.933V17.0671C78.582 7.65631 86.2383 0 95.6491 0H172.829C182.24 0 189.896 7.65631 189.896 17.0671V182.933C189.896 192.344 182.24 200 172.829 200Z" fill="#3F3D56"/>
<path d="M189.898 61.0109C189.5 61.0109 189.176 61.3347 189.176 61.7329V84.8376C189.176 85.2358 189.5 85.5596 189.898 85.5596C190.296 85.5596 190.62 85.2358 190.62 84.8376V61.7329C190.62 61.3347 190.296 61.0109 189.898 61.0109Z" fill="#3F3D56"/>
<path d="M188.272 17.0672V182.93C188.272 191.121 181.897 197.822 173.835 198.341H173.832C173.713 198.349 173.593 198.356 173.471 198.359C173.258 198.37 173.045 198.374 172.828 198.374C172.828 198.374 172.034 198.316 170.583 198.208C169.117 198.1 166.983 197.937 164.323 197.724C163.525 197.663 162.684 197.594 161.796 197.522C160.027 197.378 158.084 197.219 156.001 197.038C155.171 196.97 154.312 196.894 153.435 196.818C148.951 196.432 143.929 195.98 138.633 195.468C137.738 195.385 136.835 195.298 135.926 195.208C135.687 195.183 135.445 195.161 135.204 195.136C131.427 194.764 80.207 184.865 80.207 182.93V17.0672C80.207 8.53653 87.1204 1.62317 95.6511 1.62317H104.871C106.344 1.62317 107.528 2.77118 107.655 4.2405C107.665 4.33798 107.676 4.43543 107.694 4.53291C107.962 6.00946 109.315 7.03833 110.817 7.03833H157.662C159.164 7.03833 160.518 6.00946 160.785 4.53291C160.803 4.43543 160.814 4.33798 160.825 4.2405C160.951 2.77118 162.135 1.62317 163.608 1.62317H172.828C181.359 1.62317 188.272 8.53653 188.272 17.0672H188.272Z" fill="white"/>
<path d="M78.222 43.6824C77.8238 43.6824 77.5 44.0062 77.5 44.4044V50.1806C77.5 50.5788 77.8238 50.9026 78.222 50.9026C78.6202 50.9026 78.944 50.5788 78.944 50.1806V44.4044C78.944 44.0062 78.6202 43.6824 78.222 43.6824Z" fill="#3F3D56"/>
<path d="M78.222 61.0109C77.8238 61.0109 77.5 61.3347 77.5 61.7329V72.9242C77.5 73.3224 77.8238 73.6462 78.222 73.6462C78.6202 73.6462 78.944 73.3224 78.944 72.9242V61.7329C78.944 61.3347 78.6202 61.0109 78.222 61.0109Z" fill="#3F3D56"/>
<path d="M78.222 76.8953C77.8238 76.8953 77.5 77.2191 77.5 77.6173V88.8086C77.5 89.2068 77.8238 89.5306 78.222 89.5306C78.6202 89.5306 78.944 89.2068 78.944 88.8086V77.6173C78.944 77.2191 78.6202 76.8953 78.222 76.8953Z" fill="#3F3D56"/>
<path d="M104.621 4.15173H90.8134C90.7385 4.15173 90.6777 4.21249 90.6777 4.28744V5.82108C90.6777 5.89603 90.7385 5.95679 90.8134 5.95679H104.621C104.696 5.95679 104.757 5.89603 104.757 5.82108V4.28744C104.757 4.21249 104.696 4.15173 104.621 4.15173Z" fill="#E6E6E6"/>
<path d="M165.889 5.95669C166.687 5.95669 167.333 5.31017 167.333 4.51265C167.333 3.71512 166.687 3.0686 165.889 3.0686C165.092 3.0686 164.445 3.71512 164.445 4.51265C164.445 5.31017 165.092 5.95669 165.889 5.95669Z" fill="#E6E6E6"/>
<path d="M169.862 5.95669C170.66 5.95669 171.306 5.31017 171.306 4.51265C171.306 3.71512 170.66 3.0686 169.862 3.0686C169.064 3.0686 168.418 3.71512 168.418 4.51265C168.418 5.31017 169.064 5.95669 169.862 5.95669Z" fill="#E6E6E6"/>
<path d="M173.833 5.95669C174.63 5.95669 175.277 5.31017 175.277 4.51265C175.277 3.71512 174.63 3.0686 173.833 3.0686C173.035 3.0686 172.389 3.71512 172.389 4.51265C172.389 5.31017 173.035 5.95669 173.833 5.95669Z" fill="#E6E6E6"/>
<path d="M184.369 190.55L187.701 189.711L185.425 174.327L180.508 175.565L184.369 190.55Z" fill="#FFB6B6"/>
<path d="M197.641 194.31C197.796 194.869 197.525 195.433 197.035 195.568L190.464 197.389C190.464 197.389 189.097 194.969 186.151 194.581L186.999 198.349L183.609 199.288L182.364 193.196C182.364 193.196 180.571 190.249 182.001 188.092C183.431 185.935 181.969 186.586 181.969 186.586L181.684 182.68L186.974 181.863L188.621 187.661L192.704 192.738L196.849 193.529C197.218 193.599 197.529 193.906 197.641 194.31H197.641Z" fill="#2F2E41"/>
<path d="M152.455 187.877L155.668 189.097L162.608 175.18L157.867 173.38L152.455 187.877Z" fill="#FFB6B6"/>
<path d="M161.185 198.557C160.992 199.104 160.447 199.411 159.968 199.242L153.538 196.973C153.538 196.973 153.803 194.206 151.609 192.201L150.147 195.777L146.83 194.607L149.296 188.898C149.296 188.898 149.513 185.455 151.92 184.506C154.327 183.556 152.756 183.252 152.756 183.252L154.759 179.887L159.563 182.245L157.595 187.942L158.037 194.442L160.983 197.463C161.245 197.732 161.325 198.162 161.185 198.557L161.185 198.557Z" fill="#2F2E41"/>
<path d="M166.404 50.2898H149.355C149.38 49.4899 149.209 48.6899 148.859 47.9733C148.851 48.7691 148.672 49.5649 148.343 50.2898H147.568C146.384 50.2898 145.422 49.3274 145.422 48.1441V37.0655C145.422 31.6408 149.684 27.1702 155.101 26.9119C155.263 26.9036 155.421 26.8994 155.584 26.8994C159.996 26.8994 163.938 29.7618 165.279 34.0032C167.25 33.0949 168.429 38.2571 169.212 46.4567C169.808 48.3566 168.392 50.2898 166.404 50.2898Z" fill="#2F2E41"/>
<path d="M199.86 113.629C200.705 115.632 200.357 117.693 199.082 118.23C197.807 118.768 196.088 117.58 195.243 115.576C194.873 114.699 194.732 113.811 194.797 113.045L191.322 104.51L195.362 102.965L198.359 111.543C198.953 112.031 199.49 112.752 199.86 113.629Z" fill="#FFB6B6"/>
<path d="M162.503 46.54L154.353 48.2448L155.603 51.9946L153.104 80.6742L157.27 89.9092L182.685 87.826L176.436 75.3267C176.436 75.3267 178.935 64.9106 175.602 62.8273C172.269 60.7441 166.853 50.328 166.853 50.328L162.503 46.54V46.54Z" fill="#F4A022"/>
<path d="M154.907 49.9032L147.688 52.8279L150.188 89.4927L144.771 121.158L162.271 124.074C162.271 124.074 160.187 54.0779 158.937 52.8279C157.687 51.578 154.907 49.9032 154.907 49.9032V49.9032Z" fill="#2F2E41"/>
<path d="M169.047 54.4771C169.047 54.4771 173.744 51.505 176.282 53.7056C178.82 55.9061 198.36 109.101 198.36 109.101L193.089 111.391L181.003 86.0476L169.047 54.4771H169.047Z" fill="#2F2E41"/>
<path d="M182.503 144.102L187.269 180.738L180.603 181.154C180.603 181.154 177.136 171.697 173.183 160.556C172.341 158.193 171.478 155.756 170.624 153.314C169.699 150.664 168.779 148.015 167.904 145.456C165.741 139.148 163.846 133.407 162.762 129.657C162.575 128.999 162.408 128.403 162.271 127.878C159.354 116.679 157.688 87.4094 157.688 87.4094L181.853 85.3262L182.111 85.647L187.269 92.0925L187.028 93.4549L180.603 129.491L182.503 144.102L182.503 144.102Z" fill="#2F2E41"/>
<path d="M180.602 129.491L182.502 144.102L173.957 159.147L173.182 160.556L161.416 181.938L155.604 178.642C155.604 178.642 163.166 161.264 167.903 145.456C168.428 143.719 168.915 141.998 169.353 140.323C170.64 135.419 168.532 126.47 169.357 124.003C172.144 115.679 181.227 99.0255 185.444 91.4801L187.027 93.455L180.602 129.491Z" fill="#2F2E41"/>
<path d="M166.748 50.0111L175.187 53.2445L197.269 117.824L183.936 119.908L177.686 82.4097L166.748 50.0111Z" fill="#2F2E41"/>
<path d="M145.65 119.72C145.435 121.884 144.145 123.527 142.768 123.391C141.391 123.254 140.449 121.389 140.663 119.225C140.757 118.278 141.057 117.43 141.481 116.788L142.506 107.63L146.793 108.203L145.328 117.17C145.616 117.883 145.744 118.773 145.65 119.72V119.72Z" fill="#FFB6B6"/>
<path d="M150.604 52.8279C150.604 52.8279 145.188 51.578 143.521 54.4945C141.855 57.411 141.021 114.075 141.021 114.075L146.753 114.491L149.771 86.5761L150.604 52.8279V52.8279Z" fill="#2F2E41"/>
<path d="M157.516 45.5297C162.3 45.5297 166.177 41.652 166.177 36.8687C166.177 32.0854 162.3 28.2078 157.516 28.2078C152.733 28.2078 148.855 32.0854 148.855 36.8687C148.855 41.652 152.733 45.5297 157.516 45.5297Z" fill="#FFB6B6"/>
<path d="M168.39 36.124C168.39 36.124 164.171 34.874 161.645 36.124C158.134 37.861 149.172 36.124 149.172 36.124V32.2087C149.172 29.923 150.874 27.995 153.142 27.7115L159.61 26.903C164.687 26.2684 169.171 30.227 169.171 35.3434V35.3434C169.171 35.7745 168.821 36.124 168.39 36.124Z" fill="#2F2E41"/>
<path d="M159.171 50.2898H149.355C149.38 49.4899 149.209 48.6899 148.859 47.9733C148.851 48.7691 148.672 49.5649 148.343 50.2898H147.922V32.7908H155.421L159.171 50.2898Z" fill="#2F2E41"/>
</g>
<defs>
<clipPath id="clip0_1_3937">
<rect width="250.609" height="200" fill="white" transform="translate(77.1953)"/>
</clipPath>
</defs>
</svg>
