<svg width="308" height="200" viewBox="0 0 308 200" fill="none" xmlns="http://www.w3.org/2000/svg">
<rect x="0.804688" width="57" height="57" rx="28.5" fill="#F4A022"/>
<path d="M23.1311 39C22.9311 39 22.7711 38.94 22.6511 38.82C22.5311 38.7 22.4711 38.54 22.4711 38.34V37.89C22.4711 37.69 22.5211 37.5 22.6211 37.32C22.7411 37.12 22.9411 36.89 23.2211 36.63L30.9911 28.86C31.7511 28.16 32.3311 27.55 32.7311 27.03C33.1311 26.51 33.4011 26 33.5411 25.5C33.7011 24.98 33.7811 24.41 33.7811 23.79C33.7811 22.45 33.3911 21.4 32.6111 20.64C31.8511 19.88 30.7611 19.5 29.3411 19.5C28.4411 19.5 27.6611 19.68 27.0011 20.04C26.3411 20.4 25.8211 20.91 25.4411 21.57C25.0611 22.21 24.8111 22.96 24.6911 23.82C24.6711 24.06 24.5811 24.24 24.4211 24.36C24.2611 24.46 24.1211 24.51 24.0011 24.51H23.4011C23.2011 24.51 23.0411 24.46 22.9211 24.36C22.8211 24.24 22.7711 24.1 22.7711 23.94C22.7911 23.26 22.9311 22.56 23.1911 21.84C23.4511 21.1 23.8411 20.42 24.3611 19.8C24.9011 19.18 25.5811 18.68 26.4011 18.3C27.2211 17.9 28.2011 17.7 29.3411 17.7C30.8611 17.7 32.0811 17.99 33.0011 18.57C33.9411 19.15 34.6211 19.9 35.0411 20.82C35.4611 21.74 35.6711 22.73 35.6711 23.79C35.6711 24.61 35.5511 25.37 35.3111 26.07C35.0711 26.75 34.7111 27.42 34.2311 28.08C33.7511 28.72 33.1411 29.38 32.4011 30.06L25.3811 37.2H35.4311C35.6511 37.2 35.8211 37.26 35.9411 37.38C36.0611 37.5 36.1211 37.67 36.1211 37.89V38.34C36.1211 38.54 36.0611 38.7 35.9411 38.82C35.8211 38.94 35.6511 39 35.4311 39H23.1311Z" fill="black"/>
<g clip-path="url(#clip0_1_3997)">
<path d="M267.936 178.289L268.311 169.296C272.224 167.067 276.587 165.89 281.023 165.867C274.918 171.186 275.681 181.44 271.542 188.593C270.235 190.814 268.476 192.693 266.395 194.09C264.314 195.488 261.965 196.368 259.521 196.666L254.412 200C253.711 195.835 253.866 191.558 254.865 187.462C255.865 183.367 257.685 179.552 260.202 176.278C261.63 174.457 263.269 172.835 265.078 171.45C266.302 174.888 267.936 178.289 267.936 178.289Z" fill="#F2F2F2"/>
<path d="M92.5381 98.3426C92.2006 98.0143 91.9346 97.6111 91.7591 97.1614C91.5836 96.7117 91.5027 96.2265 91.5222 95.7399C91.5416 95.2533 91.661 94.7772 91.8718 94.345C92.0826 93.9129 92.3797 93.5353 92.7423 93.2388L89.2422 82.0028L94.8173 83.599L97.2863 94.0242C97.7133 94.7063 97.8907 95.5317 97.7849 96.3439C97.679 97.1561 97.2973 97.8987 96.712 98.431C96.1267 98.9633 95.3786 99.2483 94.6093 99.232C93.84 99.2157 93.1031 98.8992 92.5381 98.3426V98.3426Z" fill="#A0616A"/>
<path d="M102.643 37.2957C103.568 37.8608 109.041 36.4605 110.11 36.8588C109.52 40.6955 112.724 39.2558 109.244 44.2944C105.764 49.3329 98.755 64.44 97.1627 70.0862C95.5704 75.7324 97.1464 83.6894 96.9079 86.3653C96.7927 87.9158 96.7999 89.4738 96.9294 91.0229C95.0492 90.9976 93.1959 91.4134 91.2863 91.1478C89.2498 85.0067 87.8805 76.2653 86.9508 71.4342C86.021 66.6031 85.987 68.6462 86.4134 66.2305C86.8398 63.8148 86.9431 65.5702 86.4951 63.2592C86.0472 60.9482 87.8588 58.0446 89.5328 56.389C90.2545 54.1766 91.1873 52.1138 91.9018 49.9246C97.1379 45.0567 97.4822 42.2446 102.643 37.2957Z" fill="#F9A826"/>
<path d="M254.772 193.769H250.146L247.945 174.753H254.773L254.772 193.769Z" fill="#FFB6B6"/>
<path d="M255.952 198.548L241.035 198.547V198.346C241.035 196.705 241.647 195.131 242.736 193.971C243.825 192.811 245.301 192.159 246.841 192.159H246.841L249.566 189.956L254.65 192.159L255.952 192.159L255.952 198.548Z" fill="#2F2E41"/>
<path d="M233.28 193.769H228.654L226.453 174.753H233.281L233.28 193.769Z" fill="#FFB6B6"/>
<path d="M234.459 198.548L219.543 198.547V198.346C219.543 196.705 220.155 195.131 221.244 193.971C222.332 192.811 223.809 192.159 225.349 192.159H225.349L228.074 189.956L233.158 192.159L234.46 192.159L234.459 198.548Z" fill="#2F2E41"/>
<path d="M231.277 89.8063L261.367 90.608C267.082 93.9159 267.169 101.076 265.297 109.576C265.297 109.576 265.929 114.628 264.664 115.976C263.4 117.323 262.768 117.323 263.4 119.681C264.032 122.039 260.693 125.89 261.098 126.322C261.504 126.754 262.452 129.112 262.452 129.112L259.291 148.311C259.291 148.311 257.079 181.657 256.447 182.331C255.815 183.005 255.183 182.331 255.815 184.015C256.447 185.699 257.079 185.026 256.447 185.699C255.887 186.343 255.359 187.017 254.867 187.72H247.225C247.225 187.72 246.649 184.352 246.649 184.015C246.649 183.678 246.017 181.657 246.017 181.321C246.017 180.984 246.576 180.388 246.576 180.388C246.769 179.704 246.899 179.001 246.965 178.289C246.965 177.615 248.862 151.68 248.862 151.68L245.069 117.997L235.903 151.006C235.903 151.006 235.903 179.973 235.271 180.647C234.639 181.321 234.639 180.984 234.955 182.331C235.271 183.678 236.535 183.342 235.587 184.352C234.639 185.363 234.323 183.678 234.639 185.363L234.955 187.047L225.473 187.191C225.473 187.191 224.209 184.352 224.841 183.342C225.473 182.331 225.435 182.607 224.664 180.953C223.893 179.3 223.577 178.963 223.893 178.626C224.209 178.289 224.209 176.498 224.209 176.498L225.789 144.269C225.789 144.269 226.105 110.25 226.105 109.239C226.129 108.719 226.039 108.2 225.843 107.724V106.352L227.054 101.492L231.277 89.8063Z" fill="#2F2E41"/>
<path d="M249.353 23.1269C254.516 23.1269 258.702 18.666 258.702 13.1633C258.702 7.66055 254.516 3.19971 249.353 3.19971C244.19 3.19971 240.004 7.66055 240.004 13.1633C240.004 18.666 244.19 23.1269 249.353 23.1269Z" fill="#FFB6B6"/>
<path d="M244.679 29.712C242.665 30.9881 241.46 33.3328 240.769 35.7187C239.488 40.136 238.717 44.703 238.473 49.3189L237.743 63.1382L228.695 92.5632C236.537 99.6341 266.011 94.1702 266.011 94.1702C266.011 94.1702 266.915 93.8489 266.011 92.8846C265.106 91.9204 264.225 92.7747 265.13 91.8104C266.035 90.8462 265.411 91.9204 265.109 90.9562C264.808 89.9919 265.109 90.6348 265.411 90.3134C265.712 89.9919 263.076 87.0993 263.076 87.0993L265.489 70.209L268.505 36.1401C264.886 31.319 257.607 28.477 257.607 28.477L255.727 24.8694L246.323 25.6711L244.679 29.712Z" fill="#3F3D56"/>
<path d="M243.397 7.31585C243.759 7.31886 244.119 7.3692 244.469 7.46576C245.159 7.64266 245.861 7.76797 246.568 7.84078C248.732 8.05778 250.766 9.04147 252.344 10.6347C253.922 12.228 254.954 14.3389 255.274 16.6304C255.817 16.1256 257.054 15.1971 258.067 16.06C258.082 16.0737 258.091 16.0808 258.127 16.0628C258.8 15.7226 259.994 11.5353 260.03 7.8484C260.05 5.89155 259.76 3.39273 258.275 2.60142L258.197 2.55973L258.177 2.4691C258.077 2.02892 256.969 1.27753 255.042 0.69271C251.541 -0.370078 246.425 -0.523723 243.486 2.52313C243.264 3.55029 242.437 3.83175 241.706 4.0809C240.897 4.35668 240.198 4.59468 240.088 5.65276C239.996 7.15851 240.002 8.66926 240.108 10.174C240.382 9.25324 240.92 8.44732 241.647 7.86974C242.164 7.49907 242.774 7.30579 243.397 7.31585Z" fill="#2F2E41"/>
<path d="M225.994 62.369L241.266 51.9457L233.574 41.0486L225.979 51.0056L202.314 52.5524C201.691 51.8967 200.903 51.4481 200.046 51.2614C199.188 51.0747 198.298 51.158 197.484 51.501C196.67 51.8441 195.968 52.4321 195.462 53.1933C194.956 53.9546 194.669 54.8562 194.636 55.7883C194.603 56.7204 194.825 57.6426 195.275 58.4426C195.725 59.2425 196.384 59.8856 197.171 60.2935C197.958 60.7013 198.84 60.8563 199.708 60.7395C200.576 60.6226 201.394 60.2391 202.061 59.6356L225.994 62.369Z" fill="#FFB6B6"/>
<path d="M255.441 37.3968C256.328 43.1135 239.589 54.03 239.589 54.03C239.589 52.6882 229.599 62.8179 229.148 61.705C227.866 58.5422 226.965 51.051 225.174 49.852C224.15 49.1663 231.342 42.7247 231.342 42.7247C231.342 42.7247 235.107 38.6826 240.048 33.5842C241.419 32.1152 243.117 31.0399 244.984 30.4585C246.851 29.877 248.825 29.8083 250.723 30.2587C250.723 30.2587 254.555 31.6801 255.441 37.3968Z" fill="#3F3D56"/>
<path d="M238.424 103.034C238.43 109.152 237.469 115.227 235.58 121.004C235.494 121.273 235.403 121.537 235.313 121.806C231.447 132.996 224.255 142.534 214.833 148.967C214.19 149.408 213.539 149.829 212.877 150.238C205.349 154.888 196.828 157.403 188.128 157.541C187.842 157.545 187.556 157.549 187.27 157.549C186.902 157.549 186.537 157.545 186.172 157.537C177.46 157.352 168.939 154.788 161.423 150.089C160.761 149.676 160.109 149.247 159.467 148.803C149.007 141.576 141.379 130.53 138.016 117.737C134.653 104.944 135.784 91.2832 141.199 79.3162C141.319 79.0476 141.443 78.783 141.571 78.5145C145.835 69.4956 152.366 61.9157 160.435 56.6197C168.504 51.3236 177.794 48.5193 187.27 48.5193C196.747 48.5193 206.037 51.3236 214.106 56.6197C222.175 61.9157 228.705 69.4956 232.97 78.5145C233.098 78.783 233.222 79.0476 233.342 79.3162C236.698 86.7106 238.436 94.8202 238.424 103.034Z" fill="#F2F2F2"/>
<path d="M222.597 121.004V121.806H227.178V121.004H222.597ZM213.434 121.004V121.806H218.016V121.004H213.434ZM204.272 121.004V121.806H208.853V121.004H204.272ZM195.11 121.004V121.806H199.691V121.004H195.11ZM185.947 121.004V121.806H190.528V121.004H185.947ZM176.785 121.004V121.806H181.366V121.004H176.785ZM167.622 121.004V121.806H172.203V121.004H167.622ZM158.464 121.004V121.806H163.041V121.004H158.464ZM149.301 121.004V121.806H153.882V121.004H149.301ZM140.139 121.004V121.806H144.72V121.004H140.139ZM235.581 121.004H231.759V121.806H235.314L235.581 121.004Z" fill="#E6E6E6"/>
<path d="M231.759 115.392V116.194H236.341V115.392H231.759ZM222.597 115.392V116.194H227.178V115.392H222.597ZM213.434 115.392V116.194H218.016V115.392H213.434ZM204.272 115.392V116.194H208.853V115.392H204.272ZM195.11 115.392V116.194H199.691V115.392H195.11ZM185.947 115.392V116.194H190.528V115.392H185.947ZM176.785 115.392V116.194H181.366V115.392H176.785ZM167.622 115.392V116.194H172.203V115.392H167.622ZM158.464 115.392V116.194H163.041V115.392H158.464ZM149.301 115.392V116.194H153.882V115.392H149.301ZM140.139 115.392V116.194H144.72V115.392H140.139Z" fill="#E6E6E6"/>
<path d="M231.759 103.768V104.569H236.341V103.768H231.759ZM222.597 103.768V104.569H227.178V103.768H222.597ZM213.434 103.768V104.569H218.016V103.768H213.434ZM204.272 103.768V104.569H208.853V103.768H204.272ZM195.11 103.768V104.569H199.691V103.768H195.11ZM185.947 103.768V104.569H190.528V103.768H185.947ZM176.785 103.768V104.569H181.366V103.768H176.785ZM167.622 103.768V104.569H172.203V103.768H167.622ZM158.464 103.768V104.569H163.041V103.768H158.464ZM149.301 103.768V104.569H153.882V103.768H149.301ZM140.139 103.768V104.569H144.72V103.768H140.139Z" fill="#E6E6E6"/>
<path d="M231.759 95.7507V96.5524H236.341V95.7507H231.759ZM222.597 95.7507V96.5524H227.178V95.7507H222.597ZM213.434 95.7507V96.5524H218.016V95.7507H213.434ZM204.272 95.7507V96.5524H208.853V95.7507H204.272ZM195.11 95.7507V96.5524H199.691V95.7507H195.11ZM185.947 95.7507V96.5524H190.528V95.7507H185.947ZM176.785 95.7507V96.5524H181.366V95.7507H176.785ZM167.622 95.7507V96.5524H172.203V95.7507H167.622ZM158.464 95.7507V96.5524H163.041V95.7507H158.464ZM149.301 95.7507V96.5524H153.882V95.7507H149.301ZM140.139 95.7507V96.5524H144.72V95.7507H140.139Z" fill="#E6E6E6"/>
<path d="M232.97 78.5144H231.759V79.3161H233.343C233.222 79.0475 233.098 78.783 232.97 78.5144ZM222.597 78.5144V79.3161H227.178V78.5144H222.597ZM213.434 78.5144V79.3161H218.016V78.5144H213.434ZM204.272 78.5144V79.3161H208.853V78.5144H204.272ZM195.109 78.5144V79.3161H199.691V78.5144H195.109ZM185.947 78.5144V79.3161H190.528V78.5144H185.947ZM176.785 78.5144V79.3161H181.366V78.5144H176.785ZM167.622 78.5144V79.3161H172.203V78.5144H167.622ZM158.463 78.5144V79.3161H163.041V78.5144H158.463ZM149.301 78.5144V79.3161H153.882V78.5144H149.301ZM141.572 78.5144C141.444 78.783 141.32 79.0475 141.199 79.3161H144.72V78.5144H141.572Z" fill="#E6E6E6"/>
<path d="M214.835 81.2162V148.967C214.192 149.408 213.541 149.829 212.879 150.238V81.2162H214.835Z" fill="#3F3D56"/>
<path d="M188.13 103.663V157.541C187.844 157.545 187.558 157.549 187.272 157.549C186.904 157.549 186.539 157.545 186.174 157.537V103.663H188.13Z" fill="#3F3D56"/>
<path d="M161.425 81.2162V150.089C160.763 149.676 160.111 149.248 159.469 148.803V81.2162H161.425Z" fill="#3F3D56"/>
<path d="M65.5854 173.43L64.8393 162.371C59.9522 159.767 54.5425 158.475 49.0801 158.605C56.765 164.935 56.1494 177.588 61.4716 186.247C63.151 188.934 65.3762 191.184 67.9824 192.83C70.5886 194.476 73.509 195.476 76.5271 195.756L82.9227 199.677C83.6544 194.524 83.329 189.262 81.969 184.256C80.609 179.25 78.2468 174.617 75.0451 170.677C73.2284 168.486 71.16 166.547 68.8887 164.907C67.4907 169.184 65.5854 173.43 65.5854 173.43Z" fill="#F2F2F2"/>
<path d="M213.6 86.5995C217.546 86.5995 220.746 83.1897 220.746 78.9835C220.746 74.7773 217.546 71.3674 213.6 71.3674C209.653 71.3674 206.453 74.7773 206.453 78.9835C206.453 83.1897 209.653 86.5995 213.6 86.5995Z" fill="#F9A826"/>
<path d="M217.269 75.8093C217.161 75.7 217.018 75.639 216.87 75.639C216.721 75.639 216.578 75.7 216.471 75.8093C214.954 77.0982 213.592 78.5808 212.415 80.2237C212.126 79.6279 211.838 79.0321 211.549 78.4363C211.215 77.7486 210.241 78.3561 210.574 79.0432C210.997 79.9147 211.42 80.7862 211.842 81.6577C211.893 81.7466 211.965 81.8202 212.05 81.8712C212.135 81.9222 212.232 81.949 212.329 81.949C212.427 81.949 212.523 81.9222 212.609 81.8712C212.694 81.8202 212.766 81.7466 212.816 81.6577C214.071 79.7751 215.57 78.0923 217.269 76.6596C217.374 76.5464 217.432 76.3936 217.432 76.2345C217.432 76.0753 217.374 75.9225 217.269 75.8093Z" fill="white"/>
<path d="M187.271 109.047C191.218 109.047 194.418 105.637 194.418 101.431C194.418 97.2245 191.218 93.8147 187.271 93.8147C183.325 93.8147 180.125 97.2245 180.125 101.431C180.125 105.637 183.325 109.047 187.271 109.047Z" fill="#F9A826"/>
<path d="M190.941 98.2566C190.833 98.1473 190.69 98.0863 190.542 98.0863C190.393 98.0863 190.25 98.1473 190.143 98.2566C188.626 99.5454 187.264 101.028 186.087 102.671C185.798 102.075 185.509 101.479 185.221 100.884C184.887 100.196 183.913 100.803 184.246 101.49C184.669 102.362 185.091 103.233 185.514 104.105C185.565 104.194 185.637 104.267 185.722 104.318C185.807 104.369 185.903 104.396 186.001 104.396C186.099 104.396 186.195 104.369 186.281 104.318C186.366 104.267 186.437 104.194 186.488 104.105C187.743 102.222 189.242 100.54 190.941 99.1069C191.046 98.9937 191.104 98.8409 191.104 98.6817C191.104 98.5226 191.046 98.3698 190.941 98.2566Z" fill="white"/>
<path d="M160.566 88.2029C164.513 88.2029 167.713 84.7931 167.713 80.5869C167.713 76.3806 164.513 72.9708 160.566 72.9708C156.619 72.9708 153.42 76.3806 153.42 80.5869C153.42 84.7931 156.619 88.2029 160.566 88.2029Z" fill="#F9A826"/>
<path d="M164.235 77.4127C164.128 77.3034 163.985 77.2424 163.837 77.2424C163.688 77.2424 163.545 77.3034 163.438 77.4127C161.921 78.7016 160.559 80.1841 159.382 81.8271C159.093 81.2313 158.804 80.6355 158.515 80.0397C158.182 79.3519 157.208 79.9595 157.541 80.6466C157.964 81.5181 158.386 82.3896 158.809 83.2611C158.86 83.35 158.932 83.4235 159.017 83.4746C159.102 83.5256 159.198 83.5523 159.296 83.5523C159.394 83.5523 159.49 83.5256 159.575 83.4746C159.661 83.4235 159.732 83.35 159.783 83.2611C161.038 81.3785 162.537 79.6957 164.235 78.263C164.34 78.1498 164.399 77.997 164.399 77.8379C164.399 77.6787 164.34 77.5259 164.235 77.4127Z" fill="white"/>
<path d="M263.053 75.1708L267.757 56.5053L255.185 53.969L255.861 66.7808L239.343 84.9073C238.468 84.8692 237.602 85.1031 236.85 85.5805C236.098 86.0578 235.493 86.758 235.108 87.5957C234.723 88.4334 234.575 89.3724 234.682 90.2981C234.789 91.2238 235.147 92.0964 235.711 92.8093C236.276 93.5222 237.023 94.0447 237.861 94.3131C238.699 94.5816 239.592 94.5843 240.432 94.3209C241.272 94.0576 242.021 93.5396 242.589 92.83C243.158 92.1205 243.52 91.2502 243.632 90.3251L263.053 75.1708Z" fill="#FFB6B6"/>
<path d="M269.043 35.5773C273.31 39.1676 267.833 59.2502 267.833 59.2502C266.985 58.2583 266 72.9166 264.963 72.4175C262.017 70.999 256.618 66.1073 254.536 66.5061C253.346 66.7341 254.593 56.8104 254.593 56.8104C254.593 56.8104 254.822 51.1203 255.254 43.8055C255.339 41.7351 255.915 39.7215 256.928 37.9522C257.941 36.1829 259.357 34.7153 261.045 33.6862C261.045 33.6862 264.776 31.987 269.043 35.5773Z" fill="#3F3D56"/>
<path d="M121.649 77.4837L126.821 102.082L93.6777 99.8849L102.69 75.7268L121.649 77.4837Z" fill="#A0616A"/>
<path d="M116.13 191.014L119.853 191.014L121.624 175.71H116.129L116.13 191.014Z" fill="#A0616A"/>
<path d="M114.869 189.057L120.754 188.682V191.37L126.35 195.488C126.626 195.691 126.834 195.984 126.944 196.322C127.053 196.66 127.059 197.027 126.959 197.369C126.859 197.71 126.659 198.009 126.388 198.221C126.118 198.433 125.791 198.548 125.455 198.548H118.448L117.24 195.89L116.769 198.548H114.127L114.869 189.057Z" fill="#2F2E41"/>
<path d="M80.9414 189.04L84.5801 189.881L89.3554 175.325L83.9854 174.084L80.9414 189.04Z" fill="#A0616A"/>
<path d="M80.0996 186.842L85.9257 187.806L85.3911 190.432L90.04 195.721C90.2697 195.982 90.415 196.315 90.4547 196.67C90.4944 197.026 90.4265 197.385 90.2608 197.697C90.0952 198.008 89.8404 198.255 89.5339 198.401C89.2273 198.547 88.8849 198.585 88.5567 198.509L81.7092 196.926L81.0577 194.056L80.0681 196.547L77.4863 195.95L80.0996 186.842Z" fill="#2F2E41"/>
<path d="M127.667 122.651C125.054 137.955 124.401 144.562 124.401 144.562C124.401 144.562 126.361 146.997 125.054 148.389C123.748 149.782 125.054 152.562 125.054 152.562L122.117 186.3L119.752 185.892L114.056 184.915L112.001 184.562L113.307 152.912C113.307 152.912 112.001 150.128 112.654 149.432C113.307 148.735 112.001 144.562 112.001 144.562L110.37 111.521L100.25 147.693C100.25 147.693 101.232 149.085 100.25 150.128C99.2724 151.17 97.3164 156.389 97.3164 156.389L91.2988 178.829L90.7879 180.735L87.6496 180.109L84.2339 179.424L83.6062 179.3L82.4895 179.074L81.7706 178.93L81.5261 178.883L80.3438 178.646L80.7014 176.954L80.8875 176.064L85.9782 151.967L86.095 151.411L86.2191 150.824C86.2191 150.824 85.5658 149.085 86.5438 148.039C86.83 147.72 87.0389 147.332 87.1528 146.908C87.2666 146.484 87.2818 146.036 87.1971 145.605C87.165 145.568 87.1358 145.529 87.1095 145.488C86.994 145.319 86.9143 145.125 86.8759 144.92C86.7883 144.485 86.865 143.874 87.5255 143.17C87.7115 142.959 87.8676 142.721 87.989 142.462C88.9816 140.459 89.4815 136.216 89.4815 136.216C89.4815 136.216 90.3646 102.611 93.2548 97.4774C93.4081 97.209 96.4763 92.0574 96.6369 91.9524C99.8993 89.8678 125.317 92.7471 125.317 92.7471C125.317 92.7471 126.856 97.1546 126.925 97.6135C127.301 100.192 129.882 109.67 127.667 122.651Z" fill="#2F2E41"/>
<path d="M119.945 41.7049C119.945 41.7049 120.495 38.6625 115.211 33.0304C112.413 32.0365 107.565 32.6158 105.884 33.0304C98.1126 43.9633 99.5042 42.0342 97.4811 48.1428C96.9566 49.7268 96.6943 51.2487 96.9274 52.4911C97.86 57.4606 99.3741 82.9702 99.0632 84.2954C98.7524 85.6206 96.5763 87.2771 98.7524 87.2771C100.928 87.2771 128.991 86.7536 128.369 85.7597C127.748 84.7658 119.945 41.7049 119.945 41.7049Z" fill="#F9A826"/>
<path d="M153.273 82.1282C152.847 82.304 152.39 82.3782 151.934 82.3454C151.478 82.3126 151.035 82.1736 150.634 81.9383C150.234 81.703 149.887 81.3771 149.618 80.9835C149.349 80.5898 149.164 80.1381 149.077 79.6601L138.078 77.9952L141.902 73.3866L151.76 75.6742C152.524 75.5706 153.296 75.7689 153.931 76.2317C154.567 76.6944 155.02 77.3894 155.207 78.1849C155.393 78.9805 155.3 79.8213 154.943 80.5481C154.587 81.2748 153.993 81.8371 153.274 82.1282L153.273 82.1282Z" fill="#A0616A"/>
<path d="M106.74 39.7465C107.627 39.1156 108.634 38.8193 109.445 37.9768C112.406 40.2487 112.623 36.5496 115.306 42.1144C117.989 47.6792 127.559 61.096 131.593 65.1302C135.627 69.1644 143.014 71.2047 145.156 72.6242C146.407 73.4247 147.719 74.1118 149.079 74.6782C148.22 76.461 147.744 78.4145 146.67 80.1183C140.604 79.3261 132.65 76.7392 128.177 75.4745C123.704 74.2099 125.406 75.1523 123.566 73.6695C121.727 72.1866 123.247 72.87 121.106 72.2681C118.965 71.6661 117.333 68.6442 116.687 66.3096C115.15 64.6355 113.833 62.8267 112.312 61.1699C110.554 54.0055 108.599 46.8748 106.74 39.7465Z" fill="#F9A826"/>
<path d="M113.685 28.79C118.657 28.79 122.687 24.495 122.687 19.1967C122.687 13.8985 118.657 9.60339 113.685 9.60339C108.714 9.60339 104.684 13.8985 104.684 19.1967C104.684 24.495 108.714 28.79 113.685 28.79Z" fill="#A0616A"/>
<path d="M119.7 36.7328C119.273 36.0834 116.083 29.6445 115.135 27.2095C115.038 27.7368 114.976 28.271 114.951 28.8077L114.941 29.0078L114.755 29.0335C114.475 29.0716 107.854 29.928 104.409 25.7643C102.367 23.298 101.904 19.5987 103.031 14.7669C102.826 14.724 102.63 14.6434 102.451 14.5287C102.153 14.309 101.903 14.0226 101.72 13.6896C101.536 13.3565 101.423 12.9849 101.389 12.6005L101.198 12.655C95.0681 9.47616 100.349 0.177024 105.948 4.80037C106.439 4.68342 106.951 4.71478 107.426 4.8909C107.885 5.08965 108.284 5.41688 108.582 5.83789C108.88 6.25891 109.066 6.75802 109.119 7.28233C112.012 5.66074 115.841 5.92461 117.821 7.14128C118.65 7.65078 119.126 8.29244 119.211 9.00826C121.549 9.14745 124.065 11.5754 124.065 15.0153V15.2549H123.84C122.899 15.2762 121.981 15.5699 121.185 16.1045C120.389 16.6391 119.744 17.3944 119.319 18.2896C118.744 19.397 118.46 20.6491 118.495 21.9142C118.531 23.1794 118.886 24.4109 119.523 25.4794C120.216 26.6127 120.689 27.8824 120.914 29.2136C121.14 30.5448 121.113 31.9106 120.835 33.2306L119.991 37.1749L119.7 36.7328Z" fill="#2F2E41"/>
<path d="M145.82 198.627C145.82 198.69 145.808 198.752 145.786 198.81C145.764 198.868 145.731 198.92 145.689 198.965C145.647 199.009 145.598 199.044 145.544 199.068C145.489 199.092 145.431 199.104 145.372 199.104H39.9476C39.8289 199.104 39.715 199.054 39.6311 198.964C39.5472 198.875 39.5 198.753 39.5 198.627C39.5 198.5 39.5472 198.379 39.6311 198.29C39.715 198.2 39.8289 198.15 39.9476 198.15H145.372C145.431 198.15 145.489 198.162 145.544 198.186C145.598 198.21 145.647 198.245 145.689 198.289C145.731 198.334 145.764 198.386 145.786 198.444C145.808 198.502 145.82 198.564 145.82 198.627Z" fill="#CCCCCC"/>
<path d="M289.499 198.627C289.5 198.69 289.488 198.752 289.466 198.81C289.443 198.868 289.41 198.92 289.369 198.965C289.327 199.009 289.278 199.044 289.223 199.068C289.169 199.092 289.111 199.104 289.052 199.104H183.627C183.509 199.104 183.395 199.054 183.311 198.964C183.227 198.875 183.18 198.753 183.18 198.627C183.18 198.5 183.227 198.379 183.311 198.29C183.395 198.2 183.509 198.15 183.627 198.15H289.052C289.111 198.15 289.169 198.162 289.223 198.186C289.278 198.21 289.327 198.245 289.369 198.289C289.41 198.334 289.443 198.386 289.466 198.444C289.488 198.502 289.5 198.564 289.499 198.627Z" fill="#CCCCCC"/>
<path d="M160.345 164.25C162.545 164.25 164.328 162.349 164.328 160.005C164.328 157.66 162.545 155.759 160.345 155.759C158.145 155.759 156.361 157.66 156.361 160.005C156.361 162.349 158.145 164.25 160.345 164.25Z" fill="#E6E6E6"/>
<path d="M187.05 168.659C189.25 168.659 191.033 166.758 191.033 164.414C191.033 162.069 189.25 160.169 187.05 160.169C184.85 160.169 183.066 162.069 183.066 164.414C183.066 166.758 184.85 168.659 187.05 168.659Z" fill="#E6E6E6"/>
<path d="M213.755 163.448C215.955 163.448 217.738 161.547 217.738 159.203C217.738 156.858 215.955 154.958 213.755 154.958C211.555 154.958 209.771 156.858 209.771 159.203C209.771 161.547 211.555 163.448 213.755 163.448Z" fill="#E6E6E6"/>
</g>
<defs>
<clipPath id="clip0_1_3997">
<rect width="250" height="200" fill="white" transform="translate(39.5)"/>
</clipPath>
</defs>
</svg>
