<svg width="308" height="200" viewBox="0 0 308 200" fill="none" xmlns="http://www.w3.org/2000/svg">
<rect x="0.804688" width="57" height="57" rx="28.5" fill="#F4A022"/>
<path d="M29.2421 39.3C28.1221 39.3 27.1221 39.16 26.2421 38.88C25.3621 38.58 24.6121 38.19 23.9921 37.71C23.3921 37.23 22.9221 36.69 22.5821 36.09C22.2621 35.47 22.0921 34.83 22.0721 34.17C22.0721 33.99 22.1321 33.85 22.2521 33.75C22.3721 33.65 22.5221 33.6 22.7021 33.6H23.1221C23.2821 33.6 23.4321 33.64 23.5721 33.72C23.7321 33.8 23.8521 33.99 23.9321 34.29C24.1521 35.15 24.5421 35.82 25.1021 36.3C25.6821 36.76 26.3321 37.08 27.0521 37.26C27.7921 37.42 28.5221 37.5 29.2421 37.5C30.7821 37.5 32.0421 37.13 33.0221 36.39C34.0221 35.65 34.5221 34.54 34.5221 33.06C34.5221 31.58 34.0721 30.52 33.1721 29.88C32.2921 29.24 31.0821 28.92 29.5421 28.92H26.9021C26.7021 28.92 26.5421 28.86 26.4221 28.74C26.3021 28.62 26.2421 28.46 26.2421 28.26V27.81C26.2421 27.65 26.2621 27.52 26.3021 27.42C26.3621 27.3 26.4321 27.19 26.5121 27.09L32.6921 19.8H23.6321C23.4321 19.8 23.2721 19.74 23.1521 19.62C23.0321 19.5 22.9721 19.34 22.9721 19.14V18.69C22.9721 18.47 23.0321 18.3 23.1521 18.18C23.2721 18.06 23.4321 18 23.6321 18H34.8221C35.0421 18 35.2121 18.06 35.3321 18.18C35.4521 18.3 35.5121 18.47 35.5121 18.69V19.14C35.5121 19.26 35.4821 19.37 35.4221 19.47C35.3821 19.55 35.3321 19.63 35.2721 19.71L28.9421 27.12H29.5421C30.9221 27.12 32.1221 27.34 33.1421 27.78C34.1821 28.2 34.9821 28.85 35.5421 29.73C36.1221 30.61 36.4121 31.72 36.4121 33.06C36.4121 34.38 36.1021 35.51 35.4821 36.45C34.8621 37.37 34.0121 38.08 32.9321 38.58C31.8521 39.06 30.6221 39.3 29.2421 39.3Z" fill="black"/>
<g clip-path="url(#clip0_1_4051)">
<path d="M161.991 173.751L164.722 165.491C161.437 162.132 157.318 159.569 152.725 158.024C157.213 164.931 152.864 173.941 154.676 181.831C155.262 184.288 156.435 186.591 158.109 188.569C159.782 190.547 161.914 192.15 164.346 193.259L168.489 198.028C170.662 194.503 171.985 190.582 172.369 186.536C172.753 182.489 172.188 178.414 170.713 174.59C169.862 172.452 168.726 170.423 167.329 168.549C164.867 171.238 161.991 173.751 161.991 173.751Z" fill="#F2F2F2"/>
<path d="M146.978 174.807L145.456 166.282C140.903 164.637 135.986 164.049 131.133 164.569C138.466 168.892 138.899 178.758 144.309 185.069C146.013 187.025 148.169 188.601 150.617 189.678C153.065 190.755 155.742 191.307 158.451 191.292L164.449 193.844C164.701 189.789 164.003 185.731 162.404 181.95C160.805 178.169 158.342 174.756 155.186 171.944C153.399 170.383 151.407 169.038 149.258 167.939C148.345 171.366 146.978 174.807 146.978 174.807Z" fill="#F2F2F2"/>
<path d="M236.346 195.909L232.139 195.908L230.139 180.839L236.346 180.839L236.346 195.909Z" fill="#FFB6B6"/>
<path d="M237.417 199.696L223.855 199.695V199.536C223.856 198.236 224.412 196.988 225.402 196.069C226.392 195.149 227.734 194.633 229.134 194.633H229.134L231.612 192.887L236.233 194.633L237.417 194.633L237.417 199.696Z" fill="#2F2E41"/>
<path d="M304.287 181.658L301.419 184.516L288.188 175.601L292.42 171.383L304.287 181.658Z" fill="#FFB6B6"/>
<path d="M308.001 183.511L298.754 192.726L298.629 192.618C297.605 191.731 297.002 190.503 296.952 189.203C296.903 187.904 297.412 186.639 298.366 185.688L298.366 185.688L298.681 182.814L303.207 180.864L304.014 180.059L308.001 183.511Z" fill="#2F2E41"/>
<path d="M298.063 173.189L293.617 181.826L266.319 165.036L262.347 160.01L249.326 143.529L244.033 151.331L240.35 159.487C239.149 160.214 238.138 161.18 237.388 162.314C236.639 163.449 236.17 164.724 236.015 166.047L235.847 167.491L238.174 186.926L229.328 189.449L224.248 163.341L225.909 157.684L227.619 149.742L236.227 124.648H259.263L272.476 150.772L273.441 156.096L277.188 160.089L298.063 173.189Z" fill="#2F2E41"/>
<path d="M250.189 83.5902L254.067 86.3332L258.743 87.6681C258.743 87.6681 260.677 112.931 262.419 114.549C264.161 116.167 262.59 116.211 262.94 118.313C263.29 120.415 264.141 124.724 264.141 124.724C252.381 130.507 242.244 130.662 234.101 123.896C233.997 123.477 234.05 123.038 234.251 122.651C234.452 122.264 234.79 121.953 235.208 121.769C236.723 121.022 233.81 117.535 235.049 116.952C236.288 116.37 234.546 111.312 234.546 111.312L235.688 100.761L234.785 99.0748L236.989 88.7546L240.812 87.4576L242.339 84.0396L250.189 83.5902Z" fill="#3F3D56"/>
<path d="M252.619 128.49C252.602 128.034 252.692 127.58 252.884 127.16C253.077 126.739 253.365 126.363 253.731 126.058C254.096 125.753 254.529 125.526 254.999 125.393C255.469 125.26 255.965 125.224 256.452 125.288L261.917 115.421L264.962 120.446L259.305 129.046C259.135 129.798 258.673 130.466 258.008 130.923C257.343 131.38 256.521 131.595 255.697 131.527C254.872 131.458 254.104 131.111 253.537 130.552C252.97 129.992 252.643 129.259 252.619 128.49H252.619Z" fill="#FFB6B6"/>
<path d="M261.823 126.076L273.545 109.2L273.507 109.123C273.462 109.034 270.808 103.708 268.236 98.8307C267.84 98.0796 267.446 97.339 267.063 96.6299C266.898 96.3238 266.736 96.0241 266.576 95.7309C265.495 93.7526 264.552 92.1175 263.988 91.3408C262.742 89.5847 260.887 88.2773 258.73 87.6358L258.676 87.6228L258.624 87.6429C257.57 88.0563 256.698 88.7913 256.153 89.7266C255.609 90.6619 255.423 91.7418 255.628 92.7881C256.645 97.8348 258.91 102.593 262.246 106.687L264.146 109.014L257.542 122.351L261.823 126.076Z" fill="#3F3D56"/>
<path d="M221.515 61.3875C221.838 61.7318 222.075 62.1376 222.211 62.5763C222.347 63.0151 222.377 63.4762 222.3 63.9271C222.223 64.378 222.041 64.8077 221.766 65.186C221.491 65.5644 221.13 65.8821 220.708 66.1168L223.152 76.979L217.38 74.8562L215.945 64.8667C215.567 64.1828 215.473 63.394 215.679 62.6497C215.886 61.9055 216.38 61.2576 217.066 60.8287C217.753 60.3999 218.585 60.2199 219.405 60.3229C220.225 60.4259 220.976 60.8047 221.515 61.3875H221.515Z" fill="#FFB6B6"/>
<path d="M216.002 68.6462L218.336 88.6129L218.419 88.6506C218.487 88.6817 221.444 90.029 225.074 91.6336C225.686 91.9043 225.598 93.0768 226.238 93.357C226.679 93.5501 227.843 92.8496 228.289 93.0431C232.256 94.7666 236.268 96.4425 237.867 96.8967C240.025 97.5319 242.353 97.4623 244.463 96.6994L244.514 96.6777L244.54 96.6319C245.08 95.6937 245.258 94.6129 245.048 93.5677C244.837 92.5225 244.249 91.5752 243.38 90.8821C239.169 87.5563 234.184 85.1852 228.817 83.9559L225.764 83.2599L221.853 69.0366L216.002 68.6462Z" fill="#3F3D56"/>
<path d="M246.055 82.459C250.292 82.459 253.726 79.2689 253.726 75.3337C253.726 71.3986 250.292 68.2085 246.055 68.2085C241.819 68.2085 238.385 71.3986 238.385 75.3337C238.385 79.2689 241.819 82.459 246.055 82.459Z" fill="#FFB6B6"/>
<path d="M238.44 70.5591C239.071 68.8544 242.211 67.672 247.302 67.5076C252.392 67.3432 253.683 72.9159 253.683 72.9159C257.082 75.4768 250.054 82.3328 249.714 82.0859L249.867 80.7978C250.12 78.6642 251.196 76.9994 249.828 74.7758L248.515 74.7898C246.818 75.0928 245.122 75.3958 243.426 75.6988L245.434 74.0563L245.377 73.9749C244.523 74.3882 243.593 74.6504 242.636 74.7481C241.557 74.807 240.376 74.408 239.859 73.5258C239.721 73.2833 239.637 73.0176 239.611 72.7444C238.156 73.2846 237.49 74.9515 237.49 74.9515C237.49 74.9515 237.809 72.2638 238.44 70.5591Z" fill="#2F2E41"/>
<path d="M88.9039 70.9866C88.7999 70.864 88.6878 70.7475 88.5684 70.6376C88.5975 70.6004 88.6267 70.5597 88.6559 70.5225L88.9039 70.9866Z" fill="#2F2E41"/>
<path d="M90.3963 99.6441C89.1416 101.714 86.6358 102.87 84.1519 103.435C81.3619 104.114 78.4239 104.062 75.6642 103.283C75.3141 103.178 74.9639 103.056 74.6247 102.92C74.7878 102.518 74.917 102.105 75.0113 101.684C75.1383 101.114 75.2018 100.534 75.201 99.9524C74.9246 100.453 74.5666 100.912 74.1396 101.311C73.8102 101.633 73.436 101.912 73.0271 102.141C71.7587 101.426 70.6603 100.478 69.7991 99.3561C69.8538 99.2307 69.9085 99.1054 69.9596 98.98C70.2244 98.3252 70.4342 97.6523 70.5869 96.9674C70.7942 96.0413 70.8981 95.0977 70.897 94.1518C70.4473 94.9669 69.864 95.7121 69.1681 96.3609C68.9594 96.5683 68.7378 96.764 68.5042 96.9471C68.1426 95.9269 68.0028 94.8501 68.093 93.7793C68.1831 92.7085 68.5015 91.665 69.0295 90.7094C70.4739 88.2292 73.2751 86.7553 75.77 85.1527C78.2685 83.5501 80.767 81.3817 80.9786 78.5661C81.1208 76.6653 80.1725 74.7611 80.5518 72.8908C80.7114 72.1021 81.1008 71.3692 81.6778 70.7719C82.2548 70.1747 82.9972 69.736 83.8241 69.5036C84.651 69.2712 85.5307 69.254 86.3673 69.454C87.204 69.654 87.9655 70.0634 88.569 70.6376C87.1537 72.5011 85.7458 74.429 85.1732 76.6449C84.5896 78.9015 85.0674 81.5477 86.9823 83.0419C87.6389 83.5569 88.445 83.9228 88.952 84.5666C89.6267 85.4204 89.6304 86.5588 89.7398 87.6092C89.9586 89.6523 90.6772 91.6174 91.0638 93.6402C91.4541 95.6596 91.476 97.8517 90.3963 99.6441Z" fill="#2F2E41"/>
<path d="M64.6738 183.667L68.0028 186.056L79.5078 175.265L74.5945 171.739L64.6738 183.667Z" fill="#A0616A"/>
<path d="M64.8164 181.332L70.3213 184.817L68.5792 186.912L70.9123 193.712C71.0275 194.048 71.0242 194.409 70.9028 194.743C70.7814 195.077 70.5482 195.367 70.2373 195.569C69.9264 195.771 69.5541 195.875 69.1747 195.867C68.7953 195.859 68.4287 195.738 68.1284 195.522L61.8636 191.026L62.5069 188.179L60.3621 189.948L58 188.253L64.8164 181.332Z" fill="#2F2E41"/>
<path d="M81.5645 77.0063C81.564 78.2145 81.8828 79.4043 82.4929 80.4713C83.103 81.5383 83.9857 82.4499 85.0636 83.126C86.1415 83.8022 87.3816 84.2222 88.6751 84.3492C89.9685 84.4762 91.2757 84.3063 92.482 83.8544C93.6882 83.4026 94.7566 82.6825 95.5934 81.7576C96.4302 80.8326 97.0097 79.731 97.2812 78.5494C97.5526 77.3678 97.5077 76.1424 97.1502 74.9807C96.7928 73.8191 96.1339 72.7566 95.2313 71.8867L95.1932 71.8514C95.1296 71.7893 95.066 71.7273 94.9993 71.6683C94.9988 71.6683 94.9984 71.6682 94.998 71.6681C94.9977 71.6679 94.9973 71.6677 94.997 71.6674C94.9967 71.6671 94.9965 71.6668 94.9963 71.6665C94.9962 71.6661 94.9961 71.6657 94.9961 71.6653C94.9135 71.5945 94.8308 71.5236 94.745 71.4557C93.3465 70.3161 91.381 69.0791 89.3755 69.0791C84.9862 69.0791 81.5645 72.929 81.5645 77.0063Z" fill="#2F2E41"/>
<path d="M126.854 73.2157C126.892 73.6094 126.837 74.0061 126.692 74.3777C126.547 74.7494 126.317 75.087 126.016 75.3668C125.716 75.6467 125.353 75.8619 124.953 75.9974C124.553 76.1328 124.126 76.1852 123.703 76.1509L104.027 92.6534L100.641 87.6858L121.046 73.0264C121.155 72.3687 121.521 71.7711 122.073 71.3469C122.625 70.9227 123.325 70.7012 124.041 70.7246C124.757 70.7479 125.439 71.0144 125.957 71.4735C126.476 71.9327 126.795 72.5526 126.854 73.2157V73.2157Z" fill="#A0616A"/>
<path d="M95.6168 97.6346C95.6168 97.6346 96.3488 98.8906 98.8495 96.9512C100.852 95.3986 110.443 88.6581 112.509 85.896C112.981 86.0696 113.502 86.0925 113.989 85.9611C114.477 85.8296 114.903 85.5512 115.201 85.1699L109.54 80.564C107.846 80.7451 107.882 81.8022 108.059 82.4023L103.788 84.1997L92.7598 90.7465L95.0702 96.7354L95.6168 97.6346Z" fill="#F9A826"/>
<path d="M84.9325 109.206L84.5201 111.031L84.1699 117.76L99.5869 118.547L99.1082 108.197L97.6138 105.916L84.9325 109.206Z" fill="#A0616A"/>
<path d="M91.4676 84.9033C95.1475 84.9033 98.1305 82.1323 98.1305 78.714C98.1305 75.2957 95.1475 72.5247 91.4676 72.5247C87.7878 72.5247 84.8047 75.2957 84.8047 78.714C84.8047 82.1323 87.7878 84.9033 91.4676 84.9033Z" fill="#A0616A"/>
<path d="M79.6386 101.543L79.5977 96.3982C79.5967 94.547 80.2711 92.7502 81.5108 91.3008C82.7505 89.8514 84.4823 88.835 86.4238 88.4174L86.4489 88.412L87.7664 86.7629L93.1193 87.2603L94.1004 89.123L97.9791 91.2684L99.4725 95.7278C100.12 96.1289 100.672 96.6493 101.094 97.2569C101.516 97.8645 101.799 98.5463 101.926 99.2598C102.433 102.268 100.165 105.278 99.8955 105.623L99.2006 109.259L84.0824 111.737L83.9596 111.751L79.6386 101.543Z" fill="#F9A826"/>
<path d="M99.6214 77.6106C98.8442 78.0679 98.0379 78.4808 97.2068 78.8473C96.3632 79.2237 95.4809 79.52 94.5733 79.7316C94.3136 79.2023 93.9958 78.6993 93.625 78.2306C93.7204 78.786 93.7228 79.3517 93.6323 79.9078C92.1278 80.1333 90.587 80.0158 89.1422 79.5656L87.8875 77.6106L87.7927 79.7926C86.7531 79.9688 85.7172 80.1348 84.6777 80.3076C84.6157 80.3144 84.5537 80.3279 84.4954 80.3381C83.8497 77.6343 84.7653 74.6561 86.8006 72.8536C87.8111 71.968 89.0716 71.3672 90.4354 71.1213C91.7992 70.8754 93.2102 70.9944 94.504 71.4644C94.6682 71.5254 94.8359 71.5931 94.9964 71.6643C94.9964 71.6648 94.9965 71.6652 94.9967 71.6656C94.9968 71.666 94.9971 71.6664 94.9974 71.6667C94.9978 71.6671 94.9982 71.6673 94.9986 71.6675C94.9991 71.6676 94.9996 71.6677 95.0001 71.6677C95.0949 71.7117 95.1751 71.8168 95.2809 71.8066C99.8329 71.3356 99.9789 74.6154 99.6214 77.6106Z" fill="#2F2E41"/>
<path d="M88.5352 175.686L91.8693 178.069L103.351 167.256L98.4301 163.74L88.5352 175.686Z" fill="#A0616A"/>
<path d="M88.9751 173.567L94.4876 177.042L92.7501 179.139L95.0979 185.936C95.2139 186.271 95.2114 186.633 95.0907 186.967C94.97 187.301 94.7374 187.591 94.427 187.793C94.1165 187.996 93.7444 188.101 93.365 188.094C92.9856 188.086 92.6188 187.966 92.318 187.751L86.0434 183.266L86.6806 180.418L84.5396 182.191L82.1738 180.5L88.9751 173.567Z" fill="#2F2E41"/>
<path d="M77.7169 162.49L77.7167 162.45L79.2969 159.92L77.6833 156.627L77.6349 148.168L77.8965 146.898C78.2483 145.19 78.1459 143.428 77.5983 141.765L77.5688 136.616C77.5121 135.326 79.6633 134.192 79.1617 133.116C74.42 122.952 84.0037 115.197 84.0684 115.135L84.2643 114.946L85.3269 115.694L86.3383 115.695L99.9866 118.005L100.085 118.176C100.622 119.111 101.658 122.335 101.719 123.794C102.4 124.525 110.148 132.854 110.836 133.432C115.491 137.344 118.156 143.819 119.33 147.331C119.621 148.199 119.68 149.119 119.501 150.013C119.322 150.907 118.91 151.746 118.302 152.459L100.682 170.387L95.94 166.321L105.474 150.182L104.787 148.545C103.553 148.333 102.437 147.731 101.628 146.84L99.6974 144.712C99.1628 144.124 98.8232 143.405 98.7195 142.641L97.5487 142.511L93.355 138.42L90.4454 162.896L89.6544 164.83L75.8789 179.874L70.043 176.485L77.7169 162.49Z" fill="#2F2E41"/>
<path d="M75.6141 57.3928C75.3494 57.7023 75.161 58.0619 75.0622 58.4464C74.9633 58.8308 74.9564 59.2307 75.042 59.6179C75.1275 60.0051 75.3034 60.3702 75.5572 60.6874C75.8111 61.0046 76.1367 61.2663 76.5112 61.454L72.1309 73.5001L75.7076 86.2658L81.4752 83.8437L77.9161 74.2149L80.5789 60.1994C80.8766 59.5941 80.9249 58.9084 80.7147 58.2722C80.5045 57.636 80.0504 57.0936 79.4384 56.7476C78.8265 56.4017 78.0991 56.2763 77.3943 56.3952C76.6894 56.5141 76.056 56.8691 75.6141 57.3928Z" fill="#A0616A"/>
<path d="M80.8928 96.784C80.8928 96.784 79.5381 97.4598 78.596 94.5629C77.8418 92.2438 72.709 79.6521 72.6165 76.2897C72.1196 76.1939 71.671 75.9473 71.3416 75.5887C71.0122 75.2301 70.8205 74.7798 70.7969 74.3089L78.2517 73.3506C79.5598 74.3666 78.9042 75.2312 78.4018 75.6426L80.9409 79.6377L86.2479 90.4232L81.8813 96.3118L80.8928 96.784Z" fill="#F9A826"/>
<path d="M84.6758 80.3071C85.4413 78.1625 86.8141 76.2488 88.65 74.7667C90.4859 73.2847 92.7174 72.2889 95.1103 71.8838C95.1198 71.8809 95.1516 71.869 95.1929 71.8513C95.2183 71.8366 95.2501 71.8218 95.2819 71.8071C95.1866 71.7569 95.0944 71.7126 94.999 71.6683C94.9986 71.6683 94.9982 71.6682 94.9978 71.6681C94.9974 71.6679 94.9971 71.6677 94.9968 71.6674C94.9965 71.6671 94.9962 71.6668 94.9961 71.6664C94.9959 71.6661 94.9958 71.6657 94.9959 71.6653C94.9132 71.5945 94.8306 71.5236 94.7448 71.4557L94.5032 71.4646C94.5032 71.4646 86.0139 70.2157 84.6758 80.3071Z" fill="#FD6584"/>
<path d="M194.219 149.278C195.145 147.984 194.597 146.132 192.994 145.142C191.391 144.151 189.34 144.396 188.414 145.69C187.487 146.984 188.036 148.836 189.639 149.826C191.242 150.817 193.292 150.571 194.219 149.278Z" fill="#F2F2F2"/>
<path d="M175.41 100.994C176.337 99.7005 175.788 97.8487 174.185 96.858C172.582 95.8673 170.532 96.1129 169.605 97.4065C168.679 98.7002 169.227 100.552 170.83 101.543C172.433 102.533 174.484 102.288 175.41 100.994Z" fill="#F2F2F2"/>
<path d="M254.061 175.325C254.987 174.032 254.439 172.18 252.836 171.189C251.233 170.199 249.182 170.444 248.256 171.738C247.329 173.031 247.878 174.883 249.481 175.874C251.084 176.865 253.134 176.619 254.061 175.325Z" fill="#F2F2F2"/>
<path d="M95.049 19.9922C95.9755 18.6986 95.4271 16.8467 93.8241 15.8561C92.2211 14.8654 90.1705 15.111 89.244 16.4046C88.3175 17.6982 88.8659 19.5501 90.4689 20.5407C92.0719 21.5314 94.1225 21.2858 95.049 19.9922Z" fill="#F2F2F2"/>
<path d="M169.256 4.74474C170.183 3.4511 169.634 1.5993 168.031 0.608613C166.428 -0.38207 164.378 -0.136481 163.451 1.15716C162.525 2.4508 163.073 4.30262 164.676 5.2933C166.279 6.28399 168.33 6.03838 169.256 4.74474Z" fill="#F2F2F2"/>
<path d="M134.135 132.669C135.062 131.375 134.513 129.523 132.91 128.533C131.307 127.542 129.256 127.788 128.33 129.081C127.403 130.375 127.952 132.227 129.555 133.218C131.158 134.208 133.208 133.963 134.135 132.669Z" fill="#E6E6E6"/>
<path d="M287.205 200H64.8298C64.722 200 64.6188 199.96 64.5427 199.889C64.4666 199.818 64.4238 199.722 64.4238 199.622C64.4238 199.522 64.4666 199.426 64.5427 199.355C64.6188 199.284 64.722 199.244 64.8298 199.244H287.205C287.313 199.244 287.417 199.283 287.493 199.354C287.569 199.425 287.612 199.521 287.612 199.622C287.612 199.722 287.569 199.818 287.493 199.889C287.417 199.96 287.313 200 287.205 200Z" fill="#CCCCCC"/>
<path d="M106.22 74.3827C104.349 74.3776 102.546 73.7324 101.155 72.5703C99.7645 71.4082 98.8837 69.8108 98.681 68.0834L94.3397 30.6297C94.1264 28.7701 94.7159 26.9079 95.9789 25.4515C97.2418 23.9952 99.0752 23.0637 101.077 22.8615L229.98 9.96851C231.982 9.77029 233.987 10.3178 235.555 11.491C237.123 12.6642 238.126 14.3672 238.343 16.2264L242.685 53.6799C242.898 55.5395 242.308 57.4019 241.045 58.8582C239.782 60.3146 237.949 61.2462 235.948 61.4485L235.929 61.2906L235.948 61.4485L107.044 74.3414C106.77 74.3689 106.495 74.3826 106.22 74.3827Z" fill="#E6E6E6"/>
<path d="M228.56 11.7073C228.318 11.7074 228.076 11.7195 227.835 11.7436L103.579 24.1717C102.71 24.2586 101.868 24.5036 101.101 24.8927C100.334 25.2819 99.6572 25.8075 99.109 26.4397C98.5608 27.0718 98.152 27.7981 97.906 28.577C97.6599 29.3559 97.5814 30.1722 97.675 30.9792L99.87 49.9161C100.225 52.9775 101.225 55.944 102.814 58.6463C104.403 61.3485 106.55 63.7335 109.131 65.6652C111.712 67.5968 114.678 69.0373 117.858 69.9043C121.039 70.7713 124.372 71.0479 127.668 70.7182L215.041 61.9791C218.326 61.6505 221.51 60.724 224.41 59.2524C227.31 57.7808 229.87 55.793 231.943 53.4025C234.016 51.012 235.562 48.2656 236.493 45.3201C237.423 42.3746 237.72 39.2877 237.366 36.2356L235.163 17.2276C234.988 15.7136 234.217 14.313 232.998 13.2943C231.78 12.2756 230.199 11.7105 228.56 11.7073V11.7073Z" fill="white"/>
<path d="M202.395 31.4152L132.946 38.3615C132.748 38.3816 132.547 38.3651 132.355 38.3131C132.163 38.261 131.985 38.1743 131.829 38.058C131.673 37.9417 131.544 37.798 131.448 37.6352C131.352 37.4724 131.292 37.2936 131.27 37.1092C131.249 36.9247 131.267 36.7381 131.323 36.56C131.38 36.382 131.473 36.216 131.599 36.0716C131.724 35.9272 131.879 35.8072 132.054 35.7184C132.23 35.6296 132.422 35.5738 132.621 35.5542L202.069 28.6079C202.268 28.5878 202.469 28.6043 202.66 28.6563C202.852 28.7084 203.031 28.7951 203.187 28.9114C203.342 29.0277 203.472 29.1714 203.567 29.3342C203.663 29.497 203.724 29.6757 203.745 29.8602C203.766 30.0447 203.748 30.2313 203.692 30.4093C203.636 30.5874 203.542 30.7533 203.417 30.8978C203.291 31.0422 203.137 31.1622 202.961 31.251C202.786 31.3398 202.593 31.3956 202.395 31.4152Z" fill="#F9A826"/>
<path d="M203.393 40.0309L133.944 46.9771C133.543 47.0172 133.142 46.9077 132.828 46.6729C132.514 46.438 132.314 46.0969 132.27 45.7246C132.227 45.3523 132.345 44.9794 132.598 44.6878C132.851 44.3962 133.218 44.2099 133.619 44.1698L203.067 37.2236C203.468 37.1835 203.869 37.2929 204.183 37.5278C204.497 37.7627 204.698 38.1038 204.741 38.4761C204.784 38.8483 204.666 39.2213 204.413 39.5129C204.161 39.8044 203.793 39.9908 203.393 40.0309Z" fill="#F9A826"/>
<path d="M143.035 54.7831L134.942 55.5926C134.541 55.6327 134.14 55.5232 133.826 55.2884C133.512 55.0535 133.312 54.7124 133.269 54.3401C133.225 53.9678 133.343 53.5949 133.596 53.3033C133.849 53.0117 134.216 52.8254 134.617 52.7853L142.71 51.9758C142.909 51.9557 143.11 51.9722 143.301 52.0242C143.493 52.0763 143.672 52.163 143.827 52.2793C143.983 52.3956 144.112 52.5393 144.208 52.7021C144.304 52.8649 144.364 53.0437 144.386 53.2281C144.407 53.4126 144.389 53.5992 144.333 53.7773C144.277 53.9553 144.183 54.1212 144.058 54.2657C143.932 54.4101 143.777 54.5301 143.602 54.6189C143.427 54.7077 143.234 54.7635 143.035 54.7831Z" fill="#F9A826"/>
<path d="M103.488 32.2102C104.999 32.2102 106.223 31.0724 106.223 29.6689C106.223 28.2654 104.999 27.1277 103.488 27.1277C101.977 27.1277 100.752 28.2654 100.752 29.6689C100.752 31.0724 101.977 32.2102 103.488 32.2102Z" fill="#3F3D56"/>
<path d="M225.91 19.5039C227.42 19.5039 228.645 18.3661 228.645 16.9626C228.645 15.5591 227.42 14.4214 225.91 14.4214C224.399 14.4214 223.174 15.5591 223.174 16.9626C223.174 18.3661 224.399 19.5039 225.91 19.5039Z" fill="#3F3D56"/>
<path d="M188.924 71.6745C188.673 71.4695 188.474 71.2149 188.341 70.9294C188.209 70.6439 188.147 70.3347 188.159 70.0241C188.297 66.333 187.642 62.6534 186.234 59.1995C186.115 58.9091 186.067 58.5977 186.093 58.2879C186.119 57.978 186.22 57.6776 186.387 57.4083C186.547 57.1495 186.766 56.9264 187.029 56.7546C187.292 56.5829 187.592 56.4666 187.908 56.4141C191.088 54.6316 194.348 54.1312 197.599 54.927C198.123 54.8554 198.657 54.9596 199.106 55.2211C199.555 55.4825 199.889 55.8841 200.048 56.3536C201.364 60.3231 202.097 64.4396 202.225 68.5914C202.237 69.0894 202.055 69.5749 201.713 69.9586C201.371 70.3423 200.892 70.5984 200.362 70.68L190.742 72.1564C190.419 72.2066 190.089 72.1893 189.774 72.106C189.46 72.0226 189.169 71.8752 188.924 71.6745Z" fill="#F9A826"/>
<path d="M189.779 60.9202L197.876 59.6775C197.943 59.6674 198.007 59.6452 198.064 59.6122C198.121 59.5792 198.171 59.536 198.21 59.4851C198.25 59.4342 198.278 59.3766 198.293 59.3156C198.309 59.2546 198.311 59.1914 198.3 59.1295C198.289 59.0677 198.265 59.0085 198.229 58.9553C198.194 58.9021 198.147 58.856 198.092 58.8195C198.037 58.7831 197.975 58.7571 197.909 58.743C197.844 58.7288 197.776 58.7269 197.709 58.7373L189.612 59.9799C189.478 60.0008 189.358 60.0702 189.279 60.1728C189.2 60.2755 189.168 60.403 189.19 60.5275C189.213 60.652 189.287 60.7633 189.397 60.8369C189.508 60.9105 189.645 60.9404 189.779 60.9202Z" fill="white"/>
<path d="M190.447 64.681L198.545 63.4383C198.679 63.4177 198.799 63.3484 198.878 63.2457C198.957 63.143 198.989 63.0152 198.967 62.8905C198.945 62.7658 198.87 62.6544 198.76 62.5809C198.649 62.5073 198.512 62.4775 198.377 62.4981L190.28 63.7407C190.214 63.7508 190.15 63.773 190.092 63.806C190.035 63.839 189.985 63.8822 189.946 63.9331C189.907 63.984 189.878 64.0416 189.863 64.1026C189.848 64.1636 189.845 64.2269 189.856 64.2887C189.867 64.3505 189.891 64.4097 189.927 64.4629C189.963 64.5161 190.009 64.5623 190.064 64.5987C190.119 64.6351 190.181 64.6611 190.247 64.6753C190.313 64.6894 190.381 64.6913 190.447 64.681Z" fill="white"/>
<path d="M191.116 68.4419L199.213 67.1993C199.348 67.1787 199.468 67.1094 199.547 67.0067C199.626 66.9039 199.658 66.7762 199.636 66.6515C199.614 66.5268 199.539 66.4154 199.429 66.3418C199.318 66.2682 199.18 66.2385 199.046 66.2591L190.949 67.5017C190.882 67.5119 190.819 67.5342 190.762 67.5672C190.704 67.6003 190.655 67.6435 190.615 67.6943C190.576 67.7452 190.548 67.8027 190.533 67.8637C190.518 67.9246 190.515 67.9877 190.526 68.0495C190.537 68.1112 190.561 68.1703 190.597 68.2235C190.632 68.2766 190.679 68.3227 190.734 68.3591C190.789 68.3956 190.85 68.4217 190.916 68.4359C190.982 68.4501 191.05 68.4521 191.116 68.4419Z" fill="white"/>
</g>
<defs>
<clipPath id="clip0_1_4051">
<rect width="250" height="200" fill="white" transform="translate(58)"/>
</clipPath>
</defs>
</svg>
