<svg width="148" height="26" viewBox="0 0 148 26" fill="none" xmlns="http://www.w3.org/2000/svg">
<g clip-path="url(#clip0_1_2481)">
<path d="M87.6498 9.5984V9.31266C87.6124 9.21251 87.5991 9.10495 87.611 8.99871C87.6196 8.87974 87.6065 8.7602 87.5722 8.64595C87.576 8.58015 87.576 8.5142 87.5722 8.44841C87.566 8.37446 87.566 8.30012 87.5722 8.22617C87.5197 7.98515 87.4808 7.74136 87.4558 7.49596C87.4288 7.25432 87.3707 7.01719 87.2829 6.79044C87.149 6.34993 86.9924 5.91664 86.8138 5.49229C86.6425 5.08954 86.4408 4.70038 86.2106 4.3282C86.1207 4.18579 86.0205 4.05019 85.9107 3.92252C85.8004 3.79528 85.7002 3.65964 85.6109 3.51685L85.3745 3.30873C85.2353 3.13602 85.0781 2.97874 84.9054 2.83956L84.7466 2.68082C84.3939 2.41978 83.9776 2.14815 83.5437 1.86947C83.3684 1.76626 83.1842 1.6789 82.9934 1.60843C82.8029 1.53788 82.6089 1.46028 82.4184 1.37209C82.2079 1.28572 81.9893 1.22072 81.7658 1.17807L81.0603 1.03344C80.9643 0.998988 80.862 0.985749 80.7604 0.994634C80.6589 1.00225 80.5569 0.989045 80.4606 0.955831C80.3686 0.919908 80.2697 0.905431 80.1713 0.9135C80.0744 0.924436 79.9762 0.911102 79.8856 0.874697H79.5717C79.4711 0.860127 79.3689 0.860127 79.2683 0.874697H78.9437H71.8745C71.8405 0.888426 71.8026 0.888426 71.7687 0.874697C71.7344 0.862592 71.6971 0.862592 71.6628 0.874697C71.5084 0.919086 71.3716 1.0103 71.2713 1.13574C71.1765 1.30656 71.1359 1.50218 71.1549 1.69662C71.1549 1.93297 71.1549 2.15521 71.1549 2.36686V17.7224C71.1549 17.9164 71.1549 18.1528 71.1549 18.4279C71.1364 18.644 71.1579 18.8617 71.2184 19.0699C71.2509 19.1632 71.3087 19.2455 71.3853 19.3078C71.4619 19.3701 71.5543 19.4099 71.6522 19.4227C71.8993 19.4506 72.1479 19.4636 72.3966 19.4615H78.4922C78.6474 19.4615 78.845 19.4615 79.0425 19.4862C79.2167 19.5062 79.393 19.4979 79.5646 19.4615C79.6166 19.4474 79.6714 19.4474 79.7233 19.4615C79.7739 19.4768 79.8279 19.4768 79.8786 19.4615C79.9568 19.4482 80.0367 19.4482 80.1149 19.4615C80.1837 19.4736 80.2542 19.4736 80.323 19.4615C80.4055 19.4449 80.4894 19.4366 80.5735 19.4368C80.6565 19.4355 80.7392 19.4261 80.8204 19.4086C80.9978 19.3599 81.1781 19.3222 81.3601 19.2957C81.5345 19.2736 81.7068 19.237 81.8752 19.1864C82.3055 19.0541 82.7262 18.8927 83.1345 18.7031C83.5147 18.5267 83.8784 18.3166 84.221 18.0752C84.8263 17.6619 85.3571 17.1491 85.7908 16.5583C86.24 15.941 86.6109 15.2703 86.8949 14.5617C87.0029 14.2854 87.0936 14.0026 87.1665 13.7151C87.2335 13.4611 87.3041 13.1965 87.3888 12.9214C87.4382 12.7328 87.4724 12.5405 87.4911 12.3464C87.4911 12.1524 87.5369 11.9619 87.5722 11.7714C87.5845 11.6836 87.5845 11.5946 87.5722 11.5068C87.5645 11.418 87.5777 11.3285 87.611 11.2458C87.611 11.1435 87.611 11.0341 87.611 10.9212C87.611 10.8084 87.611 10.6884 87.611 10.5685C87.611 10.5332 87.611 10.4697 87.611 10.385C87.6298 10.1927 87.6298 9.99891 87.611 9.80652C87.6533 9.72186 87.6498 9.65131 87.6498 9.5984ZM83.579 10.8401V11.1011C83.544 11.2383 83.5263 11.3793 83.5261 11.5209C83.5273 11.6533 83.5094 11.7852 83.4732 11.9125V12.1206C83.4202 12.297 83.3779 12.4734 83.3426 12.6462C83.3112 12.8091 83.2578 12.9669 83.1839 13.1154C82.9569 13.7046 82.6352 14.2527 82.2314 14.7381C81.8138 15.209 81.2886 15.572 80.7005 15.7964C80.135 16.0003 79.5378 16.1018 78.9367 16.0962C78.2312 16.0962 77.5503 16.0962 76.8695 16.0962C76.5556 16.0962 76.2487 16.0962 75.9524 16.0962C75.8313 16.1062 75.7099 16.0804 75.6033 16.0221C75.4967 15.9638 75.4096 15.8755 75.3527 15.7681C75.314 15.6725 75.2914 15.5712 75.2856 15.4683C75.2856 15.3554 75.2856 15.239 75.2856 15.1155V14.8545C75.2498 14.754 75.2366 14.6468 75.2468 14.5405C75.2468 14.4171 75.2468 14.3042 75.2468 14.1878V6.90333C75.2468 6.65992 75.2468 6.41652 75.2468 6.16959C75.2468 5.92266 75.2468 5.69337 75.2468 5.46408V4.94199C75.242 4.81592 75.2792 4.6918 75.3527 4.58924C75.397 4.50758 75.4718 4.44674 75.5608 4.41991C75.649 4.39169 75.7372 4.36347 75.8254 4.3282C75.8888 4.31006 75.956 4.31006 76.0194 4.3282C76.0476 4.33865 76.0781 4.34154 76.1078 4.33659C76.1375 4.33164 76.1654 4.31902 76.1887 4.29997H77.3669C77.4727 4.29997 77.5751 4.29997 77.6809 4.29997C77.7769 4.28729 77.8741 4.28729 77.9701 4.29997H78.5451C78.6054 4.31463 78.6683 4.31463 78.7286 4.29997C78.7974 4.28784 78.8679 4.28784 78.9367 4.29997C79.0615 4.33286 79.189 4.35412 79.3177 4.36347L79.6951 4.4058C79.868 4.44461 80.0479 4.48694 80.2137 4.53632L80.9615 4.81853C81.2937 4.98348 81.6021 5.1923 81.8787 5.43938C82.2561 5.77879 82.5797 6.1737 82.8382 6.61054C82.9531 6.80968 83.0443 7.02161 83.1098 7.24198C83.1874 7.49596 83.2721 7.76053 83.3567 8.03921C83.3904 8.11817 83.405 8.20401 83.3991 8.28966C83.39 8.37396 83.4033 8.45916 83.4379 8.5366C83.475 8.69161 83.4963 8.84998 83.5014 9.00929C83.5106 9.17659 83.533 9.34291 83.5684 9.50668V10.0041C83.6424 10.2774 83.646 10.565 83.579 10.8401Z" fill="#191E37"/>
<path d="M109.683 6.19784C109.577 6.10934 109.444 6.0585 109.306 6.05321C109.158 6.05321 108.988 6.05321 108.794 6.05321H107.461C107.306 6.05321 107.151 6.05321 107.002 6.05321C106.869 6.05913 106.739 6.09921 106.625 6.16962C106.555 6.23861 106.505 6.32513 106.48 6.42008C106.452 6.51532 106.424 6.60704 106.389 6.69523C106.355 6.77964 106.329 6.86703 106.311 6.95627C106.303 6.9982 106.284 7.03729 106.257 7.06953C106.229 7.10177 106.193 7.126 106.152 7.13971C106.133 7.15743 106.109 7.16921 106.084 7.1736C106.058 7.17798 106.032 7.17479 106.008 7.1644C105.959 7.15407 105.911 7.13747 105.867 7.11501C105.751 7.05162 105.645 6.97203 105.553 6.87866C105.461 6.78636 105.364 6.69921 105.263 6.61762L105.08 6.47299L104.925 6.35306C104.556 6.11959 104.154 5.94355 103.732 5.83098C103.242 5.7055 102.735 5.6532 102.23 5.67576C102.194 5.71104 102.117 5.71809 101.993 5.70045C101.898 5.68249 101.8 5.68249 101.704 5.70045C101.563 5.73561 101.419 5.75804 101.274 5.76748C101.126 5.77482 100.981 5.80579 100.843 5.85919C100.567 5.93763 100.296 6.03306 100.032 6.14493C99.7886 6.24514 99.5527 6.36304 99.3265 6.49769L99.0655 6.66701C98.9773 6.73051 98.8926 6.794 98.8044 6.86456L98.6492 7.01977C98.561 7.09032 98.4693 7.16793 98.3741 7.25611C98.2888 7.33301 98.2141 7.42078 98.1518 7.51716L97.7991 7.97574C97.6825 8.12661 97.5809 8.28847 97.4957 8.45902C97.3214 8.73941 97.1772 9.03737 97.0653 9.34797C96.9524 9.6631 96.8431 9.99469 96.7372 10.3427C96.702 10.5191 96.6773 10.6955 96.6597 10.8542C96.642 11.013 96.6173 11.207 96.582 11.3622C96.5474 11.427 96.5338 11.501 96.5432 11.5739C96.5555 11.6427 96.5555 11.7132 96.5432 11.782V12.043C96.5103 12.2605 96.5103 12.4817 96.5432 12.6992V12.9567C96.5432 13.0408 96.5515 13.1247 96.5679 13.2071C96.5963 13.3571 96.6058 13.5099 96.5962 13.6622C96.5947 13.8167 96.6124 13.9707 96.6491 14.1208C96.668 14.1897 96.6763 14.261 96.6738 14.3324C96.7432 14.536 96.7962 14.7448 96.8325 14.9568C96.8662 15.1652 96.9279 15.3681 97.0159 15.56C97.2988 16.259 97.6918 16.908 98.18 17.4826C98.6759 18.0378 99.2994 18.4639 99.9967 18.7243C100.197 18.8153 100.408 18.8816 100.625 18.9218C100.85 18.9641 101.087 19.0135 101.33 19.0664C101.393 19.0829 101.459 19.0912 101.524 19.0911C101.582 19.091 101.639 19.1005 101.693 19.1194H101.905C102.043 19.1399 102.182 19.1482 102.321 19.1441C102.462 19.1482 102.602 19.1399 102.741 19.1194C102.832 19.1008 102.924 19.0878 103.016 19.0806L103.316 19.0382C103.528 18.9888 103.725 18.9359 103.919 18.883C104.116 18.8272 104.308 18.7577 104.494 18.6749C104.676 18.5929 104.851 18.4961 105.016 18.3856C105.175 18.2798 105.33 18.1669 105.489 18.0329C105.577 17.9623 105.665 17.8847 105.764 17.7965C105.815 17.7519 105.876 17.7192 105.941 17.7009C106.006 17.6826 106.075 17.6791 106.142 17.6907C106.169 17.7201 106.2 17.7461 106.233 17.7683C106.263 17.7887 106.286 17.8167 106.3 17.8494C106.334 17.9132 106.348 17.9858 106.339 18.0576C106.331 18.1384 106.344 18.22 106.378 18.2939C106.391 18.3544 106.391 18.4169 106.378 18.4773C106.373 18.5466 106.373 18.6162 106.378 18.6855C106.378 18.876 106.378 19.0664 106.378 19.2464C106.373 19.4184 106.351 19.5896 106.315 19.7579C106.281 19.8739 106.254 19.9916 106.233 20.1106C106.216 20.2172 106.19 20.3222 106.156 20.4246C106.008 20.7616 105.806 21.0715 105.556 21.3417C105.298 21.6127 104.985 21.8266 104.639 21.9696C104.578 22.0026 104.51 22.0208 104.441 22.0226C104.365 22.0264 104.289 22.0443 104.219 22.0755C104.074 22.1187 103.925 22.1494 103.775 22.1672C103.62 22.1985 103.46 22.1985 103.305 22.1672H103.016C102.887 22.1343 102.754 22.1119 102.621 22.1002C102.501 22.0988 102.382 22.0785 102.268 22.0402C102.082 21.9764 101.901 21.8962 101.729 21.8003C101.574 21.715 101.426 21.6195 101.284 21.5146C101.267 21.4803 101.245 21.4492 101.217 21.4229C101.195 21.4 101.178 21.3738 101.164 21.3453C101.08 21.2637 101.001 21.1764 100.928 21.0842C100.79 20.8902 100.685 20.7315 100.614 20.6256C100.478 20.4748 100.293 20.3772 100.092 20.3505C100.018 20.3547 99.9438 20.3547 99.8697 20.3505C99.7958 20.3443 99.7215 20.3443 99.6475 20.3505H98.7586C98.5645 20.3505 98.36 20.3505 98.1412 20.3505C97.9452 20.3408 97.7487 20.3539 97.5557 20.3893C97.3987 20.414 97.2553 20.4926 97.15 20.6115C97.0987 20.6852 97.0658 20.7701 97.0542 20.8591C97.0425 20.9481 97.0524 21.0386 97.083 21.123C97.1012 21.164 97.1096 21.2087 97.1076 21.2535C97.109 21.3106 97.1275 21.3658 97.1606 21.4123C97.3751 22.0804 97.7751 22.6738 98.3141 23.1232C98.8807 23.5842 99.5148 23.9554 100.194 24.2238C100.318 24.2762 100.445 24.3198 100.575 24.3543C100.741 24.3966 100.91 24.4354 101.087 24.4707C101.127 24.4903 101.172 24.5 101.217 24.4989C101.262 24.4969 101.307 24.5054 101.348 24.5236C101.48 24.5601 101.616 24.5779 101.753 24.5765C101.898 24.5761 102.043 24.5938 102.184 24.6294C102.253 24.6463 102.324 24.6546 102.395 24.6541H102.628C102.854 24.6918 103.084 24.6918 103.309 24.6541C103.396 24.6419 103.483 24.6419 103.57 24.6541C103.648 24.6686 103.728 24.6686 103.806 24.6541C103.885 24.6582 103.964 24.6582 104.043 24.6541C104.112 24.6489 104.182 24.6489 104.251 24.6541C104.445 24.6189 104.635 24.5942 104.826 24.5765C105.021 24.5584 105.215 24.523 105.404 24.4707C105.613 24.4213 105.814 24.3684 106.004 24.3155C106.201 24.2602 106.393 24.1907 106.579 24.1074C107.2 23.8566 107.772 23.4984 108.269 23.0491C108.753 22.5792 109.139 22.0181 109.405 21.3982C109.494 21.2017 109.56 20.9958 109.602 20.7844C109.645 20.5657 109.701 20.3364 109.772 20.0789C109.789 19.9413 109.803 19.8143 109.81 19.7014C109.817 19.5885 109.832 19.4615 109.849 19.3204C109.867 19.1793 109.849 19.0453 109.849 18.9148C109.849 18.7842 109.849 18.6502 109.849 18.5091V7.24553C109.849 7.03388 109.849 6.82928 109.849 6.62821C109.856 6.54861 109.844 6.46855 109.816 6.39401C109.787 6.31948 109.742 6.25241 109.683 6.19784ZM106.389 12.9002C106.373 13.16 106.337 13.4183 106.283 13.6728C106.242 13.8794 106.18 14.0815 106.099 14.276C105.942 14.6857 105.716 15.0661 105.433 15.4013C105.145 15.7277 104.782 15.9784 104.374 16.1315C104.243 16.1988 104.101 16.243 103.955 16.262C103.817 16.262 103.669 16.3079 103.51 16.3396H103.249C103.197 16.3554 103.142 16.3554 103.09 16.3396H102.935C102.84 16.322 102.743 16.3137 102.646 16.3149C102.395 16.2509 102.15 16.1635 101.916 16.0539C101.535 15.8651 101.211 15.5806 100.974 15.2284C100.73 14.8595 100.537 14.4597 100.399 14.0396C100.364 13.906 100.337 13.7706 100.318 13.634C100.299 13.4974 100.273 13.362 100.24 13.2283V12.9673C100.183 12.6747 100.165 12.3757 100.187 12.0783C100.194 11.7956 100.229 11.5142 100.293 11.2387C100.308 11.1704 100.316 11.1006 100.318 11.0306C100.323 10.9586 100.34 10.8881 100.371 10.8225C100.519 10.3718 100.722 9.94064 100.974 9.53846C101.228 9.14834 101.598 8.84743 102.032 8.67773C102.138 8.64245 102.244 8.61071 102.346 8.58601L102.699 8.4943C102.754 8.48055 102.812 8.48055 102.868 8.4943C102.894 8.49963 102.92 8.49889 102.945 8.49215C102.97 8.48541 102.993 8.47285 103.013 8.45549C103.711 8.40886 104.405 8.58286 104.999 8.95288C105.48 9.31173 105.847 9.80163 106.057 10.3639C106.112 10.4771 106.155 10.5952 106.188 10.7167L106.293 11.0694C106.305 11.1265 106.305 11.1852 106.293 11.2423C106.287 11.3015 106.3 11.3612 106.332 11.4116C106.387 11.643 106.418 11.8794 106.424 12.1171C106.403 12.3711 106.399 12.6392 106.382 12.9073L106.389 12.9002Z" fill="#191E37"/>
<path d="M124.355 9.7571C124.372 9.66148 124.372 9.56345 124.355 9.46784C124.337 9.37222 124.337 9.27419 124.355 9.17858C124.384 9.03734 124.433 8.90082 124.499 8.7729C124.53 8.71619 124.573 8.6669 124.624 8.6285C124.676 8.5901 124.736 8.56353 124.799 8.55067C124.845 8.52008 124.9 8.50636 124.954 8.51186C125.015 8.5255 125.077 8.5255 125.138 8.51186C125.203 8.49692 125.27 8.49692 125.335 8.51186C125.413 8.51186 125.487 8.51186 125.557 8.51186C125.91 8.51186 126.221 8.51186 126.499 8.48364C126.63 8.47976 126.756 8.43159 126.856 8.34701C126.956 8.26243 127.024 8.14644 127.05 8.018C127.085 7.91747 127.099 7.81028 127.088 7.70405C127.088 7.58411 127.088 7.46065 127.088 7.35129C127.091 7.09793 127.078 6.84465 127.05 6.59286C127.044 6.49176 127.011 6.39416 126.953 6.31119C126.895 6.22823 126.815 6.16326 126.722 6.12369C126.631 6.08754 126.534 6.06957 126.436 6.07078H126.122C125.826 6.07078 125.515 6.07078 125.194 6.07078C125.071 6.08143 124.947 6.06483 124.831 6.02215C124.716 5.97946 124.611 5.91176 124.524 5.82385C124.455 5.73559 124.41 5.63112 124.393 5.52048C124.375 5.39548 124.367 5.26929 124.369 5.14303V4.84318C124.356 4.74366 124.356 4.64286 124.369 4.54334C124.369 4.43046 124.369 4.32816 124.369 4.24349V2.69136C124.371 2.5843 124.353 2.47777 124.316 2.37741C124.28 2.28926 124.221 2.21234 124.145 2.15465C124.07 2.09696 123.98 2.06059 123.885 2.04934C123.651 2.02196 123.416 2.009 123.18 2.01054H121.416C121.369 2.02614 121.318 2.02614 121.271 2.01054C121.225 1.99681 121.176 1.99681 121.13 2.01054C121.043 2.03743 120.962 2.08287 120.894 2.14375C120.826 2.20463 120.772 2.27952 120.735 2.3633C120.7 2.49076 120.683 2.62264 120.686 2.75486V4.84318C120.686 5.00192 120.686 5.15714 120.686 5.31588C120.679 5.45887 120.648 5.59968 120.594 5.73213C120.549 5.81979 120.482 5.89399 120.399 5.94725C120.316 6.00051 120.22 6.03095 120.121 6.0355C119.879 6.06171 119.635 6.07467 119.391 6.07431C119.313 6.08011 119.234 6.08011 119.155 6.07431C119.083 6.06788 119.011 6.08131 118.947 6.11311C118.686 6.18366 118.534 6.31418 118.502 6.5082C118.463 6.75898 118.445 7.01276 118.449 7.26663V7.8134C118.485 7.97214 118.52 8.10266 118.552 8.20849C118.575 8.26513 118.611 8.31564 118.657 8.35604C118.702 8.39644 118.757 8.42563 118.816 8.44131C119.058 8.53392 119.319 8.56189 119.575 8.52245C119.821 8.48059 120.073 8.50745 120.305 8.60005C120.396 8.64527 120.476 8.71126 120.537 8.79274C120.598 8.87421 120.64 8.9689 120.658 9.06922C120.696 9.1827 120.709 9.30297 120.696 9.42198C120.696 9.54192 120.696 9.66538 120.696 9.77474V16.0538C120.696 16.1385 120.696 16.2267 120.696 16.3149C120.682 16.393 120.682 16.4731 120.696 16.5512V16.8123C120.715 16.8533 120.723 16.8979 120.721 16.9428C120.721 16.9875 120.729 17.0317 120.746 17.0733C120.759 17.1468 120.759 17.222 120.746 17.2955C120.739 17.3626 120.752 17.4303 120.785 17.4895C120.905 17.8848 121.091 18.257 121.335 18.5902C121.376 18.6314 121.42 18.6702 121.465 18.7066L121.596 18.8265L121.779 18.9676C121.83 19.0109 121.883 19.051 121.938 19.0875C122.098 19.1769 122.262 19.2558 122.432 19.3239C122.608 19.3909 122.785 19.4544 122.982 19.5073L123.296 19.5567L123.649 19.6096C123.743 19.6287 123.839 19.6382 123.935 19.6378C124.032 19.6365 124.129 19.6448 124.224 19.6625H124.499C124.577 19.6754 124.657 19.6754 124.736 19.6625C124.822 19.6574 124.91 19.6574 124.997 19.6625C125.088 19.6574 125.18 19.6574 125.272 19.6625C125.363 19.675 125.456 19.675 125.547 19.6625C125.607 19.6496 125.67 19.6496 125.73 19.6625C125.783 19.6665 125.836 19.6665 125.889 19.6625H126.15C126.223 19.6289 126.303 19.6154 126.383 19.6237C126.464 19.6302 126.545 19.6169 126.619 19.5849C126.749 19.5429 126.861 19.46 126.939 19.3487C127.018 19.2374 127.057 19.1036 127.053 18.9676C127.053 18.6642 127.053 18.3291 127.053 17.9622V17.4507C127.059 17.3085 127.023 17.1677 126.951 17.0451C126.911 16.9868 126.858 16.938 126.797 16.9021C126.736 16.8662 126.668 16.8439 126.598 16.8369C126.433 16.8186 126.267 16.8103 126.101 16.8123H125.815C125.768 16.7969 125.717 16.7969 125.67 16.8123C125.615 16.8247 125.557 16.8247 125.501 16.8123C125.342 16.777 125.191 16.7382 125.042 16.6958C124.904 16.6607 124.781 16.5829 124.69 16.4736C124.496 16.2303 124.382 15.9337 124.362 15.6235C124.337 15.2989 124.323 14.9179 124.323 14.4841V9.7571H124.355Z" fill="#191E37"/>
<path d="M141.079 18.3221C141.078 18.2648 141.07 18.2079 141.054 18.1527C140.981 17.849 140.945 17.5374 140.948 17.225V10.385C140.948 9.98285 140.948 9.59129 140.92 9.20678C140.911 8.85741 140.84 8.51237 140.712 8.18732C140.517 7.71161 140.21 7.29034 139.816 6.95972C139.406 6.62501 138.942 6.36364 138.444 6.18718C137.873 5.98821 137.281 5.8568 136.68 5.79562C135.998 5.72628 135.312 5.70036 134.627 5.71801C134.592 5.75329 134.5 5.76034 134.352 5.7427C134.243 5.72815 134.132 5.72815 134.024 5.7427C133.801 5.79515 133.574 5.83052 133.346 5.84853C133.125 5.86516 132.906 5.90057 132.69 5.95436C132.337 6.06019 132.002 6.16601 131.671 6.27889C131.34 6.39434 131.024 6.54826 130.729 6.73748C130.647 6.78627 130.568 6.83925 130.493 6.89622L130.256 7.07965C130.212 7.13094 130.159 7.17497 130.101 7.21017C129.905 7.36987 129.729 7.55357 129.579 7.75695L129.42 8.02152C129.367 8.10618 129.318 8.19437 129.265 8.28256C129.174 8.42673 129.1 8.58053 129.043 8.74114C128.979 8.90694 128.923 9.0939 128.87 9.27734C128.852 9.34789 128.835 9.4255 128.82 9.51016C128.803 9.59746 128.803 9.68742 128.82 9.77473C128.829 9.85473 128.861 9.93052 128.912 9.99306C128.962 10.0556 129.03 10.1023 129.106 10.1275C129.123 10.1448 129.143 10.1584 129.166 10.1675C129.188 10.1766 129.212 10.181 129.237 10.1804C129.282 10.1784 129.326 10.1868 129.367 10.2051H129.604C129.682 10.2197 129.762 10.2197 129.84 10.2051C129.925 10.2051 130.013 10.2051 130.101 10.2051H131.554C131.704 10.2062 131.853 10.1884 131.999 10.1522C132.084 10.1366 132.163 10.0995 132.23 10.0446C132.297 9.98965 132.348 9.91863 132.38 9.83822C132.445 9.66992 132.52 9.50508 132.602 9.34436C132.646 9.21581 132.713 9.0963 132.8 8.9916C132.879 8.88567 132.972 8.78973 133.075 8.70587C133.156 8.63884 133.244 8.57535 133.332 8.51538C133.431 8.4543 133.537 8.40348 133.646 8.36369C133.826 8.30631 134.01 8.26267 134.196 8.23317C134.414 8.19792 134.633 8.17553 134.853 8.16615C135.075 8.15779 135.298 8.16723 135.519 8.19437C135.71 8.21311 135.898 8.25214 136.08 8.31078C136.335 8.3866 136.567 8.52222 136.759 8.70632C136.95 8.89042 137.095 9.11766 137.181 9.36905C137.199 9.42908 137.212 9.49042 137.22 9.55249C137.227 9.62388 137.24 9.69462 137.258 9.76414V9.91935C137.262 9.97343 137.253 10.0276 137.234 10.0781C137.22 10.1108 137.22 10.1476 137.234 10.1804C137.245 10.2231 137.245 10.2682 137.234 10.3109C137.178 10.5109 137.069 10.6924 136.92 10.8365C136.697 11.0674 136.411 11.227 136.098 11.2951C135.791 11.3551 135.456 11.4292 135.089 11.5138C134.961 11.5476 134.83 11.5653 134.697 11.5668C134.578 11.5683 134.459 11.5861 134.345 11.6197C134.217 11.6543 134.085 11.6674 133.953 11.6585C133.834 11.6534 133.715 11.6665 133.6 11.6973C133.446 11.7317 133.289 11.7541 133.131 11.7643C132.98 11.7721 132.83 11.7933 132.683 11.8278C132.44 11.8807 132.196 11.9266 131.953 11.9618C131.712 11.9963 131.475 12.0567 131.247 12.1417C130.729 12.2992 130.235 12.5284 129.78 12.8226C129.358 13.1259 129.01 13.5201 128.76 13.9761C128.667 14.1444 128.597 14.3248 128.552 14.5123C128.499 14.7134 128.447 14.9074 128.394 15.1014C128.39 15.2509 128.373 15.3997 128.341 15.5459C128.324 15.6629 128.324 15.7816 128.341 15.8986C128.341 16.0091 128.354 16.1192 128.379 16.2267C128.394 16.3131 128.394 16.4013 128.379 16.4877C128.374 16.5765 128.387 16.6655 128.418 16.7488C128.454 16.904 128.492 17.0521 128.538 17.1932C128.578 17.3266 128.627 17.4574 128.683 17.5848C128.864 18.0532 129.155 18.4708 129.533 18.8018C129.917 19.1247 130.355 19.3767 130.828 19.5461C130.967 19.6179 131.117 19.6667 131.272 19.6908C131.427 19.7155 131.593 19.7472 131.769 19.7825C131.875 19.8187 131.987 19.8319 132.098 19.8213C132.216 19.8138 132.336 19.8269 132.45 19.8601H132.613C132.786 19.8953 132.965 19.8953 133.138 19.8601H133.424C133.477 19.8636 133.53 19.8636 133.583 19.8601C133.634 19.8549 133.686 19.8549 133.738 19.8601C133.861 19.8601 133.978 19.8283 134.091 19.8213C134.21 19.8101 134.328 19.7876 134.443 19.7543L135.279 19.5391C135.497 19.486 135.707 19.4091 135.907 19.3098L136.221 19.1546C136.324 19.1039 136.421 19.0424 136.511 18.9711C136.597 18.9361 136.68 18.8924 136.757 18.8406C136.835 18.7889 136.918 18.7451 137.004 18.7101C137.073 18.6884 137.147 18.6884 137.216 18.7101C137.264 18.734 137.308 18.7649 137.347 18.8018C137.452 18.8921 137.536 19.004 137.594 19.1299C137.651 19.2567 137.747 19.3619 137.869 19.4297C137.971 19.5049 138.094 19.5467 138.221 19.5497C138.37 19.5497 138.521 19.5497 138.68 19.5497H140.511C140.633 19.5509 140.753 19.5243 140.864 19.4721C140.948 19.4493 141.022 19.3976 141.072 19.3261C141.122 19.2545 141.146 19.1676 141.139 19.0805C141.129 18.8876 141.106 18.6955 141.072 18.5055C141.064 18.4444 141.066 18.3824 141.079 18.3221ZM137.258 14.4664V14.6992C137.224 14.8321 137.203 14.968 137.195 15.1049C137.185 15.2338 137.163 15.3614 137.128 15.4859C137.007 15.9014 136.803 16.288 136.528 16.6218C136.241 16.9432 135.867 17.1757 135.452 17.292C135.159 17.3794 134.858 17.4362 134.553 17.4613C134.247 17.4862 133.939 17.4732 133.636 17.4225C133.36 17.3733 133.092 17.2891 132.838 17.1721C132.614 17.077 132.422 16.9174 132.288 16.7135C132.122 16.5038 132.021 16.2498 131.999 15.9833C131.954 15.7578 131.956 15.5257 132.003 15.3009C132.05 15.076 132.142 14.863 132.274 14.6746C132.521 14.3655 132.841 14.123 133.205 13.969C133.319 13.9186 133.437 13.8785 133.558 13.8491C133.681 13.8244 133.812 13.7927 133.953 13.7574C134.165 13.6886 134.384 13.6448 134.606 13.6269C134.835 13.6083 135.062 13.5741 135.286 13.5246C135.366 13.5273 135.446 13.5178 135.523 13.4963C135.66 13.462 135.799 13.4361 135.939 13.4187C136.073 13.4031 136.205 13.3771 136.334 13.3411L136.518 13.2988C136.567 13.2988 136.627 13.2776 136.698 13.26C136.837 13.2496 136.977 13.2869 137.093 13.3658C137.125 13.3899 137.151 13.4213 137.169 13.4575C137.187 13.4937 137.196 13.5336 137.195 13.5739C137.197 13.6726 137.215 13.7703 137.248 13.8632C137.285 14.0625 137.285 14.2671 137.248 14.4664H137.258Z" fill="#191E37"/>
<path d="M147.665 17.8954V2.1695C147.665 1.96137 147.665 1.75325 147.665 1.5557C147.666 1.37874 147.606 1.20671 147.495 1.0689C147.398 0.980197 147.274 0.92571 147.143 0.913684C146.978 0.894993 146.811 0.885571 146.645 0.885463H144.737C144.693 0.882906 144.65 0.882906 144.606 0.885463C144.563 0.889496 144.519 0.889496 144.476 0.885463L144.278 0.987763C144.216 1.0254 144.165 1.08059 144.134 1.1465C144.032 1.35799 143.991 1.59395 144.017 1.82733C144.017 2.14128 144.017 2.40938 144.017 2.63867V18.3364C144.017 18.5269 144.017 18.7138 144.017 18.8973C144.016 18.9729 144.031 19.048 144.06 19.1178C144.089 19.1876 144.132 19.2506 144.187 19.3029C144.299 19.3943 144.437 19.4496 144.582 19.4617C144.755 19.4796 144.929 19.4878 145.104 19.4864H146.37C146.497 19.4878 146.625 19.496 146.751 19.5111C146.869 19.5302 146.99 19.5218 147.104 19.4864C147.197 19.4721 147.287 19.4392 147.368 19.3895C147.448 19.3398 147.518 19.2744 147.573 19.1971C147.672 19.0085 147.713 18.7952 147.693 18.5833C147.668 18.3399 147.665 18.1 147.665 17.8954Z" fill="#191E37"/>
<path d="M93.3823 0.888916H91.1952C90.7881 0.888916 90.458 1.219 90.458 1.62618V3.81328C90.458 4.22046 90.7881 4.55054 91.1952 4.55054H93.3823C93.7895 4.55054 94.1196 4.22046 94.1196 3.81328V1.62618C94.1196 1.219 93.7895 0.888916 93.3823 0.888916Z" fill="#191E37"/>
<path d="M93.9896 6.27551C93.9676 6.23657 93.9377 6.20265 93.9019 6.17592C93.8661 6.14919 93.825 6.13025 93.7814 6.12029C93.6835 6.10048 93.5869 6.07456 93.4922 6.04269H93.2841C93.1751 6.02936 93.065 6.02936 92.956 6.04269C92.8255 6.04269 92.7055 6.04269 92.6032 6.04269H91.2945C91.2475 6.0578 91.1969 6.0578 91.1499 6.04269C91.1026 6.02907 91.0525 6.02907 91.0052 6.04269C90.9246 6.04528 90.8454 6.06491 90.7729 6.1003C90.7004 6.13569 90.6362 6.18603 90.5846 6.24801C90.5329 6.31 90.495 6.38221 90.4732 6.45991C90.4515 6.53761 90.4465 6.61903 90.4585 6.69882V18.2622C90.4585 18.4703 90.4585 18.6679 90.4585 18.8513C90.4629 19.0182 90.5238 19.1786 90.6313 19.3064C90.6717 19.3536 90.7214 19.392 90.7772 19.4193C90.833 19.4466 90.8938 19.4622 90.9559 19.4651C91.1081 19.4823 91.2612 19.4906 91.4145 19.4898H92.8784C93.0195 19.4898 93.15 19.4898 93.2735 19.4898C93.3925 19.5005 93.5124 19.4873 93.6262 19.451C93.9225 19.3628 94.0813 19.197 94.0989 18.9536C94.1166 18.7102 94.1236 18.4139 94.1236 18.0647V7.13976C94.1236 6.96691 94.1236 6.78701 94.1236 6.64237C94.1196 6.50885 94.0726 6.38019 93.9896 6.27551Z" fill="#191E37"/>
<path d="M115.691 0.888916H113.504C113.097 0.888916 112.766 1.219 112.766 1.62618V3.81328C112.766 4.22046 113.097 4.55054 113.504 4.55054H115.691C116.098 4.55054 116.428 4.22046 116.428 3.81328V1.62618C116.428 1.219 116.098 0.888916 115.691 0.888916Z" fill="#191E37"/>
<path d="M116.298 6.27551C116.275 6.23618 116.245 6.20203 116.208 6.17528C116.172 6.14853 116.13 6.12979 116.086 6.12029C115.989 6.10045 115.894 6.07453 115.8 6.04269H115.589C115.481 6.02922 115.372 6.02922 115.264 6.04269C115.133 6.04269 115.014 6.04269 114.911 6.04269H113.602C113.555 6.0578 113.505 6.0578 113.458 6.04269C113.411 6.02907 113.36 6.02907 113.313 6.04269C113.233 6.04528 113.153 6.06491 113.081 6.1003C113.008 6.13569 112.944 6.18603 112.893 6.24801C112.841 6.31 112.803 6.38221 112.781 6.45991C112.759 6.53761 112.754 6.61903 112.766 6.69882V18.2622C112.766 18.4703 112.766 18.6679 112.766 18.8513C112.771 19.0175 112.831 19.1775 112.936 19.3064C112.977 19.3534 113.027 19.3916 113.084 19.4189C113.14 19.4462 113.201 19.4619 113.264 19.4651C113.416 19.4824 113.569 19.4906 113.722 19.4898H115.186C115.327 19.4898 115.458 19.4898 115.578 19.4898C115.697 19.5002 115.817 19.4871 115.931 19.451C116.053 19.432 116.166 19.3728 116.251 19.2827C116.335 19.1926 116.388 19.0769 116.4 18.9536C116.417 18.7102 116.428 18.4139 116.428 18.0647V7.13976C116.428 6.96691 116.428 6.78701 116.428 6.64237C116.423 6.50961 116.378 6.38156 116.298 6.27551Z" fill="#191E37"/>
<path d="M16.563 18.4664C16.4925 18.3606 16.4184 18.2618 16.3408 18.1666C16.2632 18.0713 16.1891 17.969 16.1185 17.8667L15.1767 16.5298C14.4429 15.4856 13.7104 14.4532 12.979 13.4326C12.2476 12.4119 11.515 11.3783 10.7813 10.3319C10.5838 10.0355 10.3827 9.74627 10.1746 9.46406C10.0088 9.2383 9.8465 9.01253 9.70187 8.75855L9.50079 8.44106C9.45831 8.38355 9.42902 8.31739 9.41499 8.24728C9.40097 8.17716 9.40257 8.10482 9.41967 8.03539C9.44466 7.86641 9.51818 7.70832 9.63131 7.58033C9.73361 7.46392 9.84649 7.34751 9.98407 7.22758C10.2978 6.94795 10.5946 6.64993 10.873 6.3351C11.4845 5.72365 12.0947 5.10515 12.7038 4.47959C13.3141 3.85168 13.9279 3.23083 14.5382 2.62056C14.6704 2.51001 14.7964 2.39225 14.9156 2.2678C15.0285 2.14787 15.1485 2.01735 15.2684 1.87624C15.3883 1.73514 15.4448 1.70692 15.5294 1.62931C15.6141 1.55171 15.7058 1.46704 15.794 1.37885C15.8257 1.31183 15.8716 1.22011 15.9245 1.1037C15.9495 1.05235 15.955 0.9937 15.9401 0.938581C15.9252 0.883462 15.8908 0.835606 15.8434 0.80386C15.6923 0.708203 15.5131 0.667125 15.3354 0.687451H14.7181H12.7038H12.1959C12.0337 0.675619 11.8708 0.688704 11.7126 0.726253C11.4922 0.767696 11.2852 0.862128 11.1094 1.0014C10.95 1.13391 10.8088 1.28692 10.6896 1.45646C10.662 1.48666 10.6312 1.51385 10.5979 1.53759C10.5657 1.56013 10.5361 1.58616 10.5097 1.6152C10.4436 1.69785 10.3729 1.77676 10.298 1.85155C10.2273 1.92244 10.1657 2.00183 10.1146 2.0879C10.0737 2.12516 10.03 2.15935 9.98407 2.1902C9.93716 2.22106 9.89344 2.25651 9.85355 2.29602C9.80631 2.41348 9.72372 2.51333 9.61721 2.58176C9.59387 2.60687 9.56783 2.62934 9.53959 2.64878C9.51615 2.66435 9.49778 2.68642 9.48669 2.71228C9.44026 2.77773 9.38834 2.83909 9.33148 2.89571L9.17273 3.05445L9.04221 3.18497C8.8351 3.4625 8.59855 3.7168 8.3367 3.9434C8.07484 4.17001 7.83829 4.4243 7.63118 4.70183C7.59242 4.74259 7.54855 4.77815 7.50066 4.80766C7.39673 4.91888 7.30011 5.03671 7.2114 5.16042C7.1226 5.28392 7.01692 5.39435 6.89744 5.48848C6.77324 5.58709 6.66702 5.70644 6.58348 5.84124C6.55265 5.87268 6.51691 5.89889 6.47766 5.91885C6.4403 5.94012 6.40592 5.96621 6.37536 5.99645C6.32145 6.085 6.26008 6.16879 6.19192 6.24691L5.98028 6.46915C5.91743 6.53733 5.84767 6.5988 5.77214 6.65258C5.65007 6.80798 5.51935 6.95637 5.38059 7.09706L4.9608 7.51684L4.71387 7.75319C4.67013 7.80099 4.61408 7.83582 4.55185 7.85387C4.48962 7.87191 4.42363 7.87247 4.36111 7.85549C4.31627 7.85201 4.27398 7.83335 4.24118 7.80257C4.2042 7.77481 4.17304 7.74006 4.14946 7.70027C4.09535 7.56707 4.06893 7.42424 4.07185 7.28049V1.48468C4.07094 1.39245 4.0627 1.30045 4.04717 1.20953C4.02532 1.09367 3.96815 0.987398 3.88352 0.905297C3.79889 0.823196 3.69094 0.769282 3.57447 0.750946C3.29668 0.723118 3.0176 0.710167 2.73843 0.712144H0.724179C0.690239 0.725873 0.652296 0.725873 0.618356 0.712144C0.584118 0.700039 0.54677 0.700039 0.512533 0.712144C0.350942 0.7559 0.206038 0.846772 0.0962812 0.973184C0.0191436 1.12692 -0.0126702 1.29943 0.00456068 1.47057C0.00456068 1.67752 0.00456068 1.87859 0.00456068 2.07379V18.671C-0.00616494 18.7604 0.00491171 18.851 0.0368566 18.9352C0.0688015 19.0194 0.120671 19.0945 0.188002 19.1543C0.318575 19.2454 0.473249 19.2958 0.632458 19.2989C0.808837 19.2989 0.985215 19.2989 1.18276 19.2989H2.9642C3.14676 19.2999 3.32925 19.2917 3.51097 19.2742C3.58517 19.2713 3.65803 19.2535 3.72527 19.222C3.79251 19.1905 3.85277 19.1459 3.90253 19.0908C3.99605 18.9708 4.04696 18.8231 4.04717 18.671C4.04717 18.4982 4.04717 18.3183 4.04717 18.1207V15.0658C4.04717 14.9776 4.04717 14.8789 4.04717 14.766C4.03413 14.6665 4.03413 14.5657 4.04717 14.4661V14.1134C4.04717 13.9758 4.04717 13.8418 4.04717 13.7218C4.05232 13.5991 4.08357 13.4788 4.13887 13.3691C4.20274 13.2203 4.29098 13.0832 4.39993 12.9634C4.50223 12.8505 4.61864 12.7341 4.75269 12.6106C4.88674 12.4872 4.92906 12.4343 5.01373 12.3355C5.09839 12.2367 5.1901 12.1485 5.27829 12.0639L5.72277 11.6053C5.86178 11.4427 6.04218 11.3209 6.24485 11.2525C6.3188 11.2321 6.39691 11.2321 6.47085 11.2526C6.54479 11.2731 6.61178 11.3133 6.66463 11.3689C6.76693 11.4818 6.85511 11.5841 6.92567 11.6688C7.11616 11.9475 7.30313 12.2297 7.48656 12.5083L8.05096 13.3691C8.53777 14.1028 9.02811 14.8189 9.51492 15.5174C10.0017 16.2158 10.485 16.9284 10.9542 17.6621C11.06 17.8173 11.1588 17.969 11.254 18.1172C11.3493 18.2653 11.4515 18.41 11.5574 18.5511C11.6561 18.7014 11.7645 18.8452 11.8819 18.9814C12.006 19.1205 12.164 19.225 12.3405 19.2848C12.5121 19.3201 12.6876 19.3331 12.8626 19.3236C13.0566 19.3236 13.2471 19.3236 13.4411 19.3236H16.1326C16.3171 19.3358 16.5009 19.2902 16.6583 19.1931C16.7122 19.154 16.7499 19.0965 16.7642 19.0315C16.7785 18.9665 16.7684 18.8984 16.7359 18.8403C16.6849 18.7127 16.6272 18.5879 16.563 18.4664Z" fill="#191E37"/>
<path d="M22.2675 13.7042V1.98556C22.2675 1.77743 22.2675 1.5693 22.2675 1.37176C22.269 1.1948 22.2092 1.02277 22.0982 0.884952C22.0002 0.796896 21.8766 0.742507 21.7454 0.729739C21.5803 0.711143 21.4142 0.701721 21.248 0.701518H19.3396C19.2962 0.698778 19.2526 0.698778 19.2091 0.701518C19.1657 0.705551 19.122 0.705551 19.0786 0.701518L18.881 0.803818C18.8183 0.841452 18.7681 0.896642 18.7364 0.96256C18.6344 1.17404 18.594 1.41001 18.62 1.64338C18.62 1.95734 18.62 2.22543 18.62 2.45472V18.1524C18.62 18.3429 18.62 18.5299 18.62 18.7133C18.6188 18.789 18.6333 18.864 18.6624 18.9338C18.6915 19.0036 18.7347 19.0666 18.7893 19.119C18.9021 19.2104 19.0398 19.2657 19.1844 19.2777C19.3578 19.2957 19.5321 19.304 19.7065 19.3024H20.9623C21.0885 19.3039 21.2145 19.3121 21.3398 19.3271C21.4577 19.3458 21.5783 19.3373 21.6925 19.3024C21.7861 19.2882 21.8759 19.2552 21.9565 19.2055C22.0371 19.1558 22.1069 19.0904 22.1617 19.0132C22.2614 18.825 22.302 18.611 22.2781 18.3994C22.2781 18.1266 22.2781 17.8914 22.2781 17.6939L22.2675 13.7042Z" fill="#191E37"/>
<path d="M44.5302 9.46743C44.4968 9.35221 44.4744 9.2341 44.4631 9.11467C44.4541 8.98247 44.4328 8.85139 44.3996 8.72311C44.3467 8.54673 44.2903 8.37035 44.2374 8.20103C44.1559 7.9568 44.0519 7.72062 43.9269 7.49551C43.5333 6.83706 42.9507 6.31224 42.2549 5.98924C41.4301 5.63506 40.5328 5.48269 39.6374 5.54476C39.5689 5.56035 39.4978 5.56035 39.4293 5.54476C39.3511 5.53091 39.2711 5.53091 39.1929 5.54476C39.0024 5.58004 38.8402 5.60826 38.6638 5.62237C38.5064 5.63724 38.3514 5.67039 38.2017 5.72114C37.6294 5.92125 37.0907 6.20668 36.6037 6.56776C36.4536 6.66166 36.3211 6.78104 36.2121 6.92052C36.1568 6.99092 36.0842 7.04579 36.0013 7.07979C35.9185 7.11379 35.8283 7.12576 35.7394 7.11454L35.623 7.03693C35.5795 6.99401 35.5479 6.94053 35.5313 6.88172C35.5145 6.85924 35.5024 6.83359 35.4957 6.80631C35.489 6.77903 35.4879 6.75068 35.4925 6.72297C35.5041 6.66238 35.5041 6.60013 35.4925 6.53954C35.461 6.41968 35.4221 6.30187 35.3761 6.18678C35.352 6.13325 35.3174 6.08509 35.2743 6.04511C35.2313 6.00513 35.1808 5.97414 35.1256 5.95396C35.0113 5.91716 34.8928 5.89465 34.7729 5.88694C34.6424 5.88694 34.5083 5.88694 34.3672 5.88694H32.9809C32.8886 5.88592 32.7964 5.89419 32.7057 5.91163H32.5752C32.487 5.91163 32.4059 5.95044 32.3247 5.97513C32.2568 5.99574 32.1974 6.03782 32.1554 6.09507C32.0656 6.20623 32.0148 6.34379 32.0108 6.48663C32.0108 6.64537 32.0108 6.81822 32.0108 7.00871V17.6585C32.0108 17.9195 32.0108 18.1982 32.0108 18.4945C31.9849 18.7343 32.0449 18.9756 32.1801 19.1753C32.2342 19.2325 32.2992 19.2783 32.3713 19.3098C32.4434 19.3413 32.5212 19.358 32.5999 19.3588C32.7904 19.3588 32.9809 19.3834 33.1749 19.3834H34.4625C34.6986 19.3878 34.9347 19.3713 35.168 19.3341C35.2624 19.3164 35.3507 19.2747 35.4242 19.2129C35.4978 19.1511 35.5541 19.0713 35.5877 18.9813C35.6419 18.858 35.6684 18.7244 35.6653 18.5897V13.2349C35.6601 12.3693 35.7119 11.5044 35.8206 10.6456C35.8523 10.298 35.9574 9.96111 36.1288 9.65708C36.3003 9.35306 36.5343 9.08884 36.8153 8.88185C37.1104 8.68402 37.4392 8.54176 37.7854 8.46207C37.8354 8.44504 37.8879 8.43668 37.9406 8.43738C38.0027 8.43534 38.0643 8.42587 38.1241 8.40916C38.2229 8.38879 38.3231 8.37582 38.4239 8.37035C38.5329 8.35703 38.643 8.35703 38.752 8.37035C38.8484 8.40407 38.9497 8.42194 39.0518 8.42327C39.1462 8.42233 39.2397 8.44032 39.327 8.47618C39.7538 8.58931 40.128 8.84748 40.3852 9.20639C40.6607 9.62866 40.8234 10.1144 40.858 10.6174C40.9109 11.1677 40.9355 11.7639 40.9355 12.4094V18.1382C40.9355 18.3322 40.9355 18.491 40.9355 18.6744C40.9356 18.8179 40.9759 18.9584 41.052 19.0801C41.0964 19.1417 41.1533 19.1933 41.2189 19.2316C41.2845 19.2699 41.3574 19.294 41.4329 19.3023C41.6185 19.3308 41.8061 19.3438 41.9938 19.3411H43.8246C43.9441 19.343 44.0631 19.3264 44.1774 19.2917C44.2963 19.2483 44.3979 19.1673 44.4666 19.061C44.5354 18.9547 44.5676 18.8289 44.5584 18.7026C44.5584 18.3957 44.5584 18.0782 44.5584 17.7467V10.434C44.5588 10.1802 44.5411 9.92679 44.5055 9.67556C44.5 9.60523 44.5084 9.53452 44.5302 9.46743Z" fill="#191E37"/>
<path d="M50.5406 5.84114H48.3535C48.1579 5.84114 47.9704 5.91882 47.8321 6.05708C47.6939 6.19535 47.6162 6.38287 47.6162 6.57841V8.8925C47.6157 8.97154 47.6309 9.04991 47.6608 9.12307C47.6907 9.19624 47.7348 9.26276 47.7906 9.31882C47.8463 9.37488 47.9126 9.41937 47.9856 9.44973C48.0586 9.48009 48.1368 9.49571 48.2159 9.49571H50.6852C50.7642 9.49571 50.8425 9.48009 50.9155 9.44973C50.9885 9.41937 51.0547 9.37488 51.1105 9.31882C51.1662 9.26276 51.2103 9.19624 51.2402 9.12307C51.2702 9.04991 51.2853 8.97154 51.2849 8.8925V6.57841C51.2854 6.48086 51.2664 6.38419 51.229 6.29406C51.1917 6.20394 51.1368 6.12215 51.0675 6.05351C50.9982 5.98486 50.9159 5.93072 50.8254 5.89425C50.7349 5.85779 50.6381 5.83973 50.5406 5.84114Z" fill="#F69E1D"/>
<path d="M67.3069 17.8914C67.1411 17.648 66.9541 17.4046 66.7954 17.1576L64.051 12.9986C63.9133 12.813 63.7861 12.6199 63.67 12.4201C63.5529 12.2221 63.4257 12.0301 63.289 11.8451C63.2071 11.7088 63.1164 11.578 63.0174 11.4535C62.9138 11.3145 62.846 11.1522 62.8198 10.9808C62.8023 10.942 62.7932 10.9 62.7932 10.8574C62.7932 10.8148 62.8023 10.7727 62.8198 10.7339C62.8491 10.665 62.8845 10.5989 62.9257 10.5364C63.0023 10.4078 63.0948 10.2893 63.2008 10.1836C63.296 10.0884 63.4019 9.98607 63.5254 9.88377L64.5201 8.89252C64.6075 8.82279 64.6867 8.74352 64.7565 8.65617C64.8212 8.57227 64.9014 8.50161 64.9928 8.44804C65.0736 8.3821 65.1469 8.30759 65.2115 8.22581C65.2769 8.14229 65.3528 8.06759 65.4373 8.00357C65.5733 7.89735 65.6996 7.7793 65.8147 7.65081L66.1675 7.29805C66.3086 7.16048 66.4568 7.02643 66.612 6.89238C66.7696 6.75976 66.9032 6.60106 67.0071 6.42321C67.049 6.36891 67.079 6.30642 67.0953 6.23978C67.1114 6.20685 67.1199 6.17065 67.1199 6.13395C67.1199 6.09726 67.1114 6.06105 67.0953 6.02812C67.0778 5.99419 67.0515 5.96553 67.0193 5.94507C66.9871 5.92461 66.95 5.9131 66.9118 5.91172C66.8223 5.90271 66.7344 5.88135 66.6508 5.84822H66.3615C66.1949 5.81061 66.0233 5.80107 65.8535 5.82C65.6525 5.83764 65.4796 5.84822 65.342 5.84822H64.4778C64.3991 5.85226 64.3202 5.85226 64.2414 5.84822C64.1728 5.83435 64.102 5.83435 64.0333 5.84822C63.9152 5.84606 63.7972 5.85432 63.6806 5.87291C63.4577 5.9166 63.2477 6.01072 63.0668 6.14806C62.8968 6.28279 62.7429 6.43667 62.6082 6.60665C62.559 6.66994 62.5021 6.72682 62.4389 6.77597C62.3773 6.81945 62.3275 6.87766 62.2942 6.9453L61.6945 7.54498C61.6075 7.63435 61.5193 7.72606 61.43 7.82013C61.3453 7.91891 61.2571 8.01062 61.1689 8.09528C61.1129 8.15387 61.0515 8.20702 60.9855 8.25403C60.8633 8.42868 60.7239 8.59059 60.5692 8.7373C60.4105 8.88546 60.2623 9.03009 60.1248 9.16767C59.9872 9.30524 59.8496 9.45693 59.7191 9.61214C59.5863 9.77252 59.432 9.91378 59.2605 10.0319C59.2079 10.0772 59.1449 10.1087 59.0771 10.1236C59.0446 10.1393 59.009 10.1474 58.973 10.1474C58.937 10.1474 58.9014 10.1393 58.8689 10.1236C58.8274 10.1087 58.7906 10.0828 58.7627 10.0486C58.7347 10.0145 58.7166 9.97332 58.7102 9.92963C58.6935 9.83557 58.6675 9.7434 58.6326 9.65448V9.41813C58.5962 9.29096 58.5866 9.15763 58.6044 9.02656C58.6218 8.89675 58.6312 8.76598 58.6326 8.635V6.42321C58.6331 6.34711 58.6184 6.27167 58.5895 6.20127C58.5606 6.13087 58.518 6.06691 58.4642 6.01309C58.4104 5.95928 58.3464 5.91668 58.276 5.88777C58.2056 5.85887 58.1302 5.84422 58.0541 5.84469H55.5495C55.4714 5.84085 55.3932 5.85299 55.3199 5.88039C55.2467 5.90778 55.1797 5.94985 55.1233 6.004C55.0668 6.05816 55.022 6.12328 54.9915 6.19536C54.9611 6.26744 54.9457 6.34497 54.9463 6.42321V18.0219C54.9463 18.3182 54.9463 18.5792 54.971 18.8085C54.9755 18.9132 55.0116 19.0141 55.0746 19.0978C55.1376 19.1816 55.2244 19.2443 55.3237 19.2777C55.5011 19.3353 55.688 19.3581 55.874 19.3447C56.0998 19.3447 56.3079 19.3447 56.5019 19.3447C56.6959 19.3447 56.8547 19.3447 57.0487 19.3447C57.2427 19.3447 57.4579 19.3447 57.6519 19.3447C57.8239 19.3384 57.9945 19.3112 58.1599 19.2636C58.2926 19.2319 58.4093 19.1529 58.488 19.0414C58.5487 18.9523 58.5851 18.849 58.5938 18.7415C58.6115 18.5988 58.6198 18.455 58.6185 18.3111C58.6185 18.1524 58.6185 18.0007 58.6185 17.8526C58.6185 17.7044 58.6185 17.5704 58.6185 17.4469V15.3303C58.6172 15.1759 58.635 15.0219 58.6714 14.8718C58.7353 14.6898 58.8321 14.5212 58.9571 14.3744C59.0772 14.2444 59.2095 14.1262 59.3522 14.0216C59.4369 13.937 59.5215 13.8558 59.5992 13.7888C59.7016 13.7072 59.8229 13.6526 59.9519 13.6301C60.0024 13.6132 60.0568 13.6116 60.1082 13.6254C60.1596 13.6392 60.2059 13.6678 60.2412 13.7077C60.3077 13.7733 60.3691 13.8441 60.4246 13.9193C60.5806 14.1283 60.7243 14.3462 60.855 14.5719C60.9855 14.7977 61.1195 15.027 61.2606 15.2527C61.5569 15.7231 61.8533 16.1934 62.1496 16.6638C62.4459 17.1341 62.7422 17.6045 63.0385 18.0748C63.162 18.2688 63.2925 18.4805 63.4301 18.7168C63.5417 18.9257 63.7155 19.0946 63.9275 19.2001C64.2039 19.3007 64.4984 19.3416 64.7917 19.32C65.1762 19.32 65.4973 19.32 65.7865 19.32H66.806C66.8929 19.3147 66.9801 19.3147 67.067 19.32C67.1453 19.3329 67.2251 19.3329 67.3034 19.32C67.3781 19.2876 67.4583 19.2696 67.5397 19.2671C67.6123 19.2663 67.6837 19.2482 67.7479 19.2142C67.7909 19.181 67.8245 19.1373 67.8455 19.0872C67.8666 19.0371 67.8742 18.9824 67.8678 18.9285C67.8608 18.8183 67.8294 18.7111 67.7761 18.6145C67.6209 18.3782 67.4727 18.1348 67.3069 17.8914Z" fill="#191E37"/>
<path d="M54.2027 0.708496H52.0156C51.6084 0.708496 51.2783 1.03858 51.2783 1.44576V3.63286C51.2783 4.04004 51.6084 4.37012 52.0156 4.37012H54.2027C54.6098 4.37012 54.9399 4.04004 54.9399 3.63286V1.44576C54.9399 1.03858 54.6098 0.708496 54.2027 0.708496Z" fill="#F69E1D"/>
<path d="M28.2779 0.701416H26.0908C25.6836 0.701416 25.3535 1.0315 25.3535 1.43868V3.62578C25.3535 4.03296 25.6836 4.36304 26.0908 4.36304H28.2779C28.685 4.36304 29.0151 4.03296 29.0151 3.62578V1.43868C29.0151 1.0315 28.685 0.701416 28.2779 0.701416Z" fill="#191E37"/>
<path d="M28.8846 6.09157C28.8632 6.05221 28.8335 6.01795 28.7976 5.99116C28.7617 5.96436 28.7203 5.94567 28.6765 5.93636C28.5883 5.91872 28.4931 5.8905 28.3873 5.85875H28.1791C28.0703 5.84363 27.9599 5.84363 27.8511 5.85875C27.7205 5.85875 27.6041 5.85875 27.4983 5.85875H26.1896C26.1426 5.8741 26.0919 5.8741 26.0449 5.85875C25.9989 5.84502 25.9499 5.84502 25.9038 5.85875C25.7317 5.8802 25.5734 5.96434 25.4594 6.0951C25.3829 6.22002 25.3461 6.36511 25.3535 6.51135V18.0994C25.3535 18.3111 25.3535 18.5051 25.3535 18.6885C25.3535 18.8567 25.4136 19.0193 25.5228 19.1471C25.5635 19.194 25.6132 19.2323 25.669 19.2595C25.7247 19.2868 25.7854 19.3026 25.8474 19.3059C25.9996 19.3231 26.1528 19.3313 26.306 19.3306H27.7734C27.911 19.3306 28.0416 19.3306 28.165 19.3306C28.284 19.3416 28.404 19.3284 28.5178 19.2918C28.8141 19.2036 28.9728 19.0378 28.9905 18.7944C29.0081 18.551 29.0152 18.2511 29.0152 17.9019V6.95583C29.0152 6.78297 29.0152 6.60307 29.0152 6.45844C29.0121 6.32531 28.9664 6.1967 28.8846 6.09157Z" fill="#191E37"/>
<path d="M48.2198 10.7693C48.0561 10.7693 47.8991 10.8343 47.7833 10.9501C47.6675 11.0658 47.6025 11.2229 47.6025 11.3866V18.089C47.6025 18.3006 47.6025 18.4947 47.6025 18.6781C47.6025 18.8462 47.6625 19.0089 47.7718 19.1367C47.8131 19.1837 47.8634 19.2219 47.9198 19.2492C47.9761 19.2765 48.0373 19.2922 48.0999 19.2954C48.2521 19.3127 48.4052 19.3209 48.5585 19.3201H50.0224C50.16 19.3201 50.2905 19.3201 50.4139 19.3201C50.5329 19.3313 50.653 19.3181 50.7667 19.2813C51.063 19.1931 51.2218 19.0273 51.2394 18.7839C51.257 18.5405 51.2641 18.2407 51.2641 17.895V11.3866C51.2641 11.2229 51.1991 11.0658 51.0833 10.9501C50.9675 10.8343 50.8105 10.7693 50.6468 10.7693H48.2198Z" fill="#191E37"/>
</g>
<defs>
<clipPath id="clip0_1_2481">
<rect width="148" height="25" fill="white" transform="translate(0 0.5)"/>
</clipPath>
</defs>
</svg>
