<svg width="40" height="48" viewBox="0 0 40 48" fill="none" xmlns="http://www.w3.org/2000/svg">
<path d="M15.8077 27.582H3.98548C2.92818 27.582 1.91466 27.9994 1.1671 28.7424C0.420067 29.4854 6.45711e-05 30.4931 6.45711e-05 31.5439V43.9795C-0.00263814 44.4042 0.0795319 44.8254 0.241154 45.2185C0.402776 45.6117 0.641148 45.9692 0.942771 46.2705C1.24385 46.5717 1.60223 46.8108 1.99682 46.9739C2.39142 47.1371 2.81413 47.221 3.2417 47.221H16.5893C17.0163 47.221 17.4396 47.1371 17.8342 46.9739C18.2287 46.8108 18.5866 46.5717 18.8882 46.2705C19.1893 45.9692 19.4277 45.6117 19.5893 45.2185C19.7514 44.8254 19.8331 44.4042 19.8309 43.9795V31.5439C19.8336 31.0197 19.7309 30.5002 19.5287 30.0159C19.3271 29.5316 19.0304 29.0921 18.6558 28.7232C18.2812 28.3543 17.8363 28.0633 17.3471 27.8674C16.8579 27.6714 16.3347 27.5744 15.8077 27.582Z" fill="#F69E1D"/>
<path d="M35.6006 0H23.7784C21.5773 0 19.793 1.77382 19.793 3.96194V15.7151C19.793 17.9032 21.5773 19.677 23.7784 19.677H35.6006C37.8011 19.677 39.5854 17.9032 39.5854 15.7151V3.96194C39.5854 1.77382 37.8011 0 35.6006 0Z" fill="#F69E1D"/>
</svg>
