<svg width="401" height="305" viewBox="0 0 401 305" fill="none" xmlns="http://www.w3.org/2000/svg">
<g clip-path="url(#clip0_63_800)">
<path d="M400.157 163.636V291.665C400.153 295.137 398.772 298.466 396.316 300.921C393.861 303.377 390.533 304.758 387.06 304.762H288.855L289.767 303.608L399.003 165.103L400.157 163.636Z" fill="#F2F2F2"/>
<path d="M156.47 118.539H43.7027C42.7787 118.539 41.8925 118.906 41.2392 119.559C40.5858 120.212 40.2188 121.099 40.2188 122.023C40.2188 122.947 40.5858 123.833 41.2392 124.486C41.8925 125.139 42.7787 125.507 43.7027 125.507H156.47C157.394 125.507 158.28 125.139 158.933 124.486C159.587 123.833 159.954 122.947 159.954 122.023C159.954 121.099 159.587 120.212 158.933 119.559C158.28 118.906 157.394 118.539 156.47 118.539Z" fill="#E6E6E6"/>
<path d="M78.6664 99.0034H43.7027C42.7787 99.0034 41.8925 99.3705 41.2392 100.024C40.5858 100.677 40.2188 101.563 40.2188 102.487C40.2188 103.411 40.5858 104.298 41.2392 104.951C41.8925 105.604 42.7787 105.971 43.7027 105.971H78.6664C79.5904 105.971 80.4766 105.604 81.13 104.951C81.7833 104.298 82.1504 103.411 82.1504 102.487C82.1504 101.563 81.7833 100.677 81.13 100.024C80.4766 99.3705 79.5904 99.0034 78.6664 99.0034H78.6664Z" fill="#E6E6E6"/>
<path d="M387.06 0H13.2529C9.78076 0.00418078 6.452 1.38535 3.9968 3.84055C1.5416 6.29575 0.160431 9.62451 0.15625 13.0967V291.665C0.160431 295.137 1.5416 298.466 3.9968 300.921C6.452 303.377 9.78076 304.758 13.2529 304.762H387.06C390.532 304.758 393.861 303.377 396.316 300.921C398.771 298.466 400.152 295.137 400.156 291.665V13.0967C400.152 9.62451 398.771 6.29575 396.316 3.84055C393.861 1.38535 390.532 0.00418078 387.06 0ZM399.002 291.665C399.002 293.234 398.693 294.786 398.093 296.235C397.493 297.684 396.613 299.001 395.504 300.11C394.395 301.219 393.079 302.098 391.63 302.698C390.181 303.299 388.628 303.608 387.06 303.608H13.2529C10.0856 303.608 7.04808 302.349 4.80847 300.11C2.56886 297.87 1.31065 294.833 1.31065 291.665V91.0104C1.31065 67.1791 10.7776 44.3239 27.6289 27.4726C44.4801 10.6213 67.3354 1.1544 91.1667 1.1544H387.06C388.628 1.1544 390.181 1.4633 391.63 2.06346C393.079 2.66361 394.395 3.54327 395.504 4.65222C396.613 5.76116 397.493 7.07766 398.093 8.52657C398.693 9.97547 399.002 11.5284 399.002 13.0967V291.665Z" fill="#E6E6E6"/>
<path d="M363.73 50.3714H36.6124C36.4593 50.3714 36.3125 50.3106 36.2042 50.2024C36.096 50.0941 36.0352 49.9473 36.0352 49.7942C36.0352 49.6412 36.096 49.4944 36.2042 49.3861C36.3125 49.2779 36.4593 49.217 36.6124 49.217H363.73C363.883 49.217 364.029 49.2779 364.138 49.3861C364.246 49.4944 364.307 49.6412 364.307 49.7942C364.307 49.9473 364.246 50.0941 364.138 50.2024C364.029 50.3106 363.883 50.3714 363.73 50.3714Z" fill="#E6E6E6"/>
<path d="M52.9788 33.0436C55.6746 33.0436 57.86 30.8095 57.86 28.0537C57.86 25.2978 55.6746 23.0637 52.9788 23.0637C50.283 23.0637 48.0977 25.2978 48.0977 28.0537C48.0977 30.8095 50.283 33.0436 52.9788 33.0436Z" fill="#E6E6E6"/>
<path d="M69.8401 33.0436C72.5359 33.0436 74.7213 30.8095 74.7213 28.0537C74.7213 25.2978 72.5359 23.0637 69.8401 23.0637C67.1444 23.0637 64.959 25.2978 64.959 28.0537C64.959 30.8095 67.1444 33.0436 69.8401 33.0436Z" fill="#E6E6E6"/>
<path d="M86.7034 33.0436C89.3992 33.0436 91.5846 30.8095 91.5846 28.0537C91.5846 25.2978 89.3992 23.0637 86.7034 23.0637C84.0076 23.0637 81.8223 25.2978 81.8223 28.0537C81.8223 30.8095 84.0076 33.0436 86.7034 33.0436Z" fill="#E6E6E6"/>
<path d="M105.931 31.9975C105.854 31.9976 105.778 31.9823 105.707 31.9524C105.637 31.9226 105.572 31.8789 105.519 31.8239L102.225 28.4571C102.12 28.3492 102.061 28.2044 102.061 28.0535C102.061 27.9026 102.12 27.7577 102.225 27.6499L105.519 24.2834C105.572 24.2283 105.635 24.1843 105.705 24.1538C105.775 24.1233 105.85 24.107 105.926 24.1058C106.002 24.1046 106.078 24.1185 106.149 24.1467C106.22 24.175 106.284 24.2169 106.339 24.2703C106.393 24.3236 106.437 24.3872 106.467 24.4574C106.496 24.5277 106.512 24.6031 106.512 24.6793C106.513 24.7556 106.498 24.8312 106.469 24.9018C106.44 24.9724 106.398 25.0365 106.344 25.0905L103.445 28.0535L106.344 31.0167C106.423 31.0979 106.477 31.2008 106.498 31.3124C106.52 31.424 106.507 31.5394 106.463 31.6441C106.419 31.7488 106.345 31.8382 106.251 31.9011C106.156 31.9639 106.045 31.9975 105.931 31.9975Z" fill="#E6E6E6"/>
<path d="M111.464 31.9975C111.35 31.9975 111.239 31.964 111.145 31.9011C111.05 31.8382 110.976 31.7488 110.932 31.6441C110.888 31.5394 110.876 31.424 110.897 31.3124C110.918 31.2008 110.972 31.0979 111.051 31.0167L113.95 28.0535L111.051 25.0905C110.946 24.9808 110.888 24.8339 110.891 24.6818C110.893 24.5297 110.955 24.3847 111.064 24.2783C111.173 24.172 111.319 24.1128 111.471 24.1138C111.623 24.1147 111.769 24.1757 111.876 24.2834L115.17 27.6499C115.275 27.7577 115.334 27.9026 115.334 28.0535C115.334 28.2044 115.275 28.3492 115.17 28.4571L111.876 31.8239C111.823 31.8789 111.759 31.9226 111.688 31.9525C111.617 31.9823 111.541 31.9976 111.464 31.9975Z" fill="#E6E6E6"/>
<path d="M334.558 23.6414H328.434C328.268 23.6413 328.104 23.674 327.95 23.7375C327.797 23.801 327.657 23.8941 327.54 24.0115C327.423 24.1289 327.33 24.2682 327.266 24.4216C327.203 24.575 327.17 24.7394 327.17 24.9054V31.0353C327.17 31.2013 327.203 31.3657 327.266 31.5191C327.33 31.6725 327.423 31.8118 327.54 31.9292C327.657 32.0466 327.797 32.1397 327.95 32.2032C328.104 32.2667 328.268 32.2994 328.434 32.2994H334.558C334.894 32.2997 335.216 32.1668 335.454 31.9298C335.692 31.6929 335.827 31.3712 335.828 31.0353V24.9054C335.827 24.5695 335.692 24.2479 335.454 24.0109C335.216 23.7739 334.894 23.641 334.558 23.6414Z" fill="#E6E6E6"/>
<path d="M319.552 23.6414H313.428C313.262 23.6413 313.098 23.674 312.944 23.7375C312.791 23.801 312.652 23.8941 312.534 24.0115C312.417 24.1289 312.324 24.2682 312.26 24.4216C312.197 24.575 312.164 24.7394 312.164 24.9054V31.0353C312.164 31.2013 312.197 31.3657 312.26 31.5191C312.324 31.6725 312.417 31.8118 312.534 31.9292C312.652 32.0466 312.791 32.1397 312.944 32.2032C313.098 32.2667 313.262 32.2994 313.428 32.2994H319.552C319.888 32.2997 320.21 32.1668 320.448 31.9298C320.686 31.6929 320.821 31.3712 320.822 31.0353V24.9054C320.821 24.5695 320.686 24.2479 320.448 24.0109C320.21 23.7739 319.888 23.641 319.552 23.6414Z" fill="#E6E6E6"/>
<path d="M348.701 23.9302H342.577C342.411 23.9301 342.246 23.9628 342.093 24.0263C341.939 24.0898 341.8 24.1829 341.683 24.3003C341.565 24.4177 341.472 24.5571 341.409 24.7104C341.345 24.8638 341.312 25.0282 341.313 25.1942V31.3241C341.312 31.4901 341.345 31.6545 341.409 31.8079C341.472 31.9613 341.565 32.1007 341.683 32.2181C341.8 32.3354 341.939 32.4286 342.093 32.4921C342.246 32.5556 342.411 32.5882 342.577 32.5882H348.701C349.037 32.5885 349.359 32.4556 349.597 32.2186C349.835 31.9817 349.969 31.66 349.971 31.3241V25.1942C349.969 24.8584 349.835 24.5367 349.597 24.2997C349.359 24.0627 349.037 23.9299 348.701 23.9302Z" fill="#E6E6E6"/>
<path d="M224.648 26.262H175.695C175.287 26.262 174.895 26.4243 174.606 26.7134C174.317 27.0024 174.154 27.3944 174.154 27.8031C174.154 28.2118 174.317 28.6038 174.606 28.8928C174.895 29.1818 175.287 29.3442 175.695 29.3442H224.648C225.057 29.3442 225.449 29.1818 225.738 28.8928C226.027 28.6038 226.189 28.2118 226.189 27.8031C226.189 27.3944 226.027 27.0024 225.738 26.7134C225.449 26.4243 225.057 26.262 224.648 26.262Z" fill="#E6E6E6"/>
<path d="M93.4363 236.91L64.1624 235.985C60.1023 235.856 55.5364 235.863 52.6405 237.961C49.3538 240.342 49.8514 244.561 52.5803 247.298C55.3092 250.035 59.6666 251.598 63.9433 252.869C86.6641 259.622 111.81 260.993 136.226 259.465C160.641 257.937 184.555 253.617 208.35 249.312C210.607 248.904 213.165 248.316 214.085 246.746C214.975 245.226 213.81 243.394 212.001 242.412C210.191 241.43 207.897 241.099 205.684 240.807C165.599 235.54 125.081 234.384 84.7604 237.358" fill="#F9A826"/>
<path d="M146.033 214.395V207.469C141.007 207.54 123.02 207.418 118.327 207.469C117.978 231.677 115.838 226.935 135.671 227.03C136.583 227.033 137.456 227.397 138.1 228.043C138.743 228.688 139.106 229.562 139.107 230.474V230.577C139.107 231.491 138.744 232.366 138.098 233.012C137.453 233.657 136.577 234.02 135.664 234.02H118.327V240.947H146.033C146.072 240.923 146.005 234.258 146.033 234.02C147.205 213.954 144.887 221.171 128.044 220.366C127.291 220.328 126.581 220.001 126.061 219.453C125.542 218.906 125.253 218.18 125.254 217.426V217.339C125.254 216.558 125.564 215.81 126.116 215.258C126.668 214.706 127.417 214.395 128.197 214.395H146.033Z" fill="#3F3D56"/>
<path d="M180.088 214.395V207.469C175.061 207.54 157.074 207.418 152.382 207.469C152.03 231.888 149.855 226.851 170.248 227.033C171.023 227.041 171.764 227.355 172.31 227.906C172.855 228.457 173.161 229.201 173.161 229.977C173.161 230.34 173.161 230.713 173.161 231.077C173.161 231.464 173.085 231.847 172.937 232.204C172.789 232.561 172.572 232.885 172.299 233.158C172.026 233.432 171.701 233.648 171.344 233.796C170.987 233.944 170.604 234.02 170.218 234.02H152.382V240.947H180.088C180.127 240.923 180.06 234.258 180.088 234.02C181.259 213.954 178.941 221.171 162.099 220.366C161.345 220.328 160.635 220.001 160.116 219.453C159.597 218.906 159.307 218.18 159.308 217.425V217.339C159.308 216.558 159.619 215.81 160.171 215.258C160.723 214.706 161.471 214.395 162.252 214.395H180.088Z" fill="#3F3D56"/>
<path d="M110.246 214.395V207.469H82.5404C82.5208 213.647 82.5546 229.998 82.5404 236.329C77.1096 245.523 107.962 239.158 110.248 240.949C110.246 240.947 110.246 234.02 110.246 234.02C89.1661 233.91 88.6363 237.856 89.3145 218.765C89.3553 217.593 89.8494 216.482 90.6928 215.667C91.5363 214.852 92.6631 214.396 93.8361 214.395C99.9303 214.395 110.246 214.395 110.246 214.395Z" fill="#3F3D56"/>
<path d="M165.009 154.177L135.735 153.406C131.675 153.299 127.109 153.304 124.213 155.054C120.926 157.039 121.424 160.556 124.153 162.837C126.881 165.118 131.239 166.421 135.516 167.481C158.236 173.11 183.382 174.253 207.798 172.979C232.214 171.705 256.127 168.105 279.922 164.516C282.179 164.175 284.737 163.686 285.657 162.376C286.547 161.11 285.383 159.583 283.573 158.764C281.764 157.946 279.469 157.67 277.257 157.426C237.104 153.034 196.649 152.072 156.333 154.551" fill="#F9A826"/>
<path d="M159.886 123.775C159.414 134.468 163.344 137.834 149.784 136.472C148.868 130.093 153.514 121.24 142.858 123.487C144.993 128.115 136.912 163.224 149.782 156.962C150.505 146.414 145.741 141.787 159.886 143.401C161.02 149.921 155.726 159.517 166.812 157.251C164.677 152.621 172.759 117.516 159.886 123.775Z" fill="#3F3D56"/>
<path d="M230.88 123.775C231.831 124.362 222.17 134.582 221.962 135.42C221.672 134.705 212.451 124.706 213.565 123.775C200.734 117.435 208.73 152.748 206.636 157.254C206.638 157.253 213.564 157.253 213.564 157.253V135.32C223.3 148.451 221.492 146.242 230.881 134.675L230.88 157.253C243.711 163.595 235.715 128.278 237.809 123.773C237.807 123.775 230.88 123.775 230.88 123.775Z" fill="#3F3D56"/>
<path d="M200.288 123.775H172.582C170.954 133.485 176.337 130.228 182.973 130.701L182.972 157.253H189.898V130.701C196.503 130.252 201.936 133.442 200.288 123.775Z" fill="#3F3D56"/>
<path d="M250.505 150.326C248.905 141.548 248.905 132.553 250.505 123.775H243.579C243.619 128.163 243.566 145.871 243.571 153.969C243.57 154.843 243.917 155.682 244.534 156.3C245.152 156.918 245.99 157.266 246.864 157.267C253.842 157.276 267.164 157.224 271.285 157.253L271.284 150.326H250.505Z" fill="#3F3D56"/>
<path d="M73.566 151.48H45.4136C44.0358 151.48 42.7145 152.028 41.7403 153.002C40.766 153.976 40.2188 155.298 40.2188 156.675C40.2188 158.053 40.766 159.374 41.7403 160.349C42.7145 161.323 44.0358 161.87 45.4136 161.87H73.566C74.9438 161.87 76.2651 161.323 77.2393 160.349C78.2135 159.374 78.7608 158.053 78.7608 156.675C78.7608 155.298 78.2135 153.976 77.2393 153.002C76.2651 152.028 74.9438 151.48 73.566 151.48H73.566Z" fill="#E6E6E6"/>
<path d="M328.81 298.741L323.096 298.74L320.377 276.697L328.812 276.697L328.81 298.741Z" fill="#FFB6B6"/>
<path d="M329.012 304.702L311.438 304.702V304.479C311.438 302.665 312.158 300.926 313.441 299.643C314.724 298.36 316.464 297.639 318.278 297.639H318.278L321.488 295.204L327.478 297.64L329.012 297.64L329.012 304.702Z" fill="#2F2E41"/>
<path d="M349.012 298.741L343.297 298.74L340.578 276.697L349.013 276.697L349.012 298.741Z" fill="#FFB6B6"/>
<path d="M349.213 304.702L331.639 304.702V304.479C331.639 302.665 332.36 300.926 333.642 299.643C334.925 298.36 336.665 297.639 338.479 297.639H338.479L341.69 295.204L347.679 297.64L349.213 297.64L349.213 304.702Z" fill="#2F2E41"/>
<path d="M314.579 178.632C314.579 178.632 309.081 195.52 310.096 197.743C311.111 199.965 312.842 198.234 311.111 199.965C309.379 201.697 307.867 199.856 309.489 202.797C311.111 205.737 313.567 229.945 314.648 231.117C315.728 232.289 317.214 232.32 315.894 233.459C314.574 234.597 312.842 232.289 314.574 234.597C316.305 236.906 320.9 290.168 320.9 290.168H329.876C329.876 290.168 332.112 287.591 330.847 285.914C329.581 284.237 330.958 283.59 330.847 282.47C330.735 281.351 331.156 278.936 331.234 277.835C331.313 276.733 332.83 250.488 329.185 235.328L335.831 206.461L339.154 241.35C339.154 241.35 335.451 270.616 339.154 280.023C339.154 280.023 336.168 282.509 337.492 283.95C338.816 285.391 339.971 284.237 338.816 285.391C337.662 286.545 340.548 290.586 340.548 290.586L350.36 290.009L355.914 235.328C355.914 235.328 356.85 229.625 355.914 228.648C354.978 227.671 354.978 231.134 354.978 227.671V223.053C354.978 223.053 359.163 194.652 359.091 192.98C359.018 191.307 352.092 179.186 352.092 179.186L314.579 178.632Z" fill="#2F2E41"/>
<path d="M343.603 110.33L329.275 109.345L324.987 116.105L314.662 120.303V153.604C315.736 156.829 316.292 160.203 316.307 163.602C316.268 170.236 314.563 178.052 315.153 179.763C320.925 196.502 352.671 179.763 352.671 179.763L352.094 161.87L352.877 121.432L346.39 116.258L343.603 110.33Z" fill="#E6E6E6"/>
<path d="M313.999 185.861L313.011 175.332L306.918 175.058L308.359 186.152C307.989 186.697 307.779 187.335 307.752 187.993C307.725 188.651 307.882 189.303 308.205 189.877C308.528 190.451 309.005 190.923 309.582 191.24C310.159 191.558 310.813 191.708 311.471 191.674C312.129 191.64 312.764 191.423 313.305 191.048C313.847 190.673 314.273 190.154 314.535 189.551C314.798 188.947 314.887 188.281 314.792 187.63C314.698 186.978 314.423 186.366 313.999 185.861L313.999 185.861Z" fill="#FFB6B6"/>
<path d="M316.997 119.415L316.828 119.444C315.257 119.71 313.774 120.355 312.509 121.324C311.243 122.292 310.232 123.554 309.564 125.001C307.819 128.775 302.153 153.582 304.637 157.323C306.564 160.225 306.096 159.659 305.19 161.847C304.284 164.036 302.826 161.701 304.021 165.174C305.217 168.648 306.53 168.152 305.421 169.494C304.311 170.836 303.173 170.573 304.252 172.821C305.331 175.069 305.156 175.828 305.36 176.674C305.563 177.521 305.386 183.474 305.386 183.474C305.386 183.474 311.895 182.981 315.134 184.529C315.134 184.529 313.327 178.516 314.348 177.553C315.37 176.59 316.596 176.474 315.721 175.073C314.846 173.671 312.861 173.612 315.022 172.913C317.182 172.213 316.486 159.663 316.486 159.663C320.043 150.346 318.638 135.023 316.997 119.415Z" fill="#E6E6E6"/>
<path d="M356.244 186.613L356.699 176.047L362.771 175.465L361.892 186.618C362.288 187.144 362.531 187.77 362.591 188.426C362.651 189.082 362.527 189.741 362.233 190.331C361.939 190.92 361.487 191.416 360.926 191.762C360.366 192.108 359.72 192.291 359.062 192.29C358.403 192.29 357.758 192.105 357.198 191.758C356.639 191.411 356.187 190.914 355.895 190.324C355.602 189.734 355.479 189.074 355.541 188.419C355.603 187.763 355.846 187.137 356.244 186.613Z" fill="#FFB6B6"/>
<path d="M349.896 120.402L350.067 120.422C351.649 120.609 353.163 121.179 354.476 122.082C355.788 122.985 356.861 124.195 357.602 125.606C359.535 129.287 365.651 154.218 364.153 157.639C362.757 160.829 362.814 160.045 363.829 162.185C364.844 164.325 366.183 161.919 365.164 165.449C364.146 168.978 362.809 168.549 363.985 169.834C365.161 171.118 366.284 170.798 365.32 173.097C364.356 175.397 364.569 176.146 364.408 177.001C364.247 177.857 364.724 183.794 364.724 183.794C364.724 183.794 358.199 183.63 355.042 185.339C355.042 185.339 356.544 179.243 355.475 178.333C354.406 177.423 353.175 177.368 353.979 175.925C354.782 174.481 356.761 174.322 354.568 173.732C352.376 173.142 352.438 160.573 352.438 160.573L349.896 120.402Z" fill="#E6E6E6"/>
<path d="M336.789 107.228C342.961 107.228 347.965 102.224 347.965 96.0521C347.965 89.8798 342.961 84.8762 336.789 84.8762C330.617 84.8762 325.613 89.8798 325.613 96.0521C325.613 102.224 330.617 107.228 336.789 107.228Z" fill="#FFB6B6"/>
<path d="M344.568 105.618C346.122 104.402 346.273 102.083 347.599 100.622C349.817 98.1781 350.859 95.549 349.697 92.6534C348.67 90.0923 348.888 86.9441 346.675 85.2956C347.762 84.9022 348.018 84.0851 347.059 84.07C346.412 84.0598 344.001 85.2958 345.161 83.7561C346.321 82.2164 344.125 82.8242 344.27 82.1939C344.416 81.5636 345.347 81.2145 345.758 81.7141C345.411 81.36 344.988 81.0896 344.521 80.9239C344.054 80.7581 343.555 80.7012 343.062 80.7575C342.57 80.8139 342.096 80.982 341.679 81.249C341.261 81.516 340.91 81.8748 340.652 82.2982C339.345 80.3392 337.957 78.9913 335.957 80.2344C333.993 81.4554 334.018 82.9647 331.906 82.602C330.913 82.4315 330.819 84.3077 330.141 85.0528C329.827 85.4487 329.419 85.7599 328.955 85.9581C328.49 86.1562 327.983 86.235 327.48 86.1873C326.49 86.0002 325.733 84.7663 326.288 83.9251L323.954 89.2489L323.014 88.0953C321.519 89.0692 322.01 91.6106 323.514 92.5692C325.019 93.5279 326.974 93.323 328.706 92.8981C330.791 92.3865 332.944 92.2079 335.085 92.369C338.356 92.831 340.633 96.7411 339.422 99.8141C340.679 98.5802 343.004 99.6041 343.655 101.241C344.306 102.877 343.828 104.721 343.346 106.414" fill="#2F2E41"/>
</g>
<defs>
<clipPath id="clip0_63_800">
<rect width="400" height="304.762" fill="white" transform="translate(0.15625)"/>
</clipPath>
</defs>
</svg>
