<svg width="450" height="450" viewBox="0 0 450 450" fill="none" xmlns="http://www.w3.org/2000/svg">
<g clip-path="url(#clip0_63_276)">
<path d="M358.356 316.283L358.697 308.618C362.251 306.719 366.214 305.715 370.243 305.695C364.698 310.229 365.391 318.969 361.631 325.065C359.226 328.899 355.209 331.431 350.712 331.946L346.072 334.787C344.783 327.603 346.705 320.215 351.331 314.569C352.629 313.017 354.117 311.634 355.76 310.454C356.871 313.384 358.356 316.283 358.356 316.283Z" fill="#F2F2F2"/>
<path d="M123.767 307.884L112.569 304.493C111.1 298.526 111.11 292.291 112.598 286.329C117.21 296.232 130.386 298.499 137.981 306.352C142.741 311.35 144.969 318.241 144.037 325.079L146.488 333.008C135.386 332.206 125.191 326.584 118.589 317.621C116.784 315.118 115.301 312.398 114.176 309.525C118.925 308.986 123.767 307.884 123.767 307.884H123.767Z" fill="#F2F2F2"/>
<path d="M319.553 333.534C319.551 333.766 319.459 333.988 319.296 334.153C319.132 334.316 318.911 334.407 318.681 334.406H315.175C314.695 334.408 314.304 334.02 314.302 333.54V227.506C314.302 225.169 313.518 223.272 312.554 223.268H94.3018C93.3337 223.272 92.5532 225.169 92.5488 227.506V332.884C92.5473 333.333 92.2063 333.708 91.7595 333.752C91.0531 333.822 90.3466 333.883 89.6445 333.94C89.6271 333.94 89.6097 333.944 89.5922 333.944C89.2085 333.979 88.8247 334.005 88.441 334.036H88.4366C88.236 333.674 88.0441 333.303 87.8479 332.932C87.785 332.806 87.7522 332.668 87.752 332.527V222.007C87.752 221.362 87.7781 220.712 87.8217 220.071C87.8839 219.191 87.9931 218.315 88.1488 217.446C88.8858 213.395 90.5516 210.652 92.4441 210.643H314.407C314.683 210.645 314.956 210.703 315.21 210.813C315.581 210.978 315.918 211.213 316.199 211.507C316.582 211.904 316.909 212.352 317.172 212.837C318.105 214.481 318.772 216.932 319.008 219.783C319.008 219.81 319.012 219.836 319.012 219.862C319.073 220.568 319.104 221.288 319.099 222.007L319.16 231.353L319.2 236.926L319.317 254.412L319.361 260.622L319.553 333.534Z" fill="#E6E6E6"/>
<path d="M238.552 178.315H216.31C215.655 178.316 215.124 178.848 215.125 179.503V214.64H239.74V179.503C239.741 178.848 239.209 178.316 238.554 178.315H238.552ZM227.506 198.279C226.058 198.273 224.886 197.101 224.88 195.653V191.6C224.88 190.15 226.055 188.974 227.506 188.974C228.957 188.974 230.132 190.15 230.132 191.6V195.653C230.126 197.101 228.954 198.273 227.506 198.279Z" fill="#CCCCCC"/>
<path d="M215.049 213.516V216.906C215.05 217.272 215.346 217.568 215.712 217.569H239.154C239.519 217.567 239.815 217.271 239.817 216.906V213.516H215.049Z" fill="#3F3D56"/>
<path d="M275.383 123.481H180.306C178.605 123.484 177.227 124.862 177.225 126.563V190.721C177.226 192.422 178.605 193.801 180.306 193.803H275.383C277.085 193.801 278.463 192.422 278.465 190.721V126.563C278.462 124.862 277.084 123.484 275.383 123.481Z" fill="#E6E6E6"/>
<path d="M274.589 125.707H181.099C180.188 125.709 179.451 126.448 179.451 127.358V189.927C179.453 190.836 180.19 191.573 181.099 191.575H274.589C275.498 191.573 276.235 190.836 276.237 189.927V127.358C276.236 126.448 275.499 125.709 274.589 125.707Z" fill="white"/>
<path d="M256.379 218.748H200.758C200.192 218.748 199.734 218.29 199.734 217.725C199.734 217.654 199.742 217.583 199.756 217.514L200.619 213.415C200.721 212.943 201.137 212.605 201.62 212.603H255.516C255.999 212.605 256.416 212.943 256.517 213.415L257.38 217.514C257.496 218.067 257.142 218.61 256.589 218.726C256.52 218.741 256.449 218.748 256.379 218.748Z" fill="#CCCCCC"/>
<path d="M203.516 213.341H202.229C202.111 213.341 202.016 213.436 202.016 213.554V214.156C202.016 214.274 202.111 214.369 202.229 214.369H203.516C203.633 214.369 203.729 214.274 203.729 214.156V213.554C203.729 213.436 203.633 213.341 203.516 213.341Z" fill="#E6E6E6"/>
<path d="M206.942 213.341H205.654C205.537 213.341 205.441 213.436 205.441 213.554V214.156C205.441 214.274 205.537 214.369 205.654 214.369H206.942C207.059 214.369 207.154 214.274 207.154 214.156V213.554C207.154 213.436 207.059 213.341 206.942 213.341Z" fill="#E6E6E6"/>
<path d="M210.369 213.341H209.082C208.964 213.341 208.869 213.436 208.869 213.554V214.156C208.869 214.274 208.964 214.369 209.082 214.369H210.369C210.487 214.369 210.582 214.274 210.582 214.156V213.554C210.582 213.436 210.487 213.341 210.369 213.341Z" fill="#E6E6E6"/>
<path d="M213.795 213.341H212.508C212.39 213.341 212.295 213.436 212.295 213.554V214.156C212.295 214.274 212.39 214.369 212.508 214.369H213.795C213.913 214.369 214.008 214.274 214.008 214.156V213.554C214.008 213.436 213.913 213.341 213.795 213.341Z" fill="#E6E6E6"/>
<path d="M217.221 213.341H215.934C215.816 213.341 215.721 213.436 215.721 213.554V214.156C215.721 214.274 215.816 214.369 215.934 214.369H217.221C217.338 214.369 217.434 214.274 217.434 214.156V213.554C217.434 213.436 217.338 213.341 217.221 213.341Z" fill="#E6E6E6"/>
<path d="M220.647 213.341H219.359C219.242 213.341 219.146 213.436 219.146 213.554V214.156C219.146 214.274 219.242 214.369 219.359 214.369H220.647C220.764 214.369 220.86 214.274 220.86 214.156V213.554C220.86 213.436 220.764 213.341 220.647 213.341Z" fill="#E6E6E6"/>
<path d="M224.072 213.341H222.785C222.668 213.341 222.572 213.436 222.572 213.554V214.156C222.572 214.274 222.668 214.369 222.785 214.369H224.072C224.19 214.369 224.285 214.274 224.285 214.156V213.554C224.285 213.436 224.19 213.341 224.072 213.341Z" fill="#E6E6E6"/>
<path d="M227.5 213.341H226.213C226.095 213.341 226 213.436 226 213.554V214.156C226 214.274 226.095 214.369 226.213 214.369H227.5C227.618 214.369 227.713 214.274 227.713 214.156V213.554C227.713 213.436 227.618 213.341 227.5 213.341Z" fill="#E6E6E6"/>
<path d="M230.926 213.341H229.639C229.521 213.341 229.426 213.436 229.426 213.554V214.156C229.426 214.274 229.521 214.369 229.639 214.369H230.926C231.044 214.369 231.139 214.274 231.139 214.156V213.554C231.139 213.436 231.044 213.341 230.926 213.341Z" fill="#E6E6E6"/>
<path d="M234.352 213.341H233.064C232.947 213.341 232.852 213.436 232.852 213.554V214.156C232.852 214.274 232.947 214.369 233.064 214.369H234.352C234.469 214.369 234.565 214.274 234.565 214.156V213.554C234.565 213.436 234.469 213.341 234.352 213.341Z" fill="#E6E6E6"/>
<path d="M237.778 213.341H236.49C236.373 213.341 236.277 213.436 236.277 213.554V214.156C236.277 214.274 236.373 214.369 236.49 214.369H237.778C237.895 214.369 237.99 214.274 237.99 214.156V213.554C237.99 213.436 237.895 213.341 237.778 213.341Z" fill="#E6E6E6"/>
<path d="M241.203 213.341H239.916C239.798 213.341 239.703 213.436 239.703 213.554V214.156C239.703 214.274 239.798 214.369 239.916 214.369H241.203C241.321 214.369 241.416 214.274 241.416 214.156V213.554C241.416 213.436 241.321 213.341 241.203 213.341Z" fill="#E6E6E6"/>
<path d="M244.629 213.341H243.342C243.224 213.341 243.129 213.436 243.129 213.554V214.156C243.129 214.274 243.224 214.369 243.342 214.369H244.629C244.747 214.369 244.842 214.274 244.842 214.156V213.554C244.842 213.436 244.747 213.341 244.629 213.341Z" fill="#E6E6E6"/>
<path d="M248.057 213.341H246.77C246.652 213.341 246.557 213.436 246.557 213.554V214.156C246.557 214.274 246.652 214.369 246.77 214.369H248.057C248.174 214.369 248.27 214.274 248.27 214.156V213.554C248.27 213.436 248.174 213.341 248.057 213.341Z" fill="#E6E6E6"/>
<path d="M251.483 213.341H250.195C250.078 213.341 249.982 213.436 249.982 213.554V214.156C249.982 214.274 250.078 214.369 250.195 214.369H251.483C251.6 214.369 251.696 214.274 251.696 214.156V213.554C251.696 213.436 251.6 213.341 251.483 213.341Z" fill="#E6E6E6"/>
<path d="M254.908 213.341H253.621C253.504 213.341 253.408 213.436 253.408 213.554V214.156C253.408 214.274 253.504 214.369 253.621 214.369H254.908C255.026 214.369 255.121 214.274 255.121 214.156V213.554C255.121 213.436 255.026 213.341 254.908 213.341Z" fill="#E6E6E6"/>
<path d="M203.475 215.054H202.187C202.07 215.054 201.975 215.149 201.975 215.267V215.869C201.975 215.986 202.07 216.082 202.187 216.082H203.475C203.592 216.082 203.688 215.986 203.688 215.869V215.267C203.688 215.149 203.592 215.054 203.475 215.054Z" fill="#E6E6E6"/>
<path d="M206.903 215.054H205.615C205.498 215.054 205.402 215.149 205.402 215.267V215.869C205.402 215.986 205.498 216.082 205.615 216.082H206.903C207.02 216.082 207.115 215.986 207.115 215.869V215.267C207.115 215.149 207.02 215.054 206.903 215.054Z" fill="#E6E6E6"/>
<path d="M210.328 215.054H209.041C208.923 215.054 208.828 215.149 208.828 215.267V215.869C208.828 215.986 208.923 216.082 209.041 216.082H210.328C210.446 216.082 210.541 215.986 210.541 215.869V215.267C210.541 215.149 210.446 215.054 210.328 215.054Z" fill="#E6E6E6"/>
<path d="M213.754 215.054H212.467C212.349 215.054 212.254 215.149 212.254 215.267V215.869C212.254 215.986 212.349 216.082 212.467 216.082H213.754C213.872 216.082 213.967 215.986 213.967 215.869V215.267C213.967 215.149 213.872 215.054 213.754 215.054Z" fill="#E6E6E6"/>
<path d="M217.18 215.054H215.893C215.775 215.054 215.68 215.149 215.68 215.267V215.869C215.68 215.986 215.775 216.082 215.893 216.082H217.18C217.297 216.082 217.393 215.986 217.393 215.869V215.267C217.393 215.149 217.297 215.054 217.18 215.054Z" fill="#E6E6E6"/>
<path d="M220.606 215.054H219.318C219.201 215.054 219.105 215.149 219.105 215.267V215.869C219.105 215.986 219.201 216.082 219.318 216.082H220.606C220.723 216.082 220.819 215.986 220.819 215.869V215.267C220.819 215.149 220.723 215.054 220.606 215.054Z" fill="#E6E6E6"/>
<path d="M224.033 215.054H222.746C222.629 215.054 222.533 215.149 222.533 215.267V215.869C222.533 215.986 222.629 216.082 222.746 216.082H224.033C224.151 216.082 224.246 215.986 224.246 215.869V215.267C224.246 215.149 224.151 215.054 224.033 215.054Z" fill="#E6E6E6"/>
<path d="M227.459 215.054H226.172C226.054 215.054 225.959 215.149 225.959 215.267V215.869C225.959 215.986 226.054 216.082 226.172 216.082H227.459C227.577 216.082 227.672 215.986 227.672 215.869V215.267C227.672 215.149 227.577 215.054 227.459 215.054Z" fill="#E6E6E6"/>
<path d="M230.885 215.054H229.598C229.48 215.054 229.385 215.149 229.385 215.267V215.869C229.385 215.986 229.48 216.082 229.598 216.082H230.885C231.003 216.082 231.098 215.986 231.098 215.869V215.267C231.098 215.149 231.003 215.054 230.885 215.054Z" fill="#E6E6E6"/>
<path d="M234.311 215.054H233.023C232.906 215.054 232.811 215.149 232.811 215.267V215.869C232.811 215.986 232.906 216.082 233.023 216.082H234.311C234.428 216.082 234.524 215.986 234.524 215.869V215.267C234.524 215.149 234.428 215.054 234.311 215.054Z" fill="#E6E6E6"/>
<path d="M237.737 215.054H236.449C236.332 215.054 236.236 215.149 236.236 215.267V215.869C236.236 215.986 236.332 216.082 236.449 216.082H237.737C237.854 216.082 237.949 215.986 237.949 215.869V215.267C237.949 215.149 237.854 215.054 237.737 215.054Z" fill="#E6E6E6"/>
<path d="M241.164 215.054H239.877C239.759 215.054 239.664 215.149 239.664 215.267V215.869C239.664 215.986 239.759 216.082 239.877 216.082H241.164C241.282 216.082 241.377 215.986 241.377 215.869V215.267C241.377 215.149 241.282 215.054 241.164 215.054Z" fill="#E6E6E6"/>
<path d="M244.59 215.054H243.303C243.185 215.054 243.09 215.149 243.09 215.267V215.869C243.09 215.986 243.185 216.082 243.303 216.082H244.59C244.708 216.082 244.803 215.986 244.803 215.869V215.267C244.803 215.149 244.708 215.054 244.59 215.054Z" fill="#E6E6E6"/>
<path d="M248.016 215.054H246.729C246.611 215.054 246.516 215.149 246.516 215.267V215.869C246.516 215.986 246.611 216.082 246.729 216.082H248.016C248.133 216.082 248.229 215.986 248.229 215.869V215.267C248.229 215.149 248.133 215.054 248.016 215.054Z" fill="#E6E6E6"/>
<path d="M251.442 215.054H250.154C250.037 215.054 249.941 215.149 249.941 215.267V215.869C249.941 215.986 250.037 216.082 250.154 216.082H251.442C251.559 216.082 251.654 215.986 251.654 215.869V215.267C251.654 215.149 251.559 215.054 251.442 215.054Z" fill="#E6E6E6"/>
<path d="M254.867 215.054H253.58C253.463 215.054 253.367 215.149 253.367 215.267V215.869C253.367 215.986 253.463 216.082 253.58 216.082H254.867C254.985 216.082 255.08 215.986 255.08 215.869V215.267C255.08 215.149 254.985 215.054 254.867 215.054Z" fill="#E6E6E6"/>
<path d="M231.914 217.11H218.635C218.517 217.11 218.422 217.205 218.422 217.323V217.925C218.422 218.042 218.517 218.137 218.635 218.137H231.914C232.031 218.137 232.126 218.042 232.126 217.925V217.323C232.126 217.205 232.031 217.11 231.914 217.11Z" fill="#E6E6E6"/>
<path d="M269.89 134.327H182.413C182.22 134.323 182.068 134.164 182.072 133.972C182.076 133.786 182.226 133.636 182.413 133.632H269.89C270.082 133.636 270.235 133.795 270.23 133.987C270.226 134.173 270.076 134.323 269.89 134.327Z" fill="#CACACA"/>
<path d="M188.367 131.856C189.493 131.856 190.406 130.922 190.406 129.771C190.406 128.62 189.493 127.687 188.367 127.687C187.241 127.687 186.328 128.62 186.328 129.771C186.328 130.922 187.241 131.856 188.367 131.856Z" fill="#CCCCCC"/>
<path d="M195.41 131.856C196.536 131.856 197.449 130.922 197.449 129.771C197.449 128.62 196.536 127.687 195.41 127.687C194.284 127.687 193.371 128.62 193.371 129.771C193.371 130.922 194.284 131.856 195.41 131.856Z" fill="#CCCCCC"/>
<path d="M202.453 131.856C203.579 131.856 204.491 130.922 204.491 129.771C204.491 128.62 203.579 127.687 202.453 127.687C201.327 127.687 200.414 128.62 200.414 129.771C200.414 130.922 201.327 131.856 202.453 131.856Z" fill="#CCCCCC"/>
<path d="M226.062 139.602L225.779 138.777L261.912 120.003L262.194 120.828L226.062 139.602Z" fill="#3F3D56"/>
<path d="M335.081 174.376L334.799 173.55L356.541 154.871L356.823 155.696L335.081 174.376Z" fill="#3F3D56"/>
<path d="M293.308 178.724L257.176 159.95L257.458 159.124L293.59 177.898L293.308 178.724Z" fill="#3F3D56"/>
<path d="M311.805 165.66L290.623 130.884L291.292 130.325L312.474 165.1L311.805 165.66Z" fill="#3F3D56"/>
<path d="M328.336 120.347L307.707 120.252V119.379L328.336 119.474V120.347Z" fill="#3F3D56"/>
<path d="M365.707 125.756H342.595C339.464 125.756 336.926 123.218 336.926 120.087C336.926 116.957 339.464 114.418 342.595 114.418H365.707C368.838 114.418 371.376 116.957 371.376 120.087C371.376 123.218 368.838 125.756 365.707 125.756Z" fill="#F9A826"/>
<path d="M394.488 158.898H371.376C368.245 158.898 365.707 156.36 365.707 153.229C365.707 150.098 368.245 147.56 371.376 147.56H394.488C397.619 147.56 400.157 150.098 400.157 153.229C400.157 156.36 397.619 158.898 394.488 158.898Z" fill="#F9A826"/>
<path d="M357.118 182.269L336.488 182.174V181.302L357.118 181.397V182.269Z" fill="#3F3D56"/>
<path d="M394.488 187.679H371.376C368.245 187.679 365.707 185.141 365.707 182.01C365.707 178.879 368.245 176.341 371.376 176.341H394.488C397.619 176.341 400.157 178.879 400.157 182.01C400.157 185.141 397.619 187.679 394.488 187.679Z" fill="#F9A826"/>
<path d="M326.896 183.772H303.784C300.653 183.772 298.115 181.234 298.115 178.103C298.115 174.972 300.653 172.434 303.784 172.434H326.896C330.027 172.434 332.565 174.972 332.565 178.103C332.565 181.234 330.027 183.772 326.896 183.772Z" fill="#F9A826"/>
<path d="M295.498 125.338H272.386C269.255 125.338 266.717 122.8 266.717 119.669C266.717 116.538 269.255 114 272.386 114H295.498C298.629 114 301.167 116.538 301.167 119.669C301.167 122.8 298.629 125.338 295.498 125.338Z" fill="#F9A826"/>
<path d="M185.026 222.662H158.862C156.935 222.662 155.373 224.224 155.373 226.15C155.373 228.077 156.935 229.639 158.862 229.639H168.455V256.676H175.433V229.639H185.026C186.953 229.639 188.515 228.077 188.515 226.15C188.515 224.224 186.953 222.662 185.026 222.662Z" fill="#3F3D56"/>
<path d="M202.296 271.649H132.314C118.29 271.598 106.425 261.27 104.441 247.388L101.964 238.276C96.8366 219.393 89.0266 201.344 78.7728 184.681C74.0861 177.069 71.6739 169.702 77.1528 162.608C77.1995 162.548 77.2454 162.488 77.2905 162.43C81.6849 156.71 103.557 155.472 110.688 155.231C110.969 155.221 111.252 155.217 111.536 155.217H155.065C155.349 155.217 155.631 155.222 155.913 155.231C163.744 155.459 170.818 159.968 174.331 166.971C178.08 174.12 177.601 182.75 173.085 189.442C157.795 212.41 153.114 226.812 157.906 236.139C162.543 245.16 176.754 249.773 202.63 250.654C209.584 250.891 212.775 256.305 212.797 261.236C212.819 266.039 209.751 271.342 202.963 271.635C202.742 271.645 202.52 271.649 202.296 271.649Z" fill="#3F3D56"/>
<path d="M144.202 333.79H170.366C172.293 333.79 173.855 332.228 173.855 330.301C173.855 328.375 172.293 326.813 170.366 326.813H160.772V267.942H153.795V326.813H144.202C142.275 326.813 140.713 328.375 140.713 330.301C140.713 332.228 142.275 333.79 144.202 333.79Z" fill="#3F3D56"/>
<path d="M167.883 310.057L172.39 312.505L184.322 296.008L177.669 292.394L167.883 310.057Z" fill="#A0616A"/>
<path d="M170.054 304.178L178.237 306.74L176.934 310.168L182.545 318.312C183.263 319.353 183.001 320.78 181.959 321.497C181.339 321.925 180.549 322.02 179.845 321.753L170.32 318.134L169.966 314.119L168.037 317.266L164.445 315.902L170.054 304.178V304.178Z" fill="#2F2E41"/>
<path d="M179.272 143.686C179.676 146.454 177.76 149.025 174.992 149.429C174.697 149.472 174.398 149.489 174.1 149.479L156.722 186.457L151.271 178.856L169.161 143.891C169.436 141.092 171.928 139.046 174.727 139.321C177.069 139.551 178.948 141.355 179.272 143.686V143.686Z" fill="#A0616A"/>
<path d="M121.602 193.933C121.602 193.933 121.136 200.393 128.442 201.66C135.747 202.927 155.277 190.577 158.485 188.681C161.692 186.785 167.669 162.926 167.669 162.926L162.471 154.134C156.053 162.252 151.013 169.738 150.707 175.052L121.602 193.933H121.602Z" fill="#F9A826"/>
<path d="M130.035 216.185L131.613 222.964C131.613 222.964 131.628 229.215 132.736 230.368C133.835 231.515 158.009 229.211 158.009 229.211C158.009 229.211 155.446 219.138 155.48 211.516L130.035 216.185Z" fill="#A0616A"/>
<path d="M181.103 302.9L172.382 298.103C172.216 286.754 179.042 271.396 187.138 255.31C169.031 258.424 151.948 259.422 137.173 255.654C132.126 254.321 129.084 249.183 130.343 244.117C130.4 243.878 130.467 243.641 130.542 243.407C132.311 238.012 128.345 234.63 131.992 228.696C141.585 225.42 150.697 224.495 159.029 227.387L164.25 238.931L190.128 235.582C195.361 234.957 200.11 238.692 200.735 243.924C200.738 243.948 200.741 243.972 200.744 243.996C200.778 244.277 200.801 244.559 200.812 244.842C195.579 269.372 189.712 291.445 181.103 302.9Z" fill="#2F2E41"/>
<path d="M126.522 173.265L136.491 172.676C137.353 172.625 138.152 173.127 138.481 173.925L141.298 180.754L153.007 190.432C153.007 190.432 157.643 196.331 157.654 203.95C157.665 211.569 159.299 229.203 159.299 229.203C159.299 229.203 152.533 219.68 148.357 222.213C147.646 222.643 147.397 223.525 146.652 223.97C146.281 224.192 145.424 223.976 145.049 224.199C139.294 227.615 133.293 230.952 132.732 230.367C131.631 229.218 130.296 223.347 130.296 223.347L121.17 189.818C120.169 186.246 120.816 182.414 122.936 179.369C123.574 178.472 124.242 177.804 124.862 177.693C126.256 177.397 125.515 174.273 126.522 173.265Z" fill="#F9A826"/>
<path d="M211.325 324.259L215.533 321.333L206 303.348L199.789 307.666L211.325 324.259Z" fill="#A0616A"/>
<path d="M211.961 312.191L205.366 318.086C194.879 306.401 186.952 290.013 180.233 271.403C162.631 266.247 149.356 257.933 137.767 248.061C133.836 244.735 130.889 240.461 134.242 236.409C134.399 236.219 134.562 236.036 134.733 235.859C138.692 231.79 148.731 232.566 154.611 228.838L167.746 242.878L166.92 246.643L191.592 255C196.559 256.741 199.174 262.178 197.433 267.145C197.425 267.169 197.416 267.193 197.408 267.218C197.315 267.485 197.211 267.748 197.096 268.007L211.961 312.191V312.191Z" fill="#2F2E41"/>
<path d="M208.871 323.073L215.607 317.768L217.7 320.779L227.59 320.749C228.855 320.745 229.884 321.767 229.888 323.032C229.89 323.785 229.522 324.491 228.904 324.92L220.537 330.736L217.025 328.761L218.532 332.13L215.378 334.323L208.871 323.073Z" fill="#2F2E41"/>
<path d="M141.242 257.763C138.667 256.67 137.466 253.697 138.559 251.122C138.676 250.847 138.816 250.583 138.979 250.334L116.41 216.275L125.736 215.566L146.32 249.016C148.569 250.705 149.023 253.897 147.334 256.146C145.921 258.028 143.403 258.696 141.242 257.763V257.763Z" fill="#A0616A"/>
<path d="M128.268 182.382C128.268 182.382 122.99 178.628 118.112 184.212C113.234 189.797 113.642 212.9 113.596 216.626C113.581 217.793 115.266 220.31 117.587 223.218C118.629 224.524 119.8 225.908 121.002 227.284C121.698 228.08 121.098 229.737 121.797 230.511C122.492 231.281 124.485 231.167 125.146 231.882C128.283 235.272 130.832 237.853 130.832 237.853L141.045 237.979C141.16 230.387 135.961 223.61 129.281 217.06L128.268 182.382Z" fill="#F9A826"/>
<path d="M117.973 149.326C117.006 150.024 115.988 150.743 114.809 150.916C113.629 151.088 112.247 150.518 111.921 149.371C111.522 147.969 112.788 146.692 113.926 145.781L117.535 142.891C118.196 142.305 118.942 141.822 119.748 141.46C120.567 141.099 121.507 141.131 122.301 141.546C123.089 142.078 123.545 142.982 123.506 143.932C123.454 144.87 123.145 145.774 122.612 146.547C121.258 148.657 119.102 150.123 116.641 150.605" fill="#2F2E41"/>
<path d="M145.345 224.406H119.18C117.253 224.406 115.691 225.968 115.691 227.895C115.691 229.821 117.253 231.383 119.18 231.383H128.774V258.42H135.751V231.383H145.345C147.271 231.383 148.833 229.821 148.833 227.895C148.833 225.968 147.271 224.406 145.345 224.406Z" fill="#3F3D56"/>
<path d="M119.576 142.006C119.681 139.391 116.894 137.319 114.282 137.483C111.67 137.647 109.425 139.484 107.943 141.642C106.463 143.799 105.573 146.297 104.407 148.638C103.24 150.979 101.687 153.272 99.3685 154.485C97.0509 155.697 93.8247 155.481 92.2228 153.412C91.2126 154.944 90.9929 156.866 91.6312 158.586C92.287 160.285 93.5101 161.704 95.0929 162.603C95.7229 162.977 96.3959 163.273 97.0971 163.484C97.3862 162.704 97.793 161.972 98.3034 161.315C98.0729 162.093 97.9849 162.907 98.0436 163.716C99.1244 163.923 100.236 163.906 101.31 163.665C103.448 163.187 105.235 161.729 106.134 159.731C107.113 157.412 106.614 154.768 106.824 152.259C107.032 149.75 108.543 146.886 111.061 146.845C112.978 146.814 112.724 146.972 113.939 148.455" fill="#2F2E41"/>
<path d="M136.984 155.751C136.984 162.013 131.907 167.089 125.646 167.089C119.384 167.089 113.436 159.832 113.436 153.57C113.436 147.309 119.384 144.413 125.646 144.413C131.907 144.413 136.984 149.489 136.984 155.751Z" fill="#2F2E41"/>
<path d="M131.233 169.338C137.086 168.14 140.86 162.425 139.662 156.572C138.464 150.72 132.749 146.946 126.896 148.143C121.043 149.341 117.27 155.056 118.467 160.909C119.665 166.762 125.38 170.536 131.233 169.338Z" fill="#A0616A"/>
<path d="M142.654 157.059C139.451 157.933 136.218 158.85 134.97 157.059C134.727 155.872 134.267 154.739 133.614 153.719C133.491 154.862 133.223 155.984 132.816 157.059C128.77 157.938 124.989 158.149 121.722 157.059C121.273 157.872 121.012 158.775 120.959 159.702C120.797 159.6 120.628 159.511 120.453 159.436C120.243 159.317 119.992 159.295 119.764 159.375C119.606 159.47 119.502 159.632 119.48 159.815C119.459 159.997 119.468 160.181 119.507 160.36C119.552 160.984 119.739 161.589 120.052 162.131C120.302 162.508 120.699 162.762 121.146 162.833C121.6 165.384 125.211 168.833 125.211 168.833C114.309 169.269 114.309 161.873 114.309 154.879L115.617 152.262H119.978V146.593H132.188C137.967 146.595 142.652 151.28 142.654 157.059V157.059Z" fill="#2F2E41"/>
<path d="M242.007 335.052L50.6782 335.186C50.3914 335.188 50.1578 334.956 50.1563 334.67C50.1548 334.383 50.386 334.149 50.6728 334.148H50.6782L242.007 334.014C242.294 334.015 242.525 334.248 242.524 334.535C242.523 334.82 242.292 335.051 242.007 335.052Z" fill="#CACACA"/>
<path d="M369.777 335.052L270.897 335.186C270.61 335.188 270.376 334.956 270.375 334.67C270.374 334.383 270.605 334.149 270.892 334.148H270.897L369.777 334.014C370.064 334.013 370.297 334.244 370.298 334.531C370.299 334.818 370.067 335.051 369.781 335.052H369.777Z" fill="#CACACA"/>
<path d="M246.379 178.539H208.897C205.642 178.536 203.004 175.898 203 172.642V147.806C203.004 144.551 205.642 141.913 208.897 141.909H246.379C249.635 141.913 252.273 144.551 252.277 147.806V172.642C252.273 175.898 249.635 178.536 246.379 178.539ZM208.897 142.781C206.123 142.784 203.875 145.032 203.872 147.806V172.642C203.875 175.416 206.123 177.664 208.897 177.667H246.379C249.153 177.664 251.401 175.416 251.404 172.642V147.806C251.401 145.032 249.153 142.784 246.379 142.781L208.897 142.781Z" fill="#E6E6E6"/>
<path d="M220.002 149.758H209.977V150.63H220.002V149.758Z" fill="#E6E6E6"/>
<path d="M232.216 153.247H209.977V154.119H232.216V153.247Z" fill="#E6E6E6"/>
<path d="M232.216 156.299H209.977V157.171H232.216V156.299Z" fill="#E6E6E6"/>
<path d="M238.322 159.352H209.977V160.224H238.322V159.352Z" fill="#E6E6E6"/>
<path d="M224.803 162.405H209.977V163.277H224.803V162.405Z" fill="#E6E6E6"/>
<path d="M237.013 165.457H209.977V166.329H237.013V165.457Z" fill="#E6E6E6"/>
<path d="M214.773 168.51H209.977V169.382H214.773V168.51Z" fill="#E6E6E6"/>
<path d="M209.65 130.989C209.608 130.989 209.566 130.972 209.534 130.94L208.603 129.989C208.541 129.925 208.541 129.824 208.603 129.761L209.534 128.809C209.597 128.745 209.7 128.744 209.764 128.807C209.829 128.87 209.83 128.973 209.767 129.038L208.948 129.875L209.767 130.712C209.83 130.776 209.829 130.879 209.764 130.942C209.733 130.973 209.691 130.989 209.65 130.989V130.989Z" fill="#CCCCCC"/>
<path d="M211.214 130.989C211.173 130.989 211.132 130.973 211.1 130.942C211.035 130.879 211.034 130.776 211.097 130.712L211.916 129.875L211.097 129.038C211.034 128.973 211.035 128.87 211.1 128.807C211.164 128.744 211.267 128.745 211.33 128.81L212.261 129.761C212.323 129.824 212.323 129.925 212.261 129.989L211.33 130.94C211.299 130.972 211.256 130.989 211.214 130.989V130.989Z" fill="#CCCCCC"/>
<path d="M259.89 128.628H258.16C257.963 128.628 257.803 128.788 257.803 128.985V130.717C257.803 130.914 257.963 131.074 258.16 131.074H259.89C260.087 131.074 260.249 130.914 260.249 130.717V128.985C260.249 128.788 260.087 128.628 259.89 128.628Z" fill="#CCCCCC"/>
<path d="M255.652 128.628H253.922C253.724 128.628 253.564 128.788 253.564 128.985V130.717C253.564 130.914 253.724 131.074 253.922 131.074H255.652C255.849 131.074 256.01 130.914 256.01 130.717V128.985C256.01 128.788 255.849 128.628 255.652 128.628Z" fill="#CCCCCC"/>
<path d="M263.886 128.71H262.156C261.959 128.71 261.799 128.87 261.799 129.067V130.799C261.799 130.996 261.959 131.156 262.156 131.156H263.886C264.083 131.156 264.245 130.996 264.245 130.799V129.067C264.245 128.87 264.083 128.71 263.886 128.71Z" fill="#CCCCCC"/>
<path d="M237.808 129.368H223.978C223.737 129.368 223.543 129.564 223.543 129.804C223.543 130.044 223.737 130.239 223.978 130.239H237.808C238.048 130.239 238.243 130.043 238.243 129.804C238.243 129.564 238.048 129.368 237.808 129.368Z" fill="#CCCCCC"/>
</g>
<defs>
<clipPath id="clip0_63_276">
<rect width="350" height="221.186" fill="white" transform="translate(50.1562 114)"/>
</clipPath>
</defs>
</svg>
