<svg width="451" height="450" viewBox="0 0 451 450" fill="none" xmlns="http://www.w3.org/2000/svg">
<g clip-path="url(#clip0_63_970)">
<path d="M375.795 224.858C375.815 241.923 372.911 258.865 367.208 274.951C367.183 275.026 367.158 275.094 367.13 275.168V275.172C362.86 287.14 357.076 298.513 349.921 309.016C348.681 310.846 347.397 312.646 346.069 314.416C344.609 316.374 343.101 318.293 341.548 320.172C340.116 321.906 338.645 323.606 337.137 325.273C335.345 327.259 333.499 329.194 331.6 331.079C327.131 335.526 322.385 339.687 317.391 343.537C316.515 344.217 315.629 344.885 314.733 345.541C312.649 347.079 310.523 348.562 308.356 349.991C303.588 353.139 298.643 356.01 293.544 358.59C292.664 359.039 291.777 359.48 290.887 359.907C287.441 361.57 283.926 363.099 280.34 364.496C279.318 364.898 278.292 365.286 277.255 365.66C277.08 365.727 276.906 365.791 276.727 365.852C264.433 370.285 251.608 373.083 238.582 374.174C237.677 374.256 236.771 374.325 235.864 374.381C234.902 374.448 233.939 374.503 232.974 374.544C232.212 374.584 231.453 374.612 230.687 374.633C230.53 374.64 230.37 374.648 230.213 374.648C229.183 374.68 228.15 374.7 227.113 374.708C226.675 374.712 226.237 374.715 225.795 374.715C225.588 374.715 225.382 374.715 225.175 374.712C222.186 374.701 219.219 374.604 216.275 374.42C216.214 374.416 216.154 374.409 216.093 374.409C215.039 374.338 213.987 374.263 212.94 374.171C209.21 373.857 205.52 373.406 201.87 372.818C201.029 372.686 200.191 372.544 199.354 372.391C195.724 371.75 192.141 370.978 188.605 370.074C187.554 369.807 186.509 369.528 185.47 369.237C171.022 365.216 157.264 359.04 144.66 350.92C142.493 349.528 140.368 348.08 138.282 346.577C138.025 346.399 137.773 346.214 137.52 346.029C132.454 342.339 127.623 338.336 123.058 334.044C120.895 332.015 118.795 329.922 116.758 327.765C90.4022 299.978 75.7378 263.138 75.7951 224.858C75.7951 142.094 142.953 75 225.795 75C308.637 75 375.795 142.094 375.795 224.858Z" fill="#F2F2F2"/>
<path d="M244.095 113.204C247.098 108.241 250.657 102.943 256.23 101.322C262.685 99.4459 269.315 103.174 274.939 106.852C291.758 117.854 307.955 129.776 323.456 142.565L323.439 142.758C311.371 141.926 299.303 141.095 287.235 140.263C278.516 139.663 269.497 138.979 261.792 134.858C258.868 133.295 256.018 131.206 252.704 131.06C248.588 130.879 244.999 133.752 242.178 136.752C225.493 154.503 220.664 181.648 201.945 197.243C213.749 168.161 227.843 140.06 244.095 113.204Z" fill="white"/>
<path d="M141.532 263.761C143.377 261.433 144.131 260.888 145.951 258.539C160.771 239.39 174.7 219.595 187.738 199.153C196.595 185.269 205.012 171.119 212.99 156.703C216.788 149.849 220.482 142.941 224.072 135.98C226.858 130.582 229.582 125.152 232.243 119.69C233.004 118.129 233.744 116.562 234.479 114.991C236.213 111.297 237.915 107.585 239.742 103.941C241.825 99.7878 244.359 95.4338 248.182 92.6434C249.922 91.3215 252.003 90.5216 254.181 90.3373C257.294 90.1365 260.166 91.4204 262.865 92.8228C282.617 103.113 301.109 116.013 317.834 130.693C334.603 145.406 349.591 162.028 362.494 180.22C362.888 180.783 363.822 180.245 363.423 179.678C361.854 177.462 360.255 175.269 358.624 173.1C345.088 155.103 329.478 138.762 312.116 124.413C303.52 117.308 294.519 110.706 285.159 104.64C280.395 101.556 275.541 98.6162 270.598 95.8211C268.107 94.4116 265.604 93.02 263.059 91.7145C260.564 90.4341 257.915 89.2829 255.064 89.2398C245.364 89.0892 240.342 100.064 236.892 107.449C235.808 109.773 234.711 112.09 233.6 114.399C229.403 123.168 225.045 131.857 220.526 140.466C217.736 145.782 214.886 151.066 211.974 156.319C202.913 172.677 193.283 188.704 183.082 204.4C169.57 225.191 156.165 243.558 140.771 263.001C140.347 263.538 141.105 264.306 141.532 263.761Z" fill="white"/>
<path d="M195.22 176.489L180.768 171.208L173.593 168.586C171.256 167.732 168.924 166.76 166.508 166.148C164.373 165.608 162.202 165.519 160.097 166.23C158.239 166.917 156.538 167.97 155.095 169.327C153.622 170.683 152.251 172.146 150.993 173.704C149.431 175.579 147.892 177.475 146.346 179.364C139.965 187.16 133.626 194.99 127.329 202.854C121.031 210.718 114.776 218.615 108.563 226.545C102.335 234.495 96.1493 242.478 90.0067 250.495C89.2542 251.477 88.5024 252.459 87.7512 253.442C87.3361 253.985 86.4003 253.45 86.8212 252.899C93.0092 244.802 99.2402 236.738 105.514 228.708C111.804 220.658 118.137 212.642 124.514 204.66C130.89 196.679 137.309 188.732 143.772 180.82C145.382 178.848 146.995 176.879 148.61 174.913C149.973 173.253 151.32 171.576 152.814 170.032C155.558 167.198 158.985 164.693 163.088 164.625C165.5 164.585 167.835 165.35 170.076 166.16C172.492 167.033 174.902 167.922 177.315 168.804L191.868 174.122L195.506 175.451C196.152 175.687 195.873 176.727 195.22 176.489V176.489Z" fill="white"/>
<path d="M155.64 176.542C157.063 174.812 158.601 173 160.729 172.297L162.715 172.376C147.592 199.073 127.168 222.401 102.695 240.927C120.344 219.465 137.992 198.004 155.64 176.542Z" fill="white"/>
<path d="M252.248 148.901C252.249 151.629 251.58 154.315 250.299 156.725C249.018 159.134 247.165 161.192 244.902 162.719C242.639 164.245 240.035 165.194 237.32 165.48C234.604 165.767 231.86 165.384 229.328 164.363C226.795 163.343 224.552 161.717 222.795 159.629C221.039 157.54 219.822 155.053 219.252 152.385C218.682 149.717 218.777 146.95 219.527 144.327C220.277 141.704 221.661 139.306 223.556 137.341C223.582 137.315 223.609 137.288 223.636 137.262C223.769 137.121 223.903 136.982 224.043 136.848C224.044 136.848 224.044 136.848 224.045 136.848C224.046 136.847 224.047 136.847 224.047 136.846C224.048 136.846 224.049 136.845 224.049 136.844C224.049 136.843 224.049 136.842 224.049 136.841C224.223 136.681 224.396 136.521 224.577 136.368C226.987 134.257 229.955 132.884 233.127 132.415C236.298 131.946 239.537 132.399 242.457 133.722C245.376 135.044 247.853 137.179 249.589 139.871C251.326 142.563 252.249 145.698 252.248 148.901V148.901Z" fill="#2F2E41"/>
<path d="M241.347 162.639C246.81 157.181 246.81 148.333 241.347 142.875C235.885 137.418 227.028 137.418 221.565 142.875C216.102 148.333 216.102 157.181 221.565 162.639C227.028 168.096 235.885 168.096 241.347 162.639Z" fill="#9E616A"/>
<path d="M241.45 139.318C239.283 137.292 236.587 135.918 233.674 135.354C230.76 134.789 227.746 135.058 224.978 136.128C224.896 136.16 224.814 136.196 224.733 136.235C224.729 136.235 224.729 136.239 224.725 136.239C224.458 136.349 224.187 136.463 223.927 136.587L223.767 136.666V136.687C223.738 136.708 223.706 136.733 223.674 136.755C223.609 136.816 223.529 136.86 223.443 136.883C220.753 136.918 218.561 137.83 216.937 139.592C214.767 141.941 213.748 145.739 214.061 150.288L214.069 150.427L214.19 150.505C215.337 151.221 216.424 151.851 217.471 152.403C218.091 152.734 218.693 153.036 219.292 153.314C219.363 153.346 219.434 153.381 219.506 153.414C225.563 156.208 231.103 156.713 236.426 154.944L236.526 154.912L238.788 151.125C239.021 152.419 239.644 153.611 240.574 154.541C241.504 155.472 242.696 156.097 243.99 156.332L244.931 156.5L246.31 156.742L246.367 156.482C247.735 150.324 245.757 143.429 241.45 139.318Z" fill="#2F2E41"/>
<path d="M275.814 168.649C271.053 166.194 277.176 157.286 275.945 152.077C274.715 146.868 265.856 145.193 265.292 139.871C264.728 134.549 263.4 129.06 259.885 125.022C257.639 122.441 254.329 120.536 250.921 120.859C249.768 120.969 248.652 121.325 247.65 121.904C246.647 122.483 245.781 123.271 245.111 124.215C244.44 125.158 243.981 126.235 243.765 127.372C243.549 128.509 243.58 129.678 243.857 130.802C242.887 129.428 240.376 129.726 239.755 131.288C239.202 132.677 240.423 134.359 241.859 134.482C243.739 136.801 245.892 139.263 248.836 139.731C249.785 139.881 250.851 139.771 251.544 139.106C252.237 138.441 252.291 137.113 251.469 136.616C255.17 138.085 257.339 142.082 257.889 146.022C258.438 149.963 257.678 153.949 257.177 157.896C256.677 161.843 256.461 165.995 258.01 169.66C259.84 173.99 264.054 177.093 268.652 178.089C273.25 179.084 278.147 178.111 282.309 175.92C286.472 173.728 289.942 170.382 292.778 166.631C287.894 170.096 281.137 171.394 275.814 168.649Z" fill="#2F2E41"/>
<path d="M221.73 227.35L212.068 293.266L264.81 289.294L249.024 224.449L221.73 227.35Z" fill="#FFB8B8"/>
<path d="M276.905 365.179C276.858 365.406 276.799 365.631 276.727 365.852C270.64 368.05 264.416 369.847 258.093 371.23C256.76 366.852 254.206 358.562 251.968 351.781C250.14 346.246 248.526 341.718 247.964 341.152C246.399 339.597 247.964 337.521 247.964 337.521L241.283 316.773L238.247 307.347L237.207 327.149L235.696 355.832L235.654 356.636C235.654 356.636 233.573 362.862 234.613 363.901C235.654 364.941 233.573 369.095 233.573 369.095L232.974 374.544C232.212 374.584 231.453 374.612 230.687 374.633L230.427 374.715L230.213 374.648C229.183 374.68 228.15 374.7 227.113 374.708C226.675 374.712 226.237 374.715 225.795 374.715C225.588 374.715 225.382 374.715 225.175 374.712C222.186 374.701 219.219 374.604 216.275 374.42L214.447 359.559L212.559 344.203C212.559 344.203 214.636 340.056 212.559 337.98C211.308 336.731 211.935 334.916 212.637 333.67C212.202 331.744 211.607 328.783 210.806 324.397C210.777 324.251 210.752 324.102 210.724 323.952C210.471 322.56 210.244 321.196 210.043 319.859C209.687 317.506 209.409 315.246 209.195 313.081C208.47 306.072 208.37 299.011 208.896 291.984C209.095 289.485 209.345 287.655 209.509 286.598C209.523 286.499 209.676 285.94 209.926 285.057C210.317 283.644 210.962 281.401 211.686 278.892C212.07 277.56 212.477 276.154 212.879 274.756C213.581 272.331 214.279 269.929 214.842 267.985V267.975C215.338 266.27 215.733 264.924 215.94 264.219C216.04 263.874 216.093 263.685 216.093 263.685C216.093 263.685 216.203 263.66 216.414 263.614C217.066 263.465 218.676 263.105 220.907 262.625C223.233 262.133 226.23 261.51 229.522 260.877C232.34 260.336 235.376 259.784 238.393 259.289C239.477 259.115 240.56 258.944 241.629 258.784C248.231 257.801 254.291 257.242 257.163 257.88C257.362 257.922 257.558 257.975 257.751 258.04C257.946 258.104 258.133 258.189 258.31 258.293C258.399 258.346 259.262 261.706 260.363 266.084C260.373 266.127 260.384 266.173 260.395 266.216C260.726 267.54 261.079 268.95 261.439 270.392C261.806 271.862 262.176 273.36 262.54 274.82C263.619 279.155 264.617 283.167 265.13 285.132C265.326 285.893 265.454 286.345 265.483 286.395C266.687 288.399 267.67 293.312 268.468 299.473C269.181 304.973 269.747 311.469 270.186 317.78C270.403 320.902 270.588 323.981 270.745 326.871C271.276 336.596 271.49 344.188 271.49 344.188C271.49 344.188 272.284 350.517 273.863 353.504C274.057 353.889 274.305 354.245 274.6 354.561C275.651 355.611 275.772 356.522 275.633 357.17C275.573 357.476 275.446 357.765 275.263 358.017C275.221 358.079 275.175 358.137 275.124 358.192C274.988 358.836 275.012 359.503 275.193 360.136C275.375 360.769 275.708 361.348 276.164 361.822C277.173 362.837 277.091 364.289 276.905 365.179Z" fill="#2F2E41"/>
<path d="M259.629 206.209C259.569 205.761 259.505 205.309 259.437 204.853C259.398 204.561 259.351 204.269 259.309 203.981C258.856 201.069 260.741 198.577 258.3 196.563C257.73 196.099 257.265 195.519 256.936 194.861L256.376 193.736L255.347 191.651L253.095 187.116L252.707 186.336C252.597 186.115 252.47 185.902 252.329 185.699C251.908 185.088 251.36 184.576 250.722 184.197L245.128 180.865C244.264 180.353 243.568 179.599 243.126 178.697L242.987 178.412C242.37 177.149 241.266 174.127 239.958 172.813L239.955 172.81C239.67 172.484 239.283 172.265 238.857 172.187L233.289 171.635C232.398 171.545 231.499 171.687 230.68 172.048C229.861 172.41 229.15 172.978 228.617 173.696L228.464 174.39L227.57 178.459L227.52 178.469C227.256 178.53 226.993 178.59 226.733 178.665C220.957 180.242 218.549 200.414 218.549 200.414C218.549 200.414 214.505 207.081 216.094 211.207L218.93 217.86C218.952 217.91 218.969 217.962 218.98 218.016C219.236 218.74 219.326 219.513 219.243 220.277L219.247 220.536L219.254 221.109L219.275 222.58L219.343 227.456L219.429 233.561L219.504 238.761L219.528 240.146L214.857 260.453C214.781 261.121 214.837 261.796 215.022 262.442C215.207 263.088 215.518 263.69 215.937 264.216L215.941 264.219C216.043 264.351 216.153 264.477 216.268 264.597L216.272 264.6C216.382 264.714 216.496 264.817 216.614 264.921C217.176 265.412 217.84 265.775 218.557 265.983C219.275 266.192 220.03 266.241 220.768 266.127L221.392 266.031H221.395L230.445 264.675H230.452L231.5 264.518H231.507L241.637 262.998H241.644L243.379 262.735C243.518 262.717 243.653 262.699 243.792 262.689L253.066 262.052C253.279 262.037 253.491 262.01 253.701 261.97H253.704C254.52 261.809 255.284 261.454 255.934 260.935C256.583 260.417 257.098 259.75 257.435 258.99C257.575 258.686 257.681 258.367 257.752 258.04C257.832 257.686 257.876 257.324 257.884 256.961L257.987 248.233L258.34 220.027C258.347 219.086 258.616 218.166 259.116 217.368C260.403 215.318 260.256 210.926 259.629 206.209Z" fill="#F9A826"/>
<path d="M244.078 281.541C243.948 280.822 243.977 280.083 244.163 279.376C244.35 278.669 244.689 278.011 245.157 277.45C245.626 276.888 246.211 276.436 246.874 276.124C247.536 275.813 248.258 275.651 248.99 275.649L254.776 258.845L260.418 266.16L254.058 280.996C253.98 282.225 253.454 283.382 252.579 284.248C251.704 285.115 250.541 285.63 249.311 285.697C248.08 285.765 246.868 285.379 245.904 284.613C244.94 283.847 244.29 282.754 244.078 281.541H244.078Z" fill="#9E616A"/>
<path d="M266.156 246.187L264.855 249.461L263.038 269.719C262.474 269.86 261.934 270.087 261.439 270.392C260.361 271.057 259.541 272.067 259.111 273.258C258.681 274.448 258.666 275.749 259.069 276.948L259.604 278.55L255.631 277.329L249.1 275.325L241.401 272.962L242.705 268.736C243.006 267.766 243.067 266.736 242.883 265.736C242.698 264.737 242.272 263.797 241.643 262.998C241.487 262.8 241.319 262.611 241.14 262.432L241.629 258.784L241.917 256.616L238.393 259.289L231.503 264.518H231.499L230.587 265.212C230.587 265.212 230.537 265.027 230.445 264.675C230.27 263.995 229.942 262.692 229.522 260.877C227.44 251.831 225.906 242.667 224.929 233.436C224.715 231.357 224.53 229.229 224.38 227.068C224.227 224.843 224.113 222.587 224.053 220.316C223.54 201.831 226.383 182.453 238.265 172.543C238.84 172.547 239.41 172.638 239.958 172.813C244.768 174.29 250.044 181.509 253.693 186.674C254.555 187.895 255.325 188.999 255.977 189.885L257.555 192.031C259.71 194.964 261.202 198.33 261.927 201.895C262.08 202.65 262.2 203.414 262.287 204.187L264.011 220.034V224.117L266.156 246.187Z" fill="#F9A826"/>
<path d="M84.4844 274.594C87.5796 278.259 90.9274 281.702 94.5034 284.899L357.299 285.255C360.875 282.058 364.223 278.614 367.318 274.95L84.4844 274.594Z" fill="#CCCCCC"/>
<path d="M227.113 374.708C226.675 374.712 226.236 374.715 225.795 374.715C225.588 374.715 225.381 374.715 225.175 374.712C222.185 374.701 219.219 374.604 216.274 374.42L216.346 375L216.093 374.409L210.445 361.274L214.447 359.559L221.786 356.408L224.013 364.058L226.144 371.384L226.778 373.555L227.113 374.708Z" fill="#FFB6B6"/>
<path d="M200.951 359.459L199.355 372.391C195.724 371.75 192.141 370.978 188.605 370.074V359.463L200.951 359.459Z" fill="#FFB6B6"/>
<path d="M144.659 335.624V350.919C142.493 349.528 140.367 348.08 138.281 346.577V335.624H144.659Z" fill="#CACACA"/>
<path d="M169.368 333.076V340.718C169.368 342.126 168.808 343.476 167.812 344.472C166.816 345.467 165.465 346.027 164.056 346.029H137.519C132.453 342.339 127.623 338.336 123.057 334.044C120.894 332.015 118.795 329.922 116.758 327.765H164.056C165.465 327.767 166.816 328.327 167.812 329.322C168.807 330.318 169.367 331.668 169.368 333.076Z" fill="#3F3D56"/>
<path d="M231.56 374.356L230.687 374.633L230.427 374.715L230.213 374.648C229.183 374.68 228.15 374.7 227.113 374.708C226.675 374.712 226.237 374.715 225.795 374.715C225.588 374.715 225.382 374.715 225.175 374.712C222.186 374.701 219.219 374.604 216.275 374.42L216.346 375L216.093 374.409C215.038 374.338 213.987 374.263 212.94 374.171L204.649 360.299L187.586 331.755L185.609 328.448C185.609 328.448 178.864 330.441 169.319 332.353C162.125 333.798 153.343 335.19 144.66 335.646C142.518 335.759 140.384 335.816 138.282 335.799C132.848 335.763 127.629 335.254 123.057 334.044C120.895 332.015 118.795 329.922 116.758 327.765C113.286 324.097 110.002 320.256 106.917 316.257C106.876 314.789 106.951 313.32 107.142 311.864C107.174 311.622 107.206 311.376 107.245 311.127L108.218 294.625L115.443 293.671L126.439 292.219L138.35 290.646L139.661 300.904C139.661 300.904 148.935 300.434 160.686 300.591C179.559 300.847 204.813 302.727 208.233 310.793C208.554 311.551 208.875 312.316 209.195 313.081C215.837 328.975 221.936 345.908 226.08 357.939C226.871 360.231 227.587 362.342 228.225 364.236C230.331 370.49 231.56 374.356 231.56 374.356Z" fill="#2F2E41"/>
<path d="M211.357 319.887C211.183 321.397 210.998 322.9 210.805 324.397C209.095 337.642 206.74 350.293 204.648 360.299C203.626 365.183 202.664 369.433 201.869 372.818C201.028 372.686 200.19 372.544 199.354 372.391C195.723 371.75 192.14 370.978 188.604 370.074C187.553 369.807 186.508 369.528 185.469 369.237L187.585 331.755L188.283 319.357L210.042 319.859L211.357 319.887Z" fill="#2F2E41"/>
<path d="M246.343 261.912C247.251 261.406 248.258 261.105 249.294 261.029C250.331 260.954 251.371 261.107 252.343 261.477C253.314 261.847 254.192 262.425 254.915 263.171C255.638 263.916 256.189 264.811 256.528 265.793L281.791 265.822L274.551 276.763L251.671 275.057C249.983 275.518 248.185 275.344 246.617 274.568C245.049 273.792 243.82 272.469 243.163 270.849C242.506 269.229 242.467 267.424 243.054 265.777C243.64 264.13 244.81 262.755 246.343 261.912L246.343 261.912Z" fill="#FFB6B6"/>
<path d="M260.117 276.707L305.615 281.223L305.735 281.07C305.964 280.777 328.739 251.651 332.566 244.718C334.92 240.553 335.777 235.708 334.996 230.988L334.969 230.873L334.879 230.797C333.023 229.243 330.693 228.368 328.273 228.315C325.853 228.262 323.487 229.034 321.565 230.505C312.324 237.655 304.872 246.853 299.799 257.374L296.921 263.361L263.532 264.792L260.117 276.707Z" fill="#F9A826"/>
<path d="M242.57 358.783L235.865 374.381C234.903 374.448 233.939 374.503 232.975 374.544C232.213 374.584 231.454 374.612 230.688 374.633L230.428 374.715L230.214 374.648C229.184 374.68 228.151 374.7 227.114 374.708C226.676 374.712 226.238 374.715 225.796 374.715C225.589 374.715 225.382 374.715 225.176 374.712L225.621 373.188L226.145 371.384L228.226 364.236L231.229 353.917L235.697 355.832L242.57 358.783Z" fill="#FFB6B6"/>
<path d="M290.886 359.908C287.441 361.57 283.925 363.099 280.34 364.496L276.834 358.605L288.136 353.646L290.886 359.908Z" fill="#FFB6B6"/>
<path d="M314.733 333.132V345.541C312.649 347.079 310.523 348.562 308.355 349.99V333.132H314.733Z" fill="#CACACA"/>
<path d="M337.137 325.273C335.345 327.259 333.499 329.194 331.6 331.079C327.131 335.526 322.385 339.687 317.391 343.537H288.959C288.204 343.537 287.458 343.376 286.77 343.065C286.083 342.754 285.47 342.299 284.972 341.732L284.968 341.722C284.376 341.053 283.963 340.245 283.771 339.372L283.768 339.365C283.687 338.991 283.647 338.609 283.646 338.226V330.584C283.647 329.176 284.207 327.826 285.203 326.831C286.199 325.835 287.55 325.275 288.959 325.273H337.137Z" fill="#3F3D56"/>
<path d="M348.852 295.444L345.77 308.635C346.071 310.547 346.171 312.484 346.069 314.416C344.608 316.374 343.101 318.293 341.548 320.172C340.115 321.906 338.645 323.606 337.137 325.273C335.345 327.259 333.499 329.194 331.6 331.079C326.655 332.63 320.826 333.264 314.733 333.307C312.631 333.325 310.497 333.268 308.355 333.154C299.672 332.698 290.89 331.306 283.696 329.861C281.794 329.484 280.005 329.099 278.359 328.726C275.241 328.024 272.633 327.369 270.745 326.871C268.618 326.316 267.406 325.956 267.406 325.956L259.315 339.493L251.968 351.781L238.582 374.174C237.677 374.256 236.771 374.325 235.864 374.381C234.902 374.448 233.938 374.503 232.974 374.544C232.212 374.584 231.453 374.612 230.687 374.633L230.427 374.715L230.213 374.648L226.778 373.555L225.62 373.188L221.455 371.864C221.455 371.864 222.385 368.938 224.013 364.058C224.612 362.267 225.303 360.21 226.08 357.939C228.884 349.731 232.771 338.707 237.207 327.149C238.522 323.717 239.883 320.236 241.283 316.773C242.43 313.929 243.599 311.095 244.782 308.301C246.837 303.456 256.771 300.844 268.468 299.473C269.063 299.406 269.662 299.338 270.264 299.274C276.225 298.647 282.549 298.323 288.463 298.174C291.424 298.099 294.282 298.071 296.94 298.067C297.798 298.067 298.633 298.069 299.444 298.074H299.448C301.639 298.085 303.656 298.117 305.43 298.153C305.776 298.16 306.111 298.17 306.438 298.177H306.442C306.663 298.181 306.88 298.188 307.094 298.192C310.974 298.291 313.354 298.412 313.354 298.412L314.277 291.179L314.466 289.72L314.644 288.332V288.328L314.665 288.154L314.811 288.15L317.377 288.1L338.94 287.68L350.719 287.449L348.852 295.444Z" fill="#2F2E41"/>
<path d="M293.545 358.59C292.665 359.039 291.778 359.48 290.887 359.907C287.441 361.57 283.926 363.099 280.34 364.496C279.318 364.898 278.292 365.286 277.255 365.66C277.141 365.5 277.023 365.339 276.906 365.179C271.96 358.398 265.675 349.449 259.316 339.493C256.654 335.329 253.978 330.986 251.381 326.551L270.186 317.78L272.295 316.798L278.359 328.726L283.768 339.365L284.972 341.732L293.545 358.59Z" fill="#2F2E41"/>
<path d="M320.841 210.282C330.409 210.282 338.166 202.532 338.166 192.973C338.166 183.414 330.409 175.665 320.841 175.665C311.272 175.665 303.516 183.414 303.516 192.973C303.516 202.532 311.272 210.282 320.841 210.282Z" fill="#FFB6B6"/>
<path d="M320.268 209.53C324.319 211.472 329.305 210.814 333.172 208.53C337.039 206.245 339.885 202.52 341.874 198.495C343.331 195.547 344.389 192.172 343.545 188.994C342.702 185.817 339.337 183.155 336.184 184.096C338.344 182.358 338.092 178.775 336.347 176.622C334.602 174.47 331.848 173.434 329.187 172.654C325.326 171.522 321.268 170.723 317.286 171.302C313.304 171.881 309.383 174.035 307.509 177.593C306.208 177.928 304.833 177.822 303.598 177.293C302.364 176.763 301.34 175.84 300.688 174.667C300.254 175.794 300.204 177.033 300.546 178.192C300.887 179.351 301.602 180.365 302.579 181.077L297.185 178.154C295.81 180.058 297.059 182.962 299.147 184.04C301.234 185.119 303.757 184.831 306.036 184.255C308.314 183.679 305.626 188.485 307.975 188.532C310.325 188.578 312.867 189.806 313.54 192.056C313.892 193.234 313.686 194.499 313.79 195.725C313.894 196.95 314.482 198.31 315.671 198.629C316.422 198.83 317.243 198.563 317.988 198.787C318.911 199.065 319.474 200.051 319.555 201.011C319.636 201.971 319.335 202.917 319.038 203.833C317.862 207.454 321.635 205.425 320.459 209.045L320.268 209.53Z" fill="#2F2E41"/>
<path d="M354.261 260.656C354.118 246.361 353.47 236.618 352.337 231.696C349.294 218.461 335.238 216.048 333.036 215.749C332.802 215.125 332.441 214.556 331.977 214.077C331.513 213.599 330.956 213.221 330.339 212.967C329.723 212.712 329.06 212.588 328.393 212.6C327.726 212.613 327.069 212.763 326.463 213.04L316.476 217.61C314.45 218.54 312.637 219.877 311.149 221.536C309.662 223.196 308.531 225.143 307.829 227.257L306.346 231.777L305.602 262.116L308.06 274.877L308.064 274.884L309.721 283.48L308.58 285.189L302.071 294.942L301.96 295.113L301.957 295.116L301.672 295.54C302.067 295.757 302.459 295.971 302.844 296.184C303.842 296.732 304.814 297.27 305.762 297.797C305.99 297.925 306.215 298.049 306.439 298.178H306.443C306.585 298.256 306.728 298.334 306.867 298.412C310.422 300.399 313.659 302.239 316.576 303.933C316.982 304.168 317.384 304.403 317.78 304.635C331.248 312.505 338.074 317.324 341.548 320.172C343.102 318.293 344.609 316.374 346.07 314.416C347.395 312.647 348.679 310.847 349.921 309.016C350.139 307.585 350.285 306.154 350.427 304.752C350.598 303.065 350.776 301.317 351.076 299.598C351.207 298.836 350.702 298.113 350.213 297.416C349.761 296.764 349.333 296.152 349.422 295.575C349.515 294.981 350.171 294.333 350.808 293.703C351.503 293.013 352.223 292.301 352.326 291.55C352.611 289.457 352.864 287.356 353.085 285.249C353.449 281.821 353.728 278.383 353.922 274.934C354.197 270.171 354.31 265.412 354.261 260.656Z" fill="#F9A826"/>
<path d="M288.31 311.116C288.604 310.121 289.113 309.201 289.8 308.423C290.488 307.644 291.339 307.026 292.291 306.612C293.244 306.197 294.277 305.996 295.315 306.024C296.354 306.051 297.375 306.305 298.305 306.769L316.374 289.131L318.863 302.008L301.323 316.783C300.439 318.292 299.033 319.425 297.369 319.967C295.706 320.509 293.901 320.423 292.297 319.724C290.693 319.026 289.401 317.764 288.667 316.177C287.932 314.591 287.805 312.79 288.31 311.117L288.31 311.116Z" fill="#FFB6B6"/>
<path d="M308.513 312.059L344.181 283.481L344.159 283.288C344.118 282.918 339.991 246.189 337.869 238.561C336.634 233.939 333.853 229.878 329.989 227.053L329.89 226.989L329.771 226.998C327.358 227.185 325.08 228.188 323.314 229.842C321.547 231.496 320.398 233.702 320.055 236.096C318.46 247.665 319.579 259.445 323.323 270.507L325.459 276.797L302.607 301.159L308.513 312.059Z" fill="#F9A826"/>
<path d="M125.859 209.971C134.397 209.971 141.318 203.056 141.318 194.527C141.318 185.997 134.397 179.082 125.859 179.082C117.322 179.082 110.4 185.997 110.4 194.527C110.4 203.056 117.322 209.971 125.859 209.971Z" fill="#A0616A"/>
<path d="M105.09 312.161L105.006 312.043C100.503 305.744 107.276 290.609 108.297 288.415C107.084 288.021 106.045 287.22 105.357 286.147C104.669 285.075 104.374 283.797 104.523 282.532L104.964 278.792L105.423 275.124L102.134 271.838L102.125 271.757L100.233 255.214L97.481 244.226C96.4443 240.072 96.5327 235.718 97.737 231.61C98.9414 227.501 101.218 223.787 104.334 220.849L110.694 219.84L118.424 212.399H130.889L135.162 216.479C143.565 223.36 145.56 220.37 155.035 233.324L148.251 251.18L152.043 277.517L152.045 282.283L154.02 284.476C154.731 285.266 155.248 286.211 155.53 287.235C155.811 288.26 155.849 289.336 155.64 290.378L155.38 291.676C156.384 292.106 157.27 292.77 157.964 293.612C158.658 294.455 159.14 295.451 159.368 296.518L160.062 299.752C160.656 300.534 164.573 305.752 164.573 307.179C164.573 307.393 164.415 307.6 164.075 307.83C161.405 309.635 146.651 313.317 140.12 310.707C133.164 307.928 105.513 312.096 105.234 312.139L105.09 312.161Z" fill="#3F3D56"/>
<path d="M97.2363 249.511L110.09 246.997C114.844 254.089 117.396 273.483 117.396 273.483L131.607 302.927C132.481 303.457 133.198 304.209 133.686 305.106C134.174 306.004 134.415 307.014 134.385 308.035C134.355 309.055 134.055 310.05 133.515 310.917C132.975 311.784 132.215 312.492 131.311 312.97C130.408 313.448 129.394 313.678 128.373 313.638C127.352 313.597 126.36 313.286 125.498 312.737C124.636 312.189 123.935 311.422 123.466 310.515C122.997 309.607 122.778 308.592 122.829 307.572L104.294 272.686L97.2363 249.511Z" fill="#A0616A"/>
<path d="M97.1643 252.558L96.7988 233.471L102.848 225.386C104.041 223.804 105.654 222.586 107.503 221.87C109.353 221.155 111.366 220.971 113.315 221.339C115.954 221.855 118.298 223.353 119.873 225.53C121.449 227.707 122.138 230.4 121.801 233.066C120.775 241.147 118.444 251.261 113.17 253.55L113.117 253.573L118.582 272.67L98.3135 275.498L97.1643 252.558Z" fill="#3F3D56"/>
<path d="M173.505 250.871C173.505 250.871 158.08 238.825 149.713 237.095L142.309 247.889L162.335 260.15L201.324 271.412C202.007 272.17 202.879 272.734 203.85 273.046C204.821 273.358 205.858 273.408 206.855 273.191C207.852 272.974 208.773 272.497 209.526 271.809C210.279 271.121 210.836 270.246 211.141 269.273C211.446 268.3 211.487 267.264 211.262 266.27C211.036 265.275 210.552 264.359 209.857 263.612C209.162 262.866 208.282 262.316 207.305 262.019C206.329 261.723 205.292 261.689 204.299 261.922L173.505 250.871Z" fill="#A0616A"/>
<path d="M146.366 253.292L130.29 242.973L126.933 233.452C126.281 231.581 126.166 229.564 126.6 227.631C127.035 225.698 128.002 223.924 129.393 222.511C131.291 220.608 133.841 219.497 136.528 219.401C139.215 219.305 141.839 220.231 143.868 221.994C150.017 227.344 157.942 229.137 156.91 234.788L159.871 235.22L175.011 246.707L166.083 265.105L146.366 253.292Z" fill="#3F3D56"/>
<path d="M108.325 184.379C110.061 181.696 113.319 179.908 116.477 180.41C116.771 178.397 117.612 176.502 118.909 174.934C120.206 173.365 121.908 172.181 123.832 171.512C125.755 170.844 127.826 170.715 129.817 171.14C131.809 171.565 133.646 172.528 135.128 173.924C136.057 173.185 137.409 173.146 138.513 173.585C139.599 174.079 140.545 174.837 141.263 175.791C143.075 178.048 144.24 180.754 144.635 183.621C145.029 186.488 144.639 189.408 143.504 192.071C143.89 190.669 142.484 189.35 141.063 189.036C139.643 188.721 138.152 189.019 136.712 188.814C134.865 188.551 133.206 187.481 131.356 187.24C129.802 187.038 128.239 187.436 126.723 187.835C125.208 188.234 123.649 188.641 122.092 188.457C120.536 188.272 118.531 194.165 118.558 198.316C118.563 199.102 118.401 200.112 117.631 200.279C116.684 200.485 116.135 199.178 115.233 198.822C114.429 198.505 113.466 199.093 113.186 199.909C113.072 200.327 113.06 200.766 113.151 201.189C113.241 201.612 113.431 202.008 113.705 202.343C114.26 203.007 114.918 203.578 115.654 204.032L115.283 204.341C114.665 205.156 113.383 205.192 112.493 204.687C111.602 204.182 111.017 203.285 110.49 202.408C108.842 199.67 107.397 196.753 106.815 193.612C106.234 190.471 106.59 187.062 108.325 184.379Z" fill="#2F2E41"/>
<path opacity="0.2" d="M244.086 210.334C245.654 216.86 246.377 223.561 246.238 230.272C246.105 236.984 245.122 243.651 243.314 250.117C242.294 253.768 241.007 257.339 239.464 260.802C239.186 261.424 240.107 261.968 240.387 261.341C243.173 255.101 245.143 248.529 246.249 241.786C247.359 235.042 247.608 228.184 246.989 221.377C246.64 217.561 246.014 213.775 245.116 210.05C244.955 209.382 243.924 209.665 244.086 210.334H244.086Z" fill="black"/>
<path opacity="0.2" d="M343.881 256.005L334.946 277.795C333.508 281.302 332.113 284.831 330.616 288.313C329.269 291.449 327.732 294.598 325.464 297.183C323.175 299.793 320.095 301.911 316.578 302.325C315.903 302.404 315.895 303.473 316.578 303.392C319.791 303.014 322.671 301.418 324.997 299.211C327.512 296.824 329.285 293.784 330.732 290.664C332.345 287.187 333.717 283.591 335.17 280.045L339.739 268.904L344.912 256.288C345.172 255.653 344.139 255.376 343.881 256.005Z" fill="black"/>
<path d="M237.965 275.783C238.122 276.24 238.42 276.635 238.816 276.912C239.211 277.189 239.685 277.334 240.168 277.325L249.607 277.082C250.094 277.073 250.564 276.906 250.948 276.607C251.332 276.309 251.609 275.894 251.738 275.425L253.074 261.155C253.547 261.37 254.063 261.476 254.584 261.465C255.035 261.454 255.481 261.354 255.894 261.171C256.307 260.987 256.68 260.725 256.992 260.397C257.303 260.07 257.547 259.685 257.709 259.263C257.872 258.842 257.95 258.393 257.938 257.941C257.927 257.49 257.827 257.045 257.643 256.632C257.46 256.219 257.197 255.847 256.869 255.535C256.542 255.224 256.156 254.98 255.734 254.818C255.312 254.656 254.863 254.578 254.411 254.589C254.203 254.589 253.995 254.61 253.792 254.654C253.571 254.415 253.302 254.225 253.003 254.096C252.704 253.967 252.381 253.902 252.056 253.905L237.536 254.28C237.416 254.284 237.296 254.299 237.178 254.324C236.86 254.383 236.558 254.51 236.293 254.696C236.027 254.882 235.805 255.122 235.64 255.401C235.476 255.679 235.373 255.99 235.339 256.312C235.305 256.634 235.34 256.959 235.442 257.266L237.965 275.783ZM253.347 260.186L254.298 256.786C254.406 256.393 254.409 255.979 254.305 255.585C254.351 255.585 254.392 255.563 254.438 255.563C255.09 255.549 255.72 255.795 256.191 256.245C256.662 256.695 256.935 257.314 256.951 257.965C256.966 258.616 256.722 259.246 256.273 259.718C255.823 260.19 255.205 260.464 254.553 260.481C254.132 260.494 253.715 260.392 253.347 260.186Z" fill="#2F2E41"/>
<path d="M237.18 254.324C237.489 256.091 240.967 257.334 245.149 257.118C248.994 256.941 252.138 255.592 252.714 253.993C252.501 253.93 252.279 253.9 252.057 253.905L237.538 254.28C237.417 254.284 237.298 254.299 237.18 254.324Z" fill="#3F3D56"/>
<path d="M206.527 256.554C206.629 256.247 206.664 255.922 206.63 255.6C206.596 255.278 206.493 254.967 206.328 254.689C206.164 254.41 205.941 254.17 205.676 253.984C205.411 253.798 205.109 253.672 204.79 253.612C204.673 253.587 204.553 253.572 204.432 253.568L189.913 253.193C189.587 253.19 189.265 253.255 188.966 253.384C188.666 253.513 188.398 253.703 188.177 253.942C187.973 253.898 187.766 253.877 187.558 253.878C186.645 253.855 185.761 254.195 185.099 254.823C184.438 255.452 184.053 256.317 184.03 257.229C184.007 258.141 184.348 259.025 184.977 259.685C185.606 260.346 186.473 260.731 187.385 260.753C187.905 260.764 188.421 260.658 188.895 260.443L190.231 274.713C190.359 275.182 190.636 275.597 191.02 275.896C191.405 276.194 191.875 276.361 192.362 276.37L201.801 276.613C202.284 276.622 202.757 276.477 203.153 276.2C203.549 275.923 203.847 275.528 204.004 275.071L206.527 256.554ZM187.415 259.769C186.764 259.752 186.145 259.478 185.696 259.006C185.247 258.534 185.003 257.904 185.018 257.253C185.033 256.602 185.306 255.983 185.777 255.533C186.248 255.083 186.879 254.837 187.531 254.851C187.577 254.851 187.617 254.873 187.664 254.873C187.56 255.267 187.563 255.681 187.671 256.074L188.621 259.475C188.254 259.681 187.837 259.782 187.415 259.769Z" fill="#2F2E41"/>
<path d="M204.79 253.612C204.481 255.379 201.003 256.622 196.821 256.406C192.976 256.229 189.832 254.88 189.256 253.281C189.469 253.218 189.691 253.188 189.913 253.193L204.432 253.568C204.553 253.572 204.672 253.587 204.79 253.612Z" fill="#3F3D56"/>
<path d="M191.03 222.615C191.758 222.084 192.593 221.719 193.477 221.546C194.36 221.372 195.272 221.394 196.146 221.611C197.021 221.827 197.837 222.232 198.538 222.798C199.238 223.363 199.806 224.076 200.202 224.884L221.941 222.257L216.862 232.43L196.997 233.366C195.594 233.939 194.028 233.978 192.597 233.476C191.166 232.973 189.97 231.964 189.234 230.638C188.499 229.313 188.275 227.765 188.606 226.286C188.937 224.807 189.8 223.501 191.03 222.615L191.03 222.615Z" fill="#9E616A"/>
<path d="M261.928 201.895C261.286 203.151 260.506 204.614 259.629 206.209C256.551 211.83 252.322 219.084 249.065 224.605C246.283 229.314 244.205 232.767 244.148 232.863L244.059 233.005L224.93 233.436L220.825 233.529L219.429 233.561L204.439 233.899L204.582 233.009L205.982 224.188L206.125 223.288L219.254 221.109L224.053 220.316L234.7 218.55L236.549 213.097C239.806 203.512 245.248 194.815 252.447 187.692C252.657 187.489 252.871 187.297 253.095 187.115C253.291 186.959 253.491 186.809 253.694 186.674C254.556 187.895 255.325 188.998 255.977 189.885L257.556 192.031C259.711 194.964 261.203 198.329 261.928 201.895Z" fill="#F9A826"/>
<path d="M182.383 234.493C182.54 234.949 182.838 235.344 183.234 235.621C183.629 235.898 184.103 236.043 184.586 236.034L194.025 235.792C194.512 235.782 194.982 235.616 195.366 235.317C195.75 235.018 196.027 234.603 196.156 234.134L197.492 219.865C197.965 220.079 198.481 220.185 199.002 220.175C199.914 220.152 200.78 219.767 201.41 219.107C202.039 218.446 202.379 217.562 202.356 216.65C202.333 215.739 201.949 214.873 201.287 214.245C200.626 213.616 199.741 213.276 198.829 213.299C198.621 213.298 198.413 213.32 198.21 213.363C197.989 213.124 197.72 212.934 197.421 212.805C197.122 212.676 196.799 212.611 196.474 212.614L181.954 212.989C181.834 212.993 181.714 213.008 181.596 213.033C181.278 213.093 180.976 213.219 180.711 213.405C180.445 213.591 180.223 213.831 180.058 214.11C179.894 214.389 179.791 214.699 179.757 215.021C179.723 215.343 179.758 215.668 179.86 215.975L182.383 234.493ZM197.765 218.896L198.716 215.495C198.824 215.103 198.827 214.688 198.723 214.294C198.769 214.294 198.81 214.272 198.856 214.272C199.508 214.259 200.138 214.504 200.609 214.954C201.08 215.404 201.353 216.023 201.369 216.674C201.384 217.325 201.14 217.955 200.691 218.427C200.241 218.899 199.623 219.173 198.971 219.19C198.55 219.204 198.133 219.102 197.765 218.896Z" fill="#CCCCCC"/>
<path d="M181.598 213.033C181.907 214.8 185.385 216.043 189.566 215.827C193.412 215.65 196.556 214.301 197.132 212.702C196.919 212.639 196.697 212.609 196.475 212.614L181.956 212.989C181.835 212.993 181.716 213.008 181.598 213.033Z" fill="#3F3D56"/>
</g>
<defs>
<clipPath id="clip0_63_970">
<rect width="300" height="300" fill="white" transform="translate(75.7949 75)"/>
</clipPath>
</defs>
</svg>
