<svg width="300" height="144" viewBox="0 0 300 144" fill="none" xmlns="http://www.w3.org/2000/svg">
<path d="M234.276 21.5484H160.733V20.0327H127.386V21.5484H53.5404C52.221 21.5484 50.9556 22.0725 50.0225 23.0055C49.0895 23.9386 48.5654 25.2039 48.5654 26.5234V127.225C48.5654 128.545 49.0895 129.809 50.0225 130.743C50.9556 131.676 52.221 132.2 53.5404 132.2H234.276C235.594 132.2 236.86 131.676 237.793 130.743C238.726 129.809 239.25 128.545 239.25 127.225V26.5229C239.25 25.2035 238.726 23.9382 237.793 23.0053C236.86 22.0725 235.594 21.5484 234.276 21.5484Z" fill="#3F3D56"/>
<path d="M232.58 30.3396H55.2354V130.38H232.58V30.3396Z" fill="#E6E6E6"/>
<path d="M225.119 35.63H62.7559V122.102H225.119V35.63Z" fill="white"/>
<path d="M143.757 27.6116C144.762 27.6116 145.576 26.7972 145.576 25.7926C145.576 24.7881 144.762 23.9736 143.757 23.9736C142.753 23.9736 141.938 24.7881 141.938 25.7926C141.938 26.7972 142.753 27.6116 143.757 27.6116Z" fill="#F9A826"/>
<path d="M244.23 128.561H226.922V127.315C226.922 127.249 226.896 127.186 226.849 127.139C226.804 127.094 226.74 127.067 226.675 127.067H220.74C220.675 127.067 220.612 127.094 220.566 127.139C220.519 127.186 220.493 127.249 220.493 127.315V128.561H216.784V127.315C216.784 127.249 216.758 127.186 216.712 127.139C216.666 127.094 216.602 127.067 216.537 127.067H210.602C210.538 127.067 210.474 127.094 210.428 127.139C210.381 127.186 210.356 127.249 210.356 127.315V128.561H206.647V127.315C206.647 127.249 206.621 127.186 206.574 127.139C206.528 127.094 206.466 127.067 206.4 127.067H200.466C200.4 127.067 200.337 127.094 200.291 127.139C200.245 127.186 200.218 127.249 200.218 127.315V128.561H196.51V127.315C196.51 127.249 196.483 127.186 196.437 127.139C196.391 127.094 196.328 127.067 196.262 127.067H190.328C190.263 127.067 190.2 127.094 190.153 127.139C190.107 127.186 190.082 127.249 190.082 127.315V128.561H186.372V127.315C186.372 127.249 186.347 127.186 186.3 127.139C186.253 127.094 186.19 127.067 186.124 127.067H180.191C180.125 127.067 180.062 127.094 180.016 127.139C179.97 127.186 179.944 127.249 179.944 127.315V128.561H176.235V127.315C176.235 127.249 176.209 127.186 176.162 127.139C176.116 127.094 176.053 127.067 175.988 127.067H170.055C169.989 127.067 169.927 127.094 169.88 127.139C169.833 127.186 169.807 127.249 169.807 127.315V128.561H166.097V127.315C166.097 127.249 166.071 127.186 166.024 127.139C165.979 127.094 165.916 127.067 165.85 127.067H119.367C119.301 127.067 119.238 127.094 119.192 127.139C119.145 127.186 119.119 127.249 119.119 127.315V128.561H115.411V127.315C115.411 127.249 115.384 127.186 115.338 127.139C115.292 127.094 115.229 127.067 115.163 127.067H109.229C109.164 127.067 109.101 127.094 109.054 127.139C109.008 127.186 108.982 127.249 108.982 127.315V128.561H105.273V127.315C105.273 127.249 105.247 127.186 105.201 127.139C105.154 127.094 105.091 127.067 105.026 127.067H99.0919C99.0264 127.067 98.9634 127.094 98.9171 127.139C98.8707 127.186 98.8446 127.249 98.8446 127.315V128.561H95.1357V127.315C95.1357 127.249 95.1097 127.186 95.0633 127.139C95.0169 127.094 94.954 127.067 94.8883 127.067H88.9546C88.8889 127.067 88.8261 127.094 88.7797 127.139C88.7333 127.186 88.7073 127.249 88.7073 127.315V128.561H84.9991V127.315C84.9991 127.249 84.973 127.186 84.9267 127.139C84.8803 127.094 84.8174 127.067 84.7518 127.067H78.8172C78.7516 127.067 78.6886 127.094 78.6422 127.139C78.5958 127.186 78.5698 127.249 78.5698 127.315V128.561H74.8611V127.315C74.8611 127.249 74.8351 127.186 74.7887 127.139C74.7423 127.094 74.6795 127.067 74.6138 127.067H68.6797C68.6141 127.067 68.5512 127.094 68.5048 127.139C68.4585 127.186 68.4324 127.249 68.4324 127.315V128.561H64.7238V127.315C64.7238 127.249 64.6977 127.186 64.6513 127.139C64.6049 127.094 64.542 127.067 64.4765 127.067H58.5411C58.4756 127.067 58.4126 127.094 58.3663 127.139C58.3199 127.186 58.2938 127.249 58.2938 127.315V128.561H46.9214C45.3476 128.561 43.8383 129.186 42.7254 130.299C41.6125 131.412 40.9873 132.921 40.9873 134.496V137.179C40.9873 138.753 41.6125 140.261 42.7254 141.375C43.8383 142.488 45.3476 143.113 46.9214 143.113H244.23C245.803 143.113 247.312 142.488 248.425 141.375C249.538 140.262 250.163 138.753 250.164 137.179V134.496C250.164 132.921 249.538 131.413 248.425 130.3C247.312 129.186 245.803 128.561 244.23 128.561Z" fill="#3F3D56"/>
<path d="M179.837 41.8326H108.039V117.306H179.837V41.8326Z" fill="#E6E6E6"/>
<path d="M299.914 142.861H0V143.426H299.914V142.861Z" fill="#E6E6E6"/>
<path d="M270.786 123.112C274.85 127.472 275.06 133.882 275.06 133.882C275.06 133.882 268.682 133.221 264.618 128.86C260.554 124.5 260.344 118.091 260.344 118.091C260.344 118.091 266.723 118.752 270.786 123.112Z" fill="#F9A826"/>
<path d="M283.579 129.919C279.219 133.983 272.809 134.192 272.809 134.192C272.809 134.192 273.47 127.814 277.831 123.751C282.191 119.687 288.6 119.476 288.6 119.476C288.6 119.476 287.94 125.855 283.579 129.919Z" fill="#F9A826"/>
<path d="M282.495 142.861H266.456C266.149 142.861 265.848 142.775 265.586 142.611C265.326 142.447 265.116 142.214 264.981 141.938L261.49 134.76C261.368 134.51 261.312 134.233 261.326 133.955C261.341 133.677 261.426 133.408 261.574 133.171C261.721 132.936 261.926 132.741 262.169 132.607C262.413 132.472 262.687 132.402 262.965 132.402H285.987C286.266 132.402 286.54 132.472 286.782 132.607C287.026 132.741 287.232 132.936 287.379 133.171C287.527 133.408 287.612 133.677 287.626 133.955C287.64 134.233 287.584 134.51 287.462 134.76L283.971 141.938C283.836 142.214 283.627 142.449 283.366 142.611C283.104 142.775 282.803 142.861 282.496 142.861H282.495Z" fill="#E5E5E5"/>
<path d="M17.2303 123.112C21.2939 127.472 21.5039 133.882 21.5039 133.882C21.5039 133.882 15.1255 133.221 11.0618 128.86C6.99811 124.5 6.78809 118.091 6.78809 118.091C6.78809 118.091 13.1665 118.752 17.2303 123.112Z" fill="#E5E5E5"/>
<path d="M26.396 142.861H10.3575C10.0498 142.861 9.74826 142.775 9.48736 142.611C9.22647 142.447 9.01678 142.214 8.88228 141.938L5.39046 134.76C5.26853 134.51 5.21223 134.233 5.22689 133.955C5.24154 133.677 5.32665 133.408 5.4742 133.171C5.62176 132.936 5.82692 132.741 6.07035 132.607C6.31379 132.472 6.5875 132.402 6.86572 132.402H29.8881C30.1663 132.402 30.44 132.472 30.6835 132.607C30.9268 132.741 31.1321 132.936 31.2797 133.171C31.4272 133.408 31.5123 133.677 31.527 133.955C31.5415 134.233 31.4853 134.51 31.3633 134.76L27.8715 141.938C27.737 142.214 27.5274 142.449 27.2665 142.611C27.0056 142.775 26.704 142.861 26.3962 142.861H26.396Z" fill="#E5E5E5"/>
<path d="M152.601 63.0603C157.872 63.0603 162.144 58.7881 162.144 53.5181C162.144 48.2481 157.872 43.976 152.601 43.976C147.331 43.976 143.06 48.2481 143.06 53.5181C143.06 58.7881 147.331 63.0603 152.601 63.0603Z" fill="#A0616A"/>
<path d="M130.646 117.324L136.808 78.5307C137.136 76.4681 137.899 74.499 139.047 72.7543C140.194 71.0097 141.701 69.5295 143.465 68.4122C145.23 67.2949 147.211 66.5662 149.28 66.2745C151.348 65.9827 153.454 66.1347 155.458 66.7204C158.964 67.7342 161.965 70.0181 163.875 73.1261C165.786 76.2341 166.47 79.9429 165.793 83.5281L159.349 118.172L130.646 117.324Z" fill="#F9A826"/>
<path d="M155.236 124.265C155.713 123.95 156.115 123.534 156.413 123.048C156.711 122.561 156.9 122.014 156.964 121.447C157.029 120.88 156.969 120.305 156.787 119.763C156.606 119.222 156.308 118.727 155.914 118.313L162.284 105.977L155.111 106.743L150.161 118.34C149.512 119.047 149.145 119.968 149.128 120.929C149.113 121.888 149.449 122.821 150.073 123.55C150.698 124.28 151.568 124.755 152.519 124.887C153.469 125.019 154.436 124.798 155.236 124.265Z" fill="#A0616A"/>
<path d="M156.6 116.137C156.247 116.087 155.918 115.931 155.657 115.69L153.22 113.438C152.957 113.193 152.775 112.874 152.698 112.523C152.623 112.171 152.657 111.806 152.795 111.474L157.667 99.9286L156.976 77.1156C157.178 75.6357 157.959 74.2964 159.148 73.3927C160.337 72.4889 161.837 72.0946 163.317 72.2964C164.798 72.4984 166.136 73.28 167.04 74.4692C167.943 75.6585 168.338 77.1581 168.136 78.638L169.318 92.9789C169.678 97.3313 168.443 101.666 165.846 105.177L158.249 115.446C158.103 115.643 157.917 115.807 157.703 115.928C157.49 116.049 157.252 116.123 157.008 116.147C156.872 116.159 156.735 116.156 156.6 116.137Z" fill="#F9A826"/>
<path d="M97.6509 48.3193C97.7549 48.8808 97.9807 49.4128 98.3125 49.8776C98.6443 50.3425 99.0739 50.7289 99.5713 51.0098C100.069 51.2907 100.621 51.459 101.191 51.5031C101.76 51.5472 102.332 51.4659 102.867 51.265L111.743 61.9403L113.835 55.0358L105.085 45.9567C104.686 45.0838 103.981 44.3872 103.104 43.9984C102.226 43.6095 101.237 43.5554 100.322 43.846C99.4074 44.1367 98.6308 44.7522 98.1387 45.5763C97.6466 46.4003 97.4732 47.3761 97.6511 48.3193H97.6509Z" fill="#A0616A"/>
<path d="M104.604 52.7441C104.787 52.439 105.059 52.1971 105.383 52.0504L108.408 50.6842C108.736 50.5371 109.101 50.4942 109.453 50.5612C109.807 50.6284 110.13 50.8022 110.381 51.0594L119.114 60.0464L140.392 68.3045C141.027 68.6821 141.583 69.1813 142.027 69.7737C142.47 70.366 142.793 71.04 142.976 71.7569C143.159 72.4739 143.198 73.2199 143.092 73.9523C142.986 74.6846 142.738 75.3889 142.36 76.025C141.981 76.6611 141.482 77.2165 140.89 77.6595C140.297 78.1025 139.623 78.4243 138.906 78.6067C138.189 78.789 137.443 78.8281 136.71 78.7221C135.978 78.616 135.274 78.3666 134.638 77.9883L120.972 73.4847C116.823 72.1186 113.313 69.2921 111.093 65.5312L104.598 54.5326C104.473 54.321 104.395 54.0856 104.367 53.8416C104.339 53.5977 104.363 53.3505 104.437 53.1164C104.478 52.9862 104.534 52.8613 104.605 52.7444L104.604 52.7441Z" fill="#F9A826"/>
<path opacity="0.1" d="M160.341 86.6056L159.953 99.0377L152.796 111.475L158.772 97.616L160.341 86.6056Z" fill="black"/>
<path d="M146.14 48.7353C147.124 49.9001 148.79 50.2286 150.327 50.3634C153.446 50.6371 157.985 50.1938 161.034 49.4891C161.251 51.5988 160.658 53.873 161.9 55.6084C162.482 53.5075 162.822 51.3466 162.91 49.1683C162.947 48.2355 162.933 47.2676 162.553 46.41C162.174 45.5524 161.345 44.8245 160.392 44.8168C161.1 44.2795 161.93 43.9247 162.807 43.7839L159.789 42.2668L160.564 41.471L155.098 41.1365L156.682 40.1308C154.298 39.8036 151.889 39.7278 149.49 39.9046C148.376 39.9866 147.212 40.1434 146.31 40.7888C145.407 41.4341 144.886 42.7166 145.445 43.6642C144.745 43.7793 144.084 44.0716 143.527 44.5134C142.97 44.9553 142.536 45.5318 142.264 46.1887C141.862 47.2086 141.899 48.3415 142.022 49.4284C142.229 51.1666 142.633 52.8756 143.227 54.522" fill="#2F2E41"/>
<path d="M186.931 24.8308L99.9828 44.9045C99.5558 45.0025 99.1074 44.9272 98.7358 44.6951C98.3643 44.4629 98.0999 44.0929 98.001 43.6662L93.0214 22.0978C92.9234 21.6708 92.9987 21.2223 93.231 20.8509C93.4631 20.4793 93.8331 20.215 94.2599 20.1159L181.209 0.0422102C181.635 -0.0558329 182.085 0.019489 182.456 0.251652C182.827 0.483813 183.092 0.853858 183.19 1.28062L188.171 22.8489C188.269 23.276 188.193 23.7244 187.96 24.0959C187.728 24.4675 187.358 24.7317 186.931 24.8308Z" fill="white"/>
<path d="M186.931 24.8308L99.9828 44.9045C99.5558 45.0025 99.1074 44.9272 98.7358 44.6951C98.3643 44.4629 98.0999 44.0929 98.001 43.6662L93.0214 22.0978C92.9234 21.6708 92.9987 21.2223 93.231 20.8509C93.4631 20.4793 93.8331 20.215 94.2599 20.1159L181.209 0.0422102C181.635 -0.0558329 182.085 0.019489 182.456 0.251652C182.827 0.483813 183.092 0.853858 183.19 1.28062L188.171 22.8489C188.269 23.276 188.193 23.7244 187.96 24.0959C187.728 24.4675 187.358 24.7317 186.931 24.8308ZM94.4086 20.7602C94.1525 20.8196 93.9305 20.9782 93.7912 21.2011C93.6518 21.4241 93.6066 21.6931 93.6655 21.9494L98.6449 43.5177C98.7043 43.7739 98.8628 43.9959 99.0859 44.1353C99.3088 44.2747 99.5779 44.3198 99.8342 44.2609L186.783 24.1871C187.039 24.1278 187.261 23.9692 187.401 23.7462C187.54 23.5233 187.585 23.2541 187.526 22.9978L182.547 1.42928C182.487 1.17314 182.328 0.951026 182.106 0.811696C181.883 0.672366 181.614 0.627209 181.358 0.686134L94.4086 20.7602Z" fill="#E6E6E6"/>
<path d="M124.579 20.6935C124.435 20.7263 124.299 20.7872 124.18 20.8725C124.059 20.9578 123.957 21.066 123.878 21.1908C123.801 21.3157 123.747 21.4547 123.723 21.5999C123.698 21.7453 123.703 21.8939 123.735 22.0376C123.768 22.1813 123.829 22.317 123.914 22.4372C124 22.5573 124.108 22.6594 124.233 22.7376C124.358 22.8159 124.498 22.8689 124.642 22.8934C124.788 22.918 124.936 22.9136 125.08 22.8807L125.083 22.8798L176.619 10.9821C176.908 10.9148 177.159 10.7354 177.315 10.4832C177.473 10.231 177.523 9.92663 177.458 9.637C177.391 9.34738 177.211 9.09612 176.959 8.93841C176.707 8.78069 176.404 8.72941 176.113 8.79582L124.579 20.6935Z" fill="#E6E6E6"/>
<path d="M126.093 27.2528C125.95 27.2857 125.814 27.3465 125.694 27.4318C125.574 27.5172 125.472 27.6253 125.393 27.7503C125.315 27.875 125.262 28.014 125.238 28.1594C125.213 28.3046 125.217 28.4534 125.25 28.5971C125.283 28.7406 125.344 28.8764 125.429 28.9965C125.515 29.1166 125.623 29.2188 125.748 29.2971C125.872 29.3754 126.011 29.4282 126.157 29.4528C126.303 29.4773 126.451 29.473 126.594 29.4401L126.598 29.4392L148.774 24.3196C149.063 24.253 149.315 24.0741 149.473 23.822C149.631 23.5701 149.682 23.2655 149.617 22.9756C149.55 22.6856 149.372 22.4339 149.119 22.2758C148.867 22.1177 148.562 22.066 148.273 22.1324L148.268 22.1333L126.093 27.2528Z" fill="#E6E6E6"/>
<path d="M110.49 35.2311C114.208 35.2311 117.222 32.2174 117.222 28.4997C117.222 24.7819 114.208 21.7681 110.49 21.7681C106.773 21.7681 103.759 24.7819 103.759 28.4997C103.759 32.2174 106.773 35.2311 110.49 35.2311Z" fill="#F9A826"/>
<path d="M110.301 32.3829C110.081 32.4341 109.85 32.4123 109.643 32.3207L109.63 32.315L106.922 31.0854C106.796 31.0284 106.682 30.9472 106.588 30.8463C106.494 30.7456 106.42 30.6271 106.372 30.4979C106.323 30.3686 106.301 30.231 106.305 30.0931C106.31 29.9551 106.342 29.8194 106.399 29.6937C106.456 29.568 106.538 29.4549 106.638 29.3606C106.739 29.2664 106.858 29.193 106.987 29.1447C107.116 29.0963 107.254 29.0739 107.392 29.0787C107.53 29.0836 107.666 29.1157 107.791 29.1729L109.546 29.972L112.009 24.5616C112.124 24.3084 112.335 24.1113 112.596 24.0136C112.857 23.9161 113.145 23.926 113.399 24.0412L113.384 24.0765L113.399 24.041C113.653 24.1566 113.85 24.3679 113.947 24.6286C114.045 24.8891 114.035 25.1778 113.92 25.4311L111.024 31.7957C110.957 31.9423 110.857 32.0715 110.732 32.1733C110.606 32.275 110.46 32.3466 110.302 32.3823L110.301 32.3829Z" fill="white"/>
</svg>
