<svg width="300" height="301" viewBox="0 0 300 301" fill="none" xmlns="http://www.w3.org/2000/svg">
<g clip-path="url(#clip0_1_2125)">
<path d="M293 257.826H113.081C111.226 257.823 109.447 257.086 108.134 255.773C106.822 254.462 106.084 252.681 106.082 250.826V49.4991C106.084 47.6435 106.822 45.8644 108.134 44.5523C109.447 43.2402 111.226 42.5021 113.081 42.5H293C294.855 42.5021 296.634 43.2402 297.947 44.5523C299.258 45.8644 299.997 47.6435 299.998 49.4991V250.826C299.997 252.681 299.258 254.462 297.947 255.773C296.634 257.086 294.855 257.823 293 257.826ZM113.081 43.3234C111.444 43.3253 109.874 43.9765 108.716 45.1343C107.559 46.2921 106.907 47.8618 106.906 49.4991V250.826C106.907 252.464 107.559 254.034 108.716 255.191C109.874 256.35 111.444 257 113.081 257.002H293C294.636 257 296.206 256.35 297.365 255.191C298.522 254.034 299.174 252.464 299.176 250.826V49.4991C299.174 47.8618 298.522 46.2921 297.365 45.1343C296.206 43.9765 294.636 43.3253 293 43.3234H113.081Z" fill="#3F3D56"/>
<path d="M299.587 59.6233H106.494V60.4467H299.587V59.6233Z" fill="#3F3D56"/>
<path d="M115.963 54.8514C117.782 54.8514 119.256 53.3768 119.256 51.5577C119.256 49.7387 117.782 48.264 115.963 48.264C114.144 48.264 112.669 49.7387 112.669 51.5577C112.669 53.3768 114.144 54.8514 115.963 54.8514Z" fill="#F9A826"/>
<path d="M126.256 54.8514C128.075 54.8514 129.549 53.3768 129.549 51.5577C129.549 49.7387 128.075 48.264 126.256 48.264C124.437 48.264 122.962 49.7387 122.962 51.5577C122.962 53.3768 124.437 54.8514 126.256 54.8514Z" fill="#F9A826"/>
<path d="M136.549 54.8514C138.368 54.8514 139.842 53.3768 139.842 51.5577C139.842 49.7387 138.368 48.264 136.549 48.264C134.73 48.264 133.255 49.7387 133.255 51.5577C133.255 53.3768 134.73 54.8514 136.549 54.8514Z" fill="#F9A826"/>
<path d="M267.268 89.8469H138.813C137.394 89.8469 136.032 89.2831 135.028 88.2792C134.025 87.2756 133.461 85.9141 133.461 84.4945C133.461 83.075 134.025 81.7137 135.028 80.7101C136.032 79.7062 137.394 79.1423 138.813 79.1423H267.268C268.687 79.1423 270.049 79.7062 271.051 80.7101C272.056 81.7137 272.62 83.075 272.62 84.4945C272.62 85.9141 272.056 87.2756 271.051 88.2792C270.049 89.2831 268.687 89.8469 267.268 89.8469ZM138.813 79.9658C137.612 79.9658 136.46 80.4429 135.611 81.2923C134.762 82.1416 134.284 83.2935 134.284 84.4945C134.284 85.6958 134.762 86.8477 135.611 87.697C136.46 88.5463 137.612 89.0235 138.813 89.0235H267.268C268.468 89.0235 269.621 88.5463 270.469 87.697C271.319 86.8477 271.797 85.6958 271.797 84.4945C271.797 83.2935 271.319 82.1416 270.469 81.2923C269.621 80.4429 268.468 79.9658 267.268 79.9658H138.813Z" fill="#3F3D56"/>
<path d="M235.506 132.085H177.043C176.169 132.085 175.331 131.738 174.714 131.12C174.096 130.502 173.749 129.665 173.749 128.791C173.749 127.918 174.096 127.08 174.714 126.462C175.331 125.844 176.169 125.497 177.043 125.497H235.506C236.379 125.497 237.218 125.844 237.836 126.462C238.453 127.08 238.8 127.918 238.8 128.791C238.8 129.665 238.453 130.502 237.836 131.12C237.218 131.738 236.379 132.085 235.506 132.085Z" fill="#CCCCCC"/>
<path d="M269.267 143.201H177.043C176.169 143.201 175.331 142.854 174.714 142.236C174.096 141.619 173.749 140.781 173.749 139.907C173.749 139.034 174.096 138.196 174.714 137.578C175.331 136.961 176.169 136.614 177.043 136.614H269.267C270.14 136.614 270.977 136.961 271.595 137.578C272.213 138.196 272.56 139.034 272.56 139.907C272.56 140.781 272.213 141.619 271.595 142.236C270.977 142.854 270.14 143.201 269.267 143.201Z" fill="#CCCCCC"/>
<path d="M155.135 143.819H137.432C136.395 143.817 135.401 143.405 134.667 142.672C133.934 141.939 133.522 140.944 133.521 139.907V128.791C133.522 127.754 133.934 126.76 134.667 126.027C135.401 125.293 136.395 124.881 137.432 124.88H155.135C156.173 124.881 157.167 125.293 157.9 126.027C158.633 126.76 159.045 127.754 159.047 128.791V139.907C159.045 140.944 158.633 141.939 157.9 142.672C157.167 143.405 156.173 143.817 155.135 143.819ZM137.432 125.703C136.613 125.704 135.828 126.03 135.249 126.609C134.671 127.188 134.345 127.972 134.344 128.791V139.907C134.345 140.726 134.671 141.511 135.249 142.09C135.828 142.669 136.613 142.994 137.432 142.995H155.135C155.954 142.994 156.739 142.669 157.318 142.09C157.897 141.511 158.222 140.726 158.223 139.907V128.791C158.222 127.972 157.897 127.188 157.318 126.609C156.739 126.03 155.954 125.704 155.135 125.703H137.432Z" fill="#CCCCCC"/>
<path d="M235.506 171.198H177.043C176.169 171.198 175.331 170.85 174.714 170.233C174.096 169.615 173.749 168.777 173.749 167.904C173.749 167.03 174.096 166.193 174.714 165.575C175.331 164.957 176.169 164.61 177.043 164.61H235.506C236.379 164.61 237.218 164.957 237.836 165.575C238.453 166.193 238.8 167.03 238.8 167.904C238.8 168.777 238.453 169.615 237.836 170.233C237.218 170.85 236.379 171.198 235.506 171.198Z" fill="#CCCCCC"/>
<path d="M269.267 182.314H177.043C176.169 182.314 175.331 181.967 174.714 181.349C174.096 180.731 173.749 179.894 173.749 179.02C173.749 178.147 174.096 177.309 174.714 176.691C175.331 176.073 176.169 175.726 177.043 175.726H269.267C270.14 175.726 270.977 176.073 271.595 176.691C272.213 177.309 272.56 178.147 272.56 179.02C272.56 179.894 272.213 180.731 271.595 181.349C270.977 181.967 270.14 182.314 269.267 182.314Z" fill="#CCCCCC"/>
<path d="M155.135 182.931H137.432C136.395 182.93 135.401 182.518 134.667 181.784C133.934 181.051 133.522 180.057 133.521 179.02V167.904C133.522 166.867 133.934 165.873 134.667 165.139C135.401 164.406 136.395 163.994 137.432 163.992H155.135C156.173 163.994 157.167 164.406 157.9 165.139C158.633 165.873 159.045 166.867 159.047 167.904V179.02C159.045 180.057 158.633 181.051 157.9 181.784C157.167 182.518 156.173 182.93 155.135 182.931ZM137.432 164.816C136.613 164.817 135.828 165.142 135.249 165.721C134.671 166.3 134.345 167.085 134.344 167.904V179.02C134.345 179.839 134.671 180.624 135.249 181.202C135.828 181.781 136.613 182.107 137.432 182.108H155.135C155.954 182.107 156.739 181.781 157.318 181.202C157.897 180.624 158.222 179.839 158.223 179.02V167.904C158.222 167.085 157.897 166.3 157.318 165.721C156.739 165.142 155.954 164.817 155.135 164.816H137.432Z" fill="#CCCCCC"/>
<path d="M235.506 210.31H177.043C176.169 210.31 175.331 209.963 174.714 209.345C174.096 208.728 173.749 207.89 173.749 207.017C173.749 206.143 174.096 205.305 174.714 204.688C175.331 204.07 176.169 203.723 177.043 203.723H235.506C236.379 203.723 237.218 204.07 237.836 204.688C238.453 205.305 238.8 206.143 238.8 207.017C238.8 207.89 238.453 208.728 237.836 209.345C237.218 209.963 236.379 210.31 235.506 210.31Z" fill="#F2F2F2"/>
<path d="M269.267 221.426H177.043C176.169 221.426 175.331 221.079 174.714 220.462C174.096 219.844 173.749 219.006 173.749 218.133C173.749 217.259 174.096 216.421 174.714 215.804C175.331 215.186 176.169 214.839 177.043 214.839H269.267C270.14 214.839 270.977 215.186 271.595 215.804C272.213 216.421 272.56 217.259 272.56 218.133C272.56 219.006 272.213 219.844 271.595 220.462C270.977 221.079 270.14 221.426 269.267 221.426Z" fill="#F2F2F2"/>
<path d="M155.135 222.044H137.432C136.395 222.043 135.401 221.63 134.667 220.897C133.934 220.164 133.522 219.17 133.521 218.133V207.016C133.522 205.979 133.934 204.985 134.667 204.252C135.401 203.519 136.395 203.106 137.432 203.105H155.135C156.173 203.106 157.167 203.519 157.9 204.252C158.633 204.985 159.045 205.979 159.047 207.016V218.133C159.045 219.17 158.633 220.164 157.9 220.897C157.167 221.63 156.173 222.043 155.135 222.044Z" fill="#F2F2F2"/>
<path d="M146.284 140.417L145.331 139.557C141.946 136.449 139.71 134.432 139.71 131.919C139.702 131.441 139.79 130.966 139.968 130.522C140.147 130.078 140.412 129.675 140.75 129.336C141.087 128.997 141.488 128.729 141.931 128.547C142.373 128.366 142.848 128.276 143.326 128.281C143.89 128.284 144.447 128.41 144.958 128.65C145.469 128.89 145.921 129.238 146.284 129.67C146.647 129.238 147.099 128.89 147.61 128.65C148.121 128.41 148.678 128.284 149.242 128.281C149.72 128.276 150.195 128.366 150.637 128.547C151.08 128.729 151.482 128.997 151.819 129.336C152.156 129.675 152.422 130.078 152.6 130.522C152.779 130.966 152.866 131.441 152.858 131.919C152.858 134.432 150.623 136.449 147.237 139.557L146.284 140.417Z" fill="#F9A826"/>
<path d="M146.284 179.53L145.331 178.67C141.946 175.562 139.71 173.544 139.71 171.031C139.702 170.553 139.79 170.078 139.968 169.635C140.147 169.191 140.412 168.788 140.75 168.448C141.087 168.109 141.488 167.841 141.931 167.66C142.373 167.479 142.848 167.388 143.326 167.394C143.89 167.397 144.447 167.523 144.958 167.763C145.469 168.002 145.921 168.351 146.284 168.783C146.647 168.351 147.099 168.002 147.61 167.763C148.121 167.523 148.678 167.397 149.242 167.394C149.72 167.388 150.195 167.479 150.637 167.66C151.08 167.841 151.482 168.109 151.819 168.448C152.156 168.788 152.422 169.191 152.6 169.635C152.779 170.078 152.866 170.553 152.858 171.031C152.858 173.544 150.623 175.562 147.237 178.67L146.284 179.53Z" fill="#F9A826"/>
<path d="M71.4909 172.95H53.7873C52.7502 172.949 51.7561 172.536 51.0228 171.803C50.2897 171.07 49.8772 170.076 49.876 169.039V157.923C49.8772 156.885 50.2897 155.891 51.0228 155.158C51.7561 154.425 52.7502 154.012 53.7873 154.011H71.4909C72.528 154.012 73.5221 154.425 74.2552 155.158C74.9885 155.891 75.4009 156.885 75.4022 157.923V169.039C75.4009 170.076 74.9885 171.07 74.2552 171.803C73.5221 172.536 72.528 172.949 71.4909 172.95ZM53.7873 154.835C52.9687 154.836 52.1836 155.161 51.6048 155.74C51.0259 156.319 50.7003 157.104 50.6994 157.923V169.039C50.7003 169.858 51.0259 170.642 51.6048 171.221C52.1836 171.8 52.9687 172.126 53.7873 172.127H71.4909C72.3095 172.126 73.0945 171.8 73.6733 171.221C74.2521 170.642 74.5778 169.858 74.5787 169.039V157.923C74.5778 157.104 74.2521 156.319 73.6733 155.74C73.0945 155.161 72.3095 154.836 71.4909 154.835H53.7873Z" fill="#3F3D56"/>
<path d="M62.6396 169.549L61.6864 168.689C58.3011 165.581 56.066 163.563 56.066 161.05C56.0577 160.572 56.1452 160.097 56.3238 159.653C56.5021 159.21 56.7678 158.806 57.1048 158.467C57.442 158.128 57.8437 157.86 58.2863 157.679C58.729 157.498 59.2034 157.407 59.6814 157.413C60.2458 157.416 60.8027 157.542 61.3136 157.781C61.8243 158.021 62.2769 158.369 62.6397 158.802C63.0024 158.369 63.4549 158.021 63.9657 157.781C64.4766 157.542 65.0335 157.416 65.5977 157.413C66.0759 157.407 66.5503 157.498 66.993 157.679C67.4356 157.86 67.8373 158.128 68.1743 158.467C68.5115 158.806 68.7772 159.21 68.9556 159.653C69.1341 160.097 69.2216 160.572 69.2133 161.05C69.2133 163.563 66.9782 165.581 63.5929 168.689L62.6396 169.549Z" fill="#F9A826"/>
<path d="M52.4018 253.341L56.9809 252.25L54.9585 234.071L48.2002 235.678L52.4018 253.341Z" fill="#FFB8B8"/>
<path d="M66.8231 254.402L52.4321 257.826L51.1094 252.265L59.9403 250.165C60.6704 249.99 61.4278 249.963 62.1688 250.082C62.9098 250.201 63.6203 250.465 64.2594 250.858C64.8984 251.251 65.4539 251.767 65.8938 252.376C66.3337 252.983 66.6496 253.673 66.8231 254.402Z" fill="#2F2E41"/>
<path d="M47.907 241.634L37.9619 207.55L50.3895 204.467L57.6802 240.565C57.7335 240.829 57.7287 241.102 57.6656 241.364C57.6026 241.626 57.4831 241.872 57.3153 242.083C57.1477 242.295 56.9357 242.467 56.6947 242.587C56.4534 242.708 56.1888 242.776 55.9192 242.783L49.7406 242.967C49.7219 242.968 49.7034 242.968 49.6851 242.968C49.2843 242.968 48.8943 242.837 48.5738 242.596C48.2532 242.356 48.0193 242.018 47.907 241.634Z" fill="#2F2E41"/>
<path d="M24.0456 253.456L28.7523 253.454L30.9907 235.299L24.0439 235.301L24.0456 253.456Z" fill="#FFB8B8"/>
<path d="M37.8294 257.825L23.0367 257.826L23.0361 252.11H32.1136C33.6294 252.11 35.083 252.712 36.1549 253.783C37.2269 254.855 37.8292 256.308 37.8294 257.825Z" fill="#2F2E41"/>
<path d="M23.2186 246.401C23.0456 246.234 22.9077 246.033 22.8127 245.812C22.7176 245.591 22.6675 245.354 22.6652 245.113L18.377 211.111C18.3752 210.621 18.5677 210.15 18.9123 209.801C19.257 209.452 19.7257 209.254 20.2161 209.249L29.7877 209.18H29.8014C30.2875 209.181 30.7537 209.373 31.1 209.714C31.4462 210.055 31.6451 210.518 31.6537 211.004L32.1626 244.499C32.1701 244.987 31.9842 245.46 31.6451 245.812C31.3061 246.164 30.8415 246.369 30.3527 246.38L24.5424 246.931C24.5334 246.931 24.5245 246.931 24.5155 246.931C24.0303 246.933 23.5641 246.742 23.2186 246.401Z" fill="#2F2E41"/>
<path d="M25.2704 133.863C30.855 133.863 35.3824 129.336 35.3824 123.751C35.3824 118.166 30.855 113.639 25.2704 113.639C19.6855 113.639 15.1582 118.166 15.1582 123.751C15.1582 129.336 19.6855 133.863 25.2704 133.863Z" fill="#FFB8B8"/>
<path d="M11.9483 209.335C5.36892 204.194 5.43855 198.197 7.68355 190.187C8.316 187.93 8.99861 185.643 9.72122 183.221C13.0787 171.972 16.8842 159.22 15.4395 148.692L15.6434 148.664L15.4395 148.692C15.0437 145.808 16.0524 142.775 18.2066 140.37C20.361 137.965 23.2608 136.633 26.1756 136.708C29.0852 136.785 31.9148 138.273 33.9381 140.789C35.9517 143.293 36.9126 152.097 37.1975 153.359C38.5052 159.15 39.2946 162.646 39.8608 168.223C40.5303 174.815 48.549 194.527 51.1042 197.833C51.7823 198.706 52.2677 199.712 52.5287 200.786C52.7896 201.86 52.8201 202.977 52.618 204.063C52.4296 205.097 52.0212 206.078 51.4207 206.94C50.82 207.802 50.0412 208.525 49.1367 209.06C44.9901 211.595 40.4333 213.388 35.6712 214.359C33.6055 214.759 31.5063 214.961 29.4021 214.962C22.8736 214.962 16.6356 212.998 11.9483 209.335Z" fill="#F9A826"/>
<path d="M53.9998 171.238C53.738 170.738 53.3698 170.302 52.9209 169.96C52.4721 169.617 51.9537 169.378 51.4024 169.258C50.8509 169.137 50.2798 169.14 49.7292 169.264C49.1788 169.388 48.6621 169.632 48.2159 169.977L40.5535 165.605L36.7607 169.614L47.6683 175.636C48.2987 176.347 49.1678 176.802 50.1113 176.915C51.0548 177.028 52.007 176.792 52.7874 176.25C53.5679 175.707 54.1223 174.898 54.3458 173.974C54.5692 173.051 54.4462 172.077 53.9998 171.238V171.238Z" fill="#FFB8B8"/>
<path d="M42.3187 174.202L28.585 169.888C26.7411 169.304 25.1206 168.169 23.942 166.636C22.7633 165.102 22.0834 163.244 21.9938 161.312L21.4029 147.968C21.3697 147.218 21.4883 146.468 21.7514 145.764C22.0146 145.06 22.417 144.417 22.9345 143.872C23.4523 143.327 24.0744 142.893 24.7638 142.594C25.4533 142.295 26.1959 142.139 26.9474 142.134C27.6988 142.129 28.4434 142.275 29.1368 142.565C29.8302 142.854 30.4583 143.28 30.9832 143.818C31.5081 144.356 31.9191 144.994 32.1918 145.694C32.4643 146.394 32.5929 147.142 32.5699 147.893L32.1922 160.17L46.8086 166.131C47.0668 166.237 47.2978 166.399 47.4844 166.606C47.6712 166.813 47.8089 167.059 47.887 167.327C47.9653 167.594 47.9822 167.876 47.9366 168.151C47.8908 168.426 47.7837 168.687 47.6231 168.915L44.3881 173.502C44.1623 173.824 43.8401 174.065 43.4678 174.191C43.0958 174.317 42.6932 174.321 42.3187 174.202Z" fill="#2F2E41"/>
<path d="M8.97288 136.334C9.43495 133.563 9.41798 130.69 9.40149 127.912C9.39705 127.158 9.39252 126.404 9.39716 125.652C9.41866 122.155 9.63568 118.449 11.0653 115.037C12.6213 111.323 15.5027 108.642 18.7731 107.864C22.4602 106.985 26.461 108.926 27.6655 112.123C28.4618 111.673 29.3478 111.406 30.26 111.34C31.172 111.274 32.0873 111.412 32.9399 111.743C33.7923 112.074 34.5608 112.59 35.1895 113.253C35.8184 113.917 36.2922 114.713 36.5765 115.582C36.8607 116.451 36.9486 117.372 36.8336 118.279C36.7186 119.187 36.4037 120.057 35.9115 120.828C35.4195 121.599 34.7623 122.25 33.9877 122.736C33.2131 123.222 32.3402 123.53 31.4322 123.638L31.2777 123.652L30.0728 120.52C30.066 120.575 30.0593 120.631 30.0527 120.687C29.976 121.336 29.8968 122.007 29.3607 122.395C28.6914 122.879 27.858 124.472 28.1016 126.086C28.2534 126.912 28.4796 127.723 28.7776 128.508C29.1087 129.37 29.349 130.264 29.4949 131.176C29.648 132.344 29.3422 133.527 28.6416 134.475C28.4341 134.751 28.1722 134.983 27.8722 135.155C27.5722 135.327 27.2402 135.437 26.8966 135.476L13.3152 136.881L12.708 132.344L8.84473 137.102L8.97288 136.334Z" fill="#2F2E41"/>
<path d="M79.5894 258.069H0.540619C0.431426 258.069 0.326705 258.026 0.249493 257.948C0.172283 257.871 0.128906 257.767 0.128906 257.657C0.128906 257.548 0.172283 257.444 0.249493 257.366C0.326705 257.289 0.431426 257.246 0.540619 257.246H79.5894C79.6986 257.246 79.8034 257.289 79.8806 257.366C79.9577 257.444 80.0012 257.548 80.0012 257.657C80.0012 257.767 79.9577 257.871 79.8806 257.948C79.8034 258.026 79.6986 258.069 79.5894 258.069Z" fill="#CCCCCC"/>
</g>
<defs>
<clipPath id="clip0_1_2125">
<rect width="300" height="215.569" fill="white" transform="translate(0 42.5)"/>
</clipPath>
</defs>
</svg>
