<svg width="300" height="301" viewBox="0 0 300 301" fill="none" xmlns="http://www.w3.org/2000/svg">
<g clip-path="url(#clip0_1_2162)">
<path d="M273.033 112.281C273.325 113.42 273.598 114.565 273.853 115.715H187.138V112.281H273.033Z" fill="#E6E6E6"/>
<path d="M270.269 103.228C268.874 99.286 267.244 95.4296 265.393 91.6792C264.825 90.5229 264.232 89.3782 263.62 88.2451C263.519 88.0507 263.41 87.8561 263.304 87.6617V113.218H270.797V104.749L270.269 103.228Z" fill="#E6E6E6"/>
<path d="M265.393 91.6792H263.304V88.2451H263.62C264.234 89.3771 264.825 90.5219 265.393 91.6792Z" fill="#CCCCCC"/>
<path d="M270.269 103.228H263.304V106.663H270.797V104.749L270.269 103.228Z" fill="#CCCCCC"/>
<path d="M259.247 83.5632H251.754V113.219H259.247V83.5632Z" fill="#E6E6E6"/>
<path d="M259.247 88.2458H251.754V91.6796H259.247V88.2458Z" fill="#CCCCCC"/>
<path d="M259.247 103.229H251.754V106.663H259.247V103.229Z" fill="#CCCCCC"/>
<path d="M225.081 83.3907H198.204C197.79 83.3914 197.393 83.5561 197.1 83.8491C196.807 84.142 196.642 84.5392 196.642 84.9533V111.829C196.642 111.982 196.664 112.134 196.708 112.281C196.805 112.602 197.003 112.883 197.273 113.083C197.542 113.283 197.869 113.392 198.204 113.392H225.081C225.416 113.392 225.743 113.283 226.012 113.083C226.282 112.883 226.479 112.602 226.577 112.281C226.621 112.134 226.642 111.982 226.644 111.829V84.9533C226.642 84.5392 226.477 84.142 226.184 83.8491C225.892 83.5561 225.495 83.3914 225.081 83.3907Z" fill="#E6E6E6"/>
<path d="M223.169 85.3005H200.113C199.699 85.3011 199.302 85.4659 199.009 85.7589C198.716 86.0518 198.551 86.4488 198.551 86.8631V109.92C198.551 110.334 198.716 110.731 199.009 111.024C199.302 111.317 199.699 111.481 200.113 111.482H223.169C223.584 111.481 223.981 111.317 224.274 111.024C224.566 110.731 224.732 110.334 224.732 109.92V86.8631C224.732 86.4488 224.566 86.0518 224.274 85.7589C223.981 85.4659 223.584 85.3011 223.169 85.3005Z" fill="white"/>
<path d="M219.149 89.3215H204.135C203.721 89.3222 203.324 89.4869 203.03 89.7799C202.738 90.0728 202.573 90.47 202.572 90.8841V105.899C202.573 106.313 202.738 106.71 203.03 107.003C203.324 107.296 203.721 107.461 204.135 107.461H219.149C219.563 107.459 219.96 107.294 220.252 107.001C220.544 106.709 220.71 106.312 220.712 105.899V90.8841C220.712 90.47 220.547 90.0728 220.254 89.7799C219.96 89.4869 219.563 89.3222 219.149 89.3215Z" fill="#CCCCCC"/>
<path d="M218.224 103.25L215.052 97.7574C214.991 97.6518 214.904 97.5642 214.797 97.5032C214.692 97.4423 214.572 97.4102 214.451 97.4102C214.329 97.4102 214.21 97.4423 214.103 97.5032C213.998 97.5642 213.911 97.6518 213.85 97.7574L211.533 101.768L208.496 96.5088C208.435 96.4032 208.348 96.3154 208.243 96.2546C208.136 96.1935 208.017 96.1614 207.895 96.1614C207.773 96.1614 207.654 96.1935 207.547 96.2546C207.442 96.3154 207.355 96.4032 207.294 96.5088L204.122 102.002L200.35 108.536H207.626L206.906 109.785H221.996L218.224 103.25Z" fill="white"/>
<path d="M217.105 94.801C218.312 94.801 219.291 93.8227 219.291 92.6159C219.291 91.4092 218.312 90.4309 217.105 90.4309C215.897 90.4309 214.92 91.4092 214.92 92.6159C214.92 93.8227 215.897 94.801 217.105 94.801Z" fill="white"/>
<path d="M276.349 136.546C276.325 135.198 276.273 133.858 276.19 132.525C276.155 131.886 276.113 131.25 276.061 130.615H261.4C260.986 130.616 260.589 130.78 260.297 131.073C260.003 131.366 259.839 131.763 259.839 132.177V159.054C259.837 159.177 259.853 159.299 259.883 159.418C259.965 159.759 260.159 160.063 260.435 160.28C260.71 160.497 261.051 160.616 261.4 160.616H274.916C274.984 160.22 275.051 159.818 275.11 159.418C275.148 159.182 275.187 158.942 275.222 158.706C275.304 158.14 275.384 157.574 275.458 157.008C275.561 156.238 275.655 155.463 275.738 154.686C276.044 151.897 276.241 149.079 276.329 146.23V146.227C276.36 145.154 276.376 144.076 276.377 142.994V138.827C276.377 138.063 276.37 137.303 276.349 136.546Z" fill="#E6E6E6"/>
<path d="M276.349 136.546C276.325 135.198 276.271 133.858 276.189 132.525H263.311C262.897 132.525 262.5 132.69 262.206 132.983C261.912 133.276 261.748 133.673 261.748 134.087V157.144C261.748 157.558 261.912 157.955 262.206 158.248C262.5 158.541 262.897 158.706 263.311 158.706H275.22C275.304 158.14 275.384 157.574 275.456 157.008C275.561 156.238 275.655 155.463 275.738 154.685C276.044 151.897 276.241 149.079 276.328 146.23V146.227C276.36 145.154 276.376 144.076 276.377 142.994V138.827C276.377 138.063 276.37 137.303 276.349 136.546Z" fill="white"/>
<path d="M276.35 136.546H267.332C266.918 136.546 266.521 136.711 266.228 137.004C265.936 137.297 265.77 137.694 265.77 138.108V153.123C265.77 153.537 265.936 153.934 266.228 154.227C266.521 154.52 266.918 154.685 267.332 154.685H275.738C276.044 151.897 276.242 149.079 276.329 146.23V146.227C276.36 145.154 276.376 144.076 276.378 142.994V138.827C276.378 138.063 276.371 137.303 276.35 136.546Z" fill="#CCCCCC"/>
<path d="M276.328 146.23C276.241 149.077 276.045 151.896 275.737 154.685C275.655 155.463 275.561 156.238 275.456 157.008H270.103L270.825 155.762H263.547L265.769 151.911L267.318 149.227L270.491 143.734C270.552 143.628 270.64 143.54 270.744 143.478C270.849 143.417 270.97 143.385 271.092 143.385C271.213 143.385 271.334 143.417 271.438 143.478C271.545 143.54 271.633 143.628 271.692 143.734L274.73 148.994L276.328 146.23Z" fill="white"/>
<path d="M250.02 68.5811H187.138V65.1469H246.901C247.964 66.2685 249.002 67.4133 250.02 68.5811Z" fill="#E6E6E6"/>
<path d="M220.538 44.764C223.101 46.1738 225.598 47.6843 228.031 49.2955V66.0809H220.538V44.764Z" fill="#E6E6E6"/>
<path d="M228.029 56.0929H220.538V59.5267H228.029V56.0929Z" fill="#CCCCCC"/>
<path d="M239.581 58.1154V66.0809H232.088V52.1185C233.834 53.3929 235.541 54.7182 237.209 56.0944C238.007 56.7541 238.798 57.4278 239.581 58.1154Z" fill="#E6E6E6"/>
<path d="M239.581 58.1154V59.5252H232.088V56.0945H237.209C238.007 56.7542 238.798 57.4279 239.581 58.1154Z" fill="#CCCCCC"/>
<path d="M212.888 40.9375C214.871 41.8299 216.82 42.7813 218.736 43.7918L217.194 46.9031L212.072 57.2542L210.547 60.3308L208.162 65.1469L207.638 66.2059L205.502 65.1469L200.926 62.8794L203.832 57.0042H203.836L205.357 53.9277L210.482 43.5765L211.989 40.5347L212.007 40.5L212.888 40.9375Z" fill="#E6E6E6"/>
<path d="M218.718 43.8231L217.194 46.9031L210.482 43.5765L211.989 40.5347L212.007 40.5L212.888 40.9375L218.718 43.8231Z" fill="#CCCCCC"/>
<path d="M205.357 53.9286L203.834 57.0059L210.547 60.3301L212.072 57.2527L205.357 53.9286Z" fill="#CCCCCC"/>
<path d="M275.11 159.418C275.051 159.818 274.985 160.22 274.916 160.616C274.794 161.366 274.663 162.109 274.52 162.852H187.138V159.418H275.11Z" fill="#E6E6E6"/>
<path d="M228.029 130.7H220.538V160.355H228.029V130.7Z" fill="#E6E6E6"/>
<path d="M228.029 135.382H220.538V138.816H228.029V135.382Z" fill="#CCCCCC"/>
<path d="M228.029 150.366H220.538V153.8H228.029V150.366Z" fill="#CCCCCC"/>
<path d="M239.58 130.7H232.089V160.355H239.58V130.7Z" fill="#E6E6E6"/>
<path d="M239.58 135.382H232.089V138.816H239.58V135.382Z" fill="#CCCCCC"/>
<path d="M239.58 150.366H232.089V153.8H239.58V150.366Z" fill="#CCCCCC"/>
<path d="M214.082 130.577L200.925 157.154L207.64 160.478L220.797 133.901L214.082 130.577Z" fill="#E6E6E6"/>
<path d="M212.005 134.774L210.48 137.851L217.196 141.175L218.718 138.098L212.005 134.774Z" fill="#CCCCCC"/>
<path d="M205.357 148.202L203.834 151.279L210.547 154.603L212.072 151.526L205.357 148.202Z" fill="#CCCCCC"/>
<path d="M129.67 172.652C129.984 172.832 130.282 173.037 130.563 173.264L161.477 163.644L163.22 155.974L175.139 157.092L173.373 170.969C173.23 172.091 172.727 173.135 171.941 173.946C171.154 174.758 170.125 175.292 169.009 175.468L132.627 181.228C132.097 182.515 131.187 183.609 130.019 184.366C128.851 185.123 127.48 185.506 126.089 185.465C124.698 185.423 123.353 184.959 122.232 184.135C121.111 183.31 120.267 182.164 119.814 180.848C119.36 179.533 119.318 178.11 119.692 176.77C120.067 175.43 120.841 174.235 121.911 173.345C122.981 172.456 124.296 171.913 125.682 171.789C127.069 171.665 128.46 171.966 129.67 172.652Z" fill="#FFB8B8"/>
<path d="M180.648 161.693L180.443 158.193V158.189L180.387 157.231L179.783 146.925C179.964 144.776 179.286 142.644 177.898 140.994C176.51 139.344 174.524 138.311 172.377 138.122C171.759 138.067 171.136 138.083 170.522 138.171C168.698 138.429 167.014 139.295 165.744 140.63C164.474 141.965 163.692 143.69 163.525 145.525L162.272 150.741L160.081 159.863C159.926 160.501 159.99 161.173 160.263 161.77C160.537 162.367 161.003 162.855 161.588 163.155C161.925 163.332 162.295 163.441 162.675 163.474L166.328 163.8L169.845 164.113L173.904 164.474L174.196 164.498L174.946 164.568L177.456 164.79H177.463C177.883 164.824 178.305 164.768 178.701 164.627C179.097 164.486 179.459 164.262 179.762 163.97C179.983 163.755 180.169 163.507 180.314 163.234C180.567 162.762 180.683 162.228 180.648 161.693Z" fill="#F9A826"/>
<path d="M214.572 119.251C214.572 131.135 203.582 129.338 190.027 129.338C176.471 129.338 165.482 131.135 165.482 119.251C165.482 107.366 170.85 86.3007 190.027 86.3007C209.864 86.3007 214.572 107.366 214.572 119.251Z" fill="#2F2E41"/>
<path d="M201.623 124.48C208.074 118.03 208.074 107.573 201.623 101.123C195.173 94.6731 184.716 94.6731 178.266 101.123C171.816 107.573 171.816 118.03 178.266 124.48C184.716 130.93 195.173 130.93 201.623 124.48Z" fill="#FFB8B8"/>
<path d="M213.194 136.261C212.876 135.955 212.539 135.669 212.184 135.407C209.939 133.71 207.116 132.963 204.325 133.327L173.89 137.178C171.103 137.524 168.559 138.942 166.799 141.132C165.039 143.321 164.201 146.11 164.463 148.907C164.55 149.88 164.647 150.904 164.755 151.97C164.894 153.307 165.05 154.71 165.23 156.161C165.529 158.602 165.894 161.179 166.328 163.8C166.706 166.057 167.137 168.346 167.63 170.606C167.772 171.259 167.92 171.909 168.074 172.558C168.074 172.56 168.074 172.562 168.075 172.563C168.075 172.565 168.076 172.567 168.078 172.568C168.095 172.648 168.112 172.728 168.133 172.804C168.132 172.81 168.133 172.816 168.137 172.821C168.352 173.724 168.578 174.617 168.814 175.499C168.904 175.825 168.991 176.148 169.081 176.467C169.324 177.336 169.581 178.186 169.845 179.023C171.828 185.249 174.449 190.552 177.911 193.371C177.957 193.413 178.002 193.447 178.05 193.486L178.189 193.593L178.391 193.531L179.245 193.277L179.974 193.055L189.475 190.197L191.839 189.485L199.437 187.197H199.44L206.388 185.107L207.236 184.85L213.205 183.055L213.395 180.825L213.652 177.867L213.806 176.089L215.014 162.068L215.719 153.887L216.483 145.004C216.624 143.394 216.402 141.772 215.834 140.258C215.264 138.745 214.362 137.379 213.194 136.261Z" fill="#2F2E41"/>
<path d="M230.212 204.108C230.133 203.875 230.056 203.642 229.976 203.413C226.406 192.996 221.142 185.117 213.395 180.826C213.392 180.826 213.392 180.822 213.388 180.822L213.257 180.749L206.505 183.086L205.673 183.374L204.804 183.676L204.794 183.68L198.474 185.867L198.464 185.871L193.506 187.586H193.502L188.915 189.173H188.912L187.845 189.545L179.828 192.319L178.897 192.642L178.064 192.93L177.935 192.975L177.911 193.371L177.338 203.413L177.3 204.108L176.585 216.64L152.83 250.29H169.081C174.526 250.292 179.963 249.878 185.345 249.051L200.592 232.619C200.72 232.488 200.882 232.392 201.06 232.344C201.237 232.297 201.425 232.301 201.601 232.351C201.778 232.402 201.937 232.502 202.062 232.636C202.186 232.773 202.271 232.939 202.308 233.119L204.547 244.231C215.582 240.329 225.904 234.65 235.105 227.418C234.035 218.788 232.472 210.924 230.212 204.108Z" fill="#2F2E41"/>
<path d="M170.861 111.181H177.394L180.276 103.112L180.852 111.181H183.974L185.655 106.474L185.991 111.181H209.19C209.19 108.885 208.739 106.612 207.86 104.491C206.982 102.369 205.694 100.442 204.07 98.8185C202.447 97.1949 200.519 95.9071 198.398 95.0285C196.277 94.1498 194.003 93.6975 191.707 93.6975H188.345C183.708 93.6975 179.261 95.5396 175.982 98.8185C172.703 102.097 170.861 106.544 170.861 111.181Z" fill="#2F2E41"/>
<path d="M130.681 198.686C129.614 199.134 128.463 199.343 127.307 199.298C126.151 199.253 125.019 198.955 123.991 198.425C122.962 197.895 122.063 197.146 121.355 196.231C120.648 195.315 120.15 194.256 119.896 193.128L91.9551 189.963L101.321 178.747L126.418 183.472C128.342 183.171 130.31 183.587 131.948 184.64C133.587 185.693 134.782 187.31 135.307 189.186C135.833 191.061 135.652 193.064 134.799 194.815C133.947 196.566 132.481 197.944 130.681 198.686Z" fill="#A0616A"/>
<path d="M115.617 177.926L103.808 175.815L102.95 175.662C102.265 175.539 101.613 175.274 101.038 174.881C100.463 174.489 99.977 173.98 99.6127 173.386C99.2483 172.793 99.0135 172.13 98.9238 171.439C98.8343 170.749 98.8917 170.047 99.0924 169.38L104.891 150.112L105.065 149.539C105.789 147.09 105.66 144.468 104.699 142.102C103.739 139.735 102.003 137.766 99.7765 136.514C98.2695 135.678 96.5896 135.2 94.8677 135.118C93.1461 135.036 91.4284 135.352 89.8489 136.042C88.2691 136.732 86.87 137.777 85.76 139.096C84.6501 140.415 83.8593 141.972 83.4494 143.647L76.0532 173.832L75.7789 174.95C75.2623 177.056 75.206 179.249 75.6137 181.379C76.0216 183.509 76.8838 185.526 78.1419 187.293C79.3997 189.059 81.0239 190.534 82.9034 191.616C84.7829 192.698 86.8737 193.362 89.0329 193.562C89.0572 193.566 89.078 193.566 89.1025 193.569L93.5298 193.961L99.273 194.472L106.496 195.114L113.235 195.715C114.118 195.795 114.999 195.54 115.703 195.001C116.406 194.462 116.882 193.678 117.034 192.805C117.044 192.756 117.051 192.708 117.058 192.659L118.489 181.978L118.503 181.881C118.626 180.977 118.395 180.06 117.857 179.322C117.319 178.585 116.516 178.085 115.617 177.926Z" fill="#CCCCCC"/>
<path d="M97.4228 96.996C92.7085 106.265 88.9929 115.825 78.5943 115.825C73.6006 115.825 68.8114 113.841 65.2803 110.31C61.7494 106.779 59.7656 101.99 59.7656 96.996C59.7656 86.5973 68.1962 78.2976 78.5943 78.1674C89.1623 78.035 106.198 79.7441 97.4228 96.996Z" fill="#2F2E41"/>
<path d="M109.249 218.25L108.822 213.987L108.502 214.004L52.3574 216.708L52.5032 221.025L52.7499 228.418C61.4375 235.035 71.085 240.287 81.3586 243.991L81.7233 241.164C81.7551 240.935 81.8656 240.722 82.0361 240.565C82.2065 240.406 82.4263 240.311 82.6583 240.297C82.8905 240.281 83.1204 240.348 83.3093 240.483C83.4985 240.619 83.6349 240.815 83.6955 241.04L84.8032 245.168C93.7527 248.054 103.047 249.738 112.44 250.171L109.249 218.25Z" fill="#2F2E41"/>
<path d="M91.1995 111.354C97.6495 104.904 97.6495 94.4465 91.1995 87.9967C84.7497 81.5467 74.2922 81.5467 67.8424 87.9967C61.3924 94.4465 61.3924 104.904 67.8424 111.354C74.2922 117.804 84.7497 117.804 91.1995 111.354Z" fill="#A0616A"/>
<path d="M112.474 214.275L109.2 204.108L109.144 203.934L108.978 203.413L108.044 200.517C107.741 199.576 107.453 198.632 107.186 197.684C106.939 196.83 106.709 195.973 106.495 195.114C106.189 193.92 105.912 192.721 105.662 191.517C104.814 187.472 104.249 183.373 103.97 179.249C103.894 178.106 103.84 176.962 103.807 175.815C103.604 168.784 104.237 161.754 105.693 154.873C106.96 148.922 106.283 142.722 103.762 137.185C101.24 131.648 97.0065 127.068 91.6853 124.118C88.1935 122.188 84.3288 121.029 80.3514 120.719C80.0771 120.698 79.8028 120.681 79.525 120.663C75.3236 120.398 71.1161 121.079 67.2131 122.658C63.3101 124.236 59.8115 126.67 56.9755 129.782C55.4564 131.436 54.1372 133.264 53.0447 135.226C50.0134 140.688 48.8755 146.999 49.8085 153.175L53.7113 179.381L52.8225 190.413L51.7739 203.413L51.7183 204.108L50.6002 217.969C50.5472 218.615 50.7037 219.262 51.0463 219.811C51.389 220.362 51.8998 220.787 52.503 221.024C52.8563 221.166 53.2335 221.238 53.6141 221.236C53.6697 221.236 53.7218 221.236 53.7774 221.233L109.249 218.25L109.756 218.222C110.218 218.199 110.669 218.068 111.074 217.843C111.478 217.617 111.825 217.301 112.088 216.92C112.351 216.537 112.522 216.1 112.589 215.642C112.656 215.183 112.617 214.716 112.474 214.275V214.275Z" fill="#CCCCCC"/>
<path d="M97.0466 90.3413C93.2724 92.9425 88.7929 94.327 84.2092 94.3086C85.8441 95.4423 87.7057 96.2081 89.6651 96.5532C83.5707 97.8605 77.2721 97.8958 71.1634 96.6572C69.8055 96.4394 68.4952 95.9895 67.2901 95.327C66.1172 94.6149 65.1361 93.4812 64.8994 92.1296C64.4936 89.8107 66.3004 87.7039 68.1784 86.284C71.0534 84.1432 74.3684 82.6682 77.8835 81.9658C81.3985 81.2635 85.0258 81.3511 88.5029 82.2226C90.7732 82.8095 93.0476 83.8009 94.5223 85.6243C95.9969 87.4476 96.4338 90.2584 95.0287 92.1359L97.0466 90.3413Z" fill="#2F2E41"/>
<path d="M97.8908 195.251C96.8341 195.722 95.6873 195.955 94.5306 195.935C93.374 195.915 92.2359 195.642 91.1964 195.134C90.1569 194.626 89.2413 193.897 88.5142 192.997C87.7871 192.098 87.2661 191.049 86.988 189.927L58.9854 187.368L68.1063 175.952L93.2997 180.132C95.217 179.789 97.1932 180.162 98.8541 181.18C100.515 182.197 101.745 183.788 102.311 185.652C102.876 187.516 102.739 189.522 101.925 191.291C101.11 193.06 99.6747 194.469 97.8908 195.251Z" fill="#A0616A"/>
<path d="M82.3832 174.822L76.0531 173.832L69.6673 172.832C68.9797 172.725 68.3224 172.473 67.739 172.093C67.1554 171.714 66.6587 171.215 66.2816 170.63C65.9043 170.045 65.6554 169.387 65.5507 168.699C65.446 168.011 65.4881 167.308 65.6741 166.637L71.2161 146.671C71.8867 144.207 71.7008 141.588 70.689 139.243C69.6772 136.899 67.8993 134.967 65.6463 133.764C64.1244 132.952 62.4342 132.506 60.7099 132.461C58.9855 132.416 57.2743 132.773 55.712 133.504C54.1447 134.224 52.7661 135.297 51.6844 136.64C50.6028 137.983 49.8479 139.559 49.479 141.244L42.4891 172.707C42.0183 174.829 42.0115 177.028 42.4692 179.154C42.9269 181.279 43.8383 183.28 45.1411 185.02C46.4439 186.761 48.1073 188.199 50.0175 189.237C51.9276 190.275 54.0395 190.888 56.2085 191.034L80.3867 192.656C81.2708 192.716 82.1453 192.442 82.837 191.889C83.529 191.335 83.9879 190.542 84.1229 189.666C84.1334 189.617 84.1367 189.569 84.1437 189.52L85.3418 178.811L85.3521 178.714C85.4552 177.808 85.204 176.896 84.6507 176.171C84.0973 175.445 83.2848 174.962 82.3832 174.822Z" fill="#CCCCCC"/>
<path d="M189.498 158.224L188.049 159.014L170.197 168.755L168.748 169.545C168.044 169.93 167.523 170.578 167.297 171.347C167.071 172.116 167.159 172.943 167.542 173.647L180.836 198.012C181.22 198.715 181.868 199.237 182.637 199.463C183.406 199.689 184.233 199.6 184.937 199.217L184.941 199.215L205.684 187.898L205.687 187.896C206.39 187.511 206.913 186.863 207.139 186.094C207.364 185.325 207.277 184.498 206.894 183.794L193.599 159.429C193.214 158.726 192.567 158.205 191.798 157.978C191.029 157.752 190.202 157.841 189.498 158.224Z" fill="#E6E6E6"/>
<path d="M189.915 158.988L188.198 159.924L170.881 169.373L169.165 170.309C168.664 170.583 168.292 171.044 168.131 171.592C167.971 172.14 168.033 172.729 168.306 173.23L181.6 197.595C181.874 198.096 182.335 198.467 182.883 198.628C183.43 198.789 184.019 198.726 184.521 198.454L184.525 198.451L205.268 187.134L205.271 187.132C205.771 186.858 206.144 186.397 206.304 185.849C206.465 185.301 206.402 184.712 206.13 184.211L192.835 159.846C192.562 159.346 192.1 158.974 191.553 158.813C191.005 158.652 190.416 158.715 189.915 158.988Z" fill="white"/>
<path d="M190.402 165.866C190.337 165.749 190.229 165.663 190.101 165.625C189.973 165.587 189.835 165.602 189.718 165.665L189.027 166.044L181.981 169.887C181.865 169.952 181.778 170.06 181.741 170.188C181.704 170.316 181.718 170.453 181.782 170.57C181.846 170.687 181.953 170.774 182.081 170.812C182.209 170.85 182.346 170.836 182.464 170.773L190.2 166.551C190.317 166.486 190.404 166.378 190.442 166.25C190.479 166.122 190.465 165.984 190.402 165.866Z" fill="#E6E6E6"/>
<path d="M193.037 166.363C193.005 166.305 192.963 166.254 192.911 166.213C192.86 166.171 192.801 166.141 192.738 166.122C192.674 166.104 192.608 166.098 192.542 166.105C192.477 166.113 192.414 166.133 192.356 166.165L182.796 171.381C182.739 171.412 182.687 171.455 182.646 171.506C182.605 171.558 182.574 171.617 182.555 171.68C182.537 171.744 182.531 171.81 182.538 171.876C182.545 171.941 182.565 172.005 182.597 172.063C182.628 172.121 182.671 172.172 182.723 172.213C182.774 172.255 182.833 172.285 182.897 172.304C182.96 172.323 183.026 172.328 183.092 172.321C183.158 172.314 183.221 172.294 183.279 172.263L183.724 172.02L186.505 170.502H186.509L192.835 167.047C192.894 167.016 192.945 166.973 192.987 166.922C193.029 166.87 193.06 166.811 193.079 166.747C193.098 166.684 193.104 166.617 193.097 166.551C193.089 166.485 193.069 166.421 193.037 166.363Z" fill="#E6E6E6"/>
<path d="M182.647 174.676L179.612 169.11C179.581 169.054 179.528 169.013 179.467 168.995C179.405 168.977 179.339 168.985 179.283 169.016L177.81 169.818L177.046 170.235L172.945 172.471L172.15 172.905C172.094 172.937 172.053 172.989 172.036 173.051C172.018 173.112 172.026 173.179 172.057 173.235L172.251 173.593L175.091 178.801C175.122 178.857 175.174 178.898 175.235 178.915C175.296 178.933 175.362 178.926 175.418 178.895L180.314 176.224L181.078 175.808L182.55 175.006C182.578 174.991 182.603 174.97 182.623 174.945C182.643 174.92 182.658 174.892 182.667 174.861C182.677 174.83 182.679 174.798 182.676 174.766C182.673 174.735 182.663 174.704 182.647 174.676Z" fill="#E6E6E6"/>
<path d="M194.238 172.929C194.175 172.812 194.067 172.726 193.94 172.688C193.812 172.65 193.675 172.664 193.558 172.728L183.064 178.454C182.972 178.505 182.897 178.583 182.852 178.678C182.806 178.774 182.792 178.881 182.811 178.985C182.818 179.039 182.836 179.091 182.863 179.138C182.89 179.186 182.923 179.229 182.964 179.266L182.967 179.27C183.045 179.34 183.142 179.384 183.246 179.396C183.35 179.409 183.455 179.389 183.547 179.339L194.041 173.613C194.099 173.581 194.15 173.538 194.191 173.487C194.232 173.435 194.263 173.376 194.281 173.312C194.3 173.249 194.306 173.182 194.298 173.117C194.291 173.051 194.27 172.987 194.238 172.929Z" fill="#E6E6E6"/>
<path d="M196.877 173.426C196.846 173.368 196.803 173.317 196.751 173.276C196.699 173.234 196.64 173.204 196.576 173.185C196.513 173.167 196.446 173.161 196.381 173.168C196.315 173.176 196.251 173.196 196.193 173.228L183.877 179.947C183.784 179.996 183.71 180.073 183.664 180.168C183.619 180.262 183.604 180.368 183.624 180.471V180.475C183.631 180.529 183.649 180.58 183.676 180.627C183.702 180.677 183.738 180.722 183.78 180.759C183.857 180.831 183.954 180.876 184.058 180.889C184.163 180.901 184.268 180.88 184.36 180.829L196.676 174.11C196.793 174.046 196.88 173.938 196.918 173.809C196.956 173.681 196.941 173.543 196.877 173.426Z" fill="#E6E6E6"/>
<path d="M179.55 184.027C180.729 184.027 181.685 183.071 181.685 181.892C181.685 180.712 180.729 179.756 179.55 179.756C178.37 179.756 177.414 180.712 177.414 181.892C177.414 183.071 178.37 184.027 179.55 184.027Z" fill="#E6E6E6"/>
<path d="M195.748 148.848L194.299 149.639L176.447 159.379L174.998 160.17C174.294 160.555 173.773 161.202 173.547 161.971C173.321 162.74 173.409 163.567 173.792 164.271L187.086 188.636C187.471 189.339 188.118 189.861 188.887 190.087C189.656 190.313 190.483 190.225 191.187 189.842L191.191 189.84L211.934 178.522L211.937 178.52C212.64 178.136 213.163 177.488 213.388 176.719C213.614 175.95 213.526 175.123 213.143 174.419L199.849 150.054C199.464 149.351 198.817 148.829 198.048 148.603C197.279 148.377 196.452 148.465 195.748 148.848Z" fill="#CCCCCC"/>
<path d="M196.165 149.612L194.449 150.548L177.131 159.997L175.415 160.934C174.914 161.208 174.542 161.669 174.381 162.217C174.22 162.764 174.283 163.353 174.556 163.855L187.85 188.219C188.124 188.72 188.585 189.092 189.133 189.253C189.681 189.414 190.27 189.351 190.771 189.078L190.775 189.076L211.517 177.758L211.521 177.756C212.021 177.482 212.393 177.021 212.554 176.473C212.715 175.926 212.652 175.337 212.379 174.836L199.085 150.471C198.812 149.97 198.35 149.598 197.803 149.437C197.255 149.277 196.666 149.339 196.165 149.612Z" fill="white"/>
<path d="M196.652 156.491C196.587 156.374 196.479 156.287 196.351 156.25C196.223 156.212 196.085 156.226 195.968 156.29L192.405 158.234L191.412 158.776L188.231 160.512C188.115 160.577 188.028 160.684 187.991 160.812C187.954 160.94 187.968 161.078 188.032 161.195C188.096 161.312 188.203 161.399 188.331 161.437C188.459 161.475 188.596 161.461 188.714 161.398L192.464 159.352L193.249 158.922L196.45 157.175C196.567 157.111 196.654 157.003 196.692 156.874C196.729 156.746 196.715 156.609 196.652 156.491Z" fill="#CCCCCC"/>
<path d="M199.288 156.988C199.256 156.93 199.214 156.879 199.162 156.837C199.111 156.796 199.052 156.765 198.989 156.747C198.925 156.728 198.859 156.723 198.793 156.73C198.728 156.737 198.665 156.758 198.607 156.79L193.638 159.502L192.874 159.918L189.047 162.005C188.99 162.037 188.939 162.08 188.897 162.131C188.856 162.183 188.825 162.242 188.806 162.305C188.788 162.368 188.782 162.435 188.789 162.5C188.796 162.566 188.816 162.63 188.848 162.688C188.88 162.745 188.922 162.797 188.974 162.838C189.025 162.879 189.084 162.91 189.148 162.929C189.211 162.947 189.278 162.953 189.343 162.946C189.409 162.939 189.472 162.919 189.53 162.887L193.357 160.8L194.121 160.384L199.086 157.672C199.145 157.64 199.196 157.598 199.238 157.546C199.28 157.495 199.312 157.436 199.33 157.372C199.349 157.308 199.355 157.241 199.348 157.176C199.34 157.109 199.32 157.046 199.288 156.988Z" fill="#CCCCCC"/>
<path d="M188.897 165.301L186.477 160.863L186.061 160.099L185.862 159.734C185.831 159.678 185.779 159.637 185.717 159.62C185.655 159.602 185.589 159.61 185.533 159.641L180.619 162.321L178.4 163.53C178.344 163.561 178.303 163.613 178.286 163.675C178.268 163.737 178.276 163.803 178.307 163.859L178.504 164.221L178.72 164.62L178.921 164.984V164.988L181.341 169.426C181.372 169.481 181.424 169.522 181.485 169.54C181.546 169.558 181.612 169.55 181.668 169.519L188.8 165.63C188.828 165.615 188.853 165.595 188.873 165.57C188.893 165.545 188.908 165.516 188.918 165.486C188.927 165.455 188.929 165.423 188.926 165.391C188.923 165.359 188.913 165.329 188.897 165.301Z" fill="#F9A826"/>
<path d="M200.489 163.554C200.425 163.437 200.318 163.35 200.19 163.313C200.063 163.275 199.925 163.289 199.808 163.352L196.673 165.064L195.909 165.481L192.881 167.13L189.315 169.078C189.257 169.11 189.205 169.153 189.164 169.205C189.122 169.256 189.091 169.315 189.072 169.379C189.054 169.442 189.048 169.509 189.055 169.575C189.062 169.641 189.082 169.704 189.113 169.763C189.145 169.821 189.188 169.872 189.239 169.914C189.291 169.955 189.35 169.986 189.414 170.005C189.477 170.024 189.544 170.03 189.609 170.023C189.675 170.016 189.739 169.996 189.797 169.964L196.391 166.366L197.155 165.95L200.291 164.238C200.349 164.206 200.4 164.163 200.441 164.112C200.483 164.06 200.514 164 200.532 163.937C200.55 163.873 200.556 163.807 200.549 163.741C200.541 163.675 200.521 163.612 200.489 163.554Z" fill="#CCCCCC"/>
<path d="M203.128 164.05C203.096 163.993 203.053 163.941 203.002 163.9C202.95 163.859 202.89 163.828 202.827 163.81C202.764 163.791 202.697 163.786 202.631 163.793C202.566 163.8 202.502 163.821 202.444 163.852L197.489 166.558L196.725 166.974L190.128 170.572C190.07 170.603 190.018 170.646 189.976 170.697C189.935 170.749 189.904 170.808 189.885 170.871C189.866 170.935 189.86 171.001 189.867 171.067C189.874 171.133 189.894 171.197 189.926 171.255C189.958 171.313 190.001 171.364 190.052 171.406C190.104 171.447 190.163 171.478 190.227 171.496C190.29 171.515 190.357 171.521 190.423 171.513C190.489 171.506 190.552 171.486 190.61 171.454L197.204 167.856L197.968 167.44L202.927 164.734C203.044 164.67 203.131 164.562 203.168 164.434C203.207 164.306 203.193 164.168 203.128 164.05Z" fill="#CCCCCC"/>
<path d="M185.8 174.652C186.979 174.652 187.935 173.696 187.935 172.516C187.935 171.337 186.979 170.381 185.8 170.381C184.62 170.381 183.664 171.337 183.664 172.516C183.664 173.696 184.62 174.652 185.8 174.652Z" fill="#CCCCCC"/>
<path d="M187.234 184.523C187.594 184.558 187.95 184.622 188.299 184.713L212.519 163.228L210.953 155.52L222.276 151.636L226.376 165.012C226.706 166.092 226.678 167.251 226.295 168.314C225.911 169.377 225.192 170.287 224.248 170.908L193.457 191.124C193.503 192.515 193.123 193.886 192.37 195.056C191.617 196.227 190.525 197.14 189.24 197.674C187.956 198.209 186.539 198.34 185.178 198.049C183.817 197.759 182.576 197.061 181.622 196.048C180.667 195.036 180.043 193.756 179.833 192.381C179.623 191.005 179.837 189.598 180.447 188.347C181.056 187.096 182.032 186.06 183.244 185.377C184.457 184.694 185.848 184.396 187.234 184.523Z" fill="#FFB8B8"/>
<path d="M229.192 153.56L222.33 140.456C221.624 138.463 220.171 136.822 218.278 135.88C216.384 134.938 214.199 134.768 212.183 135.407C212.108 135.428 212.035 135.452 211.958 135.48C209.916 136.194 208.239 137.689 207.299 139.638C206.356 141.586 206.227 143.829 206.937 145.873L209.69 160.356C209.769 160.77 209.937 161.163 210.181 161.507C210.426 161.851 210.741 162.138 211.108 162.349C211.507 162.583 211.958 162.716 212.419 162.738C212.8 162.762 213.181 162.709 213.542 162.582L215.014 162.068L224.465 158.776L227.556 157.699C227.954 157.56 228.318 157.336 228.622 157.044C228.928 156.751 229.166 156.397 229.32 156.004C229.475 155.611 229.545 155.19 229.522 154.768C229.5 154.347 229.388 153.935 229.192 153.56Z" fill="#F9A826"/>
<path d="M255.093 204.108H28.3472C28.2551 204.108 28.1668 204.071 28.1017 204.006C28.0366 203.941 28 203.853 28 203.761C28 203.668 28.0366 203.58 28.1017 203.515C28.1668 203.45 28.2551 203.413 28.3472 203.413H255.093C255.185 203.413 255.273 203.45 255.339 203.515C255.404 203.58 255.441 203.668 255.441 203.761C255.441 203.853 255.404 203.941 255.339 204.006C255.273 204.071 255.185 204.108 255.093 204.108Z" fill="#3F3D56"/>
<path d="M67.4102 197.684V197.857C67.4114 199.035 67.7542 200.186 68.397 201.172C69.0399 202.159 69.9553 202.937 71.0318 203.413C71.8042 203.758 72.6409 203.936 73.4867 203.934H129.566V197.684H67.4102Z" fill="#3F3D56"/>
<path d="M168.72 156.491C167.83 154.654 166.46 153.092 164.755 151.97C163.982 151.458 163.148 151.045 162.272 150.741C161.079 150.324 159.824 150.112 158.56 150.112H104.738C101.746 150.116 98.878 151.306 96.7622 153.422C94.6467 155.537 93.4567 158.406 93.4532 161.398V192.649C93.4521 193.088 93.4776 193.526 93.5296 193.961C93.6058 194.613 93.7383 195.257 93.9254 195.885C94.1108 196.504 94.3502 197.106 94.6406 197.684C95.5754 199.562 97.0157 201.142 98.7997 202.246C100.584 203.351 102.64 203.935 104.738 203.934H158.56C160.042 203.935 161.51 203.643 162.879 203.076C164.249 202.509 165.493 201.678 166.541 200.63C167.589 199.582 168.42 198.338 168.987 196.968C169.554 195.599 169.846 194.131 169.845 192.649V161.398C169.848 159.698 169.463 158.02 168.72 156.491Z" fill="#3F3D56"/>
<path d="M134.6 179.801C136.134 179.801 137.378 178.557 137.378 177.023C137.378 175.489 136.134 174.245 134.6 174.245C133.066 174.245 131.822 175.489 131.822 177.023C131.822 178.557 133.066 179.801 134.6 179.801Z" fill="white"/>
</g>
<defs>
<clipPath id="clip0_1_2162">
<rect width="250" height="209.79" fill="white" transform="translate(28 40.5)"/>
</clipPath>
</defs>
</svg>
