<svg width="299" height="227" viewBox="0 0 299 227" fill="none" xmlns="http://www.w3.org/2000/svg">
<path opacity="0.1" d="M294.676 65.8111C294.625 66.0544 294.576 66.2976 294.517 66.5379C292.725 74.804 289.796 82.7694 285.44 90.0845C285.295 90.3278 285.151 90.571 285.004 90.8142C282.13 95.5206 278.695 99.8583 274.77 103.731C272.6 105.873 270.234 107.909 267.419 109.376C263.476 111.437 258.866 112.273 254.336 112.956C249.63 113.669 244.859 114.265 240.102 114.907C238.412 115.131 236.73 115.369 235.061 115.62C230.464 116.301 225.9 117.088 221.446 118.132C215.94 119.419 210.604 121.105 205.563 123.476C205.159 123.659 204.761 123.852 204.368 124.056C203.974 124.252 203.578 124.452 203.191 124.654C202.802 124.856 202.419 125.059 202.04 125.266C201.844 125.373 201.646 125.479 201.453 125.592C201.259 125.704 201.066 125.802 200.878 125.911C200.31 126.228 199.753 126.553 199.195 126.881L199.174 126.895C198.804 127.111 198.442 127.332 198.079 127.553C196.019 128.805 194.004 130.111 191.987 131.425L190.719 132.245L188.753 133.516C188.371 133.765 187.981 134.013 187.595 134.259C187.322 134.44 187.049 134.62 186.751 134.806C185.319 135.708 183.868 136.593 182.379 137.437C182.026 137.639 181.671 137.842 181.313 138.038C178.304 139.717 175.158 141.136 171.908 142.279L171.864 142.296C170.229 142.866 168.561 143.337 166.869 143.706C165.893 143.919 164.915 144.094 163.926 144.228C161.282 144.602 158.6 144.64 155.947 144.34C150.736 143.736 145.853 141.735 140.644 141.061C129.922 139.694 119.508 144.096 109.425 147.545C106.946 148.392 104.448 149.185 101.932 149.925C100.26 150.42 98.582 150.887 96.8906 151.338C86.5276 154.076 75.951 155.931 65.2748 156.882C60.8118 157.319 56.3221 157.419 51.8442 157.18C50.1418 157.076 48.4586 156.907 46.8054 156.633C41.1489 155.759 35.8752 153.925 31.6178 150.567C28.131 147.81 25.6361 144.217 23.7371 140.457C21.7929 136.62 20.4204 132.52 19.6627 128.286C19.5589 127.709 19.4661 127.13 19.3895 126.551C19.2529 125.56 19.1508 124.563 19.0835 123.561C18.7158 118.221 19.3535 112.859 20.9635 107.753C22.7671 102.037 25.7727 96.5498 27.0954 90.7895C27.1501 90.5455 27.202 90.3023 27.2512 90.06C27.4318 89.1851 27.5657 88.3011 27.6527 87.4121C28.3278 80.3347 25.7401 73.4349 23.7097 66.5134C23.6388 66.2728 23.5676 66.0296 23.4993 65.7866C23.2806 65.0177 23.0712 64.2498 22.8708 63.483C20.9908 56.1651 20.4689 48.331 22.144 41.0268C22.1959 40.7836 22.2588 40.5404 22.3188 40.2998C23.4403 35.6828 25.5489 31.3636 28.4999 27.6398C31.6369 23.7049 35.7548 20.4287 40.1542 17.5512C42.2984 16.1485 44.5155 14.8378 46.8054 13.6191C48.445 12.7447 50.1246 11.9167 51.8442 11.1352C65.6301 4.85028 81.3559 1.7816 96.9069 2.45928C97.7267 2.49481 98.5465 2.53852 99.3663 2.59864C100.186 2.65875 101.082 2.72981 101.94 2.80905C111.958 3.78184 121.705 6.12911 131.384 8.695C134.627 9.55575 137.865 10.4384 141.101 11.3046C142.541 11.6872 143.978 12.0697 145.418 12.4414C152.471 14.264 159.628 15.9144 166.874 17.1468C168.552 17.4365 170.232 17.7006 171.913 17.9393C177.751 18.7973 183.636 19.2964 189.536 19.434C191.829 19.4794 194.123 19.4594 196.419 19.3738C197.578 19.332 198.736 19.2691 199.896 19.1853C211.88 18.341 223.461 15.5155 235.061 12.8758C236.738 12.4933 238.419 12.1162 240.102 11.7445C242.31 11.2581 244.517 10.7881 246.736 10.3537C260.544 7.64022 272.851 9.20052 285.689 14.7995C288.608 16.0702 291.523 17.6059 293.31 19.9913C295.096 22.377 295.546 25.3062 295.879 28.1345C296.351 32.1623 296.661 36.2421 296.778 40.3436C296.778 40.584 296.778 40.8272 296.795 41.0704C296.979 49.3557 296.363 57.72 294.676 65.8111Z" fill="#F9A826"/>
<path opacity="0.1" d="M203.087 90.0845H202.185V90.4069V90.8141H203.206L203.087 90.0845ZM192.858 90.0845C192.857 90.0907 192.857 90.0973 192.858 90.1035C192.834 90.303 192.806 90.5026 192.779 90.7047V90.7594V90.8141H200.594V90.7703L201.14 90.0845H192.858ZM171.913 90.0845V66.5379H180.903C180.807 66.4751 180.709 66.4094 180.608 66.3494L180.477 66.2647L180.307 66.1607C180.209 66.1034 180.111 66.046 180.007 65.9915C179.903 65.9367 179.84 65.8985 179.753 65.852L179.692 65.8192H179.679H171.913V64.5213L171.702 64.6032L171.481 64.7071H171.465L171.418 64.7317L171.279 64.8054L171.14 64.8792C171.003 64.953 170.866 65.0351 170.73 65.1198L170.598 65.2071L170.325 65.382C169.973 65.6169 169.626 65.863 169.268 66.0924C169.178 66.15 169.087 66.2073 168.995 66.2592C168.8 66.3739 168.601 66.4832 168.396 66.5817C168.309 66.6254 168.224 66.6636 168.123 66.6992L167.975 66.7566L167.839 66.803C167.518 66.9145 167.189 67.0003 166.855 67.0598V90.079H153.375C153.375 90.1064 153.394 90.1281 153.402 90.1554C153.476 90.3741 153.55 90.59 153.621 90.8086H166.874V116.047C166.943 116.047 167.011 116.047 167.079 116.047L167.317 116.06L167.746 116.085L168.431 116.167L168.746 116.197L169.087 116.232H169.139L169.743 116.306L169.872 116.323L170.164 116.364L170.582 116.424L171.585 116.38L171.721 116.404C171.776 116.404 171.834 116.421 171.891 116.432V90.8141H192.751V90.7594V90.7047C192.779 90.5026 192.806 90.303 192.83 90.1035C192.83 90.0973 192.83 90.0907 192.83 90.0845H171.913ZM203.087 90.0845H202.185V90.4069V90.8141H203.206L203.087 90.0845ZM192.294 90.0845C192.262 90.3277 192.232 90.5709 192.2 90.8141H200.913L201.506 90.0845H192.294ZM171.913 90.0845V66.5379H180.903C180.807 66.4751 180.709 66.4094 180.608 66.3494L180.477 66.2647L180.307 66.1607C180.209 66.1034 180.111 66.046 180.007 65.9915C179.903 65.9367 179.84 65.8985 179.753 65.852L179.692 65.8192H179.673H171.913V64.5213L171.702 64.6032L171.481 64.7071H171.465L171.418 64.7317L171.279 64.8054L171.14 64.8792C171.003 64.953 170.866 65.0351 170.73 65.1198L170.598 65.2071L170.325 65.382C169.973 65.6169 169.626 65.863 169.268 66.0924C169.178 66.15 169.087 66.2073 168.995 66.2592C168.8 66.3739 168.601 66.4832 168.396 66.5817C168.309 66.6254 168.224 66.6636 168.123 66.6992L167.975 66.7566L167.839 66.803C167.518 66.9145 167.189 67.0003 166.855 67.0598V90.079H153.375C153.375 90.1064 153.394 90.1281 153.402 90.1554C153.476 90.3713 153.553 90.59 153.624 90.8086H166.874V116.044H167.079L167.317 116.058L167.746 116.082L168.431 116.167L168.746 116.197L169.087 116.232H169.139L169.743 116.306L169.872 116.323L170.164 116.364L170.582 116.424L171.585 116.38L171.721 116.404C171.776 116.404 171.834 116.421 171.891 116.432V90.8141H192.206C192.238 90.5709 192.268 90.3277 192.3 90.0845H171.913ZM240.102 41.0513H296.794C296.794 40.8081 296.794 40.5649 296.777 40.3243H240.102V11.7362C238.419 12.1006 236.738 12.4777 235.06 12.8675V40.3243H173.402L173.246 40.1851L173.481 39.9773L196.415 19.3683C194.121 19.4558 191.826 19.4758 189.532 19.4284L171.91 35.2609V17.9392C170.227 17.7005 168.547 17.4364 166.871 17.1467V34.463L141.106 11.3045C137.871 10.4383 134.632 9.55565 131.389 8.6949L166.429 40.1851L166.273 40.3243H101.948V2.83354C101.09 2.75339 100.232 2.68324 99.3741 2.62312C98.5543 2.56301 97.7345 2.51929 96.9147 2.48376V40.3243H51.8437V11.1597C50.1422 11.9394 48.4626 12.7673 46.8049 13.6436V40.3243H22.3185C22.2583 40.5649 22.1954 40.8081 22.1436 41.0513H46.8049V65.8111H23.4988C23.5671 66.0543 23.6383 66.2975 23.7092 66.5379H46.8049V90.0845H27.2507C27.2015 90.3268 27.1496 90.57 27.0949 90.8141H46.8049V156.65C48.4445 156.904 50.1415 157.081 51.8437 157.196V90.8141H96.9066V151.349C98.5981 150.898 100.276 150.431 101.948 149.936V90.8141H166.874V143.703C168.566 143.334 170.234 142.863 171.869 142.293L171.913 142.276V90.8141H235.06V115.62C236.736 115.374 238.417 115.138 240.102 114.913V90.8141H285.004C285.151 90.5709 285.294 90.3277 285.44 90.0845H240.102V66.5379H294.517C294.575 66.2975 294.625 66.0543 294.675 65.8111H240.102V41.0513ZM51.8437 41.0513H96.9066V65.8111H51.8437V41.0513ZM51.8437 90.0845V66.5379H96.9066V90.0845H51.8437ZM101.948 41.0513H166.874V65.8111H101.948V41.0513ZM101.948 90.0845V66.5379H166.874V90.0845H101.948ZM235.06 90.0845H171.913V66.5379H235.06V90.0845ZM235.06 65.8111H171.913V41.7152L172.798 41.0513H235.06V65.8111ZM192.858 90.0845C192.857 90.0907 192.857 90.0973 192.858 90.1035C192.834 90.303 192.806 90.5026 192.779 90.7047V90.7594V90.8141H200.594V90.7703L201.14 90.0845H192.858ZM203.087 90.0845H202.185V90.4069V90.8141H203.206L203.087 90.0845ZM171.913 90.0845V66.5379H180.903C180.807 66.4751 180.709 66.4094 180.608 66.3494L180.477 66.2647L180.307 66.1607C180.209 66.1034 180.111 66.046 180.007 65.9915C179.903 65.9367 179.84 65.8985 179.753 65.852L179.692 65.8192H179.679H171.913V64.5213L171.702 64.6032L171.481 64.7071H171.465L171.418 64.7317L171.279 64.8054L171.14 64.8792C171.003 64.953 170.866 65.0351 170.73 65.1198L170.598 65.2071L170.325 65.382C169.973 65.6169 169.626 65.863 169.268 66.0924C169.178 66.15 169.087 66.2073 168.995 66.2592C168.8 66.3739 168.601 66.4832 168.396 66.5817C168.309 66.6254 168.224 66.6636 168.123 66.6992L167.975 66.7566L167.839 66.803C167.518 66.9145 167.189 67.0003 166.855 67.0598V90.079H153.375C153.375 90.1064 153.394 90.1281 153.402 90.1554C153.476 90.3741 153.55 90.59 153.621 90.8086H166.874V116.047C166.943 116.047 167.011 116.047 167.079 116.047L167.317 116.06L167.746 116.085L168.431 116.167L168.746 116.197L169.087 116.232H169.139L169.743 116.306L169.872 116.323L170.164 116.364L170.582 116.424L171.585 116.38L171.721 116.404C171.776 116.404 171.834 116.421 171.891 116.432V90.8141H192.751V90.7594V90.7047C192.779 90.5026 192.806 90.303 192.83 90.1035C192.83 90.0973 192.83 90.0907 192.83 90.0845H171.913Z" fill="#F9A826"/>
<path opacity="0.1" d="M73.5107 24.0056H73.9015C73.7726 23.9511 73.6605 23.8635 73.5766 23.7516C73.4926 23.6398 73.4398 23.5077 73.4232 23.3688C73.4232 22.866 74.1747 22.4562 75.0928 22.4562H86.7773C87.6955 22.4562 88.4441 22.866 88.4441 23.3688C88.4441 23.869 87.6955 24.2815 86.7773 24.2815H86.3866C86.5155 24.335 86.6277 24.422 86.7119 24.5335C86.7958 24.645 86.8487 24.7769 86.8647 24.9154C86.8647 25.3445 86.3183 25.7052 85.5887 25.8009H88.9524C89.8679 25.8009 90.6192 26.2107 90.6192 26.7135C90.6192 27.2164 89.8679 27.6262 88.9524 27.6262H77.2653C76.3498 27.6262 75.5985 27.2135 75.5985 26.7135C75.5985 26.2845 76.1449 25.9266 76.8745 25.8283H73.5107C72.5926 25.8283 71.8438 25.4183 71.8438 24.9154C71.8438 24.4128 72.5926 24.0056 73.5107 24.0056Z" fill="#F9A826"/>
<path opacity="0.1" d="M200.149 32.687H200.54C200.412 32.6321 200.3 32.5444 200.217 32.4325C200.132 32.3208 200.08 32.1889 200.064 32.0502C200.064 31.5476 200.814 31.1376 201.731 31.1376H213.415C214.334 31.1376 215.085 31.5476 215.085 32.0502C215.085 32.5504 214.334 32.9602 213.415 32.9602H213.027C213.155 33.0151 213.268 33.1029 213.351 33.2147C213.434 33.3264 213.487 33.4583 213.502 33.5968C213.502 34.0259 212.957 34.3866 212.227 34.4823H215.591C216.508 34.4823 217.257 34.8921 217.257 35.3949C217.257 35.8978 216.508 36.3076 215.591 36.3076H203.906C202.987 36.3076 202.236 35.8949 202.236 35.3949C202.236 34.9659 202.783 34.6053 203.514 34.5096H200.149C199.234 34.5096 198.481 34.0996 198.481 33.5968C198.481 33.0942 199.234 32.687 200.149 32.687Z" fill="#F9A826"/>
<path opacity="0.1" d="M55.5768 69.8389H55.9648C55.8365 69.7841 55.7248 69.6966 55.6412 69.5847C55.5576 69.4728 55.5053 69.3409 55.4893 69.2023C55.4893 68.7021 56.2408 68.2894 57.1563 68.2894H68.8435C69.7587 68.2894 70.5102 68.7021 70.5102 69.2023C70.5102 69.7049 69.7587 70.1149 68.8435 70.1149H68.4527C68.5812 70.1685 68.6931 70.2557 68.7767 70.3672C68.8602 70.4785 68.9125 70.6104 68.9282 70.7489C68.9282 71.1777 68.3816 71.5385 67.6519 71.6342H71.0157C71.934 71.6342 72.6853 72.0468 72.6853 72.5468C72.6853 73.047 71.934 73.4594 71.0157 73.4594H59.3423C58.4242 73.4594 57.6753 73.0496 57.6753 72.5468C57.6753 72.1206 58.2219 71.7598 58.9516 71.6615H55.5768C54.6587 71.6615 53.9072 71.2515 53.9072 70.7489C53.9072 70.246 54.6697 69.8389 55.5768 69.8389Z" fill="#F9A826"/>
<path opacity="0.1" d="M275.589 167.215C277.553 157.61 253.521 144.587 221.914 138.128C190.304 131.668 163.091 134.218 161.128 143.823C159.165 153.428 183.197 166.451 214.804 172.911C246.412 179.37 273.627 176.82 275.589 167.215Z" fill="#F9A826"/>
<path d="M211.759 105.671C211.759 105.671 214.866 90.4206 226.729 91.8334C226.729 91.8334 234.927 92.3962 236.612 97.763V109.625L211.759 105.671Z" fill="#3A3768"/>
<path d="M276.721 111.322L171.087 102.564L157.531 105.39L158.378 124.313L159.302 124.425L160.354 152.841L264.008 171.479L275.027 162.159V131.355L276.436 130.526L276.721 111.322Z" fill="#D48A9B"/>
<path opacity="0.05" d="M276.862 111.322L276.577 130.526L265.139 135.893L264.996 115.839L276.862 111.322Z" fill="black"/>
<path opacity="0.05" d="M275.027 131.374L275.166 161.596L264.151 170.917L264.859 135.893L275.027 131.374Z" fill="black"/>
<path opacity="0.05" d="M159.444 125.556L264.944 138.429L264.998 135.986L159.365 124.594L159.444 125.556Z" fill="black"/>
<path opacity="0.05" d="M275.027 132.483V131.374L264.574 135.986V138.434L275.027 132.483Z" fill="black"/>
<path d="M157.39 105.39L170.946 102.564L276.578 111.322L264.717 115.839L157.39 105.39Z" fill="#EFC6CD"/>
<path opacity="0.1" d="M265.327 111.866L270.51 112.205L261.919 114.776L257.544 114.462L265.327 111.866Z" fill="black"/>
<path d="M265.327 111.639L270.51 111.978L261.919 114.552L257.544 114.235L265.327 111.639Z" fill="white"/>
<path d="M264.706 112.221C264.912 112.134 265.127 112.3 265.346 112.341C265.47 112.366 265.6 112.341 265.725 112.366C265.98 112.399 266.231 112.568 266.474 112.483" fill="#D3DAE1"/>
<path d="M264.438 112.377C264.64 112.289 264.859 112.453 265.078 112.497C265.203 112.519 265.331 112.497 265.457 112.519C265.712 112.554 265.963 112.724 266.206 112.639" fill="#D3DAE1"/>
<path d="M263.819 112.688C264.025 112.601 264.244 112.765 264.463 112.806C264.585 112.83 264.716 112.806 264.84 112.83C265.097 112.866 265.348 113.035 265.587 112.948" fill="#D3DAE1"/>
<path opacity="0.1" d="M242.919 109.314L248.102 109.655L239.511 112.226L235.136 111.91L242.919 109.314Z" fill="black"/>
<path d="M242.919 109.089L248.102 109.428L239.511 112L235.136 111.686L242.919 109.089Z" fill="white"/>
<path d="M242.299 109.671C242.504 109.584 242.72 109.748 242.938 109.792C243.065 109.814 243.193 109.792 243.318 109.814C243.572 109.849 243.823 110.019 244.067 109.934" fill="#D3DAE1"/>
<path d="M242.03 109.827C242.232 109.74 242.451 109.904 242.67 109.945C242.796 109.969 242.925 109.945 243.049 109.969C243.304 110.005 243.555 110.174 243.798 110.087" fill="#D3DAE1"/>
<path d="M241.413 110.136C241.617 110.049 241.836 110.215 242.055 110.256C242.177 110.281 242.309 110.256 242.432 110.281C242.689 110.314 242.94 110.486 243.181 110.399" fill="#D3DAE1"/>
<path opacity="0.1" d="M253.667 110.59L258.854 110.928L250.261 113.503L245.884 113.186L253.667 110.59Z" fill="black"/>
<path d="M253.667 110.366L258.854 110.704L250.261 113.276L245.884 112.959L253.667 110.366Z" fill="white"/>
<path d="M253.046 110.948C253.252 110.86 253.469 111.024 253.687 111.065C253.812 111.09 253.94 111.065 254.065 111.09C254.319 111.122 254.574 111.294 254.814 111.207" fill="#D3DAE1"/>
<path d="M252.777 111.101C252.983 111.013 253.202 111.18 253.421 111.221C253.543 111.245 253.672 111.221 253.796 111.245C254.051 111.278 254.306 111.451 254.545 111.363" fill="#D3DAE1"/>
<path d="M252.162 111.412C252.364 111.325 252.583 111.489 252.802 111.532C252.928 111.554 253.056 111.532 253.181 111.554C253.436 111.59 253.687 111.759 253.93 111.675" fill="#D3DAE1"/>
<path opacity="0.1" d="M136.306 216.749C166.863 216.749 191.635 211.651 191.635 205.36C191.635 199.07 166.863 193.972 136.306 193.972C105.748 193.972 80.9766 199.07 80.9766 205.36C80.9766 211.651 105.748 216.749 136.306 216.749Z" fill="#F9A826"/>
<path d="M196.895 112.093C196.304 106.906 193.968 101.957 193.968 101.957L194.146 100.209C194.146 100.209 194.183 99.3341 194.127 98.0226C194.132 97.2035 194.24 96.3886 194.446 95.596C194.925 94.0794 193.848 92.2158 193.727 92.0437C193.606 91.8715 193.787 88.546 192.71 86.9147C191.634 85.2833 184.464 82.2501 184.464 82.2501C184.464 82.2501 184.078 81.4441 183.535 80.5013L183.584 80.4056C183.139 79.5986 182.588 78.855 181.944 78.195C181.504 77.725 181.081 77.4573 180.739 77.5884C180.6 77.1349 180.494 76.6718 180.422 76.203C180.493 76.222 180.567 76.2413 180.638 76.2549C180.934 76.3235 181.241 76.3309 181.54 76.2767C182.207 76.1266 182.649 75.5281 183.021 74.965C184.874 72.1505 186.469 69.0628 186.795 65.7318C186.882 65.0518 186.85 64.362 186.699 63.6933C186.545 63.1733 186.331 62.6735 186.06 62.2041C185.581 61.2407 184.974 60.3464 184.256 59.5452C182.98 58.2009 181.22 57.3782 179.411 56.8918C177.373 56.3439 175.25 56.1854 173.154 56.4247C172.607 56.4875 172.061 56.5777 171.514 56.6132C170.821 56.6437 170.126 56.6318 169.435 56.5777L165.858 56.3699L165.841 56.3154L165.246 56.2798C165.011 56.7471 165.246 57.3018 165.538 57.739C165.83 58.1762 166.166 58.6326 166.142 59.149C166.117 59.6654 165.743 60.0809 165.451 60.5152C165.158 60.9498 164.937 61.5183 165.229 61.9445C165.27 62.0033 165.319 62.0567 165.374 62.103C165.683 62.4226 166.221 62.4582 166.688 62.4528H166.77C165.594 64.0026 164.957 65.8954 164.959 67.8413C164.967 69.5043 165.432 71.133 166.304 72.549C167.176 73.965 168.421 75.1139 169.902 75.8696C169.954 76.0473 170.006 76.2303 170.055 76.4162C170.597 78.3354 170.791 80.3362 170.629 82.3239L170.566 82.4605L170.528 82.3158C170.528 82.3158 166.314 85.1739 165.062 85.9309C163.811 86.6879 162.554 89.2537 162.494 89.9533C162.434 90.6528 160.461 101.203 160.461 101.203C160.06 102.266 159.729 103.354 159.472 104.461L156.955 106.671C156.955 106.671 151.763 107.138 150.26 106.789L150.304 107.078C148.978 106.776 147.629 106.593 146.271 106.532C145.529 106.436 144.775 106.537 144.085 106.824L144.033 106.849L143.992 106.868C143.201 106.976 142.428 107.193 141.696 107.513C141.609 107.548 141.53 107.584 141.453 107.619L141.469 107.261L135.851 106.972L132.982 106.39C132.982 106.39 131.966 105.57 131.367 105.69C130.769 105.81 129.515 104.991 129.515 104.991C129.228 104.766 128.919 104.574 128.591 104.417C128.495 103.755 128.435 103.354 128.435 103.354C128.435 103.354 126.203 94.4949 124.53 89.2866C123.41 85.8079 121.798 84.0947 120.847 83.3486C120.423 82.6109 120.145 82.1354 120.145 82.1354C119.961 81.496 118.956 80.056 118.699 80.0203C118.658 79.9549 118.628 79.922 118.611 79.922C118.557 79.9162 118.501 79.9247 118.45 79.9466C117.98 77.6075 117.707 74.6754 118.426 72.1205C119.41 71.312 120.202 70.296 120.748 69.1452C121.293 67.9945 121.577 66.7373 121.579 65.4639C121.579 65.4258 121.579 65.3875 121.579 65.3492C121.579 65.3109 121.579 65.2699 121.579 65.2316C121.579 63.2009 120.859 61.236 119.549 59.6847L119.456 59.5807C119.481 59.5632 119.505 59.5439 119.527 59.5233C119.732 59.3569 119.889 59.1379 119.98 58.8896C120.071 58.6413 120.093 58.3732 120.043 58.1133C119.921 57.5888 119.511 57.1762 119.3 56.6788C119.174 56.296 119.072 55.9052 118.997 55.5092C118.836 54.9467 118.54 54.4318 118.136 54.009L118.177 54.1184C117.106 52.9133 115.264 52.3149 113.605 52.5826C112.373 52.7794 111.225 53.3532 109.988 53.5309C109.099 53.6566 108.195 53.5747 107.301 53.6649C106.472 53.7499 105.665 53.9832 104.919 54.3533C104.724 54.4364 104.551 54.5635 104.413 54.725C104.286 54.9413 104.201 55.1796 104.162 55.4273C103.858 56.5339 102.897 57.3237 102.2 58.2473C101.404 59.3024 100.943 60.5724 100.877 61.8926C100.85 62.2281 100.882 62.5656 100.973 62.8899C101.033 63.0839 101.126 63.2669 101.17 63.4637C101.306 64.0649 100.992 64.6633 100.839 65.259C100.646 66.019 100.715 66.8216 101.033 67.5381C102.112 69.9535 105.656 70.7598 106.394 73.2956C106.959 73.555 107.555 73.7388 108.168 73.842C108.217 74.0933 108.261 74.3475 108.296 74.6045C108.279 74.6115 108.264 74.6207 108.25 74.6318C107.293 75.5635 107.055 77.3643 107.055 77.3643L106.941 77.4573C106.55 77.7798 105.214 78.8618 104.006 79.6952C102.571 80.6871 100.18 84.0099 98.5081 85.0018C96.8356 85.9937 95.4585 92.1066 95.8192 94.3281C96.18 96.5498 97.6719 102.78 97.0734 105.053C96.4751 107.327 97.9698 117.702 97.9698 117.702C98.9728 117.894 99.9541 118.185 100.899 118.571L100.869 119.025L100.779 120.391C100.779 120.391 98.0709 130.185 99.1064 137.724C100.142 145.263 98.6283 146.039 98.6283 146.039C98.6283 146.039 98.9453 149.381 98.1502 150.548C97.3549 151.715 97.1938 154.278 97.1938 154.278C97.1938 154.278 97.1145 160.03 97.273 161.656C97.4315 163.282 97.5107 166.244 96.9532 166.943C96.3958 167.643 95.3602 172.225 95.4394 173.624C95.5187 175.024 93.4474 178.212 94.5623 182.331C95.6772 186.448 91.2832 186.528 91.2832 186.528C91.2832 186.528 91.8434 192.813 93.0375 194.611L93.2124 194.868C93.1823 194.972 93.1523 195.081 93.1194 195.198C92.6687 196.838 92.0509 199.424 92.48 200.051C93.1168 200.985 93.4364 200.826 93.4364 200.826L93.6741 205.024C93.6741 205.024 98.4562 209.066 102.123 208.913C105.79 208.76 105.072 205.024 105.072 205.024L101.948 196.924L101.842 196.651L105.312 190.094C105.312 190.094 106.268 187.219 106.506 186.208C106.744 185.197 108.042 181.614 108.042 181.614C108.042 181.614 111.321 173.843 111.389 172.909C111.458 171.974 111.709 166.927 112.346 165.913C112.982 164.899 114.737 159.082 114.737 159.082L114.781 159.12C115.078 159.412 115.291 159.78 115.396 160.184C115.501 160.588 115.494 161.012 115.376 161.413C114.975 162.888 115.215 165.919 115.215 165.919C115.215 165.919 115.057 168.484 114.737 169.807C114.417 171.13 114.341 181.931 114.898 184.495C115.343 186.547 115.33 190.389 115.308 191.843C114.934 193.387 114.606 195.304 115.215 195.532C116.253 195.923 121.514 195.843 121.514 195.843C121.514 195.843 123.743 195.064 126.774 197.787C129.804 200.507 139.125 197.009 139.125 197.009C139.125 197.009 141.994 196.23 136.335 193.979C132.386 192.408 129.837 191.362 128.17 190.241C128.208 190.168 128.249 190.094 128.285 190.015C128.285 190.015 125.973 187.828 127.886 183.954C129.799 180.079 129.719 176.802 129.719 176.802L130.039 163.744L129.083 146.408L128.342 128.215L128.473 128.171C128.599 131.516 129.252 139.478 132.671 137.934C136.975 135.992 133.307 130.939 133.307 130.939L131.375 127.174L131.952 126.977L129.791 119.992C129.583 118.629 129.555 117.245 129.708 115.874C129.751 115.073 129.735 114.269 129.659 113.47C132.49 112.975 135.201 112.451 135.687 112.571C136.261 112.71 139.472 112.737 140.735 112.743C140.322 113.065 139.991 113.385 139.991 113.385L145.131 116.844C145.131 116.844 146.875 115.891 147.238 114.88C147.596 114.789 147.926 114.613 148.2 114.366C148.255 115.56 148.571 116.853 149.675 116.883C149.951 116.888 150.226 116.834 150.479 116.724L158.884 115.06L158.163 119.566L158.665 120.46C158.411 124.261 158.119 128.297 157.862 131.846L157.745 132.622L157.805 132.636C157.406 138.101 157.086 142.241 157.086 142.241C157.557 141.344 158.287 140.61 159.182 140.134L159.237 148.244C159.237 148.244 159.658 161.068 159.658 162.817C159.658 164.566 159.715 168.471 159.715 168.471C159.715 168.471 160.614 173.25 161.149 174.824C161.685 176.398 162.106 183.568 162.106 183.568C162.106 183.568 163.363 185.549 162.825 186.301C162.286 187.052 164.918 188.689 164.918 188.689C164.918 188.689 163.243 190.962 163.122 192.479C163.109 192.655 163.281 192.84 163.592 193.026C163.494 193.106 163.393 193.185 163.281 193.26C162.505 193.779 161.368 194.141 159.658 193.992C154.993 193.583 151.706 197.898 154.575 198.772C157.444 199.647 166.052 199.821 166.052 199.821C166.052 199.821 168.658 198.196 170.697 198.928C170.667 200.64 170.752 202.208 170.765 202.415L170.741 202.434C169.522 203.526 167.188 205.408 164.909 206.175C161.63 207.281 160.904 211.772 165.147 212.353C169.391 212.936 175.608 211.653 175.608 211.653C175.608 211.653 178.835 209.266 181.286 208.741C183.737 208.217 185.83 207.049 185.412 205.651C185.139 204.757 184.436 202.415 183.961 200.841C183.934 200.745 183.906 200.655 183.879 200.568C183.953 200.404 184.027 200.234 184.095 200.058C184.095 200.058 182.841 193.532 183.857 191.9C184.874 190.268 184.335 173.944 184.335 173.944C184.335 173.944 182.6 169.807 183.499 167.301C184.398 164.796 182.065 161.238 182.065 161.238C182.065 161.238 182.319 154.108 183.002 150.135C183.033 149.966 183.063 149.802 183.092 149.644C184.236 149.304 185.351 148.874 186.426 148.356C186.426 148.356 187.024 139.377 187.382 137.339C187.418 137.147 187.467 136.839 187.527 136.437L187.8 134.997L188.123 133.357L189.215 127.769L191.189 125.217L196.272 120.025C196.272 120.025 197.493 117.282 196.895 112.093ZM118.513 80.0313L118.475 80.0586C118.469 80.0388 118.465 80.0188 118.461 79.9984C118.477 80.0116 118.495 80.0226 118.513 80.0313ZM168.73 86.3954L168.533 86.8245L169.252 86.1086L168.276 87.2016L168.604 86.513L168.73 86.3954ZM163.877 96.4239C163.688 96.9241 163.486 97.465 163.275 98.0281L163.661 96.8775L163.877 96.4239Z" fill="url(#paint0_linear_1_2242)"/>
<path d="M148.194 112.773C148.194 112.773 147.524 117.23 149.533 117.287C151.541 117.345 152.883 113.85 152.883 113.85L152.063 111.054L148.194 112.773Z" fill="#585B8A"/>
<path opacity="0.2" d="M148.194 112.773C148.194 112.773 147.524 117.23 149.533 117.287C151.541 117.345 152.883 113.85 152.883 113.85L152.063 111.054L148.194 112.773Z" fill="black"/>
<path d="M103.208 209.243C99.6339 209.4 94.9722 205.36 94.9722 205.36L94.7399 201.166C94.7399 201.166 94.4313 201.323 93.8082 200.391C93.3901 199.764 93.9913 197.172 94.4313 195.54C94.6443 194.742 94.8192 194.174 94.8192 194.174L102.662 196.272L103.036 197.264L106.08 205.358C106.08 205.358 106.78 209.087 103.208 209.243Z" fill="#636992"/>
<path d="M139.243 197.362C139.243 197.362 130.157 200.857 127.219 198.138C124.282 195.419 122.093 196.196 122.093 196.196C122.093 196.196 116.967 196.275 115.956 195.885C115.36 195.657 115.682 193.715 116.054 192.168C116.306 191.1 116.579 190.217 116.579 190.217C116.579 190.217 125.509 187.186 126.908 189.05C127.328 189.598 127.83 190.077 128.397 190.472C130.015 191.64 132.542 192.7 136.54 194.332C142.038 196.583 139.243 197.362 139.243 197.362Z" fill="#636992"/>
<path d="M131.089 126.373L133.572 131.344C133.572 131.344 137.147 136.393 132.952 138.334C128.758 140.274 128.837 127.152 128.837 127.152L131.089 126.373Z" fill="#FFD6D6"/>
<path d="M120.68 83.2694C120.68 83.2694 123.399 84.5128 125.03 89.7154C126.661 94.9183 128.836 103.774 128.836 103.774C128.836 103.774 130.312 113.792 130.077 116.279C129.927 117.648 129.954 119.031 130.156 120.394L132.252 127.384L128.058 128.86L121.612 104.163L120.68 83.2694Z" fill="#DCE6F2"/>
<path opacity="0.05" d="M120.68 83.2694C120.68 83.2694 123.399 84.5128 125.03 89.7154C126.661 94.9183 128.836 103.774 128.836 103.774C128.836 103.774 130.312 113.792 130.077 116.279C129.927 117.648 129.954 119.031 130.156 120.394L132.252 127.384L128.058 128.86L121.612 104.163L120.68 83.2694Z" fill="black"/>
<path opacity="0.1" d="M102.662 196.275L103.036 197.266L102.577 198.143C100.79 198.919 96.363 198.3 96.363 198.3C96.363 198.3 95.5432 197.258 94.4229 195.545C94.6361 194.747 94.8108 194.179 94.8108 194.179L102.662 196.275Z" fill="black"/>
<path opacity="0.1" d="M128.681 190.838C126.416 195.968 118.715 194.064 116.576 193.423C116.223 193.315 116.029 193.245 116.029 193.245C116.029 193.245 116.043 192.826 116.048 192.168C116.3 191.1 116.573 190.217 116.573 190.217C116.573 190.217 125.503 187.186 126.902 189.05C127.322 189.598 127.825 190.077 128.391 190.472C128.477 190.602 128.574 190.725 128.681 190.838Z" fill="black"/>
<path d="M128.291 184.314C126.428 188.195 128.682 190.372 128.682 190.372C126.417 195.502 118.716 193.6 116.577 192.955C116.224 192.851 116.03 192.779 116.03 192.779C116.03 192.779 116.186 187.418 115.642 184.855C115.098 182.292 115.175 171.498 115.486 170.179C115.798 168.859 115.951 166.293 115.951 166.293C115.951 166.293 115.719 163.265 116.107 161.79C116.224 161.391 116.231 160.968 116.129 160.566C116.027 160.163 115.82 159.795 115.527 159.5L115.486 159.459C115.486 159.459 113.779 165.285 113.156 166.29C112.533 167.296 112.303 172.348 112.224 173.28C112.144 174.212 108.961 181.981 108.961 181.981C108.961 181.981 107.72 185.552 107.488 186.56C107.256 187.569 106.321 190.445 106.321 190.445L102.578 197.672C100.791 198.447 96.3639 197.826 96.3639 197.826C96.3639 197.826 95.5113 196.734 94.3445 194.953C93.1777 193.17 92.6367 186.877 92.6367 186.877C92.6367 186.877 96.9077 186.798 95.8201 182.683C94.7326 178.568 96.7518 175.382 96.6754 173.982C96.5988 172.583 97.6073 168.004 98.1511 167.304C98.6948 166.605 98.6156 163.653 98.4597 162.022C98.3041 160.391 98.3833 154.644 98.3833 154.644C98.3833 154.644 98.539 152.081 99.315 150.917C100.091 149.753 99.7824 146.411 99.7824 146.411C99.7824 146.411 101.255 145.635 100.247 138.101C99.2386 130.568 101.886 120.782 101.886 120.782L101.977 119.416L102.119 117.202C102.119 117.202 124.332 115.803 126.119 117.511C126.586 117.985 126.969 118.535 127.253 119.137C127.864 120.452 128.296 121.842 128.537 123.272L129.469 146.804L130.401 164.123L130.089 177.171C130.089 177.171 130.157 180.429 128.291 184.314Z" fill="#565988"/>
<path opacity="0.1" d="M121.705 137.869L119.374 188.35L116.576 192.953C116.223 192.849 116.029 192.777 116.029 192.777C116.029 192.777 116.185 187.416 115.642 184.853C115.098 182.29 115.174 171.496 115.486 170.176C115.797 168.856 115.95 166.29 115.95 166.29C115.95 166.29 115.718 163.263 116.106 161.787C116.223 161.389 116.231 160.966 116.129 160.563C116.027 160.16 115.819 159.792 115.527 159.497L115.565 159.224L121.705 137.869Z" fill="black"/>
<path opacity="0.1" d="M96.6032 192.081C96.6032 192.081 102.661 189.674 103.593 190.441C104.525 191.209 96.4502 192.381 96.4502 192.381L96.6032 192.081Z" fill="black"/>
<path opacity="0.1" d="M126.506 185.711C126.274 185.79 120.371 187.897 120.915 190.138C121.459 192.377 126.506 185.711 126.506 185.711Z" fill="black"/>
<path d="M108.062 70.8062C108.062 70.8062 110.04 75.5828 108.993 78.0311C107.947 80.4796 120.292 84.6713 120.292 84.6713C120.292 84.6713 116.683 75.3506 120.178 70.1068C123.673 64.863 108.062 70.8062 108.062 70.8062Z" fill="#FFD6D6"/>
<path d="M180.349 209.089C177.961 209.613 174.816 212 174.816 212C174.816 212 168.758 213.283 164.62 212.7C160.483 212.119 161.185 207.632 164.388 206.524C166.61 205.76 168.886 203.872 170.075 202.789C170.599 202.306 170.911 201.97 170.911 201.97L182.505 199.638C182.505 199.638 182.694 200.287 182.956 201.179C183.421 202.757 184.106 205.096 184.369 205.987C184.776 207.398 182.737 208.562 180.349 209.089Z" fill="#505484"/>
<path d="M177.378 200.117C177.378 200.117 172.484 200.642 170.445 199.477C168.407 198.313 165.494 200.177 165.494 200.177C165.494 200.177 157.105 200.002 154.31 199.128C151.514 198.253 154.717 193.936 159.261 194.351C160.917 194.502 162.037 194.138 162.794 193.619C163.585 193.077 164.136 192.251 164.333 191.313L174.17 191.894L175.536 195.381L177.378 200.117Z" fill="#505484"/>
<path opacity="0.1" d="M175.687 196.972C175.687 196.972 164.254 195.102 162.795 193.619C163.586 193.077 164.137 192.251 164.333 191.313L174.171 191.894L175.537 195.381L175.687 196.972Z" fill="black"/>
<path d="M158.736 131.559L158.854 148.624C158.854 148.624 159.261 161.44 159.261 163.189C159.261 164.938 159.318 168.837 159.318 168.837C159.318 168.837 160.193 173.614 160.717 175.188C161.242 176.762 161.649 183.932 161.649 183.932C161.649 183.932 162.874 185.913 162.349 186.664C161.824 187.416 164.387 189.053 164.387 189.053C164.387 189.053 162.748 191.326 162.641 192.84C162.535 194.355 175.687 196.504 175.687 196.504L170.563 143.965L166.483 130.803L158.736 131.559Z" fill="#575988"/>
<path opacity="0.1" d="M158.736 131.559L158.854 148.624C158.854 148.624 159.261 161.44 159.261 163.189C159.261 164.938 159.318 168.837 159.318 168.837C159.318 168.837 160.193 173.614 160.717 175.188C161.242 176.762 161.649 183.932 161.649 183.932C161.649 183.932 162.874 185.913 162.349 186.664C161.824 187.416 164.387 189.053 164.387 189.053C164.387 189.053 162.748 191.326 162.641 192.84C162.535 194.355 175.687 196.504 175.687 196.504L170.563 143.965L166.483 130.803L158.736 131.559Z" fill="black"/>
<path opacity="0.1" d="M182.956 201.192C179.149 210.268 170.096 203.264 170.096 203.264C170.096 203.264 170.096 203.091 170.074 202.789C170.599 202.306 170.91 201.97 170.91 201.97L182.505 199.638C182.505 199.638 182.693 200.3 182.956 201.192Z" fill="black"/>
<path d="M183.087 200.409C179.357 209.974 170.097 202.798 170.097 202.798C170.097 202.798 169.804 197.845 170.389 195.575C170.974 193.304 169.747 186.487 169.747 186.487C169.747 186.487 169.047 180.429 168.408 179.032C167.768 177.636 167.826 174.838 167.826 174.606C167.826 174.373 168.058 172.507 167.534 171.225C167.009 169.944 166.714 166.799 166.714 166.799C166.714 166.799 166.714 162.372 166.189 159.751L164.383 150.734L161.12 132.267L162.139 132.092L180.401 128.89C180.401 128.89 183.839 146.378 182.672 148.171C182.42 148.564 182.199 149.425 182.016 150.534C181.349 154.502 181.101 161.626 181.101 161.626C181.101 161.626 183.371 165.178 182.5 167.684C181.628 170.19 183.32 174.324 183.32 174.324C183.32 174.324 183.844 190.634 182.852 192.266C181.86 193.898 183.087 200.409 183.087 200.409Z" fill="#575988"/>
<path d="M181.338 81.1736C181.338 81.1736 164.795 92.8225 168.522 86.9966C170.531 83.8596 170.162 79.8647 169.375 76.8479C168.977 75.3136 168.428 73.8225 167.735 72.3966C167.735 72.3966 181.792 66.4178 179.928 71.7762C179.491 73.0247 179.306 74.347 179.381 75.6674C179.493 77.6523 180.172 79.5634 181.338 81.1736Z" fill="#D28690"/>
<path d="M151.553 107.852C151.553 107.852 144.563 105.832 143.399 107.813C142.235 109.795 143.749 114.142 145.858 114.842C147.968 115.541 152.81 112.472 152.81 112.472L151.553 107.852Z" fill="#D28690"/>
<path d="M159.555 104.417L156.642 107.097C156.642 107.097 151.573 107.562 150.116 107.212C150.116 107.212 151.458 116.183 149.534 117.29L161.301 114.901L159.555 104.417Z" fill="#585B8A"/>
<path opacity="0.1" d="M159.555 104.417L156.642 107.097C156.642 107.097 151.573 107.562 150.116 107.212C150.116 107.212 151.458 116.183 149.534 117.29L161.301 114.901L159.555 104.417Z" fill="black"/>
<path opacity="0.1" d="M122.155 65.9123C122.155 68.2314 121.234 70.4555 119.594 72.0953C117.955 73.7352 115.73 74.6565 113.411 74.6565C108.924 72.5004 104.667 70.7461 104.667 65.9123C104.621 64.7357 104.812 63.5619 105.23 62.4614C105.648 61.3606 106.284 60.3559 107.1 59.507C107.916 58.6582 108.895 57.9829 109.978 57.5216C111.062 57.0602 112.227 56.8225 113.405 56.8225C114.582 56.8225 115.747 57.0602 116.83 57.5216C117.914 57.9829 118.893 58.6582 119.708 59.507C120.525 60.3559 121.161 61.3606 121.579 62.4614C121.997 63.5619 122.188 64.7357 122.142 65.9123H122.155Z" fill="black"/>
<path d="M122.156 65.6771C122.157 67.7336 121.432 69.7245 120.109 71.2987C118.786 72.8728 116.949 73.9292 114.923 74.2815C112.897 74.6337 110.812 74.2594 109.035 73.2241C107.258 72.189 105.904 70.5598 105.211 68.6236C104.518 66.6873 104.531 64.5687 105.247 62.6411C105.964 60.7136 107.338 59.1011 109.128 58.0877C110.917 57.0745 113.007 56.7258 115.029 57.1028C117.05 57.48 118.874 58.5588 120.177 60.1492C121.454 61.7087 122.153 63.6615 122.156 65.6771Z" fill="#FFD6D6"/>
<path opacity="0.1" d="M127.252 119.145C126.387 119.683 125.482 120.152 124.544 120.55C124.544 120.55 120.118 119.908 119.478 120.665C118.839 121.422 113.193 121.714 113.193 121.714C113.193 121.714 104.572 121.307 103.291 120.2C102.894 119.879 102.453 119.618 101.981 119.424L102.124 117.211C102.124 117.211 124.337 115.812 126.124 117.519C126.589 117.994 126.971 118.544 127.252 119.145Z" fill="black"/>
<path d="M128.331 117.58C128.156 118.569 124.544 120.083 124.544 120.083C124.544 120.083 120.117 119.443 119.478 120.2C118.838 120.957 113.193 121.249 113.193 121.249C113.193 121.249 104.571 120.84 103.29 119.733C102.008 118.626 99.1528 118.093 99.1528 118.093C99.1528 118.093 97.6964 107.726 98.2813 105.455C98.866 103.185 97.4067 96.9487 97.0569 94.7353C96.7073 92.5221 98.0462 86.4064 99.6775 85.4174C101.309 84.4281 103.64 81.1053 105.036 80.1161C106.214 79.2827 107.514 78.2034 107.894 77.8781L108.006 77.7853C108.006 77.7853 108.241 75.9791 109.173 75.0527C110.105 74.1264 118.666 80.9359 118.666 80.9359C118.666 80.9359 118.726 81.4606 119.308 80.4713C119.439 80.25 120.568 81.8787 120.765 82.5672C120.765 82.5672 125.424 90.724 125.716 92.4045C126.008 94.0851 127.23 99.5693 127.462 100.908C127.522 101.252 127.621 102.46 127.735 104.078C127.757 104.395 127.777 104.731 127.801 105.081C127.973 107.764 128.159 111.191 128.271 113.781C128.271 114.076 128.296 114.361 128.304 114.634C128.363 115.615 128.372 116.598 128.331 117.58Z" fill="#DCE6F2"/>
<path opacity="0.1" d="M98.751 96.5498C98.751 96.5498 101.953 100.452 103.003 100.452C104.052 100.452 98.751 96.5498 98.751 96.5498Z" fill="black"/>
<path opacity="0.1" d="M105.498 104.939C105.498 104.939 100.254 110.647 100.954 111.696C101.653 112.746 105.498 104.939 105.498 104.939Z" fill="black"/>
<path opacity="0.1" d="M101.653 116.298C101.653 116.298 107.665 109.715 107.938 107.445L101.653 116.298Z" fill="black"/>
<path opacity="0.1" d="M109.226 116.763C109.226 116.763 116.158 113.093 116.74 110.18C117.322 107.267 109.226 116.763 109.226 116.763Z" fill="black"/>
<path opacity="0.1" d="M118.021 81.3485L117.06 83.6768L118.661 84.4336L120.235 88.833C120.235 88.833 124.574 97.5117 124.399 102.026C124.224 106.54 125.186 113.325 125.186 113.325L127.689 112.861L126.509 99.583C126.325 97.5272 125.81 95.5147 124.984 93.6232C122.984 89.0434 119.262 80.5889 119.027 80.5889C118.707 80.5889 118.931 80.7064 118.931 80.7064L118.021 81.3485Z" fill="black"/>
<path d="M118.253 81.1135L117.291 83.4443L118.895 84.2013L120.466 88.6007C120.466 88.6007 124.806 97.2794 124.631 101.794C124.456 106.308 125.418 113.093 125.418 113.093L127.923 112.628L126.74 99.3507C126.559 97.2949 126.045 95.282 125.218 93.3909C123.218 88.8085 119.496 80.3566 119.264 80.3566C118.942 80.3566 119.166 80.4741 119.166 80.4741L118.253 81.1135Z" fill="#575989"/>
<path d="M146.621 115.347C145.402 115.254 142.478 113.776 141.317 113.161L140.825 112.888L140.885 108.376C141.172 108.207 141.47 108.057 141.776 107.925C143.328 107.248 146.512 106.327 148.107 109.292C150.261 113.268 148.165 115.451 146.621 115.347Z" fill="#FFD6D6"/>
<path opacity="0.1" d="M120.178 60.1493C120.053 60.2276 119.915 60.284 119.771 60.3159C118.757 60.5372 117.604 59.6655 116.735 60.2257C116.205 60.5701 116.082 61.2833 116.011 61.9118C115.887 63.0048 115.763 64.0906 115.639 65.1689C115.613 65.5529 115.532 65.9312 115.399 66.2921C114.97 67.2731 113.792 67.735 112.718 67.7186C112.297 67.7484 111.882 67.611 111.562 67.3359C111.373 67.1446 111.272 66.8769 111.065 66.7019C109.699 65.557 109.283 68.3635 109.644 69.1612C110.223 70.4648 112.281 71.7218 111.417 73.3776C111.272 73.6467 111.052 73.868 110.783 74.0144C109.482 73.6069 108.294 72.9006 107.314 71.9521C106.335 71.0036 105.59 69.8393 105.141 68.5519C104.692 67.2646 104.549 65.8899 104.726 64.5378C104.902 63.1857 105.393 61.8936 106.158 60.7648C106.922 59.6359 107.941 58.7016 109.131 58.0365C110.321 57.3714 111.651 56.9936 113.013 56.9338C114.375 56.874 115.733 57.1336 116.977 57.6919C118.221 58.2502 119.317 59.0918 120.178 60.1493Z" fill="black"/>
<path d="M110.831 66.6909C111.036 66.8632 111.14 67.1309 111.329 67.3223C111.649 67.597 112.064 67.7343 112.485 67.7047C113.558 67.7211 114.736 67.2621 115.163 66.2757C115.298 65.9162 115.38 65.5387 115.406 65.1553L115.777 61.8981C115.848 61.2696 115.969 60.5564 116.501 60.2121C117.37 59.6657 118.524 60.5236 119.537 60.3023C119.903 60.2094 120.219 59.9809 120.422 59.6632C120.625 59.3455 120.7 58.9623 120.63 58.5917C120.513 58.0698 120.114 57.6572 119.909 57.1598C119.785 56.7777 119.685 56.3879 119.611 55.993C119.045 53.8726 116.556 52.6811 114.392 53.0364C113.19 53.2359 112.072 53.8096 110.867 53.9845C110.003 54.1104 109.121 54.0283 108.249 54.1211C107.439 54.2047 106.652 54.4374 105.926 54.8072C105.736 54.8913 105.568 55.0185 105.434 55.1787C105.311 55.3951 105.228 55.6321 105.189 55.8783C104.896 56.9713 103.956 57.7774 103.276 58.6983C102.498 59.7577 102.047 61.0223 101.981 62.3353C101.954 62.6706 101.985 63.0081 102.074 63.3326C102.131 63.524 102.221 63.7098 102.265 63.9066C102.399 64.5049 102.093 65.1034 101.942 65.6991C101.756 66.4592 101.823 67.2596 102.134 67.9781C103.183 70.3909 106.64 71.197 107.358 73.73C107.997 74.036 108.686 74.2213 109.391 74.2766C110.096 74.2902 110.856 73.987 111.184 73.3611C112.045 71.7217 109.99 70.4483 109.411 69.1476C109.047 68.347 109.454 65.5434 110.831 66.6909Z" fill="#353045"/>
<path opacity="0.1" d="M179.941 71.7762C179.505 73.0247 179.319 74.347 179.395 75.6674C178.974 76.0255 178.515 74.9543 178.029 75.2302C176.695 76.0008 175.154 77.8344 173.503 77.8344C172.072 77.8353 170.661 77.4972 169.386 76.8479C168.988 75.3136 168.439 73.8225 167.746 72.3966C167.746 72.3966 181.805 66.4178 179.941 71.7762Z" fill="black"/>
<path d="M182.581 68.2814C182.581 70.0789 182.048 71.8361 181.05 73.3308C180.051 74.8253 178.632 75.9902 176.971 76.6782C175.31 77.3659 173.483 77.5459 171.72 77.1953C169.957 76.8446 168.337 75.9789 167.066 74.708C165.795 73.4368 164.93 71.8174 164.579 70.0546C164.228 68.2915 164.408 66.464 165.096 64.8034C165.784 63.1427 166.949 61.7232 168.444 60.7246C169.938 59.7259 171.695 59.1929 173.493 59.1929C174.687 59.1925 175.868 59.4274 176.971 59.884C178.074 60.3406 179.076 61.01 179.92 61.854C180.764 62.6982 181.434 63.7 181.89 64.8029C182.347 65.9057 182.582 67.0878 182.581 68.2814Z" fill="#D28690"/>
<path d="M182.193 83.193C182.193 83.193 180.482 85.0566 180.25 85.2096C180.018 85.3626 175.058 106.25 174.971 106.494C174.883 106.737 169.066 125.597 169.066 125.597L159.745 130.179L160.524 107.111L167.355 88.087C167.355 88.087 169.61 85.5239 170.306 84.5921C171.003 83.6602 179.704 78.0668 179.704 78.0668L181.19 81.13L182.193 83.193Z" fill="#F0F3F7"/>
<path opacity="0.1" d="M180.961 81.5971L170.243 89.2702L170.071 85.0566C170.771 84.1247 179.468 78.5339 179.468 78.5339L180.961 81.5971Z" fill="black"/>
<path d="M181.193 81.13L170.476 88.803L170.31 84.5921C171.009 83.6575 179.707 78.0668 179.707 78.0668L181.193 81.13Z" fill="#F0F3F7"/>
<path d="M169.951 82.7175L170.309 84.5921L167.912 87.0268L169.825 82.7449C169.825 82.7449 165.726 85.6004 164.497 86.3573C163.267 87.1141 162.038 89.6773 161.991 90.377C161.945 91.0764 160.01 101.619 160.01 101.619C160.01 101.619 158.553 105.521 158.963 106.628C159.373 107.734 156.75 142.626 156.75 142.626C157.101 141.949 157.596 141.357 158.202 140.892C158.807 140.428 159.508 140.103 160.253 139.94L159.319 119.32C159.319 119.32 160.455 105.603 160.513 105.428C160.57 105.253 163.163 97.3011 163.163 97.3011L169.951 82.7175Z" fill="#585B8A"/>
<path opacity="0.1" d="M170.544 84.8243L170.358 88.65C170.358 88.65 167.765 96.834 166.893 98.1728C166.022 99.5119 163.368 107.494 163.368 107.494L161.874 121.359L159.31 122.525L158.048 120.2L160.147 106.811C160.147 106.811 164.106 95.5113 164.691 94.3445L167.612 88.1909L170.544 84.8243Z" fill="black"/>
<path d="M170.309 84.592L170.126 88.4177C170.126 88.4177 167.533 96.6017 166.658 97.9407C165.784 99.2796 163.136 107.261 163.136 107.261L161.649 121.124L159.086 122.288L157.805 119.96L159.903 106.57C159.903 106.57 163.863 95.2683 164.445 94.1041L167.388 87.9586L170.309 84.592Z" fill="#663D5C"/>
<path d="M140.098 113.792L145.106 117.26C145.106 117.26 148.64 115.279 146.582 113.997C144.524 112.716 142.699 112.522 142.038 112.522C141.377 112.522 140.098 113.792 140.098 113.792Z" fill="#D28690"/>
<path d="M143.839 107.382C143.727 107.451 143.635 107.548 143.571 107.664C143.508 107.779 143.475 107.909 143.476 108.04C143.476 109.103 143.596 111.918 144.487 110.647C145.58 109.092 145.38 107.696 147.05 108.704C148.087 109.35 148.996 110.185 149.728 111.164L149.263 107.824C149.263 107.824 145.831 106.13 143.839 107.382Z" fill="#D28690"/>
<path opacity="0.1" d="M182.677 148.16C182.426 148.553 182.204 149.414 182.021 150.523C171.807 153.587 164.333 147.11 164.333 147.11C163.429 144.046 162.69 140.936 162.12 137.792C161.937 136.716 161.978 134.628 162.147 132.081L180.409 128.879C180.409 128.879 183.844 146.354 182.677 148.16Z" fill="black"/>
<path d="M193.161 96.025C192.697 97.5416 192.872 100.627 192.872 100.627L188.677 120.432C188.677 120.432 186.639 135.694 186.289 137.732C185.939 139.771 185.357 148.742 185.357 148.742C173.473 154.568 164.317 146.646 164.317 146.646C163.412 143.581 162.674 140.469 162.103 137.325C161.518 133.866 163.24 120.006 164.054 113.85C164.297 112.027 164.461 110.879 164.461 110.879L167.519 99.5199C167.519 99.5199 171.276 89.9369 172.675 87.1415C174.074 84.346 179.693 78.0666 179.693 78.0666C180.39 77.6239 181.504 79.1869 182.332 80.6107C182.958 81.6873 183.425 82.6875 183.425 82.6875C183.425 82.6875 190.416 85.715 191.461 87.3328C192.508 88.9505 192.337 92.2841 192.454 92.459C192.571 92.6339 193.629 94.5113 193.161 96.025Z" fill="#585B8A"/>
<path opacity="0.1" d="M176.679 88.9779C176.679 88.9779 177.204 92.0656 175.859 92.9973C174.561 93.8992 164.899 112.899 164.298 114.085C164.541 112.259 164.705 111.112 164.705 111.112L167.763 99.7551C167.763 99.7551 171.523 90.1719 172.919 87.3737C174.316 84.5756 179.939 78.299 179.939 78.299C180.636 77.8562 181.748 79.4192 182.576 80.843C181.327 83.4362 178.723 88.3385 176.679 88.9779Z" fill="black"/>
<path d="M176.446 88.7454C176.446 88.7454 176.968 91.8334 175.627 92.765C174.285 93.6969 164.669 112.664 164.06 113.85C164.303 112.027 164.467 110.879 164.467 110.879L167.524 99.5199C167.524 99.5199 171.282 89.9369 172.681 87.1415C174.08 84.346 179.698 78.0666 179.698 78.0666C180.395 77.6239 181.51 79.1869 182.338 80.6107C181.094 83.2011 178.487 88.106 176.446 88.7454Z" fill="#585B8A"/>
<path d="M190.31 116.648L187.022 133.751V133.754L186.708 135.39V135.393L186 139.074L182.981 138.434L181.574 138.137L162.098 134.01L160.667 133.707L157.398 133.016L158.038 128.769L158.303 127.004L160.661 111.347L190.31 116.648Z" fill="#F9A826"/>
<path d="M172.135 130.628C172.135 130.628 164.388 133.423 166.077 136.743C167.766 140.063 178.6 134.18 178.6 134.18L172.135 130.628Z" fill="#D28690"/>
<path opacity="0.1" d="M177.668 154.45C177.668 154.682 177.96 157.655 179.125 158.702C180.289 159.749 177.668 154.45 177.668 154.45Z" fill="black"/>
<path opacity="0.1" d="M169.864 164.992C169.864 164.992 171.261 168.837 176.794 170.411C182.327 171.985 169.864 164.992 169.864 164.992Z" fill="black"/>
<path opacity="0.1" d="M182.581 68.2813C182.581 69.879 182.161 71.4486 181.361 72.8319C180.561 74.2149 179.411 75.3626 178.026 76.1594C177.504 75.8673 177.041 75.4809 176.659 75.02C176.263 74.539 175.955 73.8832 176.192 73.3092C176.384 72.8475 176.889 72.5551 177.012 72.0769C177.07 71.7845 177.055 71.4822 176.968 71.1969C176.867 70.7462 176.771 70.2953 176.673 69.8471C176.588 69.4645 176.438 69.0137 176.058 68.9207C175.678 68.8279 175.361 69.1449 175.064 69.3798C174.334 69.9564 172.935 70.3471 172.058 69.8745C171.181 69.4017 171.427 67.8196 171.285 66.9643C171.283 66.89 171.265 66.817 171.232 66.7504C171.199 66.6837 171.151 66.6253 171.093 66.579C170.966 66.5366 170.829 66.5271 170.697 66.5517C170.224 66.5517 169.845 66.1281 169.708 65.6745C169.611 65.2115 169.558 64.7402 169.549 64.2671C169.497 63.7945 169.325 63.2945 168.921 63.0513C168.598 62.9007 168.239 62.8422 167.885 62.8819L166.172 62.9009C167.308 61.3643 168.901 60.2251 170.722 59.6453C172.543 59.0654 174.501 59.0747 176.317 59.6715C178.132 60.2683 179.714 61.4222 180.836 62.9694C181.958 64.5166 182.564 66.3783 182.567 68.2896L182.581 68.2813Z" fill="black"/>
<path d="M175.307 69.3798C175.605 69.1449 175.933 68.8334 176.302 68.9234C176.671 69.0135 176.829 69.47 176.914 69.8471L177.209 71.1943C177.296 71.4801 177.312 71.7832 177.255 72.0768C177.116 72.5577 176.613 72.8475 176.419 73.3092C176.182 73.883 176.493 74.5388 176.887 75.0171C177.604 75.882 178.597 76.4752 179.698 76.6977C179.986 76.7668 180.285 76.7732 180.576 76.7168C181.226 76.5664 181.669 75.9681 182.018 75.4079C183.825 72.5934 185.379 69.5083 185.696 66.18C185.783 65.5011 185.752 64.8122 185.604 64.1441C185.455 63.6249 185.246 63.1251 184.98 62.6549C184.515 61.6947 183.924 60.8005 183.223 59.9962C181.98 58.6571 180.264 57.8347 178.501 57.3483C176.519 56.7983 174.449 56.6358 172.405 56.8702C171.859 56.933 171.334 57.0232 170.796 57.0586C170.12 57.09 169.443 57.079 168.768 57.0258L164.746 56.7854C164.516 57.2526 164.746 57.8073 165.019 58.2445C165.292 58.6819 165.631 59.1354 165.609 59.6545C165.587 60.1737 165.218 60.5837 164.934 61.0209C164.65 61.4581 164.434 62.0237 164.718 62.45C165.003 62.8762 165.582 62.9035 166.085 62.8981L168.112 62.8762C168.465 62.84 168.822 62.9015 169.142 63.0539C169.547 63.2971 169.719 63.8 169.771 64.27C169.782 64.7428 169.835 65.2135 169.929 65.6771C170.069 66.1307 170.446 66.5598 170.919 66.5543C171.051 66.5279 171.188 66.5383 171.315 66.5843C171.373 66.6302 171.42 66.6881 171.453 66.7543C171.486 66.8203 171.504 66.893 171.506 66.9669C171.648 67.8222 171.386 69.4017 172.279 69.8771C173.173 70.3526 174.577 69.9564 175.307 69.3798Z" fill="#663D5C"/>
<path opacity="0.1" d="M186.857 87.3302C185.852 87.2235 184.841 87.4616 183.99 88.0052C183.138 88.5489 182.497 89.3661 182.171 90.3223C181.078 93.4348 179.255 99.0501 179.711 101.269C180.354 104.414 181.11 109.658 181.11 109.658C181.11 109.658 184.431 111.571 182.75 113.5C181.069 115.429 180.594 118.162 180.594 118.162C180.594 118.162 178.438 119.093 177.973 121.075C177.509 123.056 174.361 125.791 174.361 125.791L169.645 130.51C169.645 130.51 177.449 138.435 179.023 138.839L183.857 133.188L189.564 125.616L194.517 120.424C194.517 120.424 195.681 117.692 195.098 112.5C194.517 107.308 192.243 102.365 192.243 102.365L192.417 100.616C192.417 100.616 192.953 88.087 186.857 87.3302Z" fill="black"/>
<path d="M187.322 87.33C186.318 87.2247 185.308 87.4634 184.458 88.007C183.607 88.5505 182.967 89.367 182.641 90.3222C181.548 93.4345 179.726 99.05 180.182 101.269C180.821 104.414 181.578 109.658 181.578 109.658C181.578 109.658 184.898 111.571 183.218 113.5C181.537 115.429 181.064 118.161 181.064 118.161C181.064 118.161 178.909 119.093 178.441 121.074C177.974 123.056 174.832 125.791 174.832 125.791L170.112 130.51C170.112 130.51 177.916 138.434 179.49 138.839L184.324 133.188L190.019 125.616L194.97 120.424C194.97 120.424 196.138 117.691 195.553 112.5C194.968 107.308 192.7 102.365 192.7 102.365L192.874 100.616C192.874 100.616 193.419 88.087 187.322 87.33Z" fill="#585B8A"/>
<path opacity="0.1" d="M182.445 105.056C182.445 105.056 187.397 111.112 189.495 109.773C191.593 108.434 182.445 105.056 182.445 105.056Z" fill="black"/>
<path opacity="0.1" d="M184.308 100.395C184.832 100.569 189.144 106.57 191.357 105.86C193.572 105.149 184.308 100.395 184.308 100.395Z" fill="black"/>
<path opacity="0.1" d="M185.532 110.702C185.532 110.702 185.825 114.139 189.378 113.672C192.929 113.205 185.532 110.702 185.532 110.702Z" fill="black"/>
<path opacity="0.1" d="M169.833 82.9772L167.912 87.2591L170.311 84.8243L169.833 82.9772Z" fill="black"/>
<path d="M169.833 82.7449L167.912 87.0268L170.311 84.592L169.833 82.7449Z" fill="#F0F3F7"/>
<path opacity="0.3" d="M162.098 134.011L160.666 133.707L158.037 128.769L158.302 127.004L162.098 134.011Z" fill="black"/>
<path opacity="0.3" d="M187.022 133.754L186.708 135.39V135.393L182.981 138.435L181.573 138.137L187.022 133.754Z" fill="black"/>
<path opacity="0.1" d="M128.296 114.645C127.575 114.765 126.875 114.874 126.236 114.956C122.683 115.424 114.234 111.229 114.234 111.229C114.234 111.229 103.924 102.608 100.954 94.4538C97.9836 86.2998 104.506 85.0757 104.506 85.0757C106.966 83.6766 112.313 87.5787 113.07 88.2208C113.827 88.863 114.469 90.4915 114.409 91.541C114.349 92.5902 116.158 93.9291 116.158 93.9291C116.158 93.9291 119.246 99.2877 120.003 99.8698C120.76 100.452 120.935 100.976 121.167 101.968C121.399 102.96 123.438 103.775 124.312 103.715C125.186 103.654 126.225 104.007 126.225 104.471C126.225 104.846 127.08 105.032 127.782 105.092C127.99 108.078 128.195 111.991 128.296 114.645Z" fill="black"/>
<path opacity="0.1" d="M128.264 113.792C127.717 113.88 127.193 113.959 126.701 114.024C123.148 114.492 114.702 110.297 114.702 110.297C114.702 110.297 104.392 101.676 101.422 93.522C98.4514 85.3681 104.974 84.1439 104.974 84.1439C107.433 82.7448 112.778 86.6469 113.535 87.289C114.292 87.9313 114.934 89.5598 114.877 90.6092C114.819 91.6584 116.623 92.9973 116.623 92.9973C116.623 92.9973 119.711 98.356 120.468 98.9381C121.225 99.5199 121.4 100.045 121.635 101.037C121.87 102.028 123.905 102.84 124.78 102.783C125.654 102.725 126.693 103.075 126.693 103.54C126.693 103.813 127.179 103.996 127.72 104.086C127.742 104.403 127.761 104.739 127.786 105.089C127.966 107.775 128.152 111.202 128.264 113.792Z" fill="black"/>
<path opacity="0.1" d="M141.776 107.926L141.555 113.161H141.317L140.825 112.888L140.885 108.376C141.172 108.207 141.47 108.057 141.776 107.926Z" fill="black"/>
<path d="M104.506 84.6084C104.506 84.6084 97.9836 85.8326 100.954 93.9866C103.924 102.141 114.234 110.765 114.234 110.765C114.234 110.765 122.681 114.956 126.236 114.492C129.791 114.027 135.204 112.803 135.904 112.978C136.603 113.153 141.322 113.153 141.322 113.153L141.555 107.688L136.089 107.395L133.294 106.813C133.294 106.813 132.302 105.994 131.72 106.114C131.138 106.234 129.916 105.414 129.916 105.414C129.916 105.414 128.982 104.657 128.277 104.657C127.572 104.657 126.239 104.482 126.239 104.018C126.239 103.553 125.189 103.198 124.326 103.261C123.462 103.324 121.399 102.504 121.159 101.501C120.918 100.498 120.752 99.9873 119.995 99.4052C119.238 98.8233 116.15 93.462 116.15 93.462C116.15 93.462 114.344 92.123 114.401 91.0764C114.458 90.03 113.819 88.3958 113.062 87.7537C112.305 87.1115 106.949 83.2122 104.506 84.6084Z" fill="#DCE6F2"/>
<path opacity="0.1" d="M121.284 103.365C121.284 103.365 118.778 105.871 119.418 106.335L121.284 103.365Z" fill="black"/>
<path opacity="0.1" d="M123.962 105.346C123.962 105.346 120.699 107.852 121.574 108.027C122.448 108.201 123.962 105.346 123.962 105.346Z" fill="black"/>
<path opacity="0.1" d="M118.426 109.062C118.893 109.297 125.823 113.434 128.446 113.374L118.426 109.062Z" fill="black"/>
<path opacity="0.1" d="M118.896 81.4058C118.896 81.4058 117.672 85.4255 117.204 85.4255C116.838 85.4255 110.69 80.4468 108.124 78.3536L108.236 78.2607C108.236 78.2607 108.468 76.4545 109.4 75.5281C110.332 74.6017 118.896 81.4058 118.896 81.4058Z" fill="black"/>
<path d="M118.66 80.9385C118.66 80.9385 117.439 84.9581 116.972 84.9581C116.603 84.9581 110.455 79.9795 107.889 77.8863L108.001 77.7934C108.001 77.7934 108.236 75.9872 109.168 75.0608C110.099 74.1346 118.66 80.9385 118.66 80.9385Z" fill="#DCE6F2"/>
<g opacity="0.15">
<path opacity="0.15" d="M102.164 67.9482C102.984 69.8199 105.241 70.7271 106.55 72.2192C105.771 70.3856 103.495 69.4865 102.164 67.9482Z" fill="black"/>
<path opacity="0.15" d="M110.518 72.2601C110.192 72.8858 109.424 73.1892 108.725 73.1756C108.103 73.1309 107.494 72.9754 106.927 72.7165C107.133 73.0197 107.289 73.3535 107.391 73.7056C108.029 74.0122 108.719 74.1975 109.424 74.2522C110.132 74.2686 110.892 73.9652 111.217 73.3367C111.739 72.3393 111.195 71.4867 110.558 70.6807C110.677 70.9284 110.735 71.2007 110.728 71.4754C110.721 71.7499 110.649 72.0188 110.518 72.2601Z" fill="black"/>
<path opacity="0.15" d="M120.658 58.5644C120.54 58.0397 120.142 57.6272 119.937 57.1325C119.811 56.7499 119.712 56.3591 119.639 55.9631C119.483 55.4029 119.196 54.8884 118.8 54.4629C118.855 54.5974 118.901 54.7352 118.939 54.8755C119.016 55.2733 119.118 55.6657 119.245 56.0504C119.45 56.5452 119.849 56.9576 119.967 57.4823C120.036 57.8529 119.961 58.2361 119.758 58.5538C119.555 58.8716 119.239 59.1001 118.874 59.1929C117.862 59.4142 116.709 58.5399 115.84 59.1027C115.308 59.4444 115.185 60.1574 115.114 60.7859C114.992 61.8791 114.868 62.9657 114.742 64.0459C114.717 64.4291 114.636 64.8067 114.502 65.1663C114.072 66.1501 112.895 66.6118 111.821 66.5953C111.401 66.6235 110.987 66.4861 110.668 66.2129C110.512 65.9929 110.345 65.7812 110.168 65.5789C108.801 64.4312 108.386 67.2376 108.747 68.0382C108.927 68.3984 109.151 68.7352 109.413 69.041C109.113 68.1393 109.534 65.5435 110.867 66.6555C111.045 66.8572 111.211 67.0689 111.365 67.2895C111.685 67.5625 112.1 67.6997 112.52 67.6721C113.594 67.6884 114.772 67.2267 115.201 66.2429C115.336 65.8825 115.417 65.504 115.442 65.1199C115.565 64.0269 115.689 62.941 115.813 61.8627C115.884 61.2342 116.007 60.521 116.537 60.1793C117.409 59.6165 118.562 60.4908 119.573 60.2669C119.936 60.1729 120.249 59.945 120.45 59.6291C120.652 59.3133 120.726 58.9327 120.658 58.5644Z" fill="black"/>
</g>
<path opacity="0.1" d="M181.157 76.0201C180.867 76.0742 180.568 76.0668 180.28 75.9982C179.18 75.7759 178.189 75.1838 177.471 74.3204C177.075 73.8395 176.763 73.1836 177.004 72.6099C177.195 72.148 177.698 71.8584 177.824 71.3774C177.881 71.0838 177.865 70.7808 177.777 70.4948L177.482 69.1476C177.397 68.7652 177.25 68.3142 176.87 68.224C176.49 68.1338 176.173 68.4453 175.875 68.6804C175.146 69.2569 173.744 69.6504 172.869 69.175C171.995 68.6995 172.238 67.1201 172.096 66.2648C172.094 66.191 172.076 66.1186 172.042 66.0525C172.009 65.9865 171.963 65.9284 171.905 65.8821C171.777 65.8376 171.639 65.8272 171.506 65.8521C171.033 65.8521 170.656 65.4285 170.517 64.975C170.422 64.5116 170.37 64.0406 170.361 63.5678C170.306 63.0978 170.137 62.595 169.73 62.3518C169.409 62.2006 169.053 62.1391 168.7 62.174L166.672 62.1959C166.172 62.1959 165.579 62.1633 165.306 61.7478C165.032 61.3325 165.235 60.7423 165.522 60.3187C165.809 59.8952 166.172 59.4744 166.197 58.9523C166.221 58.4304 165.882 57.9797 165.606 57.5423C165.448 57.3033 165.332 57.0391 165.262 56.7608L164.68 56.7253C164.453 57.1899 164.68 57.7446 164.953 58.1846C165.226 58.6244 165.568 59.0753 165.543 59.5918C165.519 60.1084 165.155 60.5236 164.869 60.9582C164.582 61.3925 164.371 61.961 164.655 62.3872C164.94 62.8135 165.516 62.8436 166.022 62.8382L168.049 62.8135C168.403 62.7793 168.759 62.8416 169.079 62.9938C169.487 63.237 169.659 63.7399 169.711 64.2099C169.719 64.6829 169.772 65.154 169.869 65.6172C170.006 66.068 170.386 66.4997 170.858 66.4916C170.991 66.4682 171.127 66.4786 171.255 66.5216C171.312 66.5682 171.359 66.6269 171.392 66.6933C171.425 66.7599 171.444 66.8327 171.446 66.9068C171.588 67.7595 171.326 69.3416 172.219 69.817C173.113 70.2925 174.506 69.8991 175.225 69.3225C175.523 69.0874 175.854 68.7759 176.222 68.8635C176.591 68.9508 176.75 69.4099 176.832 69.787L177.13 71.1368C177.216 71.4231 177.231 71.7263 177.173 72.0195C177.037 72.4978 176.531 72.7901 176.34 73.2493C176.102 73.8231 176.411 74.4816 176.807 74.9599C177.529 75.827 178.528 76.4193 179.636 76.6376C179.923 76.7063 180.222 76.7136 180.512 76.6595C180.982 76.5163 181.386 76.2101 181.649 75.7959C181.5 75.8995 181.333 75.9753 181.157 76.0201Z" fill="black"/>
<path opacity="0.1" d="M55.7952 196.702C59.4427 196.702 62.3997 196.247 62.3997 195.687C62.3997 195.126 59.4427 194.674 55.7952 194.674C52.1474 194.674 49.1904 195.126 49.1904 195.687C49.1904 196.247 52.1474 196.702 55.7952 196.702Z" fill="#F9A826"/>
<path opacity="0.1" d="M286.403 170.343C290.05 170.343 293.008 169.889 293.008 169.329C293.008 168.769 290.05 168.315 286.403 168.315C282.755 168.315 279.799 168.769 279.799 169.329C279.799 169.889 282.755 170.343 286.403 170.343Z" fill="#F9A826"/>
<path opacity="0.1" d="M219.068 213.115C229.632 213.115 238.196 211.802 238.196 210.181C238.196 208.56 229.632 207.245 219.068 207.245C208.504 207.245 199.941 208.56 199.941 210.181C199.941 211.802 208.504 213.115 219.068 213.115Z" fill="#F9A826"/>
<path opacity="0.1" d="M273.445 200.038C281.685 200.038 288.364 199.013 288.364 197.747C288.364 196.483 281.685 195.458 273.445 195.458C265.204 195.458 258.524 196.483 258.524 197.747C258.524 199.013 265.204 200.038 273.445 200.038Z" fill="#F9A826"/>
<path opacity="0.1" d="M270.989 224.447C284.961 224.447 296.289 222.709 296.289 220.564C296.289 218.421 284.961 216.681 270.989 216.681C257.016 216.681 245.688 218.421 245.688 220.564C245.688 222.709 257.016 224.447 270.989 224.447Z" fill="#F9A826"/>
<path opacity="0.1" d="M27.5273 226.915C38.0915 226.915 46.6554 225.602 46.6554 223.981C46.6554 222.36 38.0915 221.045 27.5273 221.045C16.9633 221.045 8.39941 222.36 8.39941 223.981C8.39941 225.602 16.9633 226.915 27.5273 226.915Z" fill="#F9A826"/>
<path d="M56.0966 163.399C56.0966 163.399 56.8453 164.378 55.7522 165.859C54.6592 167.34 53.7575 168.591 54.1128 169.504C54.1128 169.504 55.7522 166.771 57.1187 166.722C58.4849 166.673 57.5749 165.05 56.0966 163.399Z" fill="#F9A826"/>
<path opacity="0.1" d="M56.096 163.399C56.1628 163.493 56.2145 163.596 56.249 163.705C57.5607 165.247 58.2575 166.681 56.9977 166.711C55.8254 166.744 54.4183 168.843 54.082 169.373C54.0924 169.414 54.105 169.454 54.1203 169.493C54.1203 169.493 55.76 166.76 57.1262 166.711C58.4924 166.662 57.5743 165.05 56.096 163.399Z" fill="black"/>
<path d="M57.4894 164.645C57.4894 164.989 57.4484 165.268 57.402 165.268C57.3554 165.268 57.3145 164.995 57.3145 164.645C57.3145 164.295 57.3637 164.465 57.4101 164.465C57.4565 164.465 57.4894 164.301 57.4894 164.645Z" fill="#FFD037"/>
<path d="M57.9648 165.058C57.6642 165.222 57.3992 165.331 57.3775 165.279C57.3556 165.227 57.5795 165.072 57.8829 164.905C58.1861 164.738 58.0659 164.861 58.0878 164.905C58.1097 164.949 58.2682 164.891 57.9648 165.058Z" fill="#FFD037"/>
<path d="M52.1452 163.399C52.1452 163.399 51.3964 164.378 52.4894 165.859C53.5826 167.34 54.4869 168.591 54.129 169.504C54.129 169.504 52.4894 166.771 51.1369 166.722C49.7843 166.673 50.6586 165.05 52.1452 163.399Z" fill="#F9A826"/>
<path opacity="0.1" d="M52.1452 163.399C52.0799 163.494 52.0284 163.597 51.9922 163.705C50.6807 165.247 49.9839 166.681 51.2435 166.711C52.4158 166.744 53.8231 168.843 54.162 169.373C54.1507 169.414 54.1371 169.454 54.1209 169.493C54.1209 169.493 52.4814 166.76 51.1288 166.711C49.7761 166.662 50.6588 165.05 52.1452 163.399Z" fill="black"/>
<path d="M50.7539 164.645C50.7539 164.989 50.7922 165.268 50.8386 165.268C50.885 165.268 50.9262 164.995 50.9262 164.645C50.9262 164.295 50.8769 164.465 50.8305 164.465C50.7839 164.465 50.7539 164.301 50.7539 164.645Z" fill="#FFD037"/>
<path d="M50.2756 165.058C50.5788 165.222 50.8413 165.331 50.8658 165.279C50.8904 165.227 50.6609 165.072 50.3575 164.905C50.0543 164.738 50.1745 164.861 50.1526 164.905C50.1307 164.949 49.9722 164.891 50.2756 165.058Z" fill="#FFD037"/>
<path opacity="0.1" d="M54.1201 176.985C58.4408 176.985 61.9435 176.448 61.9435 175.786C61.9435 175.123 58.4408 174.586 54.1201 174.586C49.7993 174.586 46.2969 175.123 46.2969 175.786C46.2969 176.448 49.7993 176.985 54.1201 176.985Z" fill="#F9A826"/>
<path d="M58.1479 168.181L58.1098 168.487L58.0577 168.919L58.0361 169.099L57.984 169.531L57.9594 169.711L57.9076 170.143L57.3091 175.062C57.2572 175.499 56.5413 175.84 55.6696 175.84H52.5708C51.7074 175.84 50.9913 175.499 50.9313 175.062L50.3328 170.143L50.281 169.711L50.2591 169.531L50.2044 169.099L50.1827 168.919L50.1306 168.487L50.0925 168.181C50.0623 167.933 50.4504 167.725 50.9395 167.725H57.3036C57.79 167.725 58.1781 167.933 58.1479 168.181Z" fill="#65617D"/>
<path d="M58.1099 168.487L58.058 168.919H50.1827L50.1309 168.487H58.1099Z" fill="#9D9CB5"/>
<path d="M58.0356 169.099L57.9837 169.531H50.2586L50.2041 169.099H58.0356Z" fill="#9D9CB5"/>
<path d="M57.9626 169.712L57.9079 170.143H50.3331L50.2812 169.712H57.9626Z" fill="#9D9CB5"/>
<path d="M281.196 159.615C281.196 159.615 280.262 163.965 284.417 164.478L284.676 163.995C284.676 163.995 281.453 160.965 281.196 159.615Z" fill="#F9A826"/>
<path d="M285.998 163.959L285.03 164.164L284.934 164.186C284.934 164.186 282.355 162.093 282.387 157.42C282.732 158.109 283.146 158.762 283.621 159.369C284.642 160.721 285.804 162.525 285.998 163.959Z" fill="#F9A826"/>
<path d="M286.323 164.408C286.248 164.457 286.161 164.489 286.07 164.501C285.982 164.512 285.889 164.504 285.804 164.476C283.323 163.897 284.165 155.811 284.165 155.811C284.301 155.874 284.438 156.904 285.023 158.232C286.02 160.563 287.121 163.823 286.323 164.408Z" fill="#F9A826"/>
<path d="M291.827 159.615C291.827 159.615 291.987 163.965 287.831 164.478L287.572 163.987C287.572 163.987 291.57 160.965 291.827 159.615Z" fill="#F9A826"/>
<path d="M290.634 157.428C290.668 162.101 287.317 164.194 287.317 164.194L287.219 164.172L286.255 163.968C286.445 162.533 287.621 160.729 288.628 159.377C289.208 158.641 289.881 157.986 290.634 157.428Z" fill="#F9A826"/>
<path d="M287.206 163.987C287.059 164.168 286.872 164.313 286.659 164.41C286.593 164.44 286.525 164.463 286.453 164.479C285.844 164.621 285.634 164.181 285.666 163.432C285.725 162.101 286.561 159.792 287.306 158.063C287.666 157.214 288.196 156.448 288.864 155.814C288.864 155.814 288.827 162.107 287.206 163.987Z" fill="#F9A826"/>
<path d="M286.512 152.974C286.512 152.974 283.74 162.812 286.127 164.282C288.512 165.752 287.123 153.843 286.512 152.974Z" fill="#F9A826"/>
<path opacity="0.1" d="M281.196 159.615C281.196 159.615 280.262 163.965 284.417 164.478L284.676 163.995C284.676 163.995 281.453 160.965 281.196 159.615Z" fill="black"/>
<path opacity="0.1" d="M285.998 163.959L285.03 164.164L284.934 164.186C284.934 164.186 282.355 162.093 282.387 157.42C282.732 158.109 283.146 158.762 283.621 159.369C284.642 160.721 285.804 162.525 285.998 163.959Z" fill="black"/>
<path opacity="0.1" d="M286.323 164.408C286.248 164.457 286.161 164.489 286.07 164.501C285.982 164.512 285.889 164.504 285.804 164.476C283.323 163.897 284.165 155.811 284.165 155.811C284.301 155.874 284.438 156.904 285.023 158.232C286.02 160.563 287.121 163.823 286.323 164.408Z" fill="black"/>
<path opacity="0.1" d="M291.827 159.615C291.827 159.615 291.987 163.965 287.831 164.478L287.572 163.987C287.572 163.987 291.57 160.965 291.827 159.615Z" fill="black"/>
<path opacity="0.1" d="M290.634 157.428C290.668 162.101 287.317 164.194 287.317 164.194L287.219 164.172L286.255 163.968C286.445 162.533 287.621 160.729 288.628 159.377C289.208 158.641 289.881 157.986 290.634 157.428Z" fill="black"/>
<path opacity="0.1" d="M287.206 163.987C287.059 164.168 286.872 164.313 286.659 164.41C286.593 164.44 286.525 164.463 286.453 164.479C285.844 164.621 285.634 164.181 285.666 163.432C285.725 162.101 286.561 159.792 287.306 158.063C287.666 157.214 288.196 156.448 288.864 155.814C288.864 155.814 288.827 162.107 287.206 163.987Z" fill="black"/>
<path opacity="0.1" d="M286.512 152.974C286.512 152.974 283.74 162.812 286.127 164.282C288.512 165.752 287.123 153.843 286.512 152.974Z" fill="black"/>
<path d="M281.196 159.615C281.196 159.615 280.651 163.965 284.804 164.478L285.061 163.995C285.061 163.995 281.453 160.965 281.196 159.615Z" fill="#F9A826"/>
<path d="M286.383 163.959L285.415 164.164L285.319 164.186C285.319 164.186 282.355 162.093 282.379 157.428C282.379 157.428 283.139 158.248 283.996 159.377C285.026 160.721 286.189 162.525 286.383 163.959Z" fill="#F9A826"/>
<path opacity="0.1" d="M286.383 163.96L285.415 164.165C284.5 163.361 284.136 161.262 284.006 159.369C285.029 160.722 286.189 162.525 286.383 163.96Z" fill="black"/>
<path d="M286.711 164.408C286.634 164.457 286.547 164.489 286.457 164.501C286.368 164.513 286.275 164.504 286.189 164.476C283.707 163.897 284.16 155.811 284.16 155.811C284.298 155.874 284.834 156.904 285.404 158.232C286.408 160.563 287.506 163.823 286.711 164.408Z" fill="#F9A826"/>
<path d="M291.827 159.615C291.827 159.615 292.372 163.965 288.219 164.478L287.963 163.995C287.963 163.995 291.57 160.965 291.827 159.615Z" fill="#F9A826"/>
<path d="M290.634 157.428C290.668 162.101 287.702 164.194 287.702 164.194L287.608 164.172L286.64 163.968C286.83 162.533 288.006 160.729 289.017 159.377C289.876 158.248 290.634 157.428 290.634 157.428Z" fill="#F9A826"/>
<path opacity="0.1" d="M289.017 159.369C288.891 161.134 288.568 163.077 287.785 163.984C287.73 164.05 287.672 164.11 287.608 164.165L286.64 163.96C286.83 162.525 287.994 160.722 289.017 159.369Z" fill="black"/>
<path d="M287.591 163.987C287.444 164.169 287.257 164.314 287.044 164.41C286.98 164.44 286.912 164.462 286.842 164.479C286.231 164.621 286.023 164.181 286.051 163.432C286.112 162.101 286.948 159.792 287.691 158.063C288.238 156.819 288.733 155.877 288.865 155.814C288.865 155.811 289.212 162.107 287.591 163.987Z" fill="#F9A826"/>
<path opacity="0.1" d="M286.711 164.408C286.57 164.409 286.432 164.365 286.317 164.282C285.151 163.555 285.126 160.828 285.404 158.232C286.408 160.563 287.506 163.823 286.711 164.408Z" fill="black"/>
<path opacity="0.1" d="M287.59 163.987C287.456 164.279 287.275 164.432 287.043 164.41C286.924 164.396 286.811 164.353 286.713 164.285C286.409 164.076 286.177 163.778 286.051 163.432C286.111 162.101 286.947 159.792 287.69 158.063C287.958 160.459 288.049 163 287.59 163.987Z" fill="black"/>
<path d="M286.511 152.974C286.511 152.974 284.128 162.812 286.511 164.282C288.894 165.752 287.124 153.843 286.511 152.974Z" fill="#F9A826"/>
<path d="M291.085 163.801H281.164V165.443H282.677L282.715 165.637L283.323 168.826H289.09L289.698 165.637L289.732 165.443H291.085V163.801Z" fill="#4B4770"/>
<path opacity="0.1" d="M291.085 163.801H281.164V165.443H282.677L282.715 165.637L283.323 168.826H289.09L289.698 165.637L289.732 165.443H291.085V163.801Z" fill="black"/>
<path d="M290.25 164.766L290.084 165.637L289.476 168.826H283.708L283.103 165.637L282.935 164.766H290.25Z" fill="#4B4770"/>
<path opacity="0.1" d="M290.25 164.766L290.084 165.637H283.103L282.935 164.766H290.25Z" fill="black"/>
<path d="M291.471 163.801H281.55V165.443H291.471V163.801Z" fill="#4B4770"/>
<path d="M38.2246 191.902C37.9631 192.264 37.7533 192.658 37.6016 193.077C37.5633 193.179 37.525 193.296 37.4869 193.407C37.4174 193.375 37.3452 193.351 37.2708 193.332C36.9523 193.251 36.6229 193.224 36.2954 193.249C36.2954 193.121 36.3118 192.977 36.3146 192.849C36.3556 191.407 36.1861 189.402 34.8116 190.253C33.4946 191.072 34.4346 192.438 35.2844 193.313C35.3582 193.389 35.432 193.46 35.5029 193.528C34.7269 194.075 34.5793 195.368 34.4508 196.709C34.3225 198.051 33.1829 199.519 32.4261 200.351C32.3495 200.436 32.2812 200.513 32.2129 200.585C31.9069 200.34 31.5527 200.164 31.1737 200.066C30.7944 199.968 30.3989 199.953 30.0133 200.019C29.9831 199.9 29.9476 199.777 29.9122 199.649C29.3001 197.44 28.0293 193.611 26.4089 192.772L26.6222 192.498C27.3106 191.6 28.0867 190.26 26.9418 189.919C25.7969 189.577 25.6931 191.077 25.7559 192.204C25.7669 192.345 25.7778 192.479 25.7888 192.606C25.5597 192.615 25.3356 192.674 25.1295 192.774C24.9237 192.874 24.7406 193.015 24.5918 193.191L24.4142 192.979C23.4852 191.887 21.7827 190.145 21.2663 191.46C20.7854 192.685 22.2856 194.275 23.3403 195.196L23.4059 195.253C22.6982 198.124 25.7888 200.466 27.4527 201.491L27.6688 201.623C25.3733 204.328 23.9552 209.4 23.9552 209.4L30.3822 210.547C30.3822 210.547 34.645 206.87 34.0984 203.415H34.1422C38.4022 202.562 39.3695 198.021 38.7056 195.324L38.782 195.294C39.5582 194.977 40.2382 194.462 40.755 193.802C41.9463 192.149 39.4542 190.279 38.2246 191.902Z" fill="#F9A826"/>
<path opacity="0.1" d="M38.2246 191.902C37.9631 192.264 37.7533 192.658 37.6016 193.077C37.5633 193.179 37.525 193.296 37.4869 193.407C37.4174 193.375 37.3452 193.351 37.2708 193.332C36.9523 193.251 36.6229 193.224 36.2954 193.249C36.2954 193.121 36.3118 192.977 36.3146 192.849C36.3556 191.407 36.1861 189.402 34.8116 190.253C33.4946 191.072 34.4346 192.438 35.2844 193.313C35.3582 193.389 35.432 193.46 35.5029 193.528C34.7269 194.075 34.5793 195.368 34.4508 196.709C34.3225 198.051 33.1829 199.519 32.4261 200.351C32.3495 200.436 32.2812 200.513 32.2129 200.585C31.9069 200.34 31.5527 200.164 31.1737 200.066C30.7944 199.968 30.3989 199.953 30.0133 200.019C29.9831 199.9 29.9476 199.777 29.9122 199.649C29.3001 197.44 28.0293 193.611 26.4089 192.772L26.6222 192.498C27.3106 191.6 28.0867 190.26 26.9418 189.919C25.7969 189.577 25.6931 191.077 25.7559 192.204C25.7669 192.345 25.7778 192.479 25.7888 192.606C25.5597 192.615 25.3356 192.674 25.1295 192.774C24.9237 192.874 24.7406 193.015 24.5918 193.191L24.4142 192.979C23.4852 191.887 21.7827 190.145 21.2663 191.46C20.7854 192.685 22.2856 194.275 23.3403 195.196L23.4059 195.253C22.6982 198.124 25.7888 200.466 27.4527 201.491L27.6688 201.623C25.3733 204.328 23.9552 209.4 23.9552 209.4L30.3822 210.547C30.3822 210.547 34.645 206.87 34.0984 203.415H34.1422C38.4022 202.562 39.3695 198.021 38.7056 195.324L38.782 195.294C39.5582 194.977 40.2382 194.462 40.755 193.802C41.9463 192.149 39.4542 190.279 38.2246 191.902Z" fill="black"/>
<path d="M25.4308 193.772L24.6793 195.958C24.6793 195.958 24.2612 195.662 23.7338 195.198C22.6791 194.277 21.1789 192.687 21.6599 191.462C22.1763 190.149 23.8787 191.883 24.8078 192.981C25.1821 193.419 25.4308 193.772 25.4308 193.772Z" fill="#F9A826"/>
<path d="M27.0164 192.502C26.7881 192.802 26.5435 193.091 26.2839 193.364C26.2198 192.981 26.175 192.594 26.1501 192.206C26.0873 191.081 26.2075 189.585 27.336 189.921C28.4645 190.258 27.7049 191.602 27.0164 192.502Z" fill="#F9A826"/>
<path d="M36.7218 192.849C36.6999 193.572 36.6288 194.151 36.6288 194.151C36.2984 193.892 35.9852 193.613 35.6916 193.313C34.8418 192.43 33.9018 191.07 35.2188 190.253C36.5797 189.4 36.7492 191.408 36.7218 192.849Z" fill="#F9A826"/>
<path d="M41.1483 193.796C40.6316 194.457 39.9515 194.972 39.1755 195.289C38.96 195.381 38.7391 195.462 38.5142 195.528L37.6289 194.285C37.7217 193.874 37.8442 193.472 37.9949 193.077C38.1466 192.658 38.3565 192.262 38.618 191.902C39.8421 190.279 42.3399 192.149 41.1483 193.796Z" fill="#F9A826"/>
<path opacity="0.1" d="M24.8081 192.983C25.1825 193.419 25.4312 193.759 25.4312 193.759L24.6798 195.943C24.6798 195.943 24.2617 195.649 23.7344 195.185C23.8515 194.479 24.1427 193.817 24.5814 193.253C24.6551 193.162 24.7344 193.07 24.8081 192.983Z" fill="black"/>
<path opacity="0.1" d="M27.0166 192.502C26.7883 192.802 26.5438 193.091 26.2842 193.364C26.22 192.981 26.1755 192.594 26.1504 192.206C26.4627 192.213 26.7653 192.315 27.0166 192.502Z" fill="black"/>
<path d="M30.71 201.234L28.8409 202.055C28.8409 202.055 28.4338 201.859 27.8462 201.491C25.8815 200.283 21.933 197.242 24.5672 193.657C27.2013 190.072 29.423 196.502 30.3056 199.647C30.5706 200.604 30.71 201.234 30.71 201.234Z" fill="#F9A826"/>
<path opacity="0.1" d="M35.6777 193.313C35.9496 193.032 36.3179 192.866 36.7079 192.849C36.686 193.572 36.6149 194.151 36.6149 194.151C36.2845 193.893 35.9713 193.613 35.6777 193.313Z" fill="black"/>
<path opacity="0.1" d="M39.1814 195.289C38.9659 195.381 38.7451 195.462 38.52 195.528L37.6348 194.285C37.7278 193.876 37.85 193.472 38.001 193.077C38.5665 193.411 38.9874 194.242 39.1814 195.289Z" fill="black"/>
<path d="M34.5361 203.409C34.435 203.432 34.3286 203.451 34.222 203.466C27.9561 204.417 32.1561 201.038 32.1561 201.038C32.1561 201.038 32.4294 200.764 32.8201 200.351C33.5771 199.519 34.7139 198.058 34.845 196.709C35.0418 194.679 35.2686 192.774 37.665 193.332C40.0177 193.883 40.4686 202.221 34.5361 203.409Z" fill="#F9A826"/>
<path d="M34.4186 219.009H22.4473V222.158H34.4186V219.009Z" fill="#D4DFEC"/>
<path d="M36.1862 208.779H20.5449V219.764H36.1862V208.779Z" fill="#D4DFEC"/>
<path opacity="0.1" d="M34.4186 219.009H22.4473V222.158H34.4186V219.009Z" fill="black"/>
<path opacity="0.1" d="M36.1862 208.779H20.5449V219.764H36.1862V208.779Z" fill="black"/>
<path d="M35.2057 219.009H23.2344V222.158H35.2057V219.009Z" fill="#D4DFEC"/>
<path opacity="0.1" d="M30.3059 199.649C30.5791 200.589 30.7105 201.234 30.7105 201.234L28.8414 202.055C28.8414 202.055 28.4342 201.857 27.8467 201.491C28.5789 200.564 29.4042 199.866 30.3059 199.649Z" fill="black"/>
<path opacity="0.1" d="M34.5361 203.409C34.435 203.432 34.3286 203.451 34.222 203.466C27.9561 204.417 32.1561 201.038 32.1561 201.038C32.1561 201.038 32.4294 200.764 32.8201 200.351C33.9897 201.289 34.4733 202.343 34.5361 203.409Z" fill="black"/>
<path d="M24.3486 209.402C24.3486 209.402 27.8573 196.832 32.7786 200.709C37.7 204.587 30.7756 210.547 30.7756 210.547L24.3486 209.402Z" fill="#F9A826"/>
<path opacity="0.1" d="M26.12 196.021C26.3373 196.021 26.5135 195.845 26.5135 195.626C26.5135 195.409 26.3373 195.234 26.12 195.234C25.9026 195.234 25.7266 195.409 25.7266 195.626C25.7266 195.845 25.9026 196.021 26.12 196.021Z" fill="black"/>
<path opacity="0.1" d="M26.0869 197.857C26.3043 197.857 26.4803 197.681 26.4803 197.464C26.4803 197.245 26.3043 197.07 26.0869 197.07C25.8696 197.07 25.6934 197.245 25.6934 197.464C25.6934 197.681 25.8696 197.857 26.0869 197.857Z" fill="black"/>
<path opacity="0.1" d="M37.501 196.381C37.7184 196.381 37.8944 196.206 37.8944 195.989C37.8944 195.77 37.7184 195.594 37.501 195.594C37.2836 195.594 37.1074 195.77 37.1074 195.989C37.1074 196.206 37.2836 196.381 37.501 196.381Z" fill="black"/>
<path opacity="0.1" d="M28.3194 205.794C28.5367 205.794 28.7128 205.619 28.7128 205.402C28.7128 205.185 28.5367 205.008 28.3194 205.008C28.102 205.008 27.9258 205.185 27.9258 205.402C27.9258 205.619 28.102 205.794 28.3194 205.794Z" fill="black"/>
<path opacity="0.1" d="M36.6805 199.43C36.8979 199.43 37.0741 199.255 37.0741 199.038C37.0741 198.821 36.8979 198.643 36.6805 198.643C36.4631 198.643 36.2871 198.821 36.2871 199.038C36.2871 199.255 36.4631 199.43 36.6805 199.43Z" fill="black"/>
<path opacity="0.1" d="M32.6151 203.5C32.8324 203.5 33.0087 203.323 33.0087 203.106C33.0087 202.889 32.8324 202.713 32.6151 202.713C32.3979 202.713 32.2217 202.889 32.2217 203.106C32.2217 203.323 32.3979 203.5 32.6151 203.5Z" fill="black"/>
<path opacity="0.1" d="M27.4637 196.808C27.6811 196.808 27.8573 196.632 27.8573 196.415C27.8573 196.196 27.6811 196.021 27.4637 196.021C27.2463 196.021 27.0703 196.196 27.0703 196.415C27.0703 196.632 27.2463 196.808 27.4637 196.808Z" fill="black"/>
<path opacity="0.1" d="M36.4188 197.562C36.6361 197.562 36.8124 197.385 36.8124 197.168C36.8124 196.951 36.6361 196.776 36.4188 196.776C36.2014 196.776 36.0254 196.951 36.0254 197.168C36.0254 197.385 36.2014 197.562 36.4188 197.562Z" fill="black"/>
<path opacity="0.1" d="M35.075 200.611C35.2924 200.611 35.4686 200.436 35.4686 200.219C35.4686 200 35.2924 199.825 35.075 199.825C34.8577 199.825 34.6816 200 34.6816 200.219C34.6816 200.436 34.8577 200.611 35.075 200.611Z" fill="black"/>
<path opacity="0.1" d="M30.9424 205.5C31.1596 205.5 31.3358 205.325 31.3358 205.106C31.3358 204.889 31.1596 204.713 30.9424 204.713C30.7251 204.713 30.5488 204.889 30.5488 205.106C30.5488 205.325 30.7251 205.5 30.9424 205.5Z" fill="black"/>
<path opacity="0.1" d="M30.0899 203.566C30.307 203.566 30.4833 203.389 30.4833 203.172C30.4833 202.955 30.307 202.779 30.0899 202.779C29.8725 202.779 29.6963 202.955 29.6963 203.172C29.6963 203.389 29.8725 203.566 30.0899 203.566Z" fill="black"/>
<path opacity="0.1" d="M28.0545 199.202C28.2719 199.202 28.4481 199.024 28.4481 198.807C28.4481 198.591 28.2719 198.415 28.0545 198.415C27.8372 198.415 27.6611 198.591 27.6611 198.807C27.6611 199.024 27.8372 199.202 28.0545 199.202Z" fill="black"/>
<path opacity="0.1" d="M35.2057 219.009H23.2344V220.16H35.2057V219.009Z" fill="black"/>
<path d="M36.9732 208.779H21.332V219.764H36.9732V208.779Z" fill="#D4DFEC"/>
<path opacity="0.1" d="M31.4676 207.27C31.685 207.27 31.8612 207.094 31.8612 206.877C31.8612 206.66 31.685 206.483 31.4676 206.483C31.2504 206.483 31.0742 206.66 31.0742 206.877C31.0742 207.094 31.2504 207.27 31.4676 207.27Z" fill="black"/>
<path opacity="0.1" d="M29.1065 207.762C29.3238 207.762 29.4999 207.587 29.4999 207.37C29.4999 207.151 29.3238 206.975 29.1065 206.975C28.8891 206.975 28.7129 207.151 28.7129 207.37C28.7129 207.587 28.8891 207.762 29.1065 207.762Z" fill="black"/>
<path opacity="0.1" d="M13.7987 17.5676C15.3773 17.5676 16.657 16.2879 16.657 14.7093C16.657 13.1308 15.3773 11.8511 13.7987 11.8511C12.2201 11.8511 10.9404 13.1308 10.9404 14.7093C10.9404 16.2879 12.2201 17.5676 13.7987 17.5676Z" fill="#F9A826"/>
<path opacity="0.1" d="M288.304 108.461C290.417 108.461 292.13 106.748 292.13 104.635C292.13 102.523 290.417 100.81 288.304 100.81C286.191 100.81 284.478 102.523 284.478 104.635C284.478 106.748 286.191 108.461 288.304 108.461Z" fill="#F9A826"/>
<path opacity="0.1" d="M295.679 99.2304C297.223 99.2304 298.472 97.9802 298.472 96.4378C298.472 94.8955 297.223 93.6451 295.679 93.6451C294.138 93.6451 292.887 94.8955 292.887 96.4378C292.887 97.9802 294.138 99.2304 295.679 99.2304Z" fill="#F9A826"/>
<path opacity="0.1" d="M18.7172 8.15119C20.83 8.15119 22.5429 6.43842 22.5429 4.3256C22.5429 2.21278 20.83 0.5 18.7172 0.5C16.6044 0.5 14.8916 2.21278 14.8916 4.3256C14.8916 6.43842 16.6044 8.15119 18.7172 8.15119Z" fill="#F9A826"/>
<path opacity="0.1" d="M3.96133 25.6396C6.07416 25.6396 7.78694 23.9268 7.78694 21.814C7.78694 19.7011 6.07416 17.9884 3.96133 17.9884C1.84852 17.9884 0.135742 19.7011 0.135742 21.814C0.135742 23.9268 1.84852 25.6396 3.96133 25.6396Z" fill="#F9A826"/>
<defs>
<linearGradient id="paint0_linear_1_2242" x1="144.178" y1="212.506" x2="144.178" y2="52.5143" gradientUnits="userSpaceOnUse">
<stop stop-color="#808080" stop-opacity="0.25"/>
<stop offset="0.54" stop-color="#808080" stop-opacity="0.12"/>
<stop offset="1" stop-color="#808080" stop-opacity="0.1"/>
</linearGradient>
</defs>
</svg>
