<svg width="800" height="135" viewBox="0 0 800 135" fill="none" xmlns="http://www.w3.org/2000/svg">
<path d="M473.784 48.8934V47.3578C473.582 46.8196 473.51 46.2416 473.575 45.6707C473.621 45.0314 473.55 44.389 473.365 43.775C473.385 43.4214 473.385 43.067 473.365 42.7135C473.331 42.3161 473.331 41.9166 473.365 41.5192C473.081 40.224 472.871 38.9139 472.736 37.5952C472.59 36.2966 472.276 35.0223 471.801 33.8038C471.077 31.4366 470.231 29.1082 469.265 26.8278C468.339 24.6635 467.249 22.5722 466.005 20.5721C465.519 19.8068 464.977 19.0782 464.384 18.3921C463.788 17.7083 463.246 16.9794 462.763 16.2121L461.485 15.0937C460.733 14.1655 459.883 13.3203 458.95 12.5724L458.091 11.7194C456.185 10.3166 453.935 8.85689 451.589 7.35931C450.642 6.80467 449.646 6.33522 448.615 5.95652C447.585 5.5774 446.536 5.16037 445.506 4.68645C444.369 4.22235 443.187 3.87305 441.979 3.64383L438.165 2.86661C437.646 2.68148 437.093 2.61033 436.544 2.65808C435.996 2.699 435.444 2.62804 434.924 2.44956C434.426 2.25651 433.892 2.17872 433.36 2.22208C432.836 2.28085 432.305 2.20919 431.816 2.01356H430.119C429.575 1.93526 429.023 1.93526 428.479 2.01356H426.724H388.512C388.329 2.08733 388.124 2.08733 387.94 2.01356C387.755 1.94851 387.553 1.94851 387.368 2.01356C386.533 2.2521 385.794 2.74224 385.252 3.41635C384.739 4.33434 384.52 5.38555 384.623 6.43044C384.623 7.70055 384.623 8.89483 384.623 10.0322V92.5504C384.623 93.593 384.623 94.8633 384.623 96.3417C384.523 97.503 384.639 98.6729 384.966 99.7917C385.142 100.293 385.454 100.735 385.868 101.07C386.282 101.405 386.782 101.619 387.311 101.688C388.646 101.838 389.99 101.907 391.335 101.896H424.284C425.123 101.896 426.191 101.896 427.258 102.029C428.2 102.136 429.153 102.092 430.081 101.896C430.362 101.82 430.658 101.82 430.938 101.896C431.212 101.978 431.504 101.978 431.778 101.896C432.2 101.825 432.632 101.825 433.055 101.896C433.427 101.961 433.808 101.961 434.18 101.896C434.626 101.807 435.079 101.762 435.534 101.763C435.983 101.756 436.43 101.706 436.869 101.612C437.828 101.35 438.802 101.148 439.786 101.005C440.729 100.886 441.66 100.69 442.57 100.418C444.896 99.7068 447.17 98.8394 449.377 97.8206C451.432 96.8726 453.398 95.7436 455.25 94.4463C458.522 92.2253 461.391 89.4696 463.736 86.2947C466.164 82.9775 468.169 79.3732 469.704 75.5653C470.288 74.0805 470.778 72.5608 471.172 71.0158C471.534 69.6509 471.916 68.229 472.373 66.7506C472.64 65.7371 472.825 64.7037 472.926 63.6607C472.926 62.6181 473.174 61.5944 473.365 60.5707C473.431 60.0989 473.431 59.6206 473.365 59.1488C473.323 58.6716 473.395 58.1906 473.575 57.7462C473.575 57.1965 473.575 56.6086 473.575 56.0019C473.575 55.3957 473.575 54.7508 473.575 54.1065C473.575 53.9168 473.575 53.5756 473.575 53.1207C473.676 52.0868 473.676 51.0456 473.575 50.0118C473.803 49.5568 473.784 49.1777 473.784 48.8934ZM451.78 55.5661V56.9686C451.591 57.7059 451.495 58.4636 451.494 59.2246C451.5 59.9361 451.404 60.6449 451.208 61.329V62.4473C450.922 63.3952 450.693 64.3431 450.502 65.2717C450.332 66.1471 450.044 66.9951 449.644 67.7932C448.417 70.9594 446.678 73.9048 444.496 76.5133C442.238 79.0438 439.399 80.9945 436.22 82.2004C433.164 83.2962 429.936 83.8416 426.686 83.8115C422.873 83.8115 419.192 83.8115 415.512 83.8115C413.816 83.8115 412.157 83.8115 410.555 83.8115C409.9 83.8652 409.244 83.7266 408.668 83.4133C408.092 83.1 407.621 82.6255 407.313 82.0483C407.104 81.5346 406.982 80.9902 406.951 80.4373C406.951 79.8306 406.951 79.205 406.951 78.5414V77.1388C406.757 76.5987 406.686 76.0227 406.741 75.4514C406.741 74.7883 406.741 74.1816 406.741 73.5561V34.4105C406.741 33.1024 406.741 31.7944 406.741 30.4675C406.741 29.1405 406.741 27.9083 406.741 26.6762V23.8705C406.715 23.1931 406.916 22.5261 407.313 21.9749C407.553 21.5361 407.957 21.2091 408.438 21.065C408.915 20.9133 409.392 20.7617 409.869 20.5721C410.211 20.4747 410.575 20.4747 410.917 20.5721C411.07 20.6283 411.235 20.6438 411.395 20.6172C411.556 20.5906 411.706 20.5228 411.832 20.4204H418.201C418.773 20.4204 419.326 20.4204 419.898 20.4204C420.417 20.3523 420.943 20.3523 421.462 20.4204H424.57C424.896 20.4992 425.236 20.4992 425.562 20.4204C425.933 20.3552 426.315 20.3552 426.686 20.4204C427.361 20.5972 428.05 20.7114 428.746 20.7617L430.786 20.9891C431.72 21.1977 432.693 21.4252 433.589 21.6905L437.631 23.2071C439.427 24.0935 441.094 25.2157 442.589 26.5434C444.629 28.3674 446.378 30.4896 447.776 32.8371C448.397 33.9072 448.89 35.0461 449.244 36.2303C449.663 37.5952 450.121 39.0169 450.578 40.5145C450.76 40.9388 450.839 41.4001 450.807 41.8604C450.758 42.3134 450.83 42.7713 451.017 43.1874C451.218 44.0204 451.333 44.8715 451.36 45.7276C451.41 46.6266 451.531 47.5204 451.723 48.4005V51.0734C452.123 52.5422 452.142 54.0877 451.78 55.5661Z" fill="white"/>
<path d="M592.881 30.6194C592.308 30.1438 591.589 29.8706 590.843 29.8422C590.043 29.8422 589.124 29.8422 588.075 29.8422H580.87C580.032 29.8422 579.194 29.8422 578.389 29.8422C577.67 29.874 576.967 30.0894 576.351 30.4677C575.973 30.8385 575.702 31.3034 575.567 31.8137C575.416 32.3255 575.264 32.8184 575.075 33.2923C574.891 33.7459 574.751 34.2155 574.654 34.6951C574.61 34.9204 574.508 35.1305 574.362 35.3037C574.21 35.477 574.016 35.6072 573.794 35.6808C573.691 35.7761 573.562 35.8394 573.427 35.863C573.286 35.8865 573.146 35.8694 573.016 35.8135C572.751 35.758 572.491 35.6688 572.254 35.5481C571.627 35.2075 571.054 34.7798 570.556 34.278C570.059 33.782 569.535 33.3137 568.989 32.8752L568 32.098L567.162 31.4535C565.167 30.1989 562.994 29.2529 560.713 28.6479C558.064 27.9736 555.324 27.6926 552.594 27.8138C552.4 28.0034 551.983 28.0413 551.313 27.9465C550.799 27.85 550.27 27.85 549.751 27.9465C548.989 28.1354 548.21 28.256 547.427 28.3067C546.627 28.3461 545.843 28.5126 545.097 28.7995C543.605 29.2211 542.14 29.7339 540.713 30.3351C539.397 30.8736 538.122 31.5071 536.899 32.2307L535.488 33.1406C535.011 33.4819 534.554 33.8231 534.077 34.2022L533.238 35.0363C532.761 35.4154 532.265 35.8325 531.751 36.3064C531.29 36.7196 530.886 37.1913 530.549 37.7092L528.643 40.1735C528.012 40.9843 527.463 41.8541 527.003 42.7706C526.061 44.2774 525.281 45.8786 524.676 47.5477C524.066 49.2411 523.475 51.0231 522.903 52.8934C522.712 53.8412 522.579 54.7891 522.484 55.6419C522.388 56.4953 522.255 57.5378 522.064 58.3718C521.877 58.7201 521.803 59.1177 521.854 59.5095C521.921 59.8792 521.921 60.2581 521.854 60.6278V62.0304C521.676 63.1992 521.676 64.3879 521.854 65.5567V66.9404C521.854 67.3924 521.899 67.8432 521.988 68.286C522.141 69.0921 522.192 69.9132 522.141 70.7317C522.132 71.5619 522.228 72.3895 522.427 73.1961C522.529 73.5664 522.574 73.9495 522.56 74.3332C522.935 75.4273 523.222 76.5494 523.418 77.6887C523.6 78.8086 523.934 79.8989 524.409 80.9302C525.938 84.6865 528.063 88.1741 530.702 91.2619C533.382 94.2455 536.752 96.5353 540.522 97.9346C541.605 98.4236 542.745 98.7799 543.918 98.9959C545.135 99.2233 546.416 99.4887 547.729 99.773C548.07 99.8617 548.427 99.9063 548.778 99.9057C549.091 99.9052 549.4 99.9562 549.691 100.058H550.837C551.583 100.168 552.335 100.213 553.086 100.191C553.848 100.213 554.605 100.168 555.356 100.058C555.848 99.9579 556.345 99.888 556.843 99.8493L558.464 99.6215C559.61 99.356 560.675 99.0717 561.724 98.7874C562.789 98.4876 563.827 98.1141 564.832 97.6691C565.816 97.2285 566.762 96.7083 567.654 96.1145C568.513 95.5459 569.351 94.9392 570.21 94.2191C570.686 93.8397 571.162 93.4227 571.697 92.9488C571.973 92.7091 572.302 92.5333 572.654 92.435C573.005 92.3367 573.378 92.3179 573.74 92.3802C573.886 92.5382 574.054 92.6779 574.232 92.7972C574.394 92.9068 574.518 93.0573 574.594 93.233C574.778 93.5759 574.854 93.966 574.805 94.3519C574.762 94.7861 574.832 95.2246 575.016 95.6217C575.086 95.9468 575.086 96.2827 575.016 96.6073C574.989 96.9797 574.989 97.3537 575.016 97.7261C575.016 98.7498 575.016 99.773 575.016 100.74C574.989 101.665 574.87 102.585 574.675 103.489C574.491 104.112 574.345 104.745 574.232 105.384C574.14 105.957 574 106.521 573.816 107.072C573.016 108.883 571.924 110.548 570.573 112C569.178 113.456 567.486 114.606 565.616 115.374C565.286 115.552 564.918 115.649 564.545 115.659C564.135 115.68 563.724 115.776 563.345 115.943C562.562 116.176 561.756 116.341 560.945 116.436C560.108 116.604 559.243 116.604 558.405 116.436H556.843C556.145 116.259 555.427 116.139 554.708 116.076C554.059 116.069 553.416 115.96 552.8 115.754C551.794 115.411 550.816 114.98 549.886 114.465C549.048 114.006 548.248 113.493 547.481 112.929C547.389 112.745 547.27 112.578 547.118 112.436C547 112.313 546.908 112.173 546.832 112.019C546.378 111.581 545.951 111.112 545.556 110.616C544.81 109.574 544.243 108.721 543.859 108.152C543.124 107.342 542.124 106.817 541.037 106.674C540.637 106.696 540.236 106.696 539.835 106.674C539.436 106.64 539.034 106.64 538.634 106.674H533.829C532.78 106.674 531.675 106.674 530.492 106.674C529.432 106.621 528.37 106.692 527.327 106.882C526.478 107.015 525.703 107.437 525.134 108.076C524.857 108.472 524.679 108.928 524.616 109.407C524.553 109.885 524.607 110.371 524.772 110.825C524.87 111.045 524.916 111.285 524.905 111.526C524.912 111.833 525.012 112.13 525.191 112.379C526.351 115.97 528.513 119.159 531.427 121.574C534.489 124.051 537.917 126.046 541.589 127.488C542.259 127.77 542.945 128.004 543.648 128.189C544.545 128.417 545.459 128.625 546.416 128.815C546.632 128.92 546.875 128.972 547.118 128.966C547.362 128.956 547.605 129.001 547.827 129.099C548.54 129.295 549.275 129.391 550.016 129.383C550.8 129.381 551.583 129.476 552.345 129.668C552.718 129.759 553.102 129.803 553.486 129.8H554.745C555.967 130.003 557.21 130.003 558.427 129.8C558.897 129.735 559.367 129.735 559.837 129.8C560.259 129.878 560.691 129.878 561.113 129.8C561.54 129.822 561.967 129.822 562.394 129.8C562.767 129.772 563.145 129.772 563.518 129.8C564.567 129.611 565.594 129.479 566.627 129.383C567.681 129.286 568.729 129.096 569.751 128.815C570.881 128.549 571.967 128.265 572.994 127.981C574.059 127.684 575.097 127.31 576.102 126.863C579.459 125.515 582.551 123.59 585.237 121.175C587.854 118.65 589.94 115.635 591.378 112.304C591.859 111.248 592.216 110.141 592.443 109.005C592.675 107.83 592.978 106.598 593.362 105.214C593.454 104.475 593.529 103.792 593.567 103.185C593.605 102.579 593.686 101.896 593.778 101.138C593.875 100.38 593.778 99.6596 593.778 98.9583C593.778 98.2565 593.778 97.5364 593.778 96.7782V36.2495C593.778 35.1121 593.778 34.0126 593.778 32.9321C593.816 32.5044 593.751 32.0741 593.6 31.6736C593.443 31.2731 593.2 30.9126 592.881 30.6194ZM575.075 66.6368C574.989 68.0329 574.794 69.421 574.502 70.7886C574.281 71.8989 573.945 72.9849 573.508 74.0301C572.659 76.2318 571.437 78.276 569.908 80.0773C568.351 81.8314 566.389 83.1786 564.183 84.0013C563.475 84.363 562.708 84.6005 561.918 84.7026C561.173 84.7026 560.373 84.9492 559.513 85.1196H558.102C557.821 85.2045 557.524 85.2045 557.243 85.1196H556.405C555.891 85.025 555.367 84.9804 554.843 84.9869C553.486 84.6429 552.162 84.1733 550.897 83.5843C548.837 82.5697 547.086 81.0409 545.805 79.1482C544.486 77.1658 543.443 75.0173 542.697 72.7598C542.508 72.0418 542.362 71.3142 542.259 70.5801C542.156 69.8461 542.016 69.1185 541.837 68.4V66.9974C541.529 65.425 541.432 63.8182 541.551 62.2201C541.589 60.7009 541.778 59.1887 542.124 57.7082C542.205 57.3411 542.248 56.966 542.259 56.5899C542.286 56.203 542.378 55.8241 542.545 55.4716C543.345 53.0494 544.443 50.7326 545.805 48.5714C547.178 46.4749 549.178 44.8579 551.524 43.9459C552.097 43.7563 552.67 43.5858 553.221 43.453L555.129 42.9602C555.427 42.8863 555.74 42.8863 556.043 42.9602C556.183 42.9888 556.324 42.9849 556.459 42.9486C556.594 42.9124 556.718 42.8449 556.827 42.7516C560.6 42.5011 564.351 43.4361 567.562 45.4245C570.162 47.3529 572.145 49.9856 573.281 53.0072C573.578 53.6152 573.81 54.2501 573.989 54.903L574.556 56.7984C574.621 57.1052 574.621 57.4207 574.556 57.7275C574.524 58.0457 574.594 58.3665 574.767 58.6373C575.064 59.8808 575.232 61.1512 575.264 62.4286C575.151 63.7935 575.129 65.2342 575.037 66.675L575.075 66.6368Z" fill="white"/>
<path d="M672.189 49.7461C672.281 49.2323 672.281 48.7055 672.189 48.1917C672.092 47.6779 672.092 47.1511 672.189 46.6373C672.346 45.8783 672.611 45.1446 672.967 44.4572C673.135 44.1525 673.367 43.8876 673.643 43.6812C673.924 43.4749 674.248 43.3321 674.589 43.263C674.838 43.0986 675.135 43.0249 675.427 43.0544C675.757 43.1277 676.092 43.1277 676.421 43.0544C676.773 42.9741 677.135 42.9741 677.486 43.0544C677.908 43.0544 678.308 43.0544 678.686 43.0544C680.594 43.0544 682.275 43.0544 683.778 42.9028C684.486 42.8819 685.167 42.6231 685.708 42.1685C686.248 41.714 686.616 41.0907 686.757 40.4005C686.946 39.8603 687.021 39.2842 686.962 38.7134C686.962 38.0688 686.962 37.4054 686.962 36.8177C686.978 35.4562 686.908 34.0951 686.757 32.742C686.724 32.1987 686.546 31.6742 686.232 31.2284C685.919 30.7825 685.486 30.4334 684.984 30.2208C684.492 30.0265 683.967 29.9299 683.438 29.9364H681.74C680.14 29.9364 678.459 29.9364 676.724 29.9364C676.059 29.9937 675.389 29.9045 674.762 29.6751C674.14 29.4457 673.573 29.0819 673.103 28.6095C672.73 28.1352 672.486 27.5738 672.394 26.9792C672.297 26.3075 672.254 25.6294 672.265 24.9509V23.3395C672.194 22.8047 672.194 22.263 672.265 21.7282C672.265 21.1216 672.265 20.5719 672.265 20.1169V11.776C672.275 11.2006 672.178 10.6282 671.978 10.0889C671.784 9.61515 671.465 9.20179 671.054 8.89177C670.648 8.58176 670.162 8.38631 669.648 8.32585C668.384 8.17872 667.113 8.10907 665.838 8.11735H656.303C656.048 8.20118 655.773 8.20118 655.519 8.11735C655.27 8.04357 655.005 8.04357 654.757 8.11735C654.286 8.26185 653.848 8.50604 653.481 8.8332C653.113 9.16036 652.821 9.5628 652.621 10.013C652.432 10.698 652.34 11.4067 652.357 12.1172V23.3395C652.357 24.1926 652.357 25.0267 652.357 25.8797C652.319 26.6481 652.151 27.4048 651.859 28.1166C651.616 28.5877 651.254 28.9864 650.805 29.2726C650.357 29.5588 649.838 29.7224 649.303 29.7468C647.994 29.8877 646.675 29.9573 645.357 29.9554C644.935 29.9866 644.508 29.9866 644.081 29.9554C643.692 29.9209 643.303 29.993 642.957 30.1639C641.546 30.543 640.724 31.2444 640.551 32.2871C640.34 33.6347 640.243 34.9985 640.265 36.3627V39.301C640.459 40.154 640.648 40.8554 640.821 41.4242C640.946 41.7285 641.14 42 641.389 42.2171C641.632 42.4342 641.93 42.591 642.248 42.6753C643.557 43.173 644.967 43.3233 646.351 43.1113C647.681 42.8864 649.043 43.0307 650.297 43.5283C650.789 43.7713 651.221 44.126 651.551 44.5638C651.881 45.0016 652.108 45.5105 652.205 46.0496C652.411 46.6594 652.481 47.3057 652.411 47.9453C652.411 48.5898 652.411 49.2533 652.411 49.8409V83.5836C652.411 84.0388 652.411 84.5128 652.411 84.9867C652.335 85.4064 652.335 85.8369 652.411 86.2566V87.6597C652.513 87.88 652.557 88.1197 652.546 88.361C652.546 88.6012 652.589 88.8387 652.681 89.0622C652.751 89.4572 652.751 89.8613 652.681 90.2563C652.643 90.6169 652.713 90.9807 652.892 91.2988C653.54 93.4231 654.546 95.4233 655.865 97.2138C656.086 97.4352 656.324 97.6437 656.567 97.8393L657.275 98.4837L658.265 99.2419C658.54 99.4746 658.827 99.6901 659.124 99.8862C659.989 100.367 660.875 100.791 661.794 101.157C662.746 101.517 663.703 101.858 664.767 102.142L666.465 102.408L668.373 102.692C668.881 102.795 669.4 102.846 669.919 102.843C670.443 102.836 670.967 102.881 671.481 102.976H672.967C673.389 103.046 673.821 103.046 674.248 102.976C674.713 102.949 675.189 102.949 675.659 102.976C676.151 102.949 676.648 102.949 677.146 102.976C677.638 103.043 678.14 103.043 678.632 102.976C678.957 102.907 679.297 102.907 679.621 102.976C679.908 102.998 680.194 102.998 680.481 102.976H681.892C682.286 102.796 682.719 102.723 683.151 102.768C683.589 102.803 684.027 102.731 684.427 102.559C685.13 102.333 685.735 101.888 686.157 101.29C686.584 100.692 686.794 99.9728 686.773 99.2419C686.773 97.6115 686.773 95.8107 686.773 93.8391V91.0903C686.805 90.3262 686.611 89.5695 686.221 88.9107C686.005 88.5974 685.719 88.3352 685.389 88.1422C685.059 87.9493 684.692 87.8295 684.313 87.7919C683.421 87.6935 682.524 87.6489 681.627 87.6597H680.081C679.827 87.5769 679.551 87.5769 679.297 87.6597C679 87.7263 678.686 87.7263 678.384 87.6597C677.524 87.47 676.708 87.2615 675.903 87.0336C675.157 86.845 674.492 86.4269 674 85.8396C672.951 84.5321 672.335 82.9382 672.227 81.2712C672.092 79.5269 672.016 77.4795 672.016 75.1483V49.7461H672.189Z" fill="white"/>
<path d="M762.589 95.7738C762.583 95.4658 762.54 95.1601 762.454 94.8634C762.059 93.2314 761.865 91.5569 761.881 89.8781V53.1211C761.881 50.9601 761.881 48.8559 761.729 46.7896C761.681 44.9121 761.297 43.058 760.605 41.3112C759.551 38.7548 757.892 36.491 755.762 34.7143C753.546 32.9156 751.038 31.511 748.346 30.5628C745.259 29.4935 742.059 28.7874 738.81 28.4586C735.124 28.086 731.416 27.9467 727.713 28.0415C727.524 28.2311 727.027 28.269 726.227 28.1742C725.638 28.096 725.038 28.096 724.454 28.1742C723.248 28.4561 722.021 28.6461 720.789 28.7429C719.594 28.8323 718.411 29.0226 717.243 29.3116C715.335 29.8803 713.524 30.449 711.735 31.0556C709.946 31.676 708.238 32.5031 706.643 33.52C706.2 33.7822 705.773 34.0669 705.367 34.373L704.086 35.3588C703.848 35.6344 703.562 35.871 703.248 36.0601C702.189 36.9183 701.238 37.9055 700.427 38.9985L699.567 40.4202C699.281 40.8752 699.016 41.3491 698.729 41.823C698.238 42.5977 697.838 43.4242 697.53 44.2873C697.184 45.1783 696.881 46.183 696.594 47.1688C696.497 47.5479 696.405 47.965 696.324 48.4199C696.232 48.8891 696.232 49.3725 696.324 49.8417C696.373 50.2716 696.546 50.6789 696.821 51.0149C697.092 51.351 697.459 51.6018 697.87 51.7373C697.962 51.8304 698.07 51.9036 698.194 51.9525C698.313 52.0015 698.443 52.025 698.578 52.0216C698.821 52.0109 699.059 52.0563 699.281 52.1544H700.562C700.984 52.2329 701.416 52.2329 701.838 52.1544C702.297 52.1544 702.773 52.1544 703.248 52.1544H711.102C711.913 52.1602 712.719 52.0646 713.508 51.87C713.967 51.7861 714.394 51.5871 714.756 51.2919C715.119 50.9966 715.394 50.615 715.567 50.1829C715.919 49.2784 716.324 48.3926 716.767 47.5289C717.005 46.8381 717.367 46.1959 717.838 45.6333C718.265 45.064 718.767 44.5484 719.324 44.0978C719.762 43.7376 720.238 43.3964 720.713 43.0741C721.248 42.7459 721.821 42.4728 722.411 42.259C723.384 41.9506 724.378 41.7161 725.384 41.5576C726.562 41.3682 727.746 41.2478 728.935 41.1974C730.135 41.1525 731.34 41.2032 732.535 41.3491C733.567 41.4498 734.584 41.6595 735.567 41.9746C736.946 42.3821 738.2 43.1109 739.238 44.1002C740.27 45.0895 741.054 46.3107 741.519 47.6616C741.616 47.9842 741.686 48.3138 741.729 48.6474C741.767 49.031 741.838 49.4112 741.935 49.7848V50.6188C741.956 50.9095 741.908 51.2005 741.805 51.4719C741.729 51.6479 741.729 51.8456 741.805 52.0216C741.865 52.2514 741.865 52.4933 741.805 52.7231C741.502 53.7976 740.913 54.773 740.108 55.5474C738.902 56.7882 737.357 57.6458 735.665 58.0118C734.005 58.3342 732.194 58.7324 730.211 59.187C729.519 59.3687 728.811 59.4638 728.092 59.4719C727.448 59.4799 726.805 59.5756 726.189 59.7561C725.497 59.9421 724.784 60.0125 724.07 59.9646C723.427 59.9372 722.784 60.0076 722.162 60.1732C721.33 60.358 720.481 60.4784 719.627 60.5332C718.811 60.5751 718 60.689 717.205 60.8744C715.892 61.1587 714.573 61.4054 713.259 61.5945C711.957 61.7799 710.675 62.1045 709.443 62.5613C706.643 63.4077 703.973 64.6393 701.513 66.2203C699.232 67.8502 697.351 69.9686 696 72.4191C695.497 73.3235 695.119 74.2929 694.875 75.3005C694.589 76.3812 694.308 77.4237 694.021 78.4662C694 79.2696 693.908 80.0692 693.735 80.8549C693.643 81.4836 693.643 82.1215 693.735 82.7503C693.735 83.3441 693.805 83.9357 693.94 84.5134C694.021 84.9777 694.021 85.4517 693.94 85.916C693.913 86.3932 693.984 86.8715 694.151 87.3191C694.346 88.1531 694.551 88.949 694.8 89.7072C695.016 90.4241 695.281 91.127 695.584 91.8116C696.562 94.3287 698.135 96.5729 700.178 98.3516C702.254 100.087 704.621 101.441 707.178 102.351C707.93 102.737 708.74 102.999 709.578 103.129C710.416 103.262 711.313 103.432 712.265 103.622C712.838 103.816 713.443 103.887 714.043 103.83C714.681 103.79 715.329 103.86 715.946 104.039H716.827C717.762 104.228 718.729 104.228 719.665 104.039H721.211C721.497 104.058 721.783 104.058 722.07 104.039C722.346 104.011 722.627 104.011 722.908 104.039C723.573 104.039 724.205 103.868 724.816 103.83C725.459 103.77 726.097 103.649 726.719 103.47L731.238 102.314C732.416 102.028 733.551 101.615 734.632 101.081L736.329 100.247C736.886 99.975 737.411 99.6445 737.897 99.2614C738.362 99.0733 738.811 98.8385 739.227 98.5601C739.648 98.2823 740.097 98.0469 740.562 97.8588C740.935 97.7422 741.335 97.7422 741.708 97.8588C741.967 97.9872 742.205 98.1533 742.416 98.3516C742.983 98.8369 743.438 99.4382 743.751 100.115C744.059 100.796 744.578 101.361 745.238 101.726C745.789 102.13 746.454 102.355 747.14 102.371C747.946 102.371 748.762 102.371 749.621 102.371H759.519C760.178 102.377 760.827 102.234 761.427 101.954C761.881 101.831 762.281 101.553 762.551 101.169C762.821 100.784 762.951 100.317 762.913 99.8493C762.859 98.8127 762.735 97.7803 762.551 96.7593C762.508 96.431 762.519 96.0978 762.589 95.7738ZM741.935 75.0538V76.3049C741.751 77.0191 741.638 77.7494 741.594 78.485C741.54 79.1777 741.421 79.8634 741.232 80.5325C740.578 82.7653 739.475 84.8428 737.989 86.6366C736.438 88.3638 734.416 89.6132 732.173 90.2382C730.589 90.7078 728.962 91.0131 727.313 91.148C725.659 91.2818 723.994 91.2119 722.357 90.9395C720.865 90.6751 719.416 90.2226 718.043 89.5938C716.832 89.0828 715.794 88.2251 715.07 87.1294C714.173 86.0025 713.627 84.6376 713.508 83.2054C713.265 81.9936 713.275 80.7464 713.53 79.5383C713.784 78.3297 714.281 77.1851 714.994 76.1727C716.329 74.5116 718.059 73.2085 720.027 72.3809C720.643 72.1101 721.281 71.8946 721.935 71.7366C722.6 71.6038 723.308 71.4335 724.07 71.2438C725.216 70.8741 726.4 70.6387 727.6 70.5425C728.838 70.4426 730.065 70.2588 731.275 69.9928C731.708 70.0073 732.14 69.9562 732.556 69.8407C733.297 69.6564 734.048 69.5172 734.805 69.4237C735.529 69.3398 736.243 69.2001 736.94 69.0067L737.935 68.7794C738.2 68.7794 738.524 68.6654 738.908 68.5709C739.659 68.515 740.416 68.7154 741.043 69.1394C741.216 69.2689 741.356 69.4376 741.454 69.6322C741.551 69.8267 741.6 70.0411 741.594 70.2577C741.605 70.7881 741.702 71.3131 741.881 71.8124C742.081 72.8834 742.081 73.9828 741.881 75.0538H741.935Z" fill="white"/>
<path d="M798.19 93.4801V8.97155C798.19 7.8531 798.19 6.73469 798.19 5.67309C798.195 4.72213 797.871 3.7977 797.271 3.05709C796.747 2.58043 796.076 2.28762 795.368 2.223C794.476 2.12255 793.574 2.07192 792.676 2.07134H782.363C782.125 2.0576 781.892 2.0576 781.655 2.07134C781.422 2.09301 781.184 2.09301 780.952 2.07134L779.882 2.62108C779.547 2.82332 779.271 3.11991 779.103 3.47413C778.552 4.61061 778.33 5.87864 778.471 7.13279C778.471 8.8199 778.471 10.2606 778.471 11.4928V95.8499C778.471 96.8737 778.471 97.878 778.471 98.8641C778.465 99.2704 778.547 99.674 778.703 100.049C778.86 100.424 779.092 100.763 779.39 101.044C779.995 101.535 780.741 101.832 781.525 101.897C782.46 101.993 783.401 102.037 784.347 102.03H791.19C791.876 102.037 792.568 102.081 793.249 102.163C793.887 102.265 794.541 102.22 795.157 102.03C795.66 101.953 796.147 101.776 796.584 101.509C797.017 101.242 797.395 100.891 797.693 100.475C798.228 99.4617 798.449 98.3155 798.341 97.1767C798.206 95.8688 798.19 94.5796 798.19 93.4801Z" fill="white"/>
<path d="M504.77 2.09009H492.948C490.747 2.09009 488.963 3.8639 488.963 6.05203V17.8051C488.963 19.9933 490.747 21.7671 492.948 21.7671H504.77C506.971 21.7671 508.755 19.9933 508.755 17.8051V6.05203C508.755 3.8639 506.971 2.09009 504.77 2.09009Z" fill="white"/>
<path d="M508.049 31.0367C507.93 30.8275 507.769 30.6452 507.575 30.5016C507.382 30.3579 507.159 30.2561 506.924 30.2026C506.395 30.0962 505.872 29.9569 505.361 29.7856H504.236C503.646 29.714 503.051 29.714 502.462 29.7856C501.757 29.7856 501.108 29.7856 500.555 29.7856H493.481C493.227 29.8668 492.953 29.8668 492.699 29.7856C492.444 29.7124 492.173 29.7124 491.917 29.7856C491.482 29.7995 491.053 29.905 490.662 30.0952C490.27 30.2854 489.923 30.5559 489.644 30.889C489.364 31.2221 489.159 31.6101 489.042 32.0277C488.924 32.4452 488.897 32.8828 488.962 33.3115V95.4513C488.962 96.5696 488.962 97.6315 488.962 98.617C488.986 99.5139 489.315 100.376 489.896 101.063C490.115 101.316 490.383 101.523 490.685 101.669C490.986 101.816 491.315 101.9 491.651 101.915C492.473 102.008 493.301 102.053 494.13 102.048H502.043C502.805 102.048 503.511 102.048 504.178 102.048C504.822 102.106 505.47 102.035 506.085 101.84C507.686 101.366 508.545 100.475 508.64 99.1668C508.736 97.8588 508.773 96.2665 508.773 94.39V35.6811C508.773 34.7522 508.773 33.7855 508.773 33.0082C508.752 32.2907 508.498 31.5993 508.049 31.0367Z" fill="white"/>
<path d="M625.358 2.09009H613.536C611.336 2.09009 609.547 3.8639 609.547 6.05203V17.8051C609.547 19.9933 611.336 21.7671 613.536 21.7671H625.358C627.558 21.7671 629.341 19.9933 629.341 17.8051V6.05203C629.341 3.8639 627.558 2.09009 625.358 2.09009Z" fill="white"/>
<path d="M628.638 31.0367C628.514 30.8254 628.352 30.6419 628.152 30.4981C627.957 30.3544 627.73 30.2537 627.492 30.2026C626.968 30.096 626.454 29.9567 625.946 29.7856H624.806C624.222 29.7132 623.633 29.7132 623.049 29.7856C622.341 29.7856 621.697 29.7856 621.141 29.7856H614.065C613.811 29.8668 613.541 29.8668 613.287 29.7856C613.033 29.7124 612.757 29.7124 612.503 29.7856C612.07 29.7995 611.638 29.905 611.249 30.0952C610.854 30.2854 610.508 30.5559 610.233 30.889C609.951 31.2221 609.746 31.6101 609.627 32.0277C609.508 32.4452 609.481 32.8828 609.546 33.3115V95.4513C609.546 96.5696 609.546 97.6315 609.546 98.617C609.573 99.5101 609.897 100.37 610.465 101.063C610.687 101.315 610.957 101.521 611.265 101.667C611.568 101.814 611.897 101.898 612.238 101.915C613.06 102.008 613.887 102.053 614.714 102.048H622.627C623.389 102.048 624.097 102.048 624.746 102.048C625.389 102.104 626.038 102.034 626.654 101.84C627.314 101.738 627.924 101.419 628.384 100.935C628.838 100.451 629.124 99.8294 629.189 99.1668C629.281 97.8588 629.341 96.2665 629.341 94.39V35.6811C629.341 34.7522 629.341 33.7855 629.341 33.0082C629.314 32.2948 629.07 31.6066 628.638 31.0367Z" fill="white"/>
<path d="M89.5297 96.548C89.1487 95.9795 88.7481 95.4486 88.3286 94.937C87.9092 94.4249 87.5087 93.8751 87.127 93.3254L82.0362 86.1411C78.0697 80.5297 74.1103 74.9818 70.1568 69.4972C66.2032 64.0122 62.2432 58.4578 58.2773 52.8342C57.2097 51.2418 56.1227 49.6874 54.9978 48.1708C54.1016 46.9576 53.2243 45.7444 52.4425 44.3796L51.3556 42.6734C51.126 42.3644 50.9677 42.0088 50.8918 41.6321C50.8161 41.2553 50.8247 40.8665 50.9171 40.4934C51.0522 39.5853 51.4496 38.7358 52.0611 38.048C52.6141 37.4224 53.2243 36.7969 53.9679 36.1524C55.6638 34.6497 57.2681 33.0482 58.773 31.3563C62.0784 28.0705 65.3768 24.7468 68.6692 21.3851C71.9681 18.0108 75.2859 14.6745 78.5849 11.395C79.2995 10.8009 79.9805 10.1681 80.6249 9.49933C81.2351 8.85484 81.8838 8.15345 82.5319 7.39515C83.18 6.6369 83.4854 6.48525 83.9427 6.06818C84.4005 5.65118 84.8962 5.19618 85.373 4.72227C85.5443 4.36209 85.7924 3.86922 86.0784 3.24365C86.2135 2.96771 86.2432 2.65251 86.1627 2.35631C86.0822 2.06011 85.8962 1.80294 85.64 1.63234C84.8232 1.1183 83.8546 0.89755 82.8941 1.00678H79.5573H68.6692H65.9238C65.047 0.943195 64.1665 1.01351 63.3114 1.21529C62.12 1.438 61.0011 1.94546 60.0508 2.69392C59.1892 3.40597 58.4259 4.22824 57.7816 5.13931C57.6324 5.30158 57.466 5.44772 57.2859 5.5753C57.1119 5.69642 56.9519 5.8363 56.8092 5.99236C56.4519 6.43651 56.0697 6.86056 55.6649 7.26247C55.2827 7.64342 54.9497 8.07005 54.6735 8.53257C54.4524 8.7328 54.2162 8.91653 53.9679 9.08232C53.7144 9.24815 53.4781 9.43865 53.2624 9.65098C53.0071 10.2822 52.5607 10.8188 51.9849 11.1865C51.8588 11.3214 51.718 11.4422 51.5654 11.5466C51.4386 11.6303 51.3394 11.7489 51.2794 11.8879C51.0284 12.2396 50.7478 12.5693 50.4404 12.8736L49.5823 13.7267L48.8768 14.428C47.7573 15.9194 46.4787 17.286 45.0632 18.5037C43.6478 19.7215 42.3691 21.088 41.2496 22.5794C41.0401 22.7984 40.803 22.9895 40.5441 23.1481C39.9823 23.7458 39.4601 24.379 38.9805 25.0438C38.5005 25.7075 37.9293 26.3009 37.2835 26.8067C36.6121 27.3366 36.0379 27.978 35.5864 28.7024C35.4197 28.8714 35.2265 29.0122 35.0144 29.1195C34.8124 29.2338 34.6266 29.374 34.4614 29.5365C34.17 30.0123 33.8383 30.4626 33.4698 30.8824L32.3258 32.0767C31.9861 32.4431 31.609 32.7734 31.2008 33.0624C30.5409 33.8975 29.8343 34.6949 29.0843 35.451L26.8151 37.7068L25.4804 38.9769C25.2439 39.2338 24.941 39.421 24.6046 39.518C24.2682 39.6149 23.9115 39.6179 23.5736 39.5267C23.3312 39.508 23.1026 39.4077 22.9253 39.2423C22.7254 39.0931 22.557 38.9064 22.4295 38.6925C22.137 37.9767 21.9942 37.2092 22.01 36.4367V5.29097C22.0051 4.79535 21.9605 4.30092 21.8766 3.81236C21.7585 3.18972 21.4495 2.61864 20.992 2.17745C20.5345 1.73625 19.951 1.44652 19.3215 1.34799C17.8199 1.19845 16.3114 1.12885 14.8023 1.13947H3.91448C3.73102 1.21325 3.52592 1.21325 3.34246 1.13947C3.15739 1.07442 2.95551 1.07442 2.77045 1.13947C1.89698 1.37461 1.11372 1.86294 0.520439 2.54226C0.103479 3.36842 -0.0684877 4.29546 0.0246523 5.21514C0.0246523 6.32726 0.0246523 7.40778 0.0246523 8.45675V97.6475C-0.033324 98.128 0.0265498 98.6148 0.199225 99.0673C0.3719 99.5198 0.652276 99.9234 1.01623 100.245C1.72203 100.734 2.5581 101.005 3.41869 101.022C4.37209 101.022 5.32549 101.022 6.3933 101.022H16.0227C17.0095 101.027 17.9959 100.983 18.9782 100.889C19.3793 100.873 19.7731 100.778 20.1366 100.609C20.5001 100.439 20.8258 100.2 21.0948 99.9035C21.6003 99.2586 21.8755 98.4649 21.8766 97.6475C21.8766 96.7189 21.8766 95.7522 21.8766 94.6903V78.2738C21.8766 77.7998 21.8766 77.2694 21.8766 76.6627C21.8061 76.128 21.8061 75.5863 21.8766 75.0511V73.1557C21.8766 72.4163 21.8766 71.6962 21.8766 71.0514C21.9044 70.392 22.0734 69.7455 22.3723 69.156C22.7175 68.3564 23.1945 67.6196 23.7834 66.9758C24.3364 66.3691 24.9656 65.7436 25.6902 65.0799C26.4148 64.4168 26.6436 64.1325 27.1012 63.6016C27.5589 63.0707 28.0546 62.5967 28.5313 62.1421L30.9339 59.6776C31.6853 58.8038 32.6604 58.1493 33.7559 57.7817C34.1557 57.6721 34.5779 57.6721 34.9776 57.7823C35.3772 57.8924 35.7394 58.1085 36.025 58.4073C36.578 59.014 37.0546 59.5637 37.4361 60.0189C38.4657 61.5166 39.4764 63.0331 40.4679 64.5302L43.5187 69.156C46.1501 73.0988 48.8006 76.947 51.432 80.7006C54.0632 84.4537 56.6757 88.2831 59.2119 92.2259C59.7838 93.0599 60.3178 93.8751 60.8324 94.6715C61.3476 95.4674 61.9 96.245 62.4724 97.0032C63.0059 97.8109 63.5919 98.5837 64.2265 99.3156C64.8973 100.063 65.7514 100.625 66.7054 100.946C67.633 101.136 68.5816 101.206 69.5276 101.155C70.5762 101.155 71.6059 101.155 72.6546 101.155H87.2032C88.2005 101.22 89.1941 100.975 90.0449 100.453C90.3362 100.243 90.54 99.9341 90.6173 99.5848C90.6946 99.2355 90.64 98.8696 90.4643 98.5573C90.1887 97.8716 89.8768 97.201 89.5297 96.548Z" fill="white"/>
<path d="M120.363 70.9572V7.98306C120.363 6.8646 120.363 5.74614 120.363 4.68459C120.371 3.73362 120.048 2.80918 119.448 2.06857C118.918 1.59537 118.25 1.30309 117.541 1.23448C116.649 1.13454 115.751 1.08391 114.852 1.08282H104.537C104.302 1.0681 104.066 1.0681 103.831 1.08282C103.597 1.10449 103.36 1.10449 103.126 1.08282L102.058 1.63256C101.719 1.8348 101.447 2.13139 101.276 2.48562C100.725 3.62209 100.506 4.89014 100.647 6.14424C100.647 7.83141 100.647 9.27208 100.647 10.5042V94.8611C100.647 95.8848 100.647 96.8897 100.647 97.8753C100.64 98.2821 100.719 98.6851 100.876 99.0602C101.033 99.4353 101.267 99.7739 101.562 100.055C102.172 100.547 102.916 100.844 103.698 100.908C104.635 101.005 105.577 101.05 106.52 101.041H113.308C113.99 101.049 114.671 101.093 115.349 101.174C115.986 101.274 116.638 101.229 117.255 101.041C117.761 100.965 118.246 100.787 118.682 100.52C119.118 100.253 119.495 99.9018 119.791 99.4869C120.33 98.4755 120.55 97.3255 120.42 96.1884C120.42 94.7225 120.42 93.4585 120.42 92.3972L120.363 70.9572Z" fill="white"/>
<path d="M240.7 48.1895C240.52 47.5704 240.399 46.9357 240.338 46.2939C240.289 45.5834 240.174 44.879 239.994 44.1897C239.709 43.2418 239.404 42.294 239.118 41.3841C238.677 40.0716 238.115 38.8025 237.439 37.5928C235.312 34.0543 232.163 31.234 228.401 29.4983C223.943 27.595 219.093 26.7762 214.253 27.1097C213.883 27.1935 213.498 27.1935 213.128 27.1097C212.705 27.0353 212.273 27.0353 211.85 27.1097C210.82 27.2993 209.944 27.451 208.99 27.5268C208.139 27.6067 207.301 27.7848 206.492 28.0576C203.399 29.1329 200.487 30.6668 197.854 32.6072C197.043 33.1118 196.327 33.7533 195.738 34.5028C195.439 34.8812 195.046 35.176 194.598 35.3587C194.151 35.5414 193.663 35.6058 193.183 35.5455L192.553 35.1284C192.318 34.8978 192.147 34.6104 192.058 34.2943C191.967 34.1735 191.901 34.0357 191.865 33.8891C191.829 33.7425 191.823 33.5902 191.848 33.4412C191.911 33.1156 191.911 32.7811 191.848 32.4555C191.678 31.8114 191.467 31.1783 191.219 30.5598C191.088 30.2722 190.901 30.0134 190.668 29.7985C190.436 29.5837 190.163 29.4171 189.865 29.3087C189.247 29.1109 188.606 28.99 187.958 28.9485C187.253 28.9485 186.528 28.9485 185.765 28.9485H178.272C177.773 28.9431 177.274 28.9875 176.784 29.0812H176.079C175.602 29.0812 175.164 29.2898 174.725 29.4225C174.358 29.5332 174.037 29.7594 173.81 30.067C173.324 30.6644 173.05 31.4036 173.028 32.1712C173.028 33.0242 173.028 33.9531 173.028 34.9768V92.2071C173.028 93.6096 173.028 95.1073 173.028 96.6996C172.888 97.9882 173.212 99.285 173.943 100.358C174.236 100.665 174.587 100.912 174.977 101.081C175.366 101.25 175.787 101.34 176.212 101.344C177.242 101.344 178.272 101.476 179.32 101.476H186.28C187.557 101.5 188.833 101.411 190.094 101.211C190.604 101.116 191.081 100.892 191.479 100.56C191.877 100.228 192.181 99.7992 192.363 99.3156C192.656 98.653 192.799 97.935 192.782 97.2112V68.4353C192.754 63.7837 193.034 59.1359 193.621 54.5208C193.793 52.6531 194.361 50.8425 195.287 49.2087C196.214 47.5749 197.479 46.1551 198.998 45.0427C200.593 43.9796 202.371 43.2151 204.242 42.7869C204.512 42.6954 204.796 42.6504 205.081 42.6542C205.417 42.6432 205.75 42.5924 206.073 42.5026C206.607 42.3931 207.149 42.3234 207.693 42.294C208.283 42.2224 208.878 42.2224 209.467 42.294C209.988 42.4752 210.536 42.5712 211.087 42.5784C211.598 42.5733 212.103 42.67 212.575 42.8627C214.882 43.4707 216.905 44.858 218.295 46.7868C219.784 49.056 220.664 51.6664 220.851 54.3693C221.137 57.3265 221.27 60.5304 221.27 63.9992V94.7849C221.27 95.8274 221.27 96.6808 221.27 97.6663C221.27 98.4375 221.488 99.1925 221.899 99.8465C222.139 100.178 222.447 100.455 222.801 100.661C223.156 100.866 223.55 100.996 223.958 101.041C224.961 101.194 225.976 101.264 226.99 101.249H236.886C237.532 101.259 238.176 101.17 238.793 100.984C239.436 100.75 239.985 100.315 240.357 99.7439C240.728 99.1726 240.903 98.4966 240.853 97.8179C240.853 96.1687 240.853 94.4625 240.853 92.681V53.3837C240.855 52.0201 240.759 50.6581 240.567 49.308C240.537 48.9301 240.583 48.5501 240.7 48.1895Z" fill="white"/>
<path d="M273.192 28.7023H261.37C260.313 28.7023 259.299 29.1198 258.552 29.8627C257.805 30.6058 257.385 31.6135 257.385 32.6643V45.0998C257.382 45.5246 257.464 45.9457 257.626 46.3389C257.788 46.7321 258.026 47.0896 258.328 47.3908C258.629 47.6921 258.987 47.9312 259.382 48.0943C259.776 48.2575 260.199 48.3414 260.626 48.3414H273.974C274.401 48.3414 274.824 48.2575 275.219 48.0943C275.614 47.9312 275.971 47.6921 276.273 47.3908C276.574 47.0896 276.812 46.7321 276.974 46.3389C277.136 45.9457 277.218 45.5246 277.216 45.0998V32.6643C277.218 32.1401 277.116 31.6206 276.914 31.1362C276.712 30.6519 276.415 30.2124 276.041 29.8436C275.666 29.4746 275.221 29.1837 274.732 28.9877C274.243 28.7918 273.719 28.6947 273.192 28.7023Z" fill="#F69E1D"/>
<path d="M363.822 93.4587C362.926 92.1507 361.915 90.8427 361.057 89.5153L346.222 67.1655C345.478 66.1682 344.791 65.1305 344.163 64.0568C343.53 62.9928 342.842 61.961 342.104 60.9668C341.661 60.2344 341.171 59.5315 340.635 58.8624C340.075 58.1155 339.709 57.2433 339.567 56.3222C339.473 56.1137 339.424 55.888 339.424 55.6591C339.424 55.4301 339.473 55.2039 339.567 54.9954C339.726 54.6251 339.917 54.2699 340.14 53.9341C340.554 53.2429 341.054 52.6061 341.627 52.0382C342.141 51.5264 342.714 50.9767 343.381 50.4269L348.758 45.1001C349.231 44.7254 349.659 44.2994 350.036 43.83C350.386 43.3792 350.819 42.9994 351.313 42.7116C351.75 42.3572 352.146 41.9568 352.495 41.5173C352.849 41.0685 353.259 40.6671 353.716 40.323C354.451 39.7522 355.134 39.1179 355.756 38.4274L357.663 36.5317C358.426 35.7924 359.227 35.0721 360.066 34.3517C360.918 33.639 361.64 32.7862 362.201 31.8304C362.428 31.5386 362.59 31.2028 362.678 30.8447C362.765 30.6678 362.811 30.4732 362.811 30.276C362.811 30.0788 362.765 29.8843 362.678 29.7073C362.584 29.525 362.441 29.3709 362.267 29.261C362.093 29.1511 361.893 29.0892 361.686 29.0818C361.202 29.0334 360.727 28.9186 360.275 28.7405H358.712C357.811 28.5384 356.884 28.4872 355.966 28.5889C354.879 28.6837 353.945 28.7405 353.201 28.7405H348.53C348.104 28.7623 347.678 28.7623 347.252 28.7405C346.881 28.666 346.498 28.666 346.127 28.7405C345.488 28.7289 344.851 28.7733 344.22 28.8732C343.015 29.108 341.88 29.6138 340.902 30.3518C339.984 31.0759 339.152 31.9028 338.424 32.8162C338.158 33.1563 337.85 33.462 337.508 33.7261C337.175 33.9598 336.906 34.2726 336.726 34.6361L333.485 37.8587C333.014 38.3389 332.538 38.8318 332.055 39.3373C331.597 39.8681 331.12 40.3609 330.644 40.8159C330.341 41.1307 330.009 41.4164 329.652 41.669C328.992 42.6075 328.238 43.4776 327.402 44.266C326.544 45.0622 325.743 45.8394 325 46.5787C324.256 47.318 323.512 48.1332 322.807 48.9672C322.089 49.8291 321.255 50.5882 320.328 51.2231C320.044 51.4663 319.703 51.6357 319.337 51.716C319.161 51.8 318.968 51.8436 318.774 51.8436C318.579 51.8436 318.387 51.8 318.211 51.716C317.987 51.6359 317.788 51.4966 317.637 51.3129C317.486 51.1292 317.388 50.9082 317.353 50.6734C317.263 50.1679 317.122 49.6726 316.934 49.1948V47.9247C316.737 47.2413 316.685 46.5248 316.781 45.8204C316.875 45.1229 316.926 44.4201 316.934 43.7163V31.8304C316.937 31.4215 316.857 31.0161 316.701 30.6378C316.545 30.2595 316.314 29.9157 316.024 29.6265C315.733 29.3374 315.387 29.1084 315.006 28.9531C314.626 28.7978 314.218 28.719 313.807 28.7216H300.268C299.846 28.7009 299.424 28.7662 299.027 28.9134C298.632 29.0606 298.27 29.2867 297.965 29.5777C297.659 29.8687 297.417 30.2187 297.252 30.606C297.088 30.9934 297.005 31.41 297.008 31.8304V94.16C297.008 95.7522 297.008 97.1548 297.141 98.387C297.166 98.9497 297.361 99.4919 297.701 99.9417C298.042 100.392 298.511 100.729 299.048 100.908C300.007 101.218 301.017 101.34 302.022 101.268C303.243 101.268 304.368 101.268 305.417 101.268C306.465 101.268 307.324 101.268 308.372 101.268C309.421 101.268 310.584 101.268 311.633 101.268C312.562 101.235 313.485 101.088 314.379 100.833C315.096 100.662 315.727 100.238 316.152 99.6386C316.48 99.1598 316.677 98.6047 316.724 98.027C316.82 97.2601 316.865 96.4874 316.858 95.7141C316.858 94.8612 316.858 94.046 316.858 93.2502C316.858 92.4538 316.858 91.7337 316.858 91.07V79.6957C316.851 78.866 316.947 78.0384 317.144 77.2318C317.489 76.2538 318.012 75.3477 318.688 74.5589C319.337 73.8603 320.052 73.2251 320.824 72.663C321.281 72.2083 321.739 71.772 322.159 71.4119C322.712 70.9734 323.368 70.68 324.065 70.5591C324.338 70.4683 324.632 70.4597 324.91 70.5339C325.188 70.608 325.438 70.7617 325.629 70.9761C325.988 71.3286 326.32 71.7091 326.62 72.1132C327.464 73.2364 328.24 74.4073 328.947 75.6202C329.652 76.8336 330.377 78.0658 331.139 79.2787C332.741 81.8066 334.343 84.3339 335.945 86.8617C337.546 89.389 339.148 91.9169 340.75 94.4442C341.417 95.4867 342.122 96.6244 342.866 97.8942C343.47 99.0168 344.409 99.9245 345.555 100.491C347.049 101.032 348.641 101.252 350.226 101.136C352.305 101.136 354.04 101.136 355.604 101.136H361.114C361.584 101.107 362.055 101.107 362.525 101.136C362.948 101.205 363.38 101.205 363.803 101.136C364.207 100.962 364.64 100.865 365.08 100.851C365.473 100.847 365.859 100.75 366.206 100.567C366.438 100.389 366.62 100.154 366.733 99.8847C366.847 99.6155 366.888 99.3215 366.854 99.0319C366.816 98.4397 366.646 97.8636 366.358 97.3445C365.519 96.0746 364.718 94.7666 363.822 93.4587Z" fill="white"/>
<path d="M292.985 1.12036H281.163C278.962 1.12036 277.178 2.89418 277.178 5.0823V16.8354C277.178 19.0235 278.962 20.7973 281.163 20.7973H292.985C295.186 20.7973 296.97 19.0235 296.97 16.8354V5.0823C296.97 2.89418 295.186 1.12036 292.985 1.12036Z" fill="#F69E1D"/>
<path d="M152.854 1.08228H141.032C138.831 1.08228 137.047 2.8561 137.047 5.04422V16.7973C137.047 18.9855 138.831 20.7593 141.032 20.7593H152.854C155.055 20.7593 156.839 18.9855 156.839 16.7973V5.04422C156.839 2.8561 155.055 1.08228 152.854 1.08228Z" fill="white"/>
<path d="M156.133 30.0482C156.017 29.8366 155.857 29.6525 155.663 29.5086C155.469 29.3646 155.245 29.2641 155.008 29.2141C154.531 29.1193 154.017 28.9676 153.445 28.797H152.32C151.731 28.7158 151.135 28.7158 150.547 28.797C149.841 28.797 149.211 28.797 148.64 28.797H141.566C141.311 28.8795 141.037 28.8795 140.783 28.797C140.535 28.7232 140.27 28.7232 140.021 28.797C139.09 28.9123 138.235 29.3644 137.618 30.0671C137.205 30.7384 137.006 31.5181 137.046 32.304V94.5763C137.046 95.714 137.046 96.7565 137.046 97.742C137.046 98.6459 137.371 99.5197 137.961 100.206C138.181 100.459 138.45 100.664 138.751 100.811C139.053 100.957 139.381 101.042 139.716 101.06C140.538 101.152 141.367 101.196 142.195 101.193H150.127C150.87 101.193 151.576 101.193 152.243 101.193C152.887 101.252 153.535 101.181 154.15 100.984C155.752 100.51 156.61 99.6191 156.706 98.3111C156.801 97.0031 156.839 95.3915 156.839 93.515V34.6926C156.839 33.7636 156.839 32.7969 156.839 32.0197C156.822 31.3042 156.575 30.6131 156.133 30.0482Z" fill="white"/>
<path d="M260.645 55.1851C259.76 55.1851 258.912 55.5344 258.286 56.1566C257.66 56.7784 257.309 57.6226 257.309 58.5023V94.5199C257.309 95.657 257.309 96.7001 257.309 97.6857C257.309 98.589 257.633 99.4633 258.224 100.15C258.447 100.403 258.719 100.608 259.024 100.755C259.328 100.901 259.659 100.986 259.997 101.003C260.82 101.096 261.648 101.14 262.476 101.136H270.389C271.133 101.136 271.838 101.136 272.505 101.136C273.149 101.196 273.798 101.125 274.412 100.927C276.014 100.453 276.872 99.5622 276.967 98.2542C277.063 96.9462 277.101 95.3352 277.101 93.4774V58.5023C277.101 57.6226 276.75 56.7784 276.124 56.1566C275.498 55.5344 274.649 55.1851 273.764 55.1851H260.645Z" fill="white"/>
</svg>
