<svg width="180" height="148" viewBox="0 0 180 148" fill="none" xmlns="http://www.w3.org/2000/svg">
<path d="M0.000324249 5.20645C0.000324249 2.81208 2.01978 0.871056 4.5109 0.871056H175.49C177.981 0.871056 180 2.81208 180 5.20645V104.108H0.000324249V5.20645Z" fill="#191E37"/>
<path d="M0.000324249 104.108H180L180 124.565C180 126.361 178.486 127.817 176.617 127.817H3.38293C1.51459 127.817 0 126.361 0 124.565L0.000324249 104.108Z" fill="#DDDDDD"/>
<path d="M75.4111 127.817H104.448V147.461H75.4111V127.817Z" fill="#C4C4C4"/>
<path d="M70.6186 142.991H109.24V147.461H70.6186V142.991Z" fill="#DDDDDD"/>
<path d="M18 8.99997H162.8V15.3262H18V8.99997Z" fill="#C4C4C4"/>
<path d="M24.5818 12.1631C24.5818 12.9693 23.9018 13.6229 23.0629 13.6229C22.2241 13.6229 21.544 12.9693 21.544 12.1631C21.544 11.3568 22.2241 10.7032 23.0629 10.7032C23.9018 10.7032 24.5818 11.3568 24.5818 12.1631Z" fill="#4CAF50"/>
<path d="M28.379 12.1631C28.379 12.9693 27.699 13.6229 26.8601 13.6229C26.0213 13.6229 25.3413 12.9693 25.3413 12.1631C25.3413 11.3568 26.0213 10.7032 26.8601 10.7032C27.699 10.7032 28.379 11.3568 28.379 12.1631Z" fill="#F4A022"/>
<path d="M32.1763 12.1631C32.1763 12.9693 31.4962 13.6229 30.6574 13.6229C29.8185 13.6229 29.1385 12.9693 29.1385 12.1631C29.1385 11.3568 29.8185 10.7032 30.6574 10.7032C31.4962 10.7032 32.1763 11.3568 32.1763 12.1631Z" fill="#FF5252"/>
<path d="M18 15.3262H162.8V100H18V15.3262Z" fill="white"/>
<path d="M113.437 24.5722H150.902V30.1684H113.437V24.5722Z" fill="#C4C4C4"/>
<path d="M29.8979 24.5722H109.133V52.7968H29.8979V24.5722Z" fill="#F4A022"/>
<path d="M113.437 32.1149H150.902V37.7112H113.437V32.1149Z" fill="#C4C4C4"/>
<path d="M113.437 39.6577H150.902V45.254H113.437V39.6577Z" fill="#C4C4C4"/>
<path d="M113.437 47.2005H150.902V52.7968H113.437V47.2005Z" fill="#C4C4C4"/>
<path d="M29.8979 57.6631H150.902V66.4224H29.8979V57.6631Z" fill="#C4C4C4"/>
<path d="M29.8979 68.369H150.902V77.1283H29.8979V68.369Z" fill="#C4C4C4"/>
<path d="M29.8979 79.0748H150.902V87.8342H29.8979V79.0748Z" fill="#C4C4C4"/>
<path d="M136.73 68.4846C136.73 64.3085 140.116 60.923 144.292 60.923H172.438C176.614 60.923 180 64.3085 180 68.4846V140.11C180 144.286 176.614 147.672 172.438 147.672H144.292C140.116 147.672 136.73 144.286 136.73 140.11V68.4846Z" fill="#191E37"/>
<path d="M138.411 70.165C138.411 65.9888 141.796 62.6034 145.972 62.6034H170.968C175.144 62.6034 178.529 65.9888 178.529 70.165V138.009C178.529 142.186 175.144 145.571 170.968 145.571H145.972C141.796 145.571 138.411 142.186 138.411 138.009V70.165Z" fill="white"/>
<path d="M147.863 62.1833H168.657V64.4938C168.657 65.0738 168.187 65.544 167.607 65.544H148.913C148.333 65.544 147.863 65.0738 147.863 64.4938V62.1833Z" fill="#191E37"/>
<path d="M140.091 69.3248H176.849V72.6855H140.091V69.3248Z" fill="#C4C4C4"/>
<path d="M140.091 74.786H164.036V94.3201H140.091V74.786Z" fill="#F4A022"/>
<path d="M140.091 96.4206H176.849V99.3612H140.091V96.4206Z" fill="#C4C4C4"/>
<path d="M140.091 100.411H165.087V103.352H140.091V100.411Z" fill="#C4C4C4"/>
<path d="M140.091 104.402H171.178V107.343H140.091V104.402Z" fill="#C4C4C4"/>
<path d="M140.091 108.393H159.205V111.334H140.091V108.393Z" fill="#C4C4C4"/>
<path d="M140.091 112.384H176.849V115.325H140.091V112.384Z" fill="#C4C4C4"/>
<path d="M140.091 116.375H168.657V119.315H140.091V116.375Z" fill="#C4C4C4"/>
<path d="M140.091 120.366H176.849V123.306H140.091V120.366Z" fill="#C4C4C4"/>
<path d="M139.881 124.357H157.945V127.297H139.881V124.357Z" fill="#C4C4C4"/>
<path d="M160.045 124.357H176.849V127.297H160.045V124.357Z" fill="#C4C4C4"/>
<path d="M139.671 128.347H157.945V131.288H139.671V128.347Z" fill="#C4C4C4"/>
<path d="M160.045 128.347H176.849V131.288H160.045V128.347Z" fill="#C4C4C4"/>
<path d="M139.671 132.338H157.945V135.279H139.671V132.338Z" fill="#C4C4C4"/>
<path d="M160.045 132.338H176.849V135.279H160.045V132.338Z" fill="#C4C4C4"/>
<path d="M139.251 136.329H157.945V139.27H139.251V136.329Z" fill="#C4C4C4"/>
<path d="M160.045 136.329H176.849V139.27H160.045V136.329Z" fill="#C4C4C4"/>
</svg>
