<svg width="180" height="139" viewBox="0 0 180 139" fill="none" xmlns="http://www.w3.org/2000/svg">
<g clip-path="url(#clip0_1_3572)">
<path d="M90 134C125.346 134 154 105.346 154 70C154 34.6538 125.346 6 90 6C54.6538 6 26 34.6538 26 70C26 105.346 54.6538 134 90 134Z" fill="#F4A022"/>
<path d="M108.321 131.334C130.606 124.687 147.796 106.23 152.629 83.2215L117.798 48.3905L99.4975 54.4112L83.9035 38.8172L68.9538 49.2412L77.8083 72.6777L89.4968 84.3662L63.9258 86.9388L108.321 131.334Z" fill="#DA880F"/>
<path d="M103.915 62.651L97.8198 68.7463L107.393 78.3193H63.9258V86.9388H107.393L97.8198 96.512L103.915 102.607L123.893 82.629L103.915 62.651Z" fill="#324A5E"/>
<path d="M117.797 48.3905H74.3296L83.9028 38.8175L77.8076 32.7223L57.8301 52.7003L77.8076 72.678L83.9028 66.5827L74.3296 57.01H117.797V48.3905Z" fill="#324A5E"/>
<path d="M103.916 62.651L97.8209 68.7463L107.394 78.3193H89.8574V86.9388H107.394L97.8209 96.512L103.916 102.607L123.894 82.629L103.916 62.651Z" fill="#2B3B4E"/>
<path d="M117.801 48.3907H89.8594V57.0102H117.801V48.3907Z" fill="#2B3B4E"/>
</g>
<defs>
<clipPath id="clip0_1_3572">
<rect width="128" height="128" fill="white" transform="translate(26 6)"/>
</clipPath>
</defs>
</svg>
