<svg width="180" height="139" viewBox="0 0 180 139" fill="none" xmlns="http://www.w3.org/2000/svg">
<path d="M56.951 67.1071L53.4828 65.3729C52.671 64.967 52.1582 64.1373 52.1582 63.2295V54.2097C52.1582 53.3021 52.671 52.4722 53.4828 52.0663L56.951 50.3321V67.1071Z" fill="#CC8D31"/>
<path d="M112.069 98.2603V81.4856H68.9336V98.2603L90.5014 117.432L112.069 98.2603Z" fill="#E6AF78"/>
<path d="M145.417 106.107L115.763 99.1298C115.315 99.0244 114.904 98.8455 114.518 98.6286L90.5003 112.639L67.4191 97.951C66.8216 98.5135 66.0799 98.9316 65.2375 99.13L35.5837 106.107C31.2535 107.126 28.1934 110.99 28.1934 115.438V134.207C28.1934 136.854 30.3392 139 32.9861 139H148.014C150.661 139 152.807 136.854 152.807 134.207V115.438C152.807 110.99 149.747 107.126 145.417 106.107Z" fill="#191E37"/>
<path d="M68.9336 81.4856V99.1844C96.1032 108.973 112.069 84.4741 112.069 84.4741V81.4853H68.9336V81.4856Z" fill="#D29B6E"/>
<path d="M59.3477 26.3683L61.4359 72.3108C61.6308 76.6027 63.7354 80.5829 67.1723 83.1606L77.0809 90.5922C79.5699 92.4586 82.5969 93.468 85.7081 93.468H95.2939C98.4051 93.468 101.432 92.4589 103.921 90.5922L113.83 83.1606C117.267 80.5826 119.371 76.6029 119.566 72.3108L121.654 26.3683C121.654 26.3683 59.3477 26.3683 59.3477 26.3683Z" fill="#F0C087"/>
<path d="M83.312 35.9538C92.8978 35.9538 107.276 33.5575 110.686 26.368H59.3477L61.4359 72.3105C61.6308 76.6024 63.7354 80.5823 67.1726 83.1603L77.0812 90.5919C79.5701 92.4584 82.5972 93.4677 85.7084 93.4677H90.5011C85.7084 93.4677 76.1226 83.882 76.1226 71.9001C76.1226 66.0398 76.1226 50.3324 76.1226 43.143C76.1226 40.7466 78.519 35.9538 83.312 35.9538Z" fill="#F0C087"/>
<path d="M45.7861 123.447L30.2575 109.498C28.9562 111.145 28.1934 113.219 28.1934 115.438V134.207C28.1934 136.854 30.3392 139 32.9861 139H49.7612V132.361C49.7609 128.96 48.3158 125.719 45.7861 123.447Z" fill="#191E37"/>
<path d="M135.213 123.447L150.742 109.498C152.043 111.145 152.806 113.219 152.806 115.438V134.207C152.806 136.854 150.66 139 148.013 139H131.238V132.361C131.238 128.96 132.683 125.719 135.213 123.447Z" fill="#191E37"/>
<path d="M96.492 139H84.5098L86.0075 117.431H94.9942L96.492 139Z" fill="#5B5D6E"/>
<path d="M96.492 112.639H84.5098V117.149C84.5098 118.629 85.7092 119.828 87.189 119.828H93.8124C95.2923 119.828 96.4917 118.629 96.4917 117.149V112.639H96.492Z" fill="#515262"/>
<path d="M68.5967 92.925L90.5011 112.639C90.5011 112.639 84.3667 115.736 76.7966 121.977C75.235 123.265 72.8728 122.743 72.0353 120.901L61.7441 98.2605L64.9998 93.3773C65.8099 92.1611 67.5105 91.9477 68.5967 92.925Z" fill="white"/>
<path d="M112.404 92.925L90.5 112.639C90.5 112.639 96.6345 115.736 104.205 121.977C105.766 123.265 108.128 122.743 108.966 120.901L119.257 98.2605L116.001 93.3773C115.191 92.1611 113.49 91.9477 112.404 92.925Z" fill="white"/>
<path d="M105.029 10.492L107.276 26.3683C117.531 28.4194 119.009 44.5134 119.222 49.1101C119.26 49.9444 119.527 50.7499 119.979 51.4517L123.892 57.5215C123.892 57.5215 122.553 47.4864 128.685 40.7466C128.685 40.7466 130.791 0.906203 105.029 10.492Z" fill="#1B1B1B"/>
<path d="M61.6435 6.19822L65.1879 8.61958C49.162 20.4519 52.1573 40.7466 52.1573 40.7466C56.9501 45.5393 56.9501 57.5215 56.9501 57.5215L61.7428 52.7288C61.7428 52.7288 59.8932 38.8837 68.932 33.5574C77.3194 28.6148 84.6584 31.1611 92.1473 31.1611C112.217 31.1611 117.834 23.5973 116.86 14.3861C116.356 9.61999 109.069 -0.308134 90.4999 0.00760017C83.0059 0.134926 68.9325 2.40398 61.6435 6.19822Z" fill="#1A1A1A"/>
<path d="M60.2453 29.0641C60.2453 29.0641 57.6991 19.029 65.1879 8.61984C49.162 20.4521 52.1573 40.7468 52.1573 40.7468C56.9501 45.5396 56.9501 57.5218 56.9501 57.5218L61.7428 52.729C61.7428 52.729 59.8932 38.8839 68.9319 33.5577C77.3194 28.6151 84.6584 31.1613 92.1473 31.1613C95.4113 31.1613 98.2556 30.9428 100.789 30.5681C85.333 31.0861 76.2218 19.3784 60.2453 29.0641Z" fill="#1B1B1B"/>
<path d="M60.5458 69.5035H56.9511C55.6276 69.5035 54.5547 68.4306 54.5547 67.1071V50.3321C54.5547 49.0086 55.6276 47.9357 56.9511 47.9357H60.5458C61.2074 47.9357 61.7441 48.4722 61.7441 49.1341V68.3052C61.7439 68.9674 61.2074 69.5035 60.5458 69.5035Z" fill="#F4A022"/>
<path d="M100.086 83.2829V79.6881C116.305 79.6881 119.857 70.6062 119.857 67.107H123.451C123.451 71.6063 119.254 83.2829 100.086 83.2829Z" fill="#CC8D31"/>
<path d="M100.086 83.8819H97.6894C96.3659 83.8819 95.293 82.809 95.293 81.4856C95.293 80.1621 96.3659 79.0892 97.6894 79.0892H100.086C101.409 79.0892 102.482 80.1621 102.482 81.4856C102.482 82.809 101.409 83.8819 100.086 83.8819Z" fill="#F4A022"/>
<path d="M124.051 67.1071L127.519 65.3729C128.331 64.967 128.844 64.1373 128.844 63.2295V54.2097C128.844 53.3021 128.331 52.4722 127.519 52.0663L124.051 50.3321V67.1071Z" fill="#CC8D31"/>
<path d="M120.456 69.5035H124.051C125.374 69.5035 126.447 68.4306 126.447 67.1071V50.3321C126.447 49.0086 125.374 47.9357 124.051 47.9357H120.456C119.795 47.9357 119.258 48.4722 119.258 49.1341V68.3052C119.258 68.9674 119.795 69.5035 120.456 69.5035Z" fill="#F4A022"/>
<path d="M121.654 134.206H104.879C103.555 134.206 102.482 135.279 102.482 136.603V138.999H124.05V136.603C124.05 135.28 122.977 134.206 121.654 134.206Z" fill="#F4A022"/>
</svg>
