<svg width="180" height="139" viewBox="0 0 180 139" fill="none" xmlns="http://www.w3.org/2000/svg">
<path d="M115.212 13.6362V7.81825C115.212 4.605 112.607 2 109.394 2C106.181 2 103.576 4.605 103.576 7.81825V13.6365L115.212 13.6362Z" fill="#F4A022"/>
<path d="M76.4627 13.6362V7.81825C76.4627 4.605 73.8577 2 70.6444 2C67.4312 2 64.8262 4.605 64.8262 7.81825V13.6365L76.4627 13.6362Z" fill="#F4A022"/>
<path d="M26 22.2833C26 17.5705 29.8205 13.75 34.5333 13.75H145.467C150.179 13.75 154 17.5705 154 22.2833V128.717C154 133.429 150.179 137.25 145.467 137.25H34.5333C29.8205 137.25 26 133.429 26 128.717V22.2833Z" fill="#F4A022"/>
<path d="M26 22.2833C26 17.5705 29.8205 13.75 34.5333 13.75H145.467C150.179 13.75 154 17.5705 154 22.2833V39.7167C154 44.4295 150.179 48.25 145.467 48.25H34.5333C29.8205 48.25 26 44.4295 26 39.7167V22.2833Z" fill="#191E37"/>
<path d="M87.5935 63.0133C87.5935 59.243 90.6499 56.1866 94.4202 56.1866C98.1904 56.1866 101.247 59.243 101.247 63.0133V116.347C101.247 120.117 98.1904 123.173 94.4202 123.173C90.6499 123.173 87.5935 120.117 87.5935 116.347V63.0133Z" fill="white"/>
<path d="M89.8094 57.9639C92.6061 55.4354 96.923 55.6529 99.4515 58.4496C101.98 61.2464 101.763 65.5633 98.9658 68.0918L81.778 83.6309C78.9812 86.1594 74.6643 85.9419 72.1358 83.1452C69.6074 80.3485 69.8248 76.0315 72.6216 73.5031L89.8094 57.9639Z" fill="white"/>
</svg>
